<?xml version="1.0" encoding="UTF-8" standalone="no"?>
<!-- Created with Inkscape (http://www.inkscape.org/) -->

<svg
   xmlns:dc="http://purl.org/dc/elements/1.1/"
   xmlns:cc="http://creativecommons.org/ns#"
   xmlns:rdf="http://www.w3.org/1999/02/22-rdf-syntax-ns#"
   xmlns:svg="http://www.w3.org/2000/svg"
   xmlns="http://www.w3.org/2000/svg"
   xmlns:sodipodi="http://sodipodi.sourceforge.net/DTD/sodipodi-0.dtd"
   xmlns:inkscape="http://www.inkscape.org/namespaces/inkscape"
   version="1.1"
   id="svg2"
   xml:space="preserve"
   width="300"
   height="312.63113"
   viewBox="0 0 299.99999 312.63112"
   sodipodi:docname="cool.svg"
   inkscape:version="0.92.2 2405546, 2018-03-11"><metadata
     id="metadata8"><rdf:RDF><cc:Work
         rdf:about=""><dc:format>image/svg+xml</dc:format><dc:type
           rdf:resource="http://purl.org/dc/dcmitype/StillImage" /><dc:title></dc:title></cc:Work></rdf:RDF></metadata><defs
     id="defs6" /><sodipodi:namedview
     pagecolor="#ffffff"
     bordercolor="#666666"
     borderopacity="1"
     objecttolerance="10"
     gridtolerance="10"
     guidetolerance="10"
     inkscape:pageopacity="0"
     inkscape:pageshadow="2"
     inkscape:window-width="1920"
     inkscape:window-height="1017"
     id="namedview4"
     showgrid="false"
     inkscape:zoom="0.62578945"
     inkscape:cx="141.42138"
     inkscape:cy="460.48107"
     inkscape:window-x="0"
     inkscape:window-y="32"
     inkscape:window-maximized="1"
     inkscape:current-layer="layer1"
     fit-margin-top="0"
     fit-margin-left="0"
     fit-margin-right="0"
     fit-margin-bottom="0" /><g
     inkscape:groupmode="layer"
     id="layer1"
     inkscape:label="ink_ext_XXXXXX 1"
     style="display:inline"
     transform="translate(-92.67749,-674.48297)"><circle
       style="fill:#196aff;fill-opacity:1;stroke:none;stroke-width:2.88757133;stroke-linecap:square;stroke-linejoin:miter;stroke-miterlimit:4;stroke-dasharray:none;stroke-opacity:1;paint-order:normal"
       id="path920"
       cx="242.67749"
       cy="828.77881"
       r="150" /></g><g
     id="g10"
     inkscape:groupmode="layer"
     inkscape:label="ink_ext_XXXXXX"
     transform="matrix(1.3333333,0,0,-1.3333333,-92.67749,392.18373)"><path
       inkscape:connector-curvature="0"
       id="path16"
       style="fill:#efeddd;fill-opacity:1;fill-rule:nonzero;stroke:none;stroke-width:0.03557041"
       d="m 107.053,126.71912 c 0,0 0.11133,-6.73668 3.44641,-16.28697 0.86116,-2.46752 2.30923,-3.51613 3.66909,-5.53511 1.39507,-2.07091 1.07707,-6.840904 2.46183,-8.782689 7.80486,-10.945015 7.41998,-5.890107 9.59511,-11.696264 2.32381,-6.203476 1.41641,-16.403609 1.6028,-18.660551 0.0722,-0.870764 10.4641,-1.545926 10.67645,-1.546317 0.69434,-9.93e-4 1.27699,16.258557 1.27699,19.454912 0,3.195645 -1.93646,11.092628 -1.93646,16.543799 0,5.45222 -30.79222,26.50919 -30.79222,26.50919" /><path
       inkscape:connector-curvature="0"
       id="path18"
       style="fill:#efeddd;fill-opacity:1;fill-rule:nonzero;stroke:none;stroke-width:0.03557041"
       d="m 204.18972,122.95293 c 0,0 -2.0791,-7.78742 -0.57339,-15.18002 0.38095,-1.86532 0.98921,-3.70609 1.91653,-5.38998 0.53711,-0.97534 1.18093,-1.89769 1.94961,-2.742488 0.64133,-0.705007 1.2752,-1.402539 1.8991,-2.092251 6.53713,-7.22755 11.98474,-13.658675 13.39937,-19.151458 1.55016,-6.016414 2.25517,-9.817432 2.32737,-11.628357 0.0164,-0.422541 9.55386,0.71685 9.55386,0.71685 0,0 1.06568,17.967249 -0.8423,22.755385 -1.90764,4.78884 -5.42165,12.218789 -5.61586,17.107579 -0.19421,4.88915 2.90361,21.80822 0.96787,21.2455 -1.93575,-0.56486 -24.98216,-5.64076 -24.98216,-5.64076" /><path
       inkscape:connector-curvature="0"
       id="path20"
       style="fill:#ffffff;fill-opacity:1;fill-rule:nonzero;stroke:none;stroke-width:0.03557041"
       d="m 269.26008,162.63456 c 1.16173,-0.37597 5.03605,0.75231 6.9718,9.02421 0.75551,3.2273 -0.19954,5.71083 -2.2886,7.83012 -1.79239,1.81728 -2.0204,3.06012 -5.11894,4.58146 -2.54755,1.24995 -7.81233,2.78837 -10.79633,4.13257 -10.24214,4.61598 -20.30749,6.56025 -29.82684,6.08255 -0.75161,-0.0377 -7.55516,-1.87742 -8.32953,-1.75292 -10.62487,1.71984 -10.2055,-0.4674 -12.02351,-0.39767 -3.64561,0.13801 -8.69803,1.83508 -12.67942,1.68852 -4.80058,-0.17572 -9.39664,-2.48566 -11.20219,-2.00724 -1.51067,0.3991 -3.18782,0.84979 -6.23691,0.55668 -1.30437,-0.12521 -4.18984,-1.52881 -5.51911,-1.67216 -3.58834,-0.38737 -5.29359,1.85179 -10.929,0.25433 -1.55301,-0.44001 -2.63115,1.96348 -3.6698,3.72315 1.28729,8.74179 -3.88429,15.66129 -3.88429,15.66129 2.13422,4.95815 1.65829,15.72638 0,17.70126 -0.0349,0.70962 3.9661,9.88644 2.02609,16.69638 -0.68224,2.39745 -1.53629,5.95556 -1.79061,6.28637 0.25895,0.79535 1.79061,3.64134 -0.64596,9.30841 -1.68106,3.90884 -4.51069,6.72672 -4.51069,6.72672 8.36652,2.5312 -0.75764,32.55724 -3.74236,26.19689 -1.24034,-2.64145 -3.89318,-17.12643 -4.29584,-18.15157 -0.2874,-0.73239 -18.06834,1.73867 -23.77276,0.85511 -9.35502,-1.44842 -14.53407,-6.7662 -14.8261,-6.21699 -0.99562,1.88451 -4.353109,13.38407 -5.301769,17.87163 -2.540087,12.01604 -15.331914,-17.0745 -1.383338,-23.25237 0.491584,-0.21769 0.967162,-1.69956 1.355591,-3.95898 -2.12462,-4.5203 -0.164339,-10.61884 -0.164339,-10.61884 -8.781619,-3.53819 -0.995255,-16.14185 -0.995255,-16.14185 -1.949616,-2.04956 -5.710474,-4.55905 -4.442745,-14.20077 0.871116,-6.63423 3.657703,-8.52552 3.657703,-8.52552 -4.776751,-2.46858 -4.039375,-9.4073 -2.631141,-12.01426 0.887483,-1.64228 2.111105,-1.69848 2.111105,-1.69848 -4.266669,-6.12095 0.663028,-10.49149 0.801398,-10.61208 -0.06937,-0.0868 -1.693861,-2.14702 -2.119993,-6.39199 -0.185321,-1.84433 0.919495,-5.28897 0.746263,-7.22329 -0.286337,-3.20062 -1.407161,-6.83271 0.177145,-12.61468 0.380956,-1.3901 3.005339,-4.44275 3.005339,-4.44275 0,0 -2.009727,-4.85607 -0.830564,-11.01295 0.701445,-3.65735 4.69351,-6.76656 5.82678,-10.47655 0.99633,-3.26216 2.3071,-8.82217 3.70146,-11.47217 2.46183,-4.67893 10.49612,-7.54306 10.49612,-7.54306 0,0 2.74496,-7.8888 6.72067,-9.64207 5.71225,-2.52052 3.7452,1.35879 13.67291,-6.729915 0.60042,-0.488383 10.13401,-18.246908 11.28435,-22.665108 1.38405,-5.317063 2.13387,-11.147408 2.13387,-11.147408 0,0 7.97239,-1.511315 10.58681,1.307924 1.28304,1.384044 0.57411,19.572967 -2.23275,23.428088 -2.22777,3.059413 -0.3436,14.483909 -0.3436,14.483909 3.6e-4,0 2.75848,-1.52348 5.20252,-1.38333 1.73939,0.0996 4.73905,1.64905 6.89355,1.67324 0.67085,0.007 5.13707,-0.62925 7.05788,-0.31978 1.55157,0.25041 7.05751,2.74958 9.27355,3.82452 3.00429,1.45875 10.95569,1.2151 13.41822,2.33094 3.4265,1.55193 9.34507,2.3046 12.92558,3.40514 5.59558,1.72055 7.81659,2.98792 7.81659,2.98792 0,0 -0.20594,-0.52039 -0.1846,-3.42578 0.0125,-1.67359 3.50332,-5.20645 3.77544,-7.52883 0.82025,-7.010221 12.93269,-14.065611 17.58102,-20.458319 4.64728,-6.392004 3.04874,-19.935755 3.04874,-19.935755 l 10.26883,1.408944 c 0,0 1.01233,6.494764 2.17442,18.151539 1.16243,11.657137 -5.03464,5.264063 -2.71047,11.280086 1.93006,4.997645 4.9297,8.178355 8.77593,14.931385 0.78362,1.37658 1.6028,2.90148 2.45543,4.62025 5.03499,10.15214 5.42306,11.65606 6.58514,19.92938 1.16209,8.2719 -1.54909,18.42298 -2.32416,20.30359 -0.77473,1.88025 -1.93646,6.76762 -0.77473,6.39093" /><path
       inkscape:connector-curvature="0"
       id="path22"
       style="fill:#fef2e2;fill-opacity:1;fill-rule:nonzero;stroke:none;stroke-width:0.03557041"
       d="m 146.25763,259.77698 c -5.4003,5.24521 -21.24869,3.72707 -21.24869,3.72707 0,0 -15.84876,1.51814 -21.25048,-3.72707 0,0 -16.784959,-37.87644 21.25048,-38.13681 38.03543,0.26037 21.24869,38.13681 21.24869,38.13681" /><path
       inkscape:connector-curvature="0"
       id="path24"
       style="fill:#eedbcc;fill-opacity:1;fill-rule:nonzero;stroke:none;stroke-width:0.03557041"
       d="m 140.83883,235.8292 c 0,4.36627 -6.99599,9.40233 -14.38112,9.40233 -7.38263,0 -13.96031,-4.89875 -13.96031,-9.26502 0,-2.32809 2.18544,-3.45745 4.74331,-5.11396 2.59877,-1.68355 5.35548,-5.50737 9.42794,-5.50737 4.08917,0 6.84552,3.85655 9.45533,5.53831 2.52763,1.62877 4.71485,2.68486 4.71485,4.94571" /><path
       inkscape:connector-curvature="0"
       id="path26"
       style="fill:#ffffff;fill-opacity:1;fill-rule:nonzero;stroke:none;stroke-width:0.03557041"
       d="m 147.28312,267.51958 c -0.18105,1.4936 -1.34491,2.74746 -2.76809,2.66281 0.72493,1.24354 1.16707,4.04649 -1.3442,5.24521 -1.55301,0.74342 -3.34896,-0.67939 -3.34896,-0.67939 0,0 -0.33899,3.20062 -3.70394,3.76405 -3.57198,0.60186 -5.43267,-3.04411 -5.43267,-3.04411 0,2.88049 -4.78458,4.51246 -7.41359,3.99385 -3.23263,-0.63636 -4.74153,-3.09036 -4.74153,-3.09036 -6.44535,3.91452 -8.76633,-2.41274 -8.76633,-2.41274 -1.46549,3.52432 -6.53747,2.34907 -8.08977,0.17998 -1.990876,-2.78054 0.43538,-5.07128 0.43538,-5.07128 0,0 -4.343862,-3.14833 -2.364721,-6.69043 2.233471,-3.99953 6.345041,-1.447 6.345041,-1.447 1.78137,-8.52516 8.12571,-0.96645 8.12571,-0.96645 0.5268,-3.97961 2.27401,-7.38548 7.12653,-6.15546 3.34006,0.84658 4.31256,5.39319 4.31256,5.39319 1.24248,-4.63696 4.73513,-3.92128 6.04767,-2.55324 0.82666,0.86115 0.85477,2.04885 0.85477,2.04885 3.12521,-4.20051 5.3448,0.78433 5.3448,0.78433 2.72078,-1.66861 5.39034,-1.50819 6.72458,0.38558 0.75481,1.06995 0.95827,2.26263 0.53391,4.21296 1.11727,0.34574 2.37646,1.34633 2.12285,3.43965" /><path
       inkscape:connector-curvature="0"
       id="path28"
       style="fill:#58595b;fill-opacity:1;fill-rule:nonzero;stroke:none;stroke-width:0.03557041"
       d="m 126.72165,240.60738 c -2.47428,0 -7.20301,-0.10422 -6.3166,-1.92685 0.4923,-1.01091 3.05159,-2.32986 6.3166,-2.37432 v 0 0 0 0 c 3.265,0.0444 5.8243,1.36341 6.3173,2.37432 0.88499,1.82263 -3.84338,1.92685 -6.3173,1.92685" /><path
       inkscape:connector-curvature="0"
       id="path30"
       style="fill:#fef2e2;fill-opacity:1;fill-rule:nonzero;stroke:none;stroke-width:0.03557041"
       d="m 107.74448,270.07745 c -0.15687,-0.0484 -0.31053,-0.10849 -0.41653,-0.1718 -0.11596,-0.0758 -0.21876,-0.1526 -0.28847,-0.25113 -0.0736,-0.0939 -0.1302,-0.1928 -0.16043,-0.30697 -0.0356,-0.10778 -0.0547,-0.22588 -0.0641,-0.34503 -0.007,-0.24188 0.0156,-0.49692 0.0882,-0.74484 0.0352,-0.12379 0.0708,-0.24794 0.11667,-0.36923 0.0495,-0.12058 0.10529,-0.23726 0.16683,-0.35072 0.24721,-0.44855 0.52822,-0.87611 0.96182,-1.12474 0.1092,-0.058 0.22837,-0.10387 0.35713,-0.12984 0.1284,-0.0171 0.26536,-0.0295 0.40195,-0.007 0.13445,0.027 0.27709,0.053 0.40692,0.11774 0.13552,0.0491 0.25397,0.13837 0.37811,0.21449 l 0.32369,0.19884 -0.0477,-0.37421 c -0.0277,-0.21662 -0.0665,-0.43182 -0.0818,-0.64809 -0.005,-0.21769 0.0321,-0.43289 0.0506,-0.64346 0.0505,-0.20702 0.12592,-0.40657 0.18674,-0.60044 0.10778,-0.17998 0.18639,-0.36637 0.30413,-0.52572 0.13375,-0.15011 0.22161,-0.32334 0.37741,-0.44499 0.0708,-0.0654 0.13979,-0.1309 0.20559,-0.19919 0.0754,-0.0587 0.16077,-0.10636 0.23832,-0.16114 0.14727,-0.12058 0.33614,-0.18248 0.50794,-0.26536 0.16754,-0.0904 0.37385,-0.10671 0.55419,-0.16931 0.18995,-0.0423 0.39056,-0.0533 0.58371,-0.0942 0.20097,-0.003 0.40266,-0.011 0.60612,-0.0231 0.20595,0.0171 0.4112,0.0345 0.62213,0.0409 l 0.62889,0.10814 c 0.21306,0.0335 0.41759,0.10991 0.63208,0.16113 0.21983,0.0409 0.4208,0.1341 0.63457,0.20524 0.21414,0.0726 0.4329,0.14229 0.63992,0.24117 0.20986,0.0914 0.42862,0.17714 0.65449,0.26144 l 0.0715,-0.09 c -0.15473,-0.17643 -0.31729,-0.35036 -0.48838,-0.51826 -0.16256,-0.17893 -0.35819,-0.31836 -0.55205,-0.4642 -0.19635,-0.14228 -0.39057,-0.2931 -0.61217,-0.40372 -0.22018,-0.11027 -0.43467,-0.23832 -0.66802,-0.3308 -0.23653,-0.0857 -0.47663,-0.16826 -0.72029,-0.24366 -0.25148,-0.0537 -0.50688,-0.0978 -0.76299,-0.14228 -0.2625,-0.009 -0.52679,-0.0185 -0.79144,-0.0103 -0.26429,0.0395 -0.53177,0.0701 -0.79144,0.13978 -0.25291,0.10032 -0.51755,0.15865 -0.7516,0.30235 -0.23797,0.13233 -0.47593,0.26002 -0.67442,0.44962 -0.10173,0.0882 -0.20773,0.17145 -0.3027,0.26678 l -0.25149,0.31336 c -0.18283,0.19706 -0.27068,0.45424 -0.38664,0.68545 -0.10032,0.23832 -0.13162,0.49905 -0.1928,0.7388 -0.0114,0.25184 -0.031,0.49834 -0.0241,0.73915 0.0281,0.24081 0.0441,0.47984 0.074,0.71247 0.0576,0.23014 0.0929,0.46064 0.13873,0.69079 l 0.27567,-0.17538 c -0.26962,-0.18353 -0.55099,-0.36245 -0.88214,-0.48019 -0.16684,-0.0544 -0.34148,-0.10173 -0.5261,-0.11987 -0.18461,-0.0146 -0.37526,-0.0121 -0.56414,0.0217 -0.37918,0.0676 -0.7324,0.24615 -1.01731,0.48163 -0.14015,0.12129 -0.26856,0.25219 -0.38132,0.39376 -0.11063,0.14264 -0.20311,0.29595 -0.28457,0.45317 -0.15081,0.31942 -0.25753,0.65485 -0.30518,1.0038 -0.0192,0.175 -0.0252,0.35214 -0.0178,0.53107 0.009,0.17856 0.0405,0.35854 0.0949,0.53568 0.0609,0.17572 0.12983,0.35286 0.24756,0.51009 0.10991,0.15793 0.25966,0.29593 0.42542,0.39696 0.16932,0.0985 0.35322,0.15296 0.53356,0.17358 0.0942,0.002 0.18781,0.006 0.27211,3.6e-4 l 0.23832,-0.0473 0.008,-0.11312" /><path
       inkscape:connector-curvature="0"
       id="path32"
       style="fill:#fef2e2;fill-opacity:1;fill-rule:nonzero;stroke:none;stroke-width:0.03557041"
       d="m 98.794614,219.39248 c -0.156508,-0.0488 -0.310177,-0.10778 -0.416177,-0.17217 -0.116313,-0.0762 -0.218753,-0.15223 -0.288472,-0.25041 -0.07328,-0.094 -0.129834,-0.19386 -0.160068,-0.30733 -0.03555,-0.10778 -0.05547,-0.22587 -0.06438,-0.34538 -0.0068,-0.24117 0.01563,-0.49658 0.08857,-0.7445 0.03519,-0.12414 0.07078,-0.24828 0.116671,-0.36887 0.04944,-0.12129 0.104933,-0.23796 0.166468,-0.35142 0.247215,-0.44784 0.528225,-0.87575 0.961472,-1.12474 0.109913,-0.0584 0.229071,-0.10316 0.357838,-0.12948 0.128051,-0.0171 0.265003,-0.0295 0.401596,-0.008 0.134818,0.0277 0.277088,0.0537 0.406568,0.11811 0.13588,0.0495 0.25468,0.13907 0.37882,0.21484 l 0.32369,0.1992 -0.0477,-0.37421 c -0.0277,-0.21733 -0.0665,-0.43289 -0.0821,-0.6488 -0.005,-0.21626 0.0324,-0.43218 0.0505,-0.64276 0.0508,-0.20808 0.12628,-0.40621 0.18674,-0.60078 0.1078,-0.17963 0.18641,-0.36602 0.30449,-0.52608 0.1334,-0.14941 0.22161,-0.32299 0.37741,-0.44463 0.0701,-0.0665 0.13979,-0.13162 0.20524,-0.1992 0.0758,-0.0587 0.16077,-0.10707 0.23867,-0.16078 0.14728,-0.12165 0.33615,-0.18283 0.50759,-0.26536 0.16755,-0.0907 0.3742,-0.10742 0.55456,-0.16966 0.18994,-0.0424 0.39055,-0.0537 0.58369,-0.0936 0.20099,-0.003 0.40266,-0.0117 0.60614,-0.0238 0.2056,0.0167 0.41082,0.0342 0.62176,0.0409 l 0.62889,0.10743 c 0.21343,0.0338 0.41795,0.11027 0.63208,0.16185 0.22018,0.0402 0.42081,0.13445 0.63494,0.20559 0.21378,0.0722 0.43254,0.14192 0.63992,0.23975 0.2095,0.0928 0.42826,0.1782 0.65412,0.26251 l 0.0719,-0.0897 c -0.15508,-0.17644 -0.31729,-0.35108 -0.48874,-0.51826 -0.16256,-0.17892 -0.35819,-0.31835 -0.55205,-0.4642 -0.19635,-0.14299 -0.39057,-0.29345 -0.61146,-0.40443 -0.22053,-0.10955 -0.43466,-0.23832 -0.66872,-0.3301 -0.2369,-0.0854 -0.47664,-0.16788 -0.7203,-0.24401 -0.25148,-0.0544 -0.50652,-0.0978 -0.763,-0.14157 -0.26214,-0.009 -0.52678,-0.0189 -0.79143,-0.011 -0.26428,0.0398 -0.53142,0.0704 -0.79108,0.14015 -0.25256,0.0992 -0.51791,0.15864 -0.75197,0.30163 -0.23796,0.13268 -0.47592,0.26073 -0.67442,0.44926 -0.10172,0.0893 -0.20808,0.17251 -0.30234,0.26677 l -0.25183,0.31373 c -0.18284,0.19742 -0.2707,0.45459 -0.38666,0.68616 -0.10031,0.23761 -0.13126,0.49834 -0.19279,0.73951 -0.011,0.25112 -0.031,0.49798 -0.0242,0.73844 0.0281,0.24045 0.0441,0.47913 0.0744,0.71211 0.0576,0.22979 0.0924,0.461 0.13837,0.69078 l 0.27567,-0.17536 c -0.26962,-0.18283 -0.55098,-0.36246 -0.88214,-0.48055 -0.166465,-0.054 -0.341113,-0.10031 -0.525725,-0.11952 -0.184612,-0.0143 -0.375624,-0.0121 -0.564501,0.0217 -0.378827,0.0672 -0.732043,0.24615 -1.017317,0.48162 -0.139789,0.12166 -0.268198,0.25184 -0.380956,0.39341 -0.110981,0.14299 -0.203109,0.29559 -0.284917,0.45317 -0.151175,0.32013 -0.257533,0.6545 -0.304844,1.00416 -0.01921,0.17499 -0.02523,0.35214 -0.01778,0.5307 0.0085,0.17963 0.0402,0.35926 0.09426,0.5364 0.06154,0.17643 0.129835,0.35286 0.247931,0.51008 0.110266,0.15758 0.259663,0.29595 0.425422,0.39626 0.169313,0.0992 0.353568,0.15366 0.533909,0.17465 0.0939,0.002 0.187457,0.006 0.271758,6e-4 l 0.238681,-0.0491 0.0074,-0.11239" /><path
       inkscape:connector-curvature="0"
       id="path34"
       style="fill:#fef2e2;fill-opacity:1;fill-rule:nonzero;stroke:none;stroke-width:0.03557041"
       d="m 130.93034,271.56039 -0.1494,0.18674 c -0.0434,0.0701 -0.0804,0.15366 -0.12022,0.23547 -0.0609,0.16719 -0.0918,0.35073 -0.0762,0.54245 0.0203,0.18817 0.0811,0.38025 0.1782,0.54565 0.0925,0.17252 0.22623,0.31018 0.36104,0.44179 0.1398,0.12557 0.29204,0.23298 0.45316,0.31942 0.1615,0.0857 0.32796,0.159 0.49799,0.22019 0.34397,0.11204 0.70075,0.16931 1.06249,0.1782 0.18176,-9.9e-4 0.36353,-0.0135 0.54458,-0.0466 0.18106,-0.0356 0.35891,-0.09 0.53285,-0.15757 0.3429,-0.14477 0.66516,-0.37277 0.89424,-0.67299 0.11525,-0.14975 0.20168,-0.3148 0.26997,-0.48127 0.0647,-0.16931 0.0992,-0.34182 0.12272,-0.51079 0.0369,-0.34041 -0.004,-0.66445 -0.0533,-0.98067 l -0.2842,0.16184 c 0.19172,0.14228 0.39021,0.27496 0.57695,0.42684 0.20168,0.13019 0.41474,0.2497 0.62426,0.38097 0.22017,0.1124 0.45672,0.20417 0.69326,0.30661 0.24971,0.0523 0.50403,0.14122 0.76904,0.159 0.26393,0.002 0.54066,0.0387 0.80424,-0.0324 l 0.40089,-0.0804 c 0.12911,-0.0402 0.25361,-0.096 0.38095,-0.14512 0.26144,-0.0893 0.48554,-0.23975 0.71283,-0.38843 0.23618,-0.13979 0.40835,-0.34396 0.61287,-0.52075 0.17928,-0.19457 0.32619,-0.41333 0.4795,-0.62639 0.12449,-0.22695 0.23227,-0.461 0.34041,-0.69363 0.0726,-0.24259 0.14583,-0.48447 0.20737,-0.72706 0.0369,-0.24544 0.0676,-0.49087 0.0939,-0.73453 0.0182,-0.24401 -0.006,-0.48767 -0.01,-0.72848 -0.004,-0.24153 -0.0573,-0.477 -0.10208,-0.71105 -0.0488,-0.23405 -0.09,-0.46526 -0.18391,-0.6865 -0.0789,-0.22304 -0.1686,-0.4418 -0.26286,-0.65521 l -0.11383,0.0238 c -0.0227,0.23334 -0.0405,0.46171 -0.0473,0.68544 -0.002,0.22303 -0.0339,0.44463 -0.0623,0.66304 -0.0295,0.21732 -0.0317,0.43396 -0.0918,0.64346 -0.0466,0.20951 -0.0679,0.4208 -0.13054,0.62177 l -0.17892,0.5951 c -0.0872,0.18567 -0.16256,0.37312 -0.23832,0.55952 -0.1,0.17145 -0.19778,0.34325 -0.28954,0.51754 -0.12272,0.15011 -0.22161,0.31908 -0.3454,0.46633 -0.13801,0.12877 -0.24436,0.30165 -0.40265,0.40729 -0.15118,0.11276 -0.29168,0.2497 -0.46918,0.32475 -0.0854,0.0431 -0.16718,0.0964 -0.25432,0.13553 l -0.27531,0.0911 c -0.18071,0.0814 -0.3799,0.0814 -0.57839,0.1309 -0.19884,0.032 -0.40621,0.0178 -0.61963,0.032 -0.20666,-0.0324 -0.42364,-0.0551 -0.63813,-0.10422 -0.20239,-0.0762 -0.41831,-0.14014 -0.61608,-0.24081 -0.19314,-0.10849 -0.37491,-0.23868 -0.56273,-0.35819 l -0.32439,-0.20702 0.0402,0.36957 c 0.0156,0.14122 0.0452,0.28492 0.0303,0.424 0.003,0.14193 -0.0362,0.27709 -0.0708,0.40657 -0.0398,0.12912 -0.11169,0.24259 -0.18461,0.34646 -0.0804,0.10101 -0.17536,0.18426 -0.27816,0.25397 -0.4208,0.26714 -0.94013,0.32227 -1.46372,0.33899 -0.13162,0.004 -0.26429,3.5e-4 -0.39697,-0.0103 -0.13304,-0.0132 -0.26251,-0.0362 -0.3927,-0.0616 -0.26214,-0.0459 -0.50723,-0.14015 -0.72776,-0.25255 -0.10565,-0.0612 -0.20596,-0.12983 -0.29026,-0.20916 -0.0911,-0.0765 -0.15794,-0.16931 -0.212,-0.2746 -0.0605,-0.10494 -0.0854,-0.22801 -0.10387,-0.36211 -0.0125,-0.12166 0,-0.28172 0.0256,-0.43893 l -0.10813,-0.0431" /><path
       inkscape:connector-curvature="0"
       id="path36"
       style="fill:#fef2e2;fill-opacity:1;fill-rule:nonzero;stroke:none;stroke-width:0.03557041"
       d="m 147.06579,205.09139 0.14406,0.19173 c 0.0576,0.0601 0.13018,0.11809 0.20025,0.17857 0.14833,0.10208 0.32156,0.18211 0.51506,0.22088 0.19173,0.0339 0.39839,0.031 0.59012,-0.0132 0.19528,-0.0391 0.36922,-0.1245 0.53711,-0.2152 0.16292,-0.0939 0.31125,-0.20596 0.4425,-0.33294 0.12911,-0.12699 0.24792,-0.26073 0.35535,-0.40301 0.20701,-0.28883 0.36246,-0.60684 0.47308,-0.9412 0.0495,-0.16895 0.0879,-0.34325 0.10493,-0.52075 0.0149,-0.1782 0.0114,-0.3589 -0.008,-0.5396 -0.0466,-0.36104 -0.18319,-0.72492 -0.41618,-1.02193 -0.11596,-0.14941 -0.25503,-0.27532 -0.40159,-0.38595 -0.14975,-0.10778 -0.31016,-0.1871 -0.4713,-0.25575 -0.32618,-0.13054 -0.65841,-0.18211 -0.98459,-0.22373 l 0.0811,0.30981 c 0.19385,-0.14015 0.38095,-0.28705 0.583,-0.41937 0.1839,-0.15189 0.36175,-0.31694 0.55028,-0.47629 0.17251,-0.17287 0.32974,-0.36815 0.49584,-0.56094 0.12165,-0.2177 0.28102,-0.43005 0.37171,-0.67228 0.0762,-0.2458 0.18888,-0.49337 0.19244,-0.75801 l 0.0324,-0.39768 c -0.005,-0.13089 -0.0249,-0.26144 -0.0384,-0.39483 -0.0142,-0.26891 -0.10138,-0.51897 -0.18497,-0.7733 -0.0726,-0.25824 -0.22729,-0.47628 -0.34432,-0.71603 -0.14334,-0.2216 -0.31871,-0.41795 -0.4866,-0.62141 -0.18924,-0.17857 -0.39199,-0.34468 -0.5919,-0.50973 -0.22017,-0.13552 -0.43893,-0.27212 -0.6616,-0.3959 -0.23228,-0.10386 -0.46668,-0.20062 -0.70003,-0.2931 -0.23619,-0.0847 -0.48412,-0.13019 -0.72457,-0.19314 -0.23939,-0.0634 -0.48803,-0.0796 -0.73098,-0.10245 -0.24614,-0.0203 -0.48588,-0.0459 -0.73061,-0.0203 -0.24222,0.0125 -0.48447,0.0338 -0.72172,0.0626 l -0.009,0.11311 c 0.2248,0.0864 0.44605,0.16611 0.66553,0.23548 0.22088,0.063 0.43003,0.15508 0.63813,0.24187 0.20772,0.0875 0.42115,0.15011 0.61145,0.26465 0.1935,0.10173 0.39803,0.18069 0.57944,0.29523 l 0.53925,0.33223 c 0.15936,0.13339 0.32334,0.25575 0.4866,0.3774 0.14157,0.14157 0.28456,0.28136 0.43147,0.4151 0.11418,0.1558 0.25326,0.29489 0.36531,0.45175 0.0893,0.16398 0.22978,0.31089 0.29061,0.48732 0.0697,0.17393 0.1654,0.3429 0.19101,0.52928 0.0192,0.0907 0.0484,0.18248 0.0634,0.27461 l 0.0125,0.28171 c 0.0303,0.19244 -0.0242,0.37776 -0.031,0.57589 -0.0238,0.19528 -0.0946,0.3838 -0.14051,0.58655 -0.0904,0.18426 -0.17323,0.37955 -0.2803,0.56629 -0.13267,0.16718 -0.25539,0.35108 -0.41011,0.50758 -0.16221,0.14869 -0.34042,0.28315 -0.51186,0.42436 l -0.29417,0.24509 0.37526,0.0658 c 0.14478,0.0246 0.29488,0.0362 0.42969,0.0897 0.14015,0.0362 0.26393,0.11168 0.38132,0.17856 0.11738,0.0737 0.20951,0.17215 0.29238,0.26962 0.0765,0.10315 0.13269,0.2152 0.1743,0.32974 0.14584,0.46704 0.0558,0.96681 -0.0722,1.4591 -0.0345,0.12414 -0.074,0.24685 -0.12129,0.36779 -0.0498,0.11987 -0.11027,0.23405 -0.17074,0.34895 -0.11845,0.23085 -0.27959,0.43325 -0.45246,0.60789 -0.09,0.0811 -0.18603,0.15545 -0.28776,0.21237 -0.10137,0.064 -0.21128,0.10065 -0.33116,0.12093 -0.11987,0.027 -0.24899,0.0167 -0.38736,-0.004 -0.12343,-0.0221 -0.27816,-0.0787 -0.42756,-0.14584 l -0.0729,0.0882" /><path
       inkscape:connector-curvature="0"
       id="path38"
       style="fill:#fef2e2;fill-opacity:1;fill-rule:nonzero;stroke:none;stroke-width:0.03557041"
       d="m 223.80537,175.76253 0.1437,0.19172 c 0.0576,0.0601 0.13055,0.1181 0.20062,0.17857 0.14798,0.10209 0.32157,0.18176 0.51506,0.22018 0.19137,0.0346 0.39839,0.031 0.58976,-0.0125 0.196,-0.0391 0.36923,-0.12486 0.53747,-0.21556 0.16291,-0.0935 0.31124,-0.20596 0.4425,-0.33258 0.12911,-0.12699 0.24792,-0.26181 0.3557,-0.40338 0.20667,-0.28847 0.36211,-0.60683 0.47238,-0.94119 0.0495,-0.16931 0.0879,-0.3429 0.10528,-0.52075 0.015,-0.17786 0.011,-0.35926 -0.007,-0.5396 -0.0473,-0.36175 -0.18353,-0.72457 -0.41688,-1.02194 -0.11525,-0.14904 -0.25469,-0.27567 -0.40123,-0.38594 -0.1494,-0.10742 -0.31018,-0.18674 -0.47131,-0.25575 -0.32619,-0.13019 -0.65841,-0.18213 -0.98458,-0.22373 l 0.0811,0.30945 c 0.1935,-0.13978 0.3806,-0.28669 0.58229,-0.41866 0.18496,-0.15118 0.36282,-0.31764 0.55063,-0.47628 0.17323,-0.17323 0.33009,-0.36851 0.4962,-0.5606 0.12166,-0.2184 0.28101,-0.43039 0.37172,-0.67264 0.0758,-0.24579 0.18887,-0.49371 0.19243,-0.75836 l 0.0324,-0.39731 c -0.005,-0.13126 -0.0248,-0.2618 -0.0384,-0.39484 -0.0143,-0.26891 -0.10102,-0.51932 -0.18462,-0.77366 -0.0733,-0.25823 -0.228,-0.47629 -0.34432,-0.71567 -0.1437,-0.22161 -0.31942,-0.41831 -0.48696,-0.62212 -0.18958,-0.17857 -0.39233,-0.34433 -0.59188,-0.50937 -0.21983,-0.13518 -0.43859,-0.27176 -0.66162,-0.3959 -0.23263,-0.10387 -0.46596,-0.20062 -0.70001,-0.29274 -0.23655,-0.0847 -0.48412,-0.13019 -0.72458,-0.19351 -0.23938,-0.0641 -0.48802,-0.0793 -0.73133,-0.10244 -0.24615,-0.0203 -0.48589,-0.0455 -0.73025,-0.0203 -0.2426,0.0121 -0.48412,0.0339 -0.72102,0.0626 l -0.009,0.11348 c 0.2248,0.0861 0.4457,0.1654 0.66516,0.23511 0.2209,0.063 0.43076,0.15474 0.6385,0.24224 0.20737,0.0872 0.42115,0.15011 0.61145,0.26429 0.1935,0.10172 0.39803,0.18033 0.57944,0.29487 l 0.53888,0.33259 c 0.15972,0.13304 0.3237,0.25575 0.48662,0.37776 0.14156,0.14157 0.28456,0.28136 0.43182,0.41511 0.11382,0.1558 0.25326,0.29452 0.36495,0.45174 0.0893,0.16362 0.23014,0.31089 0.29061,0.48803 0.0704,0.17251 0.16612,0.34182 0.19137,0.52786 0.0192,0.0911 0.0488,0.18283 0.0634,0.27603 l 0.0125,0.28028 c 0.0303,0.19351 -0.0242,0.37813 -0.0313,0.57625 -0.0235,0.19528 -0.0946,0.38452 -0.1398,0.58691 -0.0911,0.1839 -0.17359,0.37918 -0.28065,0.56557 -0.13304,0.16753 -0.2554,0.35144 -0.41048,0.50795 -0.16185,0.14904 -0.34041,0.28314 -0.5115,0.42471 l -0.29417,0.24508 0.37562,0.0654 c 0.14478,0.0256 0.29488,0.0367 0.42934,0.0897 0.14014,0.0367 0.26393,0.1117 0.38131,0.17964 0.11702,0.0726 0.20951,0.17109 0.29204,0.26855 0.0765,0.10315 0.13303,0.21556 0.17429,0.32939 0.14583,0.46774 0.0565,0.96751 -0.0726,1.45909 -0.0338,0.1245 -0.0733,0.24758 -0.12093,0.36815 -0.0491,0.12023 -0.10992,0.23441 -0.17039,0.34931 -0.11845,0.23085 -0.27958,0.43324 -0.4528,0.60754 -0.0897,0.0814 -0.18604,0.1558 -0.28742,0.21271 -0.10137,0.0637 -0.21128,0.1 -0.33187,0.12094 -0.11987,0.027 -0.24828,0.0163 -0.387,-0.004 -0.12272,-0.0227 -0.27781,-0.0787 -0.42721,-0.14584 l -0.0729,0.0882" /><path
       inkscape:connector-curvature="0"
       id="path40"
       style="fill:#fef2e2;fill-opacity:1;fill-rule:nonzero;stroke:none;stroke-width:0.03557041"
       d="m 254.323,124.00225 0.1437,0.19173 c 0.0573,0.0601 0.13055,0.11809 0.20098,0.17857 0.14833,0.10173 0.3212,0.18211 0.5147,0.21982 0.19137,0.0352 0.39875,0.0317 0.58976,-0.0125 0.19599,-0.0387 0.36957,-0.1245 0.53747,-0.21449 0.16292,-0.0942 0.31124,-0.20666 0.4425,-0.3333 0.12911,-0.12663 0.24792,-0.26144 0.3557,-0.40301 0.20702,-0.28918 0.3621,-0.60718 0.47237,-0.94155 0.0495,-0.16932 0.0886,-0.3429 0.10565,-0.52039 0.0146,-0.17857 0.0106,-0.35962 -0.008,-0.54031 -0.047,-0.36104 -0.18318,-0.72458 -0.41689,-1.02123 -0.11524,-0.1494 -0.25467,-0.27639 -0.40123,-0.3863 -0.14939,-0.10742 -0.31017,-0.18674 -0.47131,-0.2554 -0.32582,-0.13053 -0.65805,-0.18211 -0.98423,-0.22337 l 0.0807,0.3091 c 0.19351,-0.14015 0.38096,-0.28705 0.58265,-0.41866 0.18461,-0.15224 0.36246,-0.318 0.55064,-0.47665 0.17251,-0.17358 0.32973,-0.36815 0.49584,-0.56094 0.12129,-0.21769 0.281,-0.43041 0.37171,-0.67228 0.0754,-0.24579 0.18923,-0.49372 0.19243,-0.75836 l 0.0321,-0.39732 c -0.004,-0.13162 -0.0245,-0.26179 -0.038,-0.39483 -0.0143,-0.26891 -0.10102,-0.51898 -0.18497,-0.77366 -0.0729,-0.25789 -0.22766,-0.47629 -0.34396,-0.71568 -0.14371,-0.2216 -0.31943,-0.41795 -0.48696,-0.62177 -0.18959,-0.17892 -0.39164,-0.34397 -0.59225,-0.50937 -0.21947,-0.13587 -0.43823,-0.27246 -0.66125,-0.39626 -0.23192,-0.10421 -0.46597,-0.20061 -0.69967,-0.29274 -0.2369,-0.0847 -0.48447,-0.13018 -0.72493,-0.1935 -0.23939,-0.0637 -0.48803,-0.079 -0.73097,-0.10316 -0.24579,-0.0192 -0.48624,-0.0448 -0.73062,-0.0192 -0.24259,0.0114 -0.48411,0.0335 -0.72101,0.0627 l -0.009,0.11275 c 0.22481,0.0865 0.4457,0.16611 0.66516,0.23584 0.22161,0.063 0.43077,0.15436 0.63885,0.24151 0.20702,0.0872 0.4208,0.15047 0.6111,0.26537 0.1935,0.10137 0.39803,0.17998 0.57944,0.29451 l 0.5389,0.33258 c 0.16007,0.13304 0.32404,0.25541 0.48696,0.37741 0.14157,0.14157 0.28455,0.28066 0.43147,0.41475 0.11418,0.15615 0.25325,0.29524 0.36495,0.4521 0.0893,0.16362 0.23014,0.31088 0.2906,0.48732 0.0704,0.17393 0.16612,0.34254 0.19137,0.52892 0.0192,0.0904 0.0488,0.18284 0.0634,0.27497 l 0.0124,0.281 c 0.0303,0.19315 -0.0241,0.37847 -0.031,0.57624 -0.0238,0.19493 -0.0946,0.38416 -0.14015,0.58691 -0.0907,0.1839 -0.17358,0.37955 -0.28065,0.56593 -0.13303,0.16754 -0.25539,0.35108 -0.41049,0.50759 -0.16183,0.14869 -0.34039,0.28279 -0.5115,0.42507 l -0.29381,0.24401 0.37492,0.0661 c 0.14548,0.0249 0.29523,0.0366 0.42969,0.09 0.14015,0.0362 0.26393,0.11134 0.38131,0.17892 0.11738,0.0733 0.20987,0.17145 0.29203,0.26892 0.0765,0.10315 0.13304,0.21519 0.1743,0.32937 0.1462,0.46704 0.0562,0.96752 -0.0722,1.45946 -0.0338,0.12413 -0.0733,0.24685 -0.12094,0.36816 -0.0494,0.11987 -0.11026,0.23405 -0.17073,0.34858 -0.11845,0.23121 -0.27924,0.43361 -0.45281,0.60791 -0.0897,0.0814 -0.18532,0.15543 -0.28706,0.21235 -0.10138,0.0647 -0.21165,0.10031 -0.33116,0.12129 -0.12023,0.0266 -0.24934,0.0167 -0.38807,-0.004 -0.12272,-0.022 -0.27781,-0.0789 -0.42685,-0.14584 l -0.0733,0.0882" /><path
       inkscape:connector-curvature="0"
       id="path42"
       style="fill:#fef2e2;fill-opacity:1;fill-rule:nonzero;stroke:none;stroke-width:0.03557041"
       d="m 119.6563,128.27141 -0.22623,0.0897 c -0.0818,0.0203 -0.17501,0.0321 -0.26713,0.0473 -0.18141,0.0107 -0.37207,-0.0103 -0.55739,-0.0772 -0.18141,-0.0693 -0.35535,-0.1782 -0.49372,-0.31443 -0.14512,-0.13375 -0.24579,-0.29559 -0.33863,-0.4578 -0.0868,-0.16398 -0.15153,-0.33506 -0.19421,-0.51078 -0.0398,-0.17394 -0.0679,-0.34895 -0.0814,-0.52396 -0.0182,-0.35143 0.0235,-0.70144 0.11169,-1.0415 0.0502,-0.16895 0.1124,-0.33649 0.19457,-0.49585 0.0847,-0.15972 0.18639,-0.31089 0.30093,-0.45388 0.2369,-0.28243 0.55062,-0.52146 0.91024,-0.65378 0.17964,-0.0669 0.36674,-0.1028 0.55134,-0.12058 0.18568,-0.0149 0.36496,3.5e-4 0.53926,0.0252 0.34751,0.0569 0.65805,0.18319 0.95719,0.31551 l -0.23796,0.22161 c -0.0879,-0.2184 -0.16647,-0.43929 -0.26572,-0.6552 -0.0736,-0.2234 -0.13409,-0.45567 -0.20737,-0.68759 -0.0519,-0.23547 -0.0787,-0.48161 -0.11525,-0.73061 0.0156,-0.24722 -0.004,-0.50902 0.0515,-0.76085 0.0694,-0.24757 0.10849,-0.51613 0.25042,-0.74307 l 0.18888,-0.3525 c 0.0754,-0.10991 0.16326,-0.20986 0.24757,-0.31587 0.15864,-0.22089 0.36887,-0.38878 0.57873,-0.5613 0.20239,-0.18212 0.45245,-0.2874 0.68224,-0.4304 0.24258,-0.1149 0.4987,-0.19101 0.75195,-0.2778 0.25824,-0.0541 0.5204,-0.0908 0.78006,-0.12841 0.26038,-0.002 0.52075,-0.005 0.77722,0.004 0.25361,0.031 0.50509,0.069 0.75338,0.11134 0.2465,0.0491 0.48198,0.1373 0.72031,0.20809 0.2376,0.0686 0.45742,0.18284 0.67618,0.28812 0.21947,0.1092 0.43716,0.21129 0.63066,0.35891 0.1992,0.1341 0.3927,0.27709 0.57803,0.42328 l -0.0544,0.10031 c -0.23725,-0.0423 -0.46847,-0.0886 -0.69221,-0.14157 -0.22231,-0.0601 -0.44961,-0.0904 -0.6737,-0.12308 -0.22337,-0.0321 -0.43929,-0.0893 -0.66303,-0.0893 -0.21982,-0.0132 -0.43645,-0.0516 -0.65237,-0.048 l -0.63883,0.006 c -0.20809,0.0306 -0.41404,0.0509 -0.61822,0.0704 -0.19778,0.0477 -0.39484,0.0918 -0.59296,0.13019 -0.18176,0.0733 -0.37598,0.12023 -0.55597,0.19564 -0.1654,0.0924 -0.36494,0.14584 -0.51292,0.26429 -0.15331,0.11098 -0.32689,0.20594 -0.44996,0.35072 -0.0654,0.0668 -0.14051,0.13019 -0.20417,0.20062 l -0.16363,0.23263 c -0.13054,0.14797 -0.18532,0.33329 -0.28777,0.50438 -0.0857,0.17822 -0.12876,0.37492 -0.20062,0.5702 -0.0235,0.20311 -0.0598,0.41083 -0.0704,0.62426 0.0213,0.21022 0.0248,0.42862 0.0715,0.64204 0.0558,0.2088 0.13444,0.41404 0.20203,0.62249 l 0.11632,0.3589 -0.35464,-0.13694 c -0.13588,-0.0533 -0.26962,-0.12094 -0.41262,-0.14442 -0.13943,-0.0416 -0.28527,-0.0416 -0.42151,-0.0445 -0.13943,0.002 -0.27175,0.0384 -0.39482,0.0779 -0.12095,0.0484 -0.22979,0.11453 -0.3269,0.19065 -0.37918,0.32121 -0.57552,0.79145 -0.73452,1.2745 -0.0391,0.12378 -0.0722,0.24792 -0.0978,0.37491 -0.0235,0.1277 -0.0345,0.25575 -0.0455,0.38379 -0.0256,0.25718 6e-4,0.51151 0.0526,0.74841 0.0321,0.11524 0.0733,0.22765 0.12807,0.32795 0.0508,0.10707 0.12484,0.19387 0.21519,0.27248 0.0875,0.0854 0.2024,0.14264 0.33116,0.19634 0.11633,0.0441 0.27852,0.0762 0.44179,0.0957 l 0.0135,0.1124" /><path
       inkscape:connector-curvature="0"
       id="path44"
       style="fill:#fef2e2;fill-opacity:1;fill-rule:nonzero;stroke:none;stroke-width:0.03557041"
       d="m 128.53254,264.43884 c 0,0 0.0897,-0.0744 0.24543,-0.20276 0.0751,-0.0729 0.18034,-0.13089 0.29417,-0.18674 0.0554,-0.0299 0.11453,-0.0616 0.17678,-0.0953 0.0711,-0.0227 0.14513,-0.0459 0.22303,-0.0711 0.14798,-0.0601 0.32476,-0.0811 0.50403,-0.10636 0.17964,-0.0277 0.37812,-0.0192 0.57304,-0.0203 0.20027,0.0242 0.40159,0.0324 0.60434,0.0839 0.20418,0.0328 0.4023,0.10493 0.5983,0.16931 0.18781,0.0822 0.37882,0.16505 0.53711,0.28208 0.0796,0.0565 0.15793,0.11275 0.23761,0.16185 0.069,0.0626 0.14193,0.11488 0.21271,0.16753 0.14868,0.0946 0.26465,0.20702 0.39839,0.29452 0.10173,0.10743 0.24615,0.18995 0.32227,0.29807 0.0434,0.0523 0.0946,0.10032 0.14477,0.14834 0.0405,0.0501 0.0648,0.10529 0.10386,0.15366 0.0751,0.0992 0.14478,0.19493 0.17644,0.28243 0.0832,0.17251 0.15331,0.2931 0.15331,0.2931 l 0.11489,0.0121 c 0,0 0.0683,-0.10493 0.14904,-0.32618 0.0516,-0.11276 0.0668,-0.25042 0.0676,-0.4176 0.0142,-0.17038 -0.009,-0.35926 -0.0796,-0.5581 -0.047,-0.21307 -0.17002,-0.39874 -0.2995,-0.60611 -0.14548,-0.18426 -0.318,-0.38097 -0.53,-0.52076 -0.10742,-0.0676 -0.21662,-0.13765 -0.33258,-0.19813 -0.11881,-0.0526 -0.24402,-0.0949 -0.36709,-0.13908 -0.24508,-0.0911 -0.50475,-0.13837 -0.75445,-0.19777 -0.2554,-0.0413 -0.50759,-0.0854 -0.76191,-0.0846 -0.24935,-0.0235 -0.49977,0.0171 -0.73454,0.0373 -0.23547,0.0497 -0.46312,0.0821 -0.66587,0.16576 -0.20417,0.0796 -0.39377,0.15189 -0.55098,0.26073 -0.0786,0.0491 -0.15474,0.0956 -0.22695,0.14015 -0.0651,0.0591 -0.12734,0.11382 -0.18568,0.16612 -0.11845,0.10137 -0.20844,0.19064 -0.25574,0.27779 -0.11383,0.16612 -0.17856,0.26074 -0.17856,0.26074 l 0.0864,0.0754" /><path
       inkscape:connector-curvature="0"
       id="path46"
       style="fill:#fef2e2;fill-opacity:1;fill-rule:nonzero;stroke:none;stroke-width:0.03557041"
       d="m 93.085922,285.02307 c -0.17501,3.49515 -5.318133,-11.55682 2.356179,-18.59834 1.881318,-1.72623 -0.05547,0.39732 -1.37017,8.92141 -0.449964,2.92211 -0.864364,7.24818 -0.986009,9.67693" /><path
       inkscape:connector-curvature="0"
       id="path48"
       style="fill:#fef2e2;fill-opacity:1;fill-rule:nonzero;stroke:none;stroke-width:0.03557041"
       d="m 147.14795,288.45135 c -0.37562,3.47878 7.07105,-10.63627 0.59083,-18.73102 -1.58858,-1.98269 -0.008,0.40195 -0.0473,9.02029 -0.0135,2.95484 -0.2835,7.29229 -0.54352,9.71073" /><path
       inkscape:connector-curvature="0"
       id="path50"
       style="fill:#58595b;fill-opacity:1;fill-rule:nonzero;stroke:none;stroke-width:0.03557041"
       d="m 125.83595,237.24953 c 0.0349,-1.72695 0.71923,-4.17917 -0.94653,-5.39141 -1.79524,-1.30686 -4.75755,-0.007 -5.86627,1.5651 -0.46776,0.66375 -1.58929,0.0366 -1.11655,-0.63351 1.46514,-2.07731 4.27412,-3.15154 6.7854,-2.41522 3.15332,0.92518 2.4846,4.45411 2.43729,6.87504 -0.016,0.80887 -1.30971,0.81065 -1.29334,0 v 0" /><path
       inkscape:connector-curvature="0"
       id="path52"
       style="fill:#58595b;fill-opacity:1;fill-rule:nonzero;stroke:none;stroke-width:0.03557041"
       d="m 126.05399,233.48013 c 1.7401,-3.99598 7.93469,-3.49798 9.3287,0.4642 0.27068,0.76796 -0.97925,1.09557 -1.24675,0.33364 -1.07636,-3.05833 -5.70157,-3.06509 -6.96539,-0.16326 -0.32405,0.74236 -1.4374,0.10244 -1.11656,-0.63458 v 0" /><path
       inkscape:connector-curvature="0"
       id="path54"
       style="fill:#fef2e2;fill-opacity:1;fill-rule:nonzero;stroke:none;stroke-width:0.03557041"
       d="m 99.836118,184.07035 c 0,0 0.05124,-0.10386 0.141568,-0.28171 0.03803,-0.0967 0.110614,-0.1896 0.192434,-0.28563 0.0384,-0.048 0.0796,-0.1 0.12342,-0.15544 0.0551,-0.0477 0.11348,-0.0985 0.17466,-0.15189 0.10991,-0.11205 0.26429,-0.19991 0.41867,-0.2931 0.15331,-0.0946 0.33827,-0.16362 0.51647,-0.24117 0.19315,-0.0544 0.38168,-0.12556 0.58905,-0.15616 0.20062,-0.0501 0.4112,-0.0605 0.61715,-0.0776 0.20702,0.003 0.41582,0.004 0.60932,0.0505 0.0967,0.021 0.19137,0.0423 0.28456,0.0565 0.0886,0.0313 0.17679,0.0495 0.26322,0.0708 0.17608,0.0295 0.32796,0.0875 0.48732,0.11595 0.13694,0.058 0.30341,0.0776 0.41795,0.14727 0.0612,0.0313 0.1277,0.0558 0.19315,0.0804 0.0583,0.0303 0.10279,0.0711 0.159,0.1003 0.10955,0.0623 0.21271,0.12344 0.2778,0.19102 0.14727,0.12592 0.26073,0.21022 0.26073,0.21022 l 0.11099,-0.0342 c 0,0 0.0189,-0.12308 0.002,-0.35748 6e-4,-0.12379 -0.0416,-0.2554 -0.1092,-0.40906 -0.058,-0.16185 -0.15722,-0.32547 -0.30342,-0.4802 -0.13089,-0.17678 -0.32048,-0.30021 -0.52395,-0.44001 -0.20915,-0.1124 -0.44819,-0.22587 -0.69967,-0.27211 -0.12769,-0.0192 -0.25575,-0.0423 -0.38771,-0.053 -0.13019,-9.9e-4 -0.2618,0.009 -0.39306,0.0153 -0.26215,0.0117 -0.51968,0.0697 -0.77295,0.1117 -0.25148,0.0616 -0.50082,0.1188 -0.73346,0.21769 -0.23903,0.0758 -0.45103,0.20951 -0.65805,0.31978 -0.19527,0.13659 -0.39056,0.25504 -0.5421,0.40906 -0.15436,0.15295 -0.29843,0.29167 -0.39731,0.45316 -0.0523,0.0758 -0.1028,0.14763 -0.15047,0.21628 -0.03595,0.0793 -0.07011,0.15402 -0.102085,0.22444 -0.06653,0.13872 -0.11276,0.25575 -0.120224,0.35428 -0.03591,0.196 -0.0569,0.30805 -0.0569,0.30805 l 0.110979,0.0359" /><path
       inkscape:connector-curvature="0"
       id="path56"
       style="fill:#fef2e2;fill-opacity:1;fill-rule:nonzero;stroke:none;stroke-width:0.03557041"
       d="m 111.6462,136.30891 c 0,0 0.0516,-0.10351 0.14228,-0.28172 0.038,-0.0967 0.11063,-0.18959 0.19208,-0.28527 0.0387,-0.0491 0.0796,-0.10031 0.12308,-0.1558 0.0558,-0.0477 0.11382,-0.0985 0.175,-0.15189 0.11027,-0.11204 0.26429,-0.19991 0.41902,-0.29311 0.1526,-0.0946 0.33792,-0.16362 0.51613,-0.2408 0.19279,-0.0547 0.38167,-0.12593 0.58869,-0.15651 0.20061,-0.0502 0.4119,-0.0605 0.61785,-0.0772 0.20667,0.002 0.41511,0.003 0.60862,0.0498 0.0971,0.0207 0.19172,0.0424 0.28491,0.0565 0.0886,0.0317 0.17714,0.0498 0.26323,0.0708 0.17678,0.0299 0.3276,0.0879 0.48695,0.11631 0.13731,0.058 0.30377,0.0776 0.41795,0.14762 0.0612,0.0313 0.12806,0.0551 0.19351,0.08 0.0587,0.0303 0.10244,0.0715 0.159,0.1 0.10956,0.0626 0.21235,0.12378 0.27781,0.19172 0.14725,0.12521 0.26072,0.20952 0.26072,0.20952 l 0.11099,-0.0339 c 0,0 0.0192,-0.12306 0.002,-0.35819 0.001,-0.12308 -0.0413,-0.25503 -0.10885,-0.40835 -0.0583,-0.16184 -0.15721,-0.32547 -0.30341,-0.48091 -0.13125,-0.17643 -0.32049,-0.30056 -0.52395,-0.43929 -0.20916,-0.11276 -0.44818,-0.22623 -0.69967,-0.27176 -0.12734,-0.02 -0.25611,-0.0427 -0.38737,-0.0533 -0.13053,-5.9e-4 -0.2625,0.008 -0.39339,0.0153 -0.26252,0.0117 -0.51969,0.0697 -0.77332,0.11169 -0.25148,0.0616 -0.50012,0.1188 -0.73274,0.21734 -0.23903,0.0758 -0.45139,0.20916 -0.65806,0.32013 -0.19564,0.13659 -0.39056,0.2554 -0.5428,0.40906 -0.15438,0.15295 -0.29808,0.29133 -0.39697,0.45353 -0.0526,0.0754 -0.1028,0.14725 -0.15081,0.21591 -0.0356,0.0796 -0.0697,0.15438 -0.10174,0.22445 -0.0665,0.13872 -0.11275,0.25574 -0.12022,0.35427 -0.0362,0.19636 -0.0569,0.30769 -0.0569,0.30769 l 0.11062,0.0362" /><path
       inkscape:connector-curvature="0"
       id="path58"
       style="fill:#fef2e2;fill-opacity:1;fill-rule:nonzero;stroke:none;stroke-width:0.03557041"
       d="m 215.51142,173.95698 c 0,0 0.0665,0.0942 0.18106,0.25859 0.0672,0.08 0.11524,0.18675 0.16077,0.30377 0.0245,0.0562 0.0498,0.11632 0.0779,0.18071 0.0153,0.0708 0.0317,0.1444 0.0495,0.22267 0.0459,0.14833 0.0477,0.32191 0.0551,0.49834 0.009,0.17571 -0.0214,0.36637 -0.0406,0.55489 -0.0466,0.18995 -0.0765,0.38416 -0.15082,0.57411 -0.0551,0.19385 -0.15082,0.37669 -0.2369,0.55952 -0.10528,0.17251 -0.20915,0.34789 -0.34645,0.48803 -0.0668,0.0711 -0.13304,0.14014 -0.19137,0.21306 -0.0722,0.0587 -0.13233,0.12343 -0.19421,0.1864 -0.11419,0.13444 -0.24083,0.23333 -0.34504,0.35285 -0.11952,0.0879 -0.22053,0.21734 -0.33863,0.27994 -0.0583,0.0362 -0.11347,0.0804 -0.16754,0.12307 -0.0565,0.0349 -0.11489,0.0508 -0.16896,0.0839 -0.10991,0.0619 -0.2152,0.11879 -0.30839,0.14049 -0.18568,0.0619 -0.31658,0.11596 -0.31658,0.11596 l -0.0248,0.11028 c 0,0 0.10031,0.0769 0.31943,0.1782 0.10919,0.0623 0.24828,0.0918 0.41973,0.11133 0.17394,0.0313 0.36922,0.0284 0.58015,-0.0185 0.22266,-0.0224 0.4272,-0.122 0.65307,-0.22445 0.20417,-0.12022 0.424,-0.26571 0.58976,-0.45459 0.0807,-0.0985 0.16433,-0.19528 0.23939,-0.30128 0.0658,-0.10884 0.122,-0.22516 0.18176,-0.33934 0.11917,-0.22587 0.19421,-0.47167 0.28243,-0.70678 0.0697,-0.24295 0.14121,-0.48127 0.1679,-0.72671 0.0508,-0.23903 0.0362,-0.48375 0.0395,-0.71318 -0.0252,-0.23156 -0.0345,-0.45495 -0.0975,-0.65948 -0.0601,-0.2063 -0.11276,-0.39661 -0.20809,-0.55916 -0.0427,-0.0822 -0.0814,-0.16078 -0.11986,-0.23441 -0.0526,-0.0697 -0.10245,-0.13516 -0.14976,-0.19742 -0.0918,-0.1252 -0.17359,-0.22196 -0.25789,-0.27638 -0.15757,-0.1277 -0.2472,-0.20062 -0.2472,-0.20062 l -0.0868,0.0762" /><path
       inkscape:connector-curvature="0"
       id="path60"
       style="fill:#fef2e2;fill-opacity:1;fill-rule:nonzero;stroke:none;stroke-width:0.03557041"
       d="m 260.46743,127.33129 c 0,0 0.11703,0.0196 0.31872,0.0526 0.10564,0.008 0.21768,0.0491 0.33649,0.0975 0.0587,0.0227 0.12165,0.0459 0.18852,0.0715 0.063,0.0369 0.12913,0.0771 0.19991,0.11845 0.14193,0.0715 0.27247,0.18923 0.40834,0.30661 0.13695,0.11561 0.25754,0.26856 0.38487,0.41156 0.10885,0.16504 0.23299,0.32012 0.32263,0.50403 0.10565,0.17216 0.17607,0.36637 0.25184,0.55277 0.0558,0.19314 0.11382,0.38735 0.12236,0.58157 0.008,0.0953 0.0132,0.18958 0.0259,0.28029 -0.006,0.0918 6.1e-4,0.17857 0.004,0.26536 0.021,0.17251 0.008,0.33009 0.0242,0.48625 -0.0178,0.14441 0.009,0.30483 -0.0266,0.43111 -0.0135,0.0658 -0.0182,0.13481 -0.0245,0.20276 -0.0124,0.063 -0.0409,0.11594 -0.053,0.17642 -0.0313,0.11951 -0.0616,0.23263 -0.11028,0.31266 -0.0818,0.17323 -0.13303,0.30271 -0.13303,0.30271 l 0.0654,0.0939 c 0,0 0.12662,-0.0178 0.35356,-0.10066 0.12237,-0.0342 0.24011,-0.11027 0.37314,-0.2177 0.14299,-0.0996 0.27639,-0.23868 0.38736,-0.4183 0.13766,-0.17252 0.20596,-0.38381 0.28599,-0.61323 0.0519,-0.22659 0.0953,-0.48127 0.0693,-0.72778 -0.0167,-0.1252 -0.031,-0.25077 -0.058,-0.37668 -0.036,-0.1213 -0.0832,-0.24153 -0.12664,-0.3614 -0.0864,-0.24046 -0.21626,-0.46312 -0.33044,-0.68758 -0.13197,-0.21733 -0.25932,-0.43218 -0.4233,-0.62035 -0.14263,-0.20132 -0.33506,-0.36068 -0.5026,-0.52146 -0.19066,-0.14335 -0.36317,-0.29132 -0.55846,-0.38843 -0.19492,-0.1003 -0.37278,-0.19492 -0.56094,-0.24117 -0.0893,-0.0274 -0.17536,-0.0541 -0.25646,-0.0782 -0.0879,-0.011 -0.17145,-0.0217 -0.25007,-0.0313 -0.15651,-0.0224 -0.28456,-0.0328 -0.38415,-0.0114 -0.20418,0.0224 -0.32085,0.0349 -0.32085,0.0349 l -0.004,0.11276" /><path
       inkscape:connector-curvature="0"
       id="path62"
       style="fill:#fef2e2;fill-opacity:1;fill-rule:nonzero;stroke:none;stroke-width:0.03557041"
       d="m 269.67056,175.71557 c 0,0 0.063,0.0975 0.1718,0.26501 0.0648,0.0818 0.10815,0.19137 0.15011,0.3091 0.0217,0.0576 0.0459,0.11775 0.0711,0.18319 0.0132,0.0711 0.0266,0.14548 0.0416,0.22445 0.0398,0.15011 0.0367,0.32263 0.0373,0.49976 0.002,0.17608 -0.0342,0.36495 -0.0598,0.55348 -0.0541,0.18745 -0.0904,0.38131 -0.17181,0.56841 -0.0619,0.19137 -0.16398,0.37136 -0.25645,0.55135 -0.11098,0.16896 -0.22125,0.34041 -0.36425,0.47557 -0.0686,0.0697 -0.1373,0.13624 -0.19884,0.20632 -0.0736,0.0569 -0.13659,0.11951 -0.20061,0.17997 -0.11809,0.13055 -0.24828,0.22553 -0.35677,0.34184 -0.12343,0.0825 -0.22765,0.20986 -0.34895,0.2682 -0.0594,0.0338 -0.1156,0.0765 -0.17215,0.11702 -0.0569,0.0324 -0.11561,0.048 -0.17111,0.0787 -0.1124,0.0576 -0.21946,0.11169 -0.31337,0.12948 -0.1871,0.0558 -0.32049,0.10564 -0.32049,0.10564 l -0.0288,0.1092 c 0,0 0.0975,0.08 0.31231,0.18958 0.10777,0.0654 0.24579,0.0996 0.41616,0.12486 0.17217,0.0369 0.36745,0.0409 0.57945,5.9e-4 0.22444,-0.0153 0.43254,-0.10706 0.66125,-0.20203 0.2088,-0.11311 0.43325,-0.25148 0.60577,-0.43467 0.0843,-0.0953 0.17109,-0.18959 0.25006,-0.29275 0.0693,-0.10741 0.12983,-0.22089 0.19385,-0.33329 0.12664,-0.22232 0.21129,-0.46455 0.30734,-0.69718 0.0783,-0.24046 0.15864,-0.47558 0.1935,-0.71995 0.0591,-0.2369 0.0534,-0.48233 0.0658,-0.71141 -0.0171,-0.23297 -0.0185,-0.45707 -0.0744,-0.66303 -0.0526,-0.20773 -0.0992,-0.39945 -0.18887,-0.56628 -0.0387,-0.0829 -0.0754,-0.16255 -0.11063,-0.23796 -0.0508,-0.0708 -0.0982,-0.13873 -0.14264,-0.20169 -0.0872,-0.12841 -0.1654,-0.2273 -0.24756,-0.28527 -0.15332,-0.13232 -0.24046,-0.20915 -0.24046,-0.20915 l -0.0897,0.0729" /><path
       inkscape:connector-curvature="0"
       id="path64"
       style="fill:#fef2e2;fill-opacity:1;fill-rule:nonzero;stroke:none;stroke-width:0.03557041"
       d="m 186.5532,180.22768 c 0,0 0.003,0.11561 0.009,0.31337 0.0124,0.10245 -0.008,0.2177 -0.0334,0.3397 -0.0114,0.0601 -0.0227,0.12414 -0.0353,0.19351 -0.0263,0.0672 -0.0533,0.13801 -0.0821,0.21378 -0.0438,0.14797 -0.13837,0.29559 -0.2305,0.44783 -0.0904,0.15188 -0.22161,0.29666 -0.34254,0.44605 -0.14478,0.13623 -0.27781,0.28314 -0.4464,0.40372 -0.15367,0.13482 -0.33579,0.23868 -0.51009,0.34717 -0.18461,0.0904 -0.36957,0.18354 -0.56379,0.23014 -0.0949,0.0246 -0.18959,0.0484 -0.27887,0.0776 -0.0935,0.0128 -0.18034,0.0351 -0.26714,0.0562 -0.17038,0.0533 -0.33187,0.0704 -0.48659,0.11632 -0.14941,0.011 -0.30663,0.0675 -0.44108,0.0583 -0.0686,0 -0.13979,0.008 -0.20915,0.0156 -0.0665,0 -0.12521,-0.0171 -0.18923,-0.0174 -0.12664,-0.006 -0.24686,-0.0132 -0.33721,-0.0438 -0.19067,-0.0452 -0.33152,-0.0683 -0.33152,-0.0683 l -0.0818,0.08 c 0,0 0.0416,0.11737 0.16897,0.31764 0.058,0.10991 0.159,0.20738 0.29238,0.31302 0.12877,0.11738 0.29489,0.21698 0.4987,0.28918 0.19991,0.0967 0.42755,0.1213 0.67406,0.15296 0.23938,0.006 0.50546,-0.002 0.74983,-0.0744 0.12236,-0.0402 0.24685,-0.0779 0.36851,-0.1277 0.1163,-0.0576 0.228,-0.12592 0.34148,-0.19101 0.22622,-0.1277 0.42648,-0.29559 0.63101,-0.44712 0.1935,-0.1679 0.38665,-0.33116 0.5453,-0.52289 0.17535,-0.17465 0.29985,-0.38914 0.43004,-0.58015 0.10742,-0.20844 0.2241,-0.40194 0.28456,-0.60683 0.0637,-0.20488 0.1245,-0.39234 0.13517,-0.58016 0.0103,-0.0907 0.0206,-0.17749 0.0299,-0.25967 -0.006,-0.0857 -0.0114,-0.16717 -0.0167,-0.24471 -0.007,-0.15296 -0.0224,-0.27745 -0.0633,-0.36781 -0.0619,-0.18958 -0.0964,-0.29843 -0.0964,-0.29843 l -0.11525,0.0182" /><path
       inkscape:connector-curvature="0"
       id="path66"
       style="fill:#281f1f;fill-opacity:1;fill-rule:nonzero;stroke:none;stroke-width:0.03557041"
       d="m 144.78358,255.28799 c -4.18343,0.38167 -19.2539,-1.73441 -19.2539,-1.73441 0,-0.002 9.9e-4,-0.005 9.9e-4,-0.006 h -1.04506 c 0,10e-4 6.1e-4,0.004 0.001,0.006 0,0 -15.07047,2.11608 -19.25392,1.73441 -1.18128,-0.10814 -2.99608,-1.73441 -2.99608,-1.73441 0,0 0.53,-9.15156 9.67408,-9.73491 8.71368,-0.55703 11.37541,4.71308 12.2444,8.07413 h 1.7056 c 0.86863,-3.36105 3.53107,-8.63116 12.24369,-8.07413 9.14408,0.58335 9.67408,9.73491 9.67408,9.73491 0,0 -1.8148,1.62627 -2.99574,1.73441" /><path
       inkscape:connector-curvature="0"
       id="path68"
       style="fill:#ffffff;fill-opacity:1;fill-rule:nonzero;stroke:none;stroke-width:0.03557041"
       d="m 103.41129,253.21957 c 1.38013,-2.53972 3.29987,-4.77212 4.92722,-7.01164 -3.04092,0.76619 -4.3997,4.45733 -4.92722,7.01164" /><path
       inkscape:connector-curvature="0"
       id="path70"
       style="fill:#ffffff;fill-opacity:1;fill-rule:nonzero;stroke:none;stroke-width:0.03557041"
       d="m 128.12775,252.20191 c 1.38048,-2.53938 3.30021,-4.77178 4.92757,-7.012 -3.04163,0.76689 -4.39935,4.45769 -4.92757,7.012" /><path
       inkscape:connector-curvature="0"
       id="path72"
       style="fill:#58595b;fill-opacity:1;fill-rule:nonzero;stroke:none;stroke-width:0.03557041"
       d="m 127.82824,65.757536 c 0,0 -2.96729,-4.16284 -1.49004,-5.596363 1.47723,-1.434483 10.19661,1.060461 10.19661,1.060461 l 2.09438,3.161462 -10.80095,1.37444" /><path
       inkscape:connector-curvature="0"
       id="path74"
       style="fill:#58595b;fill-opacity:1;fill-rule:nonzero;stroke:none;stroke-width:0.03557041"
       d="m 225.10831,66.768376 c 0,0 -2.0332,-4.66111 -0.28633,-5.773788 1.74721,-1.111576 9.339,3.152996 9.339,3.152996 l 0.50119,3.337642 -9.55386,-0.71685" /><path
       inkscape:connector-curvature="0"
       id="path76"
       style="fill:#58595b;fill-opacity:1;fill-rule:nonzero;stroke:none;stroke-width:0.03557041"
       d="m 149.70084,65.706706 c 0,0 -2.12746,-4.62209 -0.40373,-5.767421 1.72339,-1.145047 9.72105,2.494944 9.72105,2.494944 l 1.55939,4.102264 -10.87671,-0.829787" /><path
       inkscape:connector-curvature="0"
       id="path78"
       style="fill:#58595b;fill-opacity:1;fill-rule:nonzero;stroke:none;stroke-width:0.03557041"
       d="m 244.8065,65.617354 c 0,0 -1.8486,-4.734741 -0.0591,-5.781294 1.78883,-1.046838 9.55599,3.037783 9.55599,3.037783 l 0.77508,4.153557 -10.27202,-1.410046" /></g></svg>
