<?xml version="1.0" encoding="UTF-8" standalone="no"?>
<!-- Created with Inkscape (http://www.inkscape.org/) -->

<svg
   xmlns:dc="http://purl.org/dc/elements/1.1/"
   xmlns:cc="http://creativecommons.org/ns#"
   xmlns:rdf="http://www.w3.org/1999/02/22-rdf-syntax-ns#"
   xmlns:svg="http://www.w3.org/2000/svg"
   xmlns="http://www.w3.org/2000/svg"
   xmlns:sodipodi="http://sodipodi.sourceforge.net/DTD/sodipodi-0.dtd"
   xmlns:inkscape="http://www.inkscape.org/namespaces/inkscape"
   version="1.1"
   id="svg2"
   xml:space="preserve"
   width="145.37993"
   height="204.53957"
   viewBox="0 0 145.37992 204.53957"
   sodipodi:docname="llama-upside-down.svg"
   inkscape:version="0.92.2 2405546, 2018-03-11"><metadata
     id="metadata8"><rdf:RDF><cc:Work
         rdf:about=""><dc:format>image/svg+xml</dc:format><dc:type
           rdf:resource="http://purl.org/dc/dcmitype/StillImage" /><dc:title /></cc:Work></rdf:RDF></metadata><defs
     id="defs6"><clipPath
       clipPathUnits="userSpaceOnUse"
       id="clipPath58"><path
         d="m 5210.02,5148.46 c -111.47,0 -201.85,62.7 -201.85,140.04 0,77.34 90.38,140.04 201.85,140.04 111.49,0 201.87,-62.7 201.87,-140.04 0,-77.34 -90.38,-140.04 -201.87,-140.04"
         id="path56"
         inkscape:connector-curvature="0" /></clipPath></defs><sodipodi:namedview
     pagecolor="#ffffff"
     bordercolor="#666666"
     borderopacity="1"
     objecttolerance="10"
     gridtolerance="10"
     guidetolerance="10"
     inkscape:pageopacity="0"
     inkscape:pageshadow="2"
     inkscape:window-width="1920"
     inkscape:window-height="1017"
     id="namedview4"
     showgrid="false"
     inkscape:zoom="2.506291"
     inkscape:cx="-17.664601"
     inkscape:cy="31.690825"
     inkscape:window-x="0"
     inkscape:window-y="32"
     inkscape:window-maximized="1"
     inkscape:current-layer="g12"
     fit-margin-left="30"
     fit-margin-top="0"
     fit-margin-right="0"
     fit-margin-bottom="0" /><g
     id="g10"
     inkscape:groupmode="layer"
     inkscape:label="ink_ext_XXXXXX"
     transform="matrix(1.3333333,0,0,-1.3333333,-389.82001,456.75206)"><g
       id="g12"
       transform="scale(0.1)"><g
         id="g934"
         transform="matrix(0.33096386,0,0,-0.33096386,1653.9483,4535.995)"><path
           inkscape:connector-curvature="0"
           id="path44"
           style="fill:#ffffff;fill-opacity:1;fill-rule:nonzero;stroke:none"
           d="m 7120.99,6297.14 c -33.68,263.91 -141.27,339.14 -141.27,339.14 184.45,98.16 155.97,374.2 101.59,477.89 -34.26,65.34 -81.51,67.58 -81.51,67.58 167.1,246.94 -31.21,422.35 -31.21,422.35 43.13,139.67 55.37,277.44 38.1,385.9 H 4535.67 c -14.3,-39.21 -29.97,-109.86 -9.99,-234.71 41.47,-259.2 124.99,-364.58 143.14,-384.52 0.15,-0.93 -157.72,-232.39 -143.14,-439.44 23.31,-331.26 109.87,-379.53 109.87,-379.53 -166.47,-226.39 -54.03,-460.77 9.98,-539.32 1.37,-28.23 -88.55,-335.44 -24.97,-609.24 21.15,-91.08 68.39,-349.23 78.23,-362.38 -9.99,-31.64 -69.14,-144.83 24.96,-370.26 39.13,-93.73 94.22,-171.45 131.91,-218.55 16.44,-39.6 27.38,-63.94 27.38,-63.94 -158.41,-511.94 -70.23,-1040.11 16.44,-1033.13 163.96,13.22 389.98,619.48 406.15,660 6.27,15.67 177.15,28.5 367.55,42.01 176.7,-13.53 358.19,-23.16 453.13,-8.02 118.39,18.89 219.1,54.31 301.85,92.61 113.73,16.27 156.16,19.5 162.81,6.08 37.29,-75.51 156.81,-604.79 371.31,-735.45 114.61,-69.81 260.28,825.01 -25.35,1102.71 0,0 -20.75,83.7 -32.32,152.85 82.07,179.84 6.37,422.4 6.37,422.4 339.1,140.77 38.42,642.11 38.42,642.11 75.3,81.52 220.5,181.35 171.59,564.86" /><path
           inkscape:connector-curvature="0"
           id="path46"
           style="fill:#fef2e2;fill-opacity:1;fill-rule:nonzero;stroke:none"
           d="m 6930.63,3617.98 c 69.17,-120.79 222.95,452.24 -73.4,732.36 -72.64,68.66 -74.73,-48.85 -23.97,-387.94 17.38,-116.24 47.34,-257.08 97.37,-344.42" /><path
           inkscape:connector-curvature="0"
           id="path48"
           style="fill:#fef2e2;fill-opacity:1;fill-rule:nonzero;stroke:none"
           d="m 4967.59,3559.34 c -75.73,-116.77 -197.69,463.85 113.64,727.21 76.33,64.55 71.92,-52.9 2.56,-388.66 -23.76,-115.11 -61.45,-254.07 -116.2,-338.55" /><path
           inkscape:connector-curvature="0"
           id="path50"
           style="fill:#fef2e2;fill-opacity:1;fill-rule:nonzero;stroke:none"
           d="m 5044.21,4722.96 c 190.89,-197.02 760.78,-149.78 760.78,-149.78 0,0 568.13,-64.99 765.13,125.98 0,0 624.48,1391.42 -740.95,1422.38 -1365.78,11.66 -784.96,-1398.58 -784.96,-1398.58" /><g
           id="g52"><g
             clip-path="url(#clipPath58)"
             id="g54"><path
               inkscape:connector-curvature="0"
               id="path60"
               style="fill:#fee8de;fill-opacity:1;fill-rule:nonzero;stroke:none"
               d="m 5008.17,5148.46 h 403.719 v 280.078 H 5008.17 Z" /></g></g><path
           inkscape:connector-curvature="0"
           id="path62"
           style="fill:#fee8de;fill-opacity:1;fill-rule:nonzero;stroke:none"
           d="m 6389.08,5172.12 c -111.45,0 -201.82,62.69 -201.82,140.04 0,77.35 90.37,140.04 201.82,140.04 111.51,0 201.89,-62.69 201.89,-140.04 0,-77.35 -90.38,-140.04 -201.89,-140.04" /><path
           inkscape:connector-curvature="0"
           id="path64"
           style="fill:#231f20;fill-opacity:1;fill-rule:nonzero;stroke:none"
           d="m 5385.11,5039.99 c 0.58,37.09 30.86,66.79 68.16,66.2 37.04,-0.58 66.79,-31.21 66.22,-68.29 -0.56,-37.13 -31.74,-94.9 -68.76,-94.34 -37.29,0.57 -66.21,59.32 -65.62,96.43" /><path
           inkscape:connector-curvature="0"
           id="path66"
           style="fill:#231f20;fill-opacity:1;fill-rule:nonzero;stroke:none"
           d="m 6110.71,5055.78 c 0.56,37.11 31,66.72 68.13,66.13 37.12,-0.56 66.84,-31.13 66.29,-68.23 -0.59,-37.18 -31.71,-94.89 -68.82,-94.32 -37.14,0.57 -66.21,59.24 -65.6,96.42" /><path
           inkscape:connector-curvature="0"
           id="path68"
           style="fill:#eedbcc;fill-opacity:1;fill-rule:nonzero;stroke:none"
           d="m 5230.04,5625.36 c -2.72,-173.65 264.28,-378.16 549.42,-382.61 285.03,-4.44 542.05,186.43 544.77,360.1 1.42,92.58 -82.23,138.83 -180,206.25 -99.28,68.51 -203.35,222.28 -360.56,224.74 -157.91,2.43 -266.72,-149.26 -368.51,-214.58 -98.62,-63.26 -183.72,-103.97 -185.12,-193.9" /><path
           inkscape:connector-curvature="0"
           id="path70"
           style="fill:#ffffff;fill-opacity:1;fill-rule:nonzero;stroke:none"
           d="m 4941.64,4368.85 c 6.49,-59.53 53.48,-110.16 111.92,-107.68 -30.49,-49 -50.38,-160.19 51.94,-209.5 63.24,-30.55 137.82,24.87 137.82,24.87 0,0 11.93,-127.5 149.64,-152.12 146.17,-26.17 224.81,117.65 224.81,117.65 -1.79,-114.55 193.55,-182.57 301.74,-163.6 132.99,23.25 196.44,119.87 196.44,119.87 262.08,-159.82 361.21,90.36 361.21,90.36 57.96,-141.1 266.81,-97.6 331.86,-12.31 83.44,109.31 -14.76,201.95 -14.76,201.95 0,0 180.24,122.43 101.2,264.61 -89.16,160.5 -259.46,61.6 -259.46,61.6 -67.81,340.22 -332.82,43.64 -332.82,43.64 -19.14,158.61 -88.7,295.17 -288.6,249.37 -137.55,-31.52 -180.31,-211.76 -180.31,-211.76 -48.06,185.24 -191.87,159 -246.55,105.47 -34.46,-33.75 -36.35,-80.98 -36.35,-80.98 -125.63,169.08 -219.81,-27.75 -219.81,-27.75 -110.6,68.11 -220.24,63.44 -276.17,-11.02 -31.63,-42.08 -40.69,-89.4 -24.48,-167.23 -46.06,-13.04 -98.36,-52.03 -89.27,-135.44" /><path
           inkscape:connector-curvature="0"
           id="path72"
           style="fill:#fef2e2;fill-opacity:1;fill-rule:nonzero;stroke:none"
           d="m 6739.36,4325.68 c 6.1,1.83 12.07,4.1 16.21,6.6 4.52,2.94 8.52,5.93 11.3,9.83 2.88,3.67 5.13,7.56 6.34,12.07 1.45,4.29 2.29,8.95 2.72,13.7 0.41,9.59 -0.3,19.76 -2.94,29.68 -1.29,4.96 -2.58,9.9 -4.3,14.75 -1.82,4.82 -3.9,9.5 -6.2,14.05 -9.29,17.96 -19.86,35.15 -36.44,45.33 -4.17,2.36 -8.76,4.23 -13.72,5.35 -4.93,0.78 -10.2,1.34 -15.5,0.52 -5.23,-0.99 -10.74,-1.93 -15.77,-4.43 -5.3,-1.87 -9.93,-5.36 -14.76,-8.31 l -12.63,-7.7 2.07,14.82 c 1.22,8.63 2.85,17.17 3.6,25.79 0.31,8.61 -0.98,17.21 -1.57,25.6 -1.83,8.27 -4.6,16.23 -6.84,24 -4.04,7.21 -6.97,14.68 -11.43,21.07 -5.06,6.05 -8.36,13 -14.29,17.93 -2.67,2.65 -5.32,5.31 -7.81,8.04 -2.89,2.38 -6.13,4.35 -9.1,6.57 -5.61,4.9 -12.87,7.45 -19.44,10.83 -6.42,3.72 -14.39,4.48 -21.3,7.08 -7.32,1.79 -15.04,2.36 -22.5,4.08 -7.77,0.25 -15.52,0.72 -23.36,1.3 -7.97,-0.54 -15.92,-1.11 -24.04,-1.24 l -24.36,-3.91 c -8.25,-1.22 -16.21,-4.13 -24.52,-6.04 -8.51,-1.49 -16.31,-5.1 -24.62,-7.79 -8.31,-2.73 -16.81,-5.4 -24.85,-9.17 -8.15,-3.55 -16.65,-6.82 -25.43,-10.02 l -2.72,3.59 c 6.09,6.93 12.46,13.77 19.17,20.33 6.4,7.03 14.05,12.44 21.62,18.12 7.69,5.56 15.26,11.45 23.87,15.7 8.59,4.25 16.94,9.25 26.03,12.75 9.19,3.26 18.48,6.38 27.95,9.27 9.73,2.01 19.64,3.55 29.56,5.17 10.12,0.2 20.36,0.41 30.54,-0.04 10.21,-1.73 20.49,-3.12 30.47,-6.02 9.7,-4.14 19.89,-6.65 28.83,-12.49 9.13,-5.4 18.24,-10.63 25.77,-18.27 3.88,-3.6 7.94,-6.97 11.53,-10.8 l 9.52,-12.61 c 6.95,-7.97 10.18,-18.26 14.5,-27.49 3.74,-9.56 4.75,-19.94 7,-29.53 0.27,-10.01 0.87,-19.82 0.46,-29.4 -1.24,-9.58 -1.98,-19.04 -3.31,-28.3 -2.38,-9.12 -3.87,-18.28 -5.77,-27.37 l -10.54,7.12 c 10.54,7.14 21.49,14.08 34.37,18.57 6.45,2.07 13.23,3.82 20.37,4.44 7.13,0.45 14.51,0.24 21.78,-1.22 14.58,-2.89 28.12,-10.23 38.98,-19.76 5.33,-4.9 10.2,-10.19 14.47,-15.87 4.2,-5.75 7.67,-11.87 10.7,-18.2 5.63,-12.79 9.53,-26.21 11.18,-40.12 0.61,-6.98 0.76,-14.02 0.34,-21.11 -0.42,-7.11 -1.77,-14.28 -3.98,-21.26 -2.48,-6.98 -5.24,-13.97 -9.91,-20.13 -4.33,-6.24 -10.2,-11.62 -16.66,-15.53 -6.59,-3.82 -13.73,-5.89 -20.71,-6.61 -3.63,-0.02 -7.26,-0.14 -10.5,0.16 l -9.16,2.04 -0.27,4.49" /><path
           inkscape:connector-curvature="0"
           id="path74"
           style="fill:#fef2e2;fill-opacity:1;fill-rule:nonzero;stroke:none"
           d="m 5865.09,4113.39 5.66,-7.51 c 1.62,-2.81 3,-6.16 4.48,-9.48 2.23,-6.65 3.32,-14.01 2.6,-21.6 -0.88,-7.49 -3.37,-15.07 -7.23,-21.59 -3.67,-6.79 -8.9,-12.21 -14.2,-17.36 -5.46,-4.92 -11.39,-9.09 -17.72,-12.45 -6.28,-3.31 -12.73,-6.11 -19.34,-8.42 -13.35,-4.28 -27.15,-6.3 -41.17,-6.48 -6.99,0.16 -14.01,0.78 -20.98,2.18 -6.96,1.55 -13.78,3.81 -20.45,6.61 -13.19,5.96 -25.46,15.22 -34.14,27.3 -4.32,6.04 -7.57,12.64 -10.12,19.31 -2.4,6.79 -3.59,13.67 -4.38,20.41 -1.25,13.57 0.53,26.41 2.64,38.97 l 10.87,-6.63 c -7.49,-5.55 -15.22,-10.69 -22.53,-16.63 -7.87,-5.02 -16.17,-9.65 -24.34,-14.76 -8.57,-4.35 -17.76,-7.86 -26.96,-11.76 -9.68,-1.95 -19.56,-5.35 -29.77,-5.89 -10.23,0.1 -20.91,-1.23 -31.06,1.79 l -15.43,3.41 c -4.98,1.7 -9.71,3.98 -14.61,6.03 -10.06,3.67 -18.61,9.79 -27.31,15.84 -9,5.72 -15.52,13.97 -23.33,21.07 -6.78,7.88 -12.29,16.66 -18.12,25.24 -4.63,9.07 -8.68,18.49 -12.7,27.78 -2.66,9.69 -5.35,19.35 -7.55,29.02 -1.31,9.82 -2.32,19.59 -3.17,29.3 -0.55,9.72 0.49,19.41 0.83,28.97 0.3,9.6 2.52,18.94 4.38,28.23 2.04,9.26 3.79,18.43 7.54,27.19 3.18,8.84 6.75,17.48 10.54,25.88 l 4.4,-0.97 c 0.72,-9.32 1.27,-18.41 1.41,-27.31 -0.08,-8.89 1,-17.71 1.97,-26.41 1,-8.68 0.96,-17.28 3.14,-25.65 1.68,-8.35 2.34,-16.8 4.63,-24.82 l 6.57,-23.77 c 3.25,-7.45 6.02,-14.95 8.83,-22.4 3.78,-6.88 7.44,-13.79 10.86,-20.73 4.64,-6.05 8.39,-12.86 13.06,-18.77 5.23,-5.23 9.22,-12.17 15.27,-16.46 5.8,-4.59 11.16,-10.11 17.95,-13.19 3.24,-1.79 6.37,-3.94 9.75,-5.56 l 10.56,-3.79 c 6.92,-3.33 14.64,-3.44 22.21,-5.55 7.69,-1.41 15.68,-0.96 23.94,-1.64 8.01,1.17 16.4,1.95 24.68,3.75 7.87,2.92 16.25,5.32 23.94,9.2 7.53,4.25 14.64,9.27 21.97,13.93 l 12.64,8.03 -1.78,-14.66 c -0.68,-5.62 -1.93,-11.28 -1.46,-16.86 -0.18,-5.62 1.25,-11.04 2.52,-16.19 1.44,-5.19 4.16,-9.73 6.88,-13.93 3.09,-4.03 6.69,-7.41 10.58,-10.26 16.11,-10.88 36.13,-13.38 56.33,-14.38 5.09,-0.21 10.2,-0.17 15.34,0.19 5.15,0.44 10.18,1.32 15.21,2.22 10.14,1.67 19.67,5.27 28.26,9.6 4.1,2.35 8,5.06 11.32,8.15 3.6,2.96 6.2,6.63 8.37,10.81 2.39,4.13 3.43,9.01 4.23,14.35 0.57,4.8 0.16,11.16 -0.72,17.46 l 4.21,1.64" /><path
           inkscape:connector-curvature="0"
           id="path76"
           style="fill:#fef2e2;fill-opacity:1;fill-rule:nonzero;stroke:none"
           d="m 5271.78,4582.82 c 0,0 -4.4,1.07 -12.08,2.99 -3.9,1.3 -8.55,1.53 -13.48,1.57 -2.46,0.1 -5.03,0.24 -7.8,0.33 -2.83,-0.4 -5.84,-0.84 -8.96,-1.28 -6.18,-0.39 -12.65,-2.73 -19.34,-4.92 -6.68,-2.11 -13.39,-5.81 -20.16,-9.1 -6.45,-4.33 -13.28,-8.1 -19.34,-13.45 -6.52,-4.64 -12.08,-10.63 -17.7,-16.3 -5.05,-6.17 -10.17,-12.41 -13.55,-19.3 -1.8,-3.39 -3.48,-6.74 -5.36,-9.87 -1.27,-3.41 -2.86,-6.53 -4.36,-9.61 -3.47,-5.96 -5.51,-11.92 -8.57,-17.36 -1.58,-5.56 -5.14,-10.98 -5.86,-16.15 -0.57,-2.62 -1.47,-5.21 -2.33,-7.79 -0.53,-2.5 -0.38,-4.86 -0.9,-7.26 -0.81,-4.83 -1.52,-9.42 -1.09,-13.09 0.2,-7.58 -0.04,-13.08 -0.04,-13.08 l -3.8,-2.41 c 0,0 -4.22,2.56 -10.93,9.06 -3.8,3.12 -6.76,7.74 -9.78,13.67 -3.5,5.85 -6.01,13 -7.1,21.24 -2.18,8.42 -1.21,17.17 -0.43,26.79 1.76,9.05 4.24,19.01 9.09,27.66 2.54,4.25 5.04,8.62 7.99,12.81 3.16,3.89 6.76,7.51 10.18,11.26 6.87,7.45 15,13.6 22.6,20.01 8.11,5.89 16.05,11.79 24.82,16.12 8.24,5.14 17.57,8.01 26.06,11.33 8.99,2.28 17.46,5.05 25.95,5.58 8.49,0.68 16.29,1.36 23.66,0.18 3.6,-0.37 7.05,-0.73 10.32,-1.08 3.31,-0.94 6.44,-1.85 9.38,-2.69 5.89,-1.56 10.58,-3.2 13.78,-5.5 6.86,-3.96 10.8,-6.21 10.8,-6.21 l -1.67,-4.15" /><path
           inkscape:connector-curvature="0"
           id="path78"
           style="fill:#fef2e2;fill-opacity:1;fill-rule:nonzero;stroke:none"
           d="m 6369.15,4263.8 c 0,0 1.45,-4.27 3.98,-11.78 1.64,-3.78 2.26,-8.38 2.71,-13.3 0.31,-2.44 0.65,-4.99 0.98,-7.75 -0.16,-2.86 -0.35,-5.89 -0.53,-9.03 0.13,-6.18 -1.68,-12.83 -3.28,-19.7 -1.54,-6.81 -4.68,-13.81 -7.39,-20.83 -3.78,-6.79 -6.95,-13.91 -11.78,-20.42 -4.08,-6.87 -9.57,-12.89 -14.77,-18.99 -5.72,-5.55 -11.51,-11.15 -18.09,-15.11 -3.23,-2.09 -6.45,-4.02 -9.4,-6.15 -3.29,-1.56 -6.26,-3.41 -9.21,-5.17 -5.63,-3.93 -11.42,-6.47 -16.59,-9.98 -5.41,-2.03 -10.52,-6.05 -15.6,-7.18 -2.54,-0.8 -5.07,-1.92 -7.55,-2.99 -2.44,-0.74 -4.82,-0.78 -7.17,-1.5 -4.74,-1.21 -9.26,-2.3 -12.95,-2.16 -7.57,-0.45 -13.03,-1.15 -13.03,-1.15 l -2.09,-4 c 0,0 2.91,-3.98 9.93,-10.13 3.43,-3.53 8.29,-6.08 14.47,-8.6 6.1,-3.01 13.43,-4.92 21.76,-5.31 8.54,-1.46 17.2,0.24 26.72,1.81 8.86,2.52 18.59,5.84 26.8,11.38 4.02,2.89 8.16,5.75 12.1,9.03 3.61,3.47 6.92,7.35 10.37,11.1 6.86,7.47 12.3,16.07 18.06,24.19 5.18,8.56 10.39,16.97 13.97,26.08 4.44,8.63 6.52,18.18 9.11,26.92 1.53,9.15 3.58,17.83 3.4,26.33 -0.04,8.49 0,16.33 -1.81,23.59 -0.67,3.55 -1.31,6.96 -1.94,10.18 -1.21,3.24 -2.38,6.26 -3.45,9.13 -2.05,5.74 -4.08,10.28 -6.65,13.27 -4.51,6.51 -7.09,10.25 -7.09,10.25 l -3.99,-2.03" /><path
           inkscape:connector-curvature="0"
           id="path80"
           style="fill:#231f20;fill-opacity:1;fill-rule:nonzero;stroke:none"
           d="m 5769.92,5366.76 c 95.55,-0.97 278.19,1.35 244.67,74.19 -18.61,40.39 -116.92,93.83 -242.97,96.85 -126.07,-0.51 -225.44,-51.97 -244.85,-91.99 -34.88,-72.14 147.62,-78.11 243.15,-79.05" /><path
           inkscape:connector-curvature="0"
           id="path82"
           style="fill:#231f20;fill-opacity:1;fill-rule:nonzero;stroke:none"
           d="m 5735.72,5520.16 c -10.07,82.73 12.09,161.3 85.42,207 80.86,50.42 187.23,18.01 263.41,-23.73 28.24,-15.47 3.04,-58.59 -25.2,-43.11 -60.87,33.33 -127.19,53.65 -195.43,31.99 -73.89,-23.44 -86.25,-106.33 -78.26,-172.15 3.89,-31.92 -46.09,-31.54 -49.94,0" /><path
           inkscape:connector-curvature="0"
           id="path84"
           style="fill:#231f20;fill-opacity:1;fill-rule:nonzero;stroke:none"
           d="m 5723.46,5537.13 c 1.54,57.24 -22.39,111.21 -69.34,145.16 -69.71,50.41 -140.71,-6.31 -184.18,-61.67 -19.88,-25.32 -54.94,10.29 -35.3,35.31 52.39,66.75 136.72,124.18 223.06,81.37 75.02,-37.19 117.92,-117.58 115.7,-200.17 -0.87,-32.13 -50.8,-32.22 -49.94,0" /></g></g></g></svg>
