<?xml version="1.0" encoding="UTF-8" standalone="no"?>
<!-- Created with Inkscape (http://www.inkscape.org/) -->

<svg
   xmlns:dc="http://purl.org/dc/elements/1.1/"
   xmlns:cc="http://creativecommons.org/ns#"
   xmlns:rdf="http://www.w3.org/1999/02/22-rdf-syntax-ns#"
   xmlns:svg="http://www.w3.org/2000/svg"
   xmlns="http://www.w3.org/2000/svg"
   xmlns:sodipodi="http://sodipodi.sourceforge.net/DTD/sodipodi-0.dtd"
   xmlns:inkscape="http://www.inkscape.org/namespaces/inkscape"
   version="1.1"
   id="svg2"
   xml:space="preserve"
   width="854.99921"
   height="250.33229"
   viewBox="0 0 854.9992 250.33229"
   sodipodi:docname="logo-full-pride.svg"
   inkscape:version="0.92.4 (5da689c313, 2019-01-14)"
   inkscape:export-xdpi="382.35129"
   inkscape:export-ydpi="382.35129"><metadata
     id="metadata8"><rdf:RDF><cc:Work
         rdf:about=""><dc:format>image/svg+xml</dc:format><dc:type
           rdf:resource="http://purl.org/dc/dcmitype/StillImage" /><dc:title></dc:title></cc:Work></rdf:RDF></metadata><defs
     id="defs6"><clipPath
       clipPathUnits="userSpaceOnUse"
       id="clipPath4673"><path
         d="m -494.56809,2401.2217 c -4.09651,22.9357 -8.38485,45.1976 -12.88198,66.6479 -46.57735,222.2017 -109.92915,344.5814 -178.38369,344.5814 -66.13415,0 -128.30782,-117.0181 -175.07036,-329.484 -5.76784,-26.2111 -11.21446,-53.4994 -16.33419,-81.7453 -36.38654,-200.7081 -56.18173,-450.2885 -56.18173,-713.7039 0,-300.4742 25.75435,-582.9663 72.51592,-795.44502 46.76254,-212.4658 108.93621,-329.47968 175.07036,-329.47968 66.13322,0 128.3069,117.01388 175.07039,329.47968 46.76251,212.47872 72.5142,494.97082 72.5142,795.44502 0,256.8692 -20.33815,512.3389 -56.31892,713.7039"
         style="fill:#196aff;fill-opacity:1;fill-rule:nonzero;stroke:none;stroke-width:0.20138533"
         id="path4675"
         inkscape:connector-curvature="0" /></clipPath></defs><sodipodi:namedview
     pagecolor="#ffffff"
     bordercolor="#666666"
     borderopacity="1"
     objecttolerance="10"
     gridtolerance="10"
     guidetolerance="10"
     inkscape:pageopacity="0"
     inkscape:pageshadow="2"
     inkscape:window-width="1916"
     inkscape:window-height="1018"
     id="namedview4"
     showgrid="true"
     fit-margin-top="0"
     fit-margin-left="10"
     fit-margin-right="10"
     fit-margin-bottom="0"
     inkscape:zoom="16"
     inkscape:cx="154.80338"
     inkscape:cy="2.3103017"
     inkscape:window-x="1920"
     inkscape:window-y="60"
     inkscape:window-maximized="0"
     inkscape:current-layer="g12"><inkscape:grid
       type="xygrid"
       id="grid868"
       originx="-12.58708"
       originy="0.35364203" /></sodipodi:namedview><g
     id="g10"
     inkscape:groupmode="layer"
     inkscape:label="ink_ext_XXXXXX"
     transform="matrix(1.3333333,0,0,-1.3333333,-100.86197,369.33978)"><g
       id="g12"
       transform="matrix(0.1,0,0,0.1,9.5479652,-4.2435374)"><g
   id="g4627"
   transform="matrix(3.7753253,0,0,0.83091105,4259.9494,475.58715)"
   clip-path="url(#clipPath4673)"><rect
     transform="scale(1,-1)"
     y="-2812.6438"
     x="-933.41803"
     height="374.99991"
     width="495.10489"
     id="rect851"
     style="opacity:1;fill:#e40303;fill-opacity:1;fill-rule:evenodd;stroke:none;stroke-width:31.49272537;stroke-miterlimit:4;stroke-dasharray:none;stroke-opacity:1" /><rect
     transform="scale(1,-1)"
     y="-2437.644"
     x="-933.41803"
     height="374.99991"
     width="495.10489"
     id="rect851-6"
     style="opacity:1;fill:#ff8c00;fill-opacity:1;fill-rule:evenodd;stroke:none;stroke-width:31.49272537;stroke-miterlimit:4;stroke-dasharray:none;stroke-opacity:1" /><rect
     transform="scale(1,-1)"
     y="-2062.6438"
     x="-933.41803"
     height="374.99991"
     width="495.10489"
     id="rect851-7"
     style="opacity:1;fill:#ffed00;fill-opacity:1;fill-rule:evenodd;stroke:none;stroke-width:31.49272537;stroke-miterlimit:4;stroke-dasharray:none;stroke-opacity:1" /><rect
     transform="scale(1,-1)"
     y="-1687.6438"
     x="-933.41803"
     height="374.99991"
     width="495.10489"
     id="rect851-5"
     style="opacity:1;fill:#008026;fill-opacity:1;fill-rule:evenodd;stroke:none;stroke-width:31.49272537;stroke-miterlimit:4;stroke-dasharray:none;stroke-opacity:1" /><rect
     transform="scale(1,-1)"
     y="-1312.6438"
     x="-933.41803"
     height="374.99991"
     width="495.10489"
     id="rect851-3"
     style="opacity:1;fill:#004dff;fill-opacity:1;fill-rule:evenodd;stroke:none;stroke-width:31.49272537;stroke-miterlimit:4;stroke-dasharray:none;stroke-opacity:1" /><rect
     transform="scale(1,-1)"
     y="-937.6438"
     x="-933.41803"
     height="374.99991"
     width="495.10489"
     id="rect851-3-5"
     style="opacity:1;fill:#750787;fill-opacity:1;fill-rule:evenodd;stroke:none;stroke-width:31.49272537;stroke-miterlimit:4;stroke-dasharray:none;stroke-opacity:1" /></g><path
   d="m 1960.0237,1629.0569 c 34.748,101.8719 92.1383,133.0607 99.2719,290.2631 2.5075,55.2445 -14.2745,230.7172 -14.2745,230.7172 0,0 27.2756,70.3569 -25.1425,148.7323 -81.2774,121.5222 -248.6722,129.7845 -336.5838,129.7845 -87.9117,0 -253.3518,-8.2623 -334.6328,-129.7845 -52.4216,-78.3754 -25.146,-148.7323 -25.146,-148.7323 0,0 -9.2845,-90.2472 -16.3111,-169.8449 -1.6551,-18.6789 0.1533,-92.5664 2.3897,-110.4174 4.0198,-31.9882 14.0997,-63.4172 25.1283,-94.011 13.9642,-38.738 35.8502,-78.0457 52.5608,-117.7907 50.4349,-119.9916 8.2287,-268.6092 10.8075,-398.0029 2.1793,-91.846 -19.4855,-185.0145 -27.9746,-274.83178 95.5446,-32.50114 196.764,-49.45194 300.5873,-49.45194 116.6781,0 230.0819,21.34937 335.8169,62.18766 -19.8566,112.45356 -42.9303,219.11416 -46.49,259.80906 -10.3653,123.0277 -40.2161,253.5112 -0.01,371.3736"
   style="fill:#ffffff;fill-opacity:1;fill-rule:nonzero;stroke:none;stroke-width:0.35756606"
   id="path46"
   inkscape:connector-curvature="0" /><path
   d="m 1316.582,2345.7001 c 1.12,-18.2371 2.9177,-36.931 8.054,-54.6795 1.6121,-5.5321 3.9948,-19.1645 11.1142,-21.1904 8.8528,-2.5218 25.2282,8.0396 31.438,12.6158 12.0309,8.8564 23.295,17.9732 35.3294,26.9224 7.6759,5.707 16.0579,10.194 23.5732,16.0615 8.1787,6.3738 14.3315,14.0925 21.137,21.5935 8.2608,9.1132 14.4563,18.5475 20.8089,28.7202 4.9686,7.9397 36.0928,13.108 41.0756,20.477 5.4395,8.0576 0.8917,18.0233 0.8917,27.9426 0,72.2105 4.3373,143.679 6.0244,214.4877 1.7406,48.5731 20.816,106.2522 -52.0329,83.4852 -156.0915,-48.5731 -154.3509,-264.1129 -147.4135,-376.436"
   style="fill:#ffffff;fill-opacity:1;fill-rule:nonzero;stroke:none;stroke-width:0.35668287"
   id="path48"
   inkscape:connector-curvature="0" /><path
   d="m 2004.2059,2244.2845 c -1.5693,1.705 -4.084,3.1531 -6.0957,4.644 -8.7423,6.4738 -16.9852,13.2472 -24.4934,20.9159 -9.1632,9.3593 -18.6866,18.4584 -27.4218,28.1672 -7.6829,8.5318 -16.8568,16.1649 -24.3472,24.9001 -4.9935,5.8032 -9.8159,11.9809 -14.2245,18.0731 -2.2506,3.0924 -3.4277,6.8126 -5.1968,10.1227 -2.6359,4.8794 -38.8321,9.8515 -35.2368,14.6097 6.135,8.111 19.7924,14.9913 23.0775,24.2829 16.789,47.3853 24.1189,238.0858 26.1448,286.7552 5.2111,124.4644 114.4738,-6.0743 133.5563,-56.1633 55.507,-145.7156 22.5352,-251.9643 -45.0953,-376.4323"
   style="fill:#ffffff;fill-opacity:1;fill-rule:nonzero;stroke:none;stroke-width:0.35668287"
   id="path50"
   inkscape:connector-curvature="0" /><path
   d="m 1855.5904,1765.3985 c -0.079,71.8609 -9.0098,100.9341 -49.0795,136.071 -25.0641,21.9716 -54.3656,30.3537 -101.009,29.2016 -46.6399,1.1521 -80.2536,-13.0261 -104.4902,-38.19 -36.5601,-37.9653 -46.1869,-60.4185 -46.2903,-132.2795 -0.057,-38.8427 41.8246,-124.789 54.2871,-144.6241 20.684,-34.9835 58.9668,-47.5637 96.4934,-44.9385 37.5302,-2.6252 75.8165,9.955 96.4863,44.9385 12.4732,19.8351 53.6558,104.1371 53.6022,149.821"
   style="fill:#f1e6d3;fill-opacity:1;fill-rule:nonzero;stroke:none;stroke-width:0.35668287"
   id="path52"
   inkscape:connector-curvature="0" /><path
   d="m 1378.6235,2279.7067 c -9.363,83.8204 -37.5659,233.6558 59.8692,322.5162 10.7468,9.8088 13.6324,-23.5625 15.4301,-37.0629 2.4717,-18.5369 -0.05,-71.4829 0.3281,-90.1445 0.6955,-35.1368 8.0575,-53.5167 4.6262,-69.5782 -9.3737,-43.9041 -16.8961,-41.072 -25.8595,-67.7697 -17.7771,-52.946 -51.8332,-80.8778 -54.3941,-57.9609"
   style="fill:#f1d7d4;fill-opacity:1;fill-rule:nonzero;stroke:none;stroke-width:0.35668287"
   id="path54"
   inkscape:connector-curvature="0" /><path
   d="m 1987.2991,2296.2674 c 9.9729,-17.8484 36.0214,78.1421 44.1859,119.8312 7.6866,39.2458 17.4525,91.3964 3.9521,130.3855 -7.2406,20.9158 -51.6799,82.3401 -56.923,61.2352 -2.0438,-8.1966 -3.0996,-69.2249 -8.1252,-98.4266 -6.2207,-36.1319 -17.4383,-71.8608 -17.5061,-108.6064 -0.1462,-82.3402 24.6682,-85.7358 34.4163,-104.4189"
   style="fill:#f1d7d4;fill-opacity:1;fill-rule:nonzero;stroke:none;stroke-width:0.35668287"
   id="path56"
   inkscape:connector-curvature="0" /><path
   d="m 1666.2525,1309.6114 c -2.1116,-6.4096 -18.1053,-11.1036 -24.1118,-13.0404 -14.517,-4.6903 -27.4039,6.7556 -35.5149,16.4003 -11.2783,13.3685 -10.9787,34.691 -15.7012,50.2816 -2.857,9.4271 -19.0183,10.7076 -23.8727,1.9867 -16.1899,-29.1125 -79.0231,25.6705 -64.4205,43.9077 9.6268,12.0273 -13.4184,22.6493 -22.9205,10.786 -28.1851,-35.2081 47.6315,-100.77 91.1146,-83 1.9368,-8.7959 3.9663,-17.5809 7.7008,-25.9345 7.3263,-16.4073 23.3485,-27.008 39.9307,-35.918 22.5851,-12.1093 66.4607,9.1597 73.1628,29.4585 4.6654,14.1211 -20.7197,19.1182 -25.3673,5.0721"
   style="fill:#faeee0;fill-opacity:1;fill-rule:nonzero;stroke:none;stroke-width:0.35668287"
   id="path58"
   inkscape:connector-curvature="0" /><path
   d="m 1866.4514,1522.3406 c 2.3327,-9.7803 2.7001,-42.9125 -15.5157,-24.7859 -7.3905,7.3548 -22.0679,3.0139 -22.6671,-6.8234 -1.409,-22.7706 -24.2438,-23.2735 -43.9469,-16.3895 -15.6334,5.4536 -23.8871,-16.1507 -8.3785,-21.5615 28.9305,-10.0942 60.3293,-4.5013 72.8061,17.3669 9.8158,-4.619 20.9194,-5.8782 29.8223,2.5003 15.5477,14.6454 17.8911,35.2723 13.3684,54.2407 -3.4348,14.3744 -28.9163,9.8302 -25.4886,-4.5476"
   style="fill:#faeee0;fill-opacity:1;fill-rule:nonzero;stroke:none;stroke-width:0.35668287"
   id="path60"
   inkscape:connector-curvature="0" /><path
   d="m 1912.6169,1046.2368 c -6.8198,-13.9393 -19.3322,-13.0689 -32.7507,-7.2157 -9.8408,4.2837 -22.0109,-2.8 -19.0432,-12.7621 5.9745,-19.9814 -19.2644,-25.8168 -36.3317,-18.6902 -15.0199,6.274 -28.0745,-13.43272 -12.8941,-19.77811 30.7497,-12.83345 69.8385,-1.60507 75.5098,25.44571 19.778,-3.1351 38.6644,2.4183 48.0951,21.7221 6.5272,13.3221 -15.9723,24.8001 -22.5852,11.2783"
   style="fill:#faeee0;fill-opacity:1;fill-rule:nonzero;stroke:none;stroke-width:0.35668287"
   id="path62"
   inkscape:connector-curvature="0" /><path
   d="m 1712.7461,2121.1754 c -3.1673,-19.6496 -40.0127,3.2315 -49.1616,9.4342 -8.0539,5.4502 -18.4726,2.1401 -19.457,-7.048 -1.3162,-12.3804 -17.9947,-8.7851 -25.617,-7.2299 -14.4171,2.9318 -26.6442,11.9167 -26.9867,25.4172 -0.3352,13.1187 7.9898,26.8938 12.3306,39.2102 2.7785,7.8648 -8.4926,16.5179 -16.732,11.2569 -14.838,-9.4736 -86.3779,-17.9947 -57.8861,13.1901 9.0776,9.9335 -6.9446,24.1439 -16.1185,14.0997 -13.1615,-14.4101 -22.0643,-47.4175 6.4097,-54.4049 15.0306,-3.6845 36.7811,-3.499 55.3179,0.7276 -7.74,-24.8073 -9.3629,-47.5137 22.5459,-63.4538 21.5615,-10.7754 51.1733,-10.7006 63.7214,5.9459 26.4016,-14.1996 67.8731,-27.9747 73.6087,7.5581 2.033,12.5659 -19.9244,17.991 -21.9753,5.2967"
   style="fill:#faeee0;fill-opacity:1;fill-rule:nonzero;stroke:none;stroke-width:0.35668287"
   id="path64"
   inkscape:connector-curvature="0" /><path
   d="m 1589.3446,1665.802 c 38.3291,-3.2422 76.6725,-11.9489 115.3583,-10.5507 24.7289,0.8989 50.3315,4.3623 74.7286,7.979 17.7236,2.6252 39.4527,5.7248 51.3088,18.8649 1.1129,-43.8327 -90.0767,-57.5507 -125.4453,-58.4425 -41.0328,-1.0379 -87.1519,16.7678 -115.9504,42.1493"
   style="fill:#494949;fill-opacity:1;fill-rule:nonzero;stroke:none;stroke-width:0.35668287"
   id="path66"
   inkscape:connector-curvature="0" /><path
   d="m 1692.9645,1757.2483 c -4.3837,-28.1351 -5.2896,-56.6661 -2.6502,-84.9689 0.6991,-7.3976 -1.2734,-25.032 8.5639,-28.7452 7.9755,-3.0139 17.8342,2.6502 19.1361,9.8445 2.2008,12.1273 -2.9604,27.4218 -3.3991,39.8415 -0.5173,14.5455 0,29.1125 1.5373,43.5902 0.9202,8.5818 5.7354,20.1597 -4.0877,26.2055 -7.2086,4.4336 -17.7771,2.7964 -19.1003,-5.7676"
   style="fill:#494949;fill-opacity:1;fill-rule:nonzero;stroke:none;stroke-width:0.35668287"
   id="path68"
   inkscape:connector-curvature="0" /><path
   d="m 1767.4791,1825.6458 c -23.0381,-0.9952 -44.4284,-13.8857 -61.7276,-26.3125 -15.6583,10.3937 -39.3671,19.9458 -59.0951,14.3851 -11.7599,-3.3029 -1.0808,-6.909 3.8235,-10.0442 9.0634,-6.028 16.4503,-13.7751 23.1167,-21.7791 10.1155,-12.2663 19.1075,-25.1461 29.9007,-36.9773 7.4726,5.3788 14.6062,10.811 21.1014,17.0958 3.014,2.9141 27.6857,35.9536 31.4736,41.5429 2.4184,3.5597 4.8581,7.2371 7.6295,10.5863 2.8142,3.3885 10.779,8.7779 3.7773,11.503"
   style="fill:#494949;fill-opacity:1;fill-rule:nonzero;stroke:none;stroke-width:0.35668287"
   id="path70"
   inkscape:connector-curvature="0" /><path
   d="m 1475.9087,1981.716 c 11.3746,29.5047 23.6017,66.5855 54.7829,60.686 23.6052,-5.0578 55.2038,-83.849 34.9799,-76.0662 -10.9573,4.2125 -19.6746,40.0234 -40.2445,44.6674 -13.0689,2.9533 -31.1884,-42.3561 -48.6765,-46.9894 -8.4784,-2.24 -4.2125,10.1155 -0.8418,17.7022"
   style="fill:#2c3844;fill-opacity:1;fill-rule:nonzero;stroke:none;stroke-width:0.35668287"
   id="path72"
   inkscape:connector-curvature="0" /><path
   d="m 1810.9195,1981.716 c 11.3782,29.5047 23.6053,66.5855 54.7865,60.686 23.6017,-5.0578 55.2002,-83.849 34.9763,-76.0662 -10.9573,4.2125 -19.671,40.0234 -40.2445,44.6674 -13.0689,2.9533 -31.1883,-42.3561 -48.673,-46.9894 -8.4783,-2.24 -4.2159,10.1155 -0.8453,17.7022"
   style="fill:#2c3844;fill-opacity:1;fill-rule:nonzero;stroke:none;stroke-width:0.35668287"
   id="path74"
   inkscape:connector-curvature="0" /><g
   aria-label="Vikunja"
   transform="matrix(0.97366203,0,0,-0.97366203,184.32573,24.625779)"
   style="font-style:normal;font-weight:normal;font-size:1163.38110352px;line-height:1.25;font-family:sans-serif;letter-spacing:0px;word-spacing:0px;fill:#000000;fill-opacity:1;stroke:none;stroke-width:29.08452606"
   id="text831"><path
     d="m 3302.2541,-1549.4053 c 3.4901,2.3268 8.1436,5.8169 10.4704,6.9803 1.1634,0 1.1634,0 1.1634,0 0,0 1.1633,0 1.1633,1.1634 2.3268,0 6.9803,1.1634 9.3071,2.3267 1.1634,0 2.3268,0 2.3268,0 3.4901,1.1634 8.1436,1.1634 11.6338,1.1634 3.4901,0 6.9803,0 11.6338,-1.1634 1.1634,0 2.3267,0 2.3267,0 3.4902,-1.1633 5.8169,-2.3267 9.3071,-2.3267 1.1634,-1.1634 1.1634,-1.1634 2.3268,-1.1634 0,0 0,0 0,0 3.4901,-1.1634 6.9802,-4.6535 9.307,-5.8169 2.3268,-1.1634 2.3268,-1.1634 2.3268,-1.1634 2.3267,-2.3268 4.6535,-3.4901 6.9802,-5.8169 1.1634,-1.1634 1.1634,-1.1634 2.3268,-3.4901 1.1634,-2.3268 4.6535,-4.6536 5.8169,-6.9803 1.1634,0 1.1634,0 1.1634,-1.1634 2.3268,-2.3268 3.4901,-6.9803 4.6535,-9.3071 l 287.3552,-679.4145 c 12.7971,-31.4113 -2.3268,-69.8029 -34.9015,-82.6001 -31.4113,-13.9606 -69.8028,1.1634 -83.7634,33.7381 l -226.8593,538.6454 -226.8593,-538.6454 c -13.9606,-32.5747 -51.1888,-47.6987 -82.6001,-33.7381 -33.7381,12.7972 -48.862,51.1888 -34.9014,82.6001 l 285.0283,679.4145 c 2.3268,2.3268 4.6536,6.9803 5.8169,9.3071 0,1.1634 1.1634,1.1634 1.1634,1.1634 1.1634,2.3267 3.4902,4.6535 5.8169,6.9803 0,2.3267 1.1634,2.3267 1.1634,3.4901 3.4901,2.3268 5.8169,3.4901 8.1437,5.8169 1.1634,0 1.1634,0 1.1634,0 z"
     style="font-style:normal;font-variant:normal;font-weight:bold;font-stretch:normal;font-family:Quicksand;-inkscape-font-specification:'Quicksand Bold';fill:#252626;fill-opacity:1;stroke-width:29.08452606"
     id="path834"
     inkscape:connector-curvature="0" /><path
     d="m 3936.8421,-2118.2987 c -34.9014,0 -62.8226,26.7578 -62.8226,63.986 v 453.7186 c 0,34.9015 27.9212,62.8226 62.8226,62.8226 36.0648,0 62.8226,-27.9211 62.8226,-62.8226 v -453.7186 c 0,-37.2282 -26.7578,-63.986 -62.8226,-63.986 z m 62.8226,-171.017 c 0,-34.9014 -26.7578,-62.8226 -62.8226,-62.8226 -34.9014,0 -62.8226,27.9212 -62.8226,62.8226 v 24.431 c 0,34.9015 27.9212,63.986 62.8226,63.986 36.0648,0 62.8226,-29.0845 62.8226,-63.986 z"
     style="font-style:normal;font-variant:normal;font-weight:bold;font-stretch:normal;font-family:Quicksand;-inkscape-font-specification:'Quicksand Bold';fill:#252626;fill-opacity:1;stroke-width:29.08452606"
     id="path836"
     inkscape:connector-curvature="0" /><path
     d="m 4264.043,-1537.7715 c 36.0648,0 65.1493,-29.0845 65.1493,-63.9859 v -102.3776 l 63.986,-63.9859 171.017,207.0818 c 11.6338,15.1239 30.2479,23.2676 48.862,23.2676 13.9606,0 29.0845,-4.6535 40.7183,-15.1239 27.9212,-22.1043 31.4113,-62.8226 9.3071,-90.7438 l -179.1607,-215.2255 174.5071,-174.5071 c 25.5944,-24.431 25.5944,-65.1494 0,-90.7438 -24.431,-24.431 -66.3127,-24.431 -90.7437,0 l -238.4931,238.4932 v -402.5299 c 0,-34.9014 -29.0845,-63.986 -65.1493,-63.986 -36.0649,0 -63.986,29.0846 -63.986,63.986 v 686.3949 c 0,34.9014 27.9211,63.9859 63.986,63.9859 z"
     style="font-style:normal;font-variant:normal;font-weight:bold;font-stretch:normal;font-family:Quicksand;-inkscape-font-specification:'Quicksand Bold';fill:#252626;fill-opacity:1;stroke-width:29.08452606"
     id="path838"
     inkscape:connector-curvature="0" /><path
     d="m 5316.6484,-1779.7548 v -278.048 c 0,-32.5747 -30.2479,-61.6592 -62.8226,-61.6592 -34.9014,0 -60.4958,29.0845 -60.4958,61.6592 v 278.048 c -1.1634,66.3128 -54.6789,118.6649 -122.155,118.6649 -66.3127,0 -118.6649,-52.3521 -118.6649,-118.6649 v -278.048 c 0,-32.5747 -26.7577,-61.6592 -61.6592,-61.6592 -33.738,0 -61.6592,29.0845 -61.6592,61.6592 v 278.048 c 0,132.6255 109.3579,241.9833 241.9833,241.9833 133.7888,0 245.4734,-109.3578 245.4734,-241.9833 z"
     style="font-style:normal;font-variant:normal;font-weight:bold;font-stretch:normal;font-family:Quicksand;-inkscape-font-specification:'Quicksand Bold';fill:#252626;fill-opacity:1;stroke-width:29.08452606"
     id="path840"
     inkscape:connector-curvature="0" /><path
     d="m 5769.022,-2119.462 c -45.3719,0 -88.417,13.9605 -123.3184,36.0648 -10.4705,-22.1043 -32.5747,-36.0648 -57.0057,-36.0648 -34.9015,0 -61.6592,27.9211 -61.6592,61.6592 v 180.324 c 0,0 0,0 0,0 v 278.0481 c 0,33.7381 26.7577,61.6592 61.6592,61.6592 30.2479,0 55.8423,-22.1042 61.6592,-50.0254 2.3267,-4.6535 2.3267,-8.1436 2.3267,-11.6338 v -278.0481 c 0,-65.1493 51.1888,-117.5015 116.3382,-117.5015 66.3127,0 120.9916,52.3522 120.9916,117.5015 v 278.0481 c 0,33.7381 29.0845,61.6592 61.6592,61.6592 33.738,0 60.4958,-27.9211 60.4958,-61.6592 v -278.0481 c 0,-131.462 -108.1944,-241.9832 -243.1466,-241.9832 z"
     style="font-style:normal;font-variant:normal;font-weight:bold;font-stretch:normal;font-family:Quicksand;-inkscape-font-specification:'Quicksand Bold';fill:#252626;fill-opacity:1;stroke-width:29.08452606"
     id="path842"
     inkscape:connector-curvature="0" /><path
     d="m 6255.6424,-2199.7353 c 34.9014,0 62.8226,-30.2479 62.8226,-63.986 v -23.2676 c 0,-37.2282 -27.9212,-63.986 -62.8226,-63.986 -34.9015,0 -63.986,26.7578 -63.986,63.986 v 23.2676 c 0,33.7381 29.0845,63.986 63.986,63.986 z m -65.1494,867.8823 c 69.8029,0 125.6452,-57.0057 125.6452,-125.6452 v -597.9779 c 0,-36.0648 -26.7578,-63.9859 -62.8226,-63.9859 -33.738,0 -62.8226,27.9211 -62.8226,63.9859 v 597.9779 c 0,0 0,0 0,0 -37.2282,0 -63.9859,27.9212 -63.9859,61.6592 0,37.2282 26.7577,63.986 63.9859,63.986 z"
     style="font-style:normal;font-variant:normal;font-weight:bold;font-stretch:normal;font-family:Quicksand;-inkscape-font-specification:'Quicksand Bold';fill:#252626;fill-opacity:1;stroke-width:29.08452606"
     id="path844"
     inkscape:connector-curvature="0" /><path
     d="m 6998.4795,-2056.6395 c 0,-34.9014 -27.9212,-62.8225 -61.6592,-62.8225 -30.248,0 -53.5156,22.1042 -60.4959,51.1887 -44.2084,-31.4113 -96.5606,-51.1887 -154.7296,-51.1887 -79.11,0 -147.7494,33.738 -197.7748,87.2535 -50.0254,52.3522 -79.11,124.4818 -79.11,204.7551 0,79.1099 29.0846,151.2396 79.11,204.7551 50.0254,52.3521 118.6648,84.9268 197.7748,84.9268 0,0 0,0 0,0 58.169,0 110.5212,-18.6141 154.7296,-50.0254 6.9803,27.9212 30.2479,50.0254 60.4959,50.0254 33.738,0 61.6592,-27.9211 61.6592,-61.6592 v -228.0227 c 0,0 0,0 0,0 0,0 0,0 0,0 z m -168.6903,349.0144 c -27.9212,29.0845 -67.4761,45.3718 -108.1944,45.3718 -41.8818,0 -81.4367,-16.2873 -108.1945,-45.3718 -27.9211,-30.2479 -44.2085,-72.1297 -44.2085,-119.8283 0,-48.862 16.2874,-90.7437 44.2085,-119.8282 26.7578,-31.4113 66.3127,-47.6987 108.1945,-47.6987 40.7183,0 80.2732,16.2874 108.1944,47.6987 27.9211,29.0845 45.3719,70.9662 45.3719,119.8282 0,47.6986 -17.4508,89.5804 -45.3719,119.8283 z"
     style="font-style:normal;font-variant:normal;font-weight:bold;font-stretch:normal;font-family:Quicksand;-inkscape-font-specification:'Quicksand Bold';fill:#252626;fill-opacity:1;stroke-width:29.08452606"
     id="path846"
     inkscape:connector-curvature="0" /></g>

</g></g></svg>
