<?xml version="1.0" standalone="no"?>
<!DOCTYPE svg PUBLIC "-//W3C//DTD SVG 1.1//EN" "http://www.w3.org/Graphics/SVG/1.1/DTD/svg11.dtd">
<svg xmlns="http://www.w3.org/2000/svg">
<defs >
<font id="Quicksand" horiz-adv-x="544" ><font-face
    font-family="Quicksand"
    units-per-em="1000"
    panose-1="0 0 5 0 0 0 0 0 0 0"
    ascent="1000"
    descent="-250"
    alphabetic="0" />
<glyph unicode=" " glyph-name="space" horiz-adv-x="273" />
<glyph unicode="!" glyph-name="exclam" horiz-adv-x="185" d="M75 196T72 217L61 659Q61 678 69 689T93 700Q109 700 117 689T124 659L113 217Q112 196 93 196Q75 196 72 217ZM72 0T63 10T54 38V60Q54 78 63 88T90 98H96Q113 98 122 88T131 60V38Q131 20 122
10T96 0H90Q72 0 63 10Z" />
<glyph unicode="&quot;" glyph-name="quotedbl" horiz-adv-x="383" d="M73 700T99 700H131Q150 700 150 683Q150 680 148 672L85 456Q79 435 57 435Q50 435 47 442T44 461L70 674Q73 700 99 700ZM263 700T289 700H321Q340 699 340 683Q340 680 338 672L275 456Q268
435 247 435Q231 435 234 461L260 674Q263 700 289 700Z" />
<glyph unicode="#" glyph-name="numbersign" horiz-adv-x="654" d="M612 524T621 515T630 491Q630 478 621 470T598 462H507L469 242H559Q573 242 582 233T591 210Q591 197 582 189T559 181H459L432 26Q430 14 422 7T402 0Q389 0 380 9T371 33L372 41L396 181H200L173
26Q172 14 164 7T143 0Q130 0 121 9T112 33L113 41L137 181H56Q43 181 34 190T24 213Q24 226 33 234T56 242H148L185 462H96Q82 462 73 471T63 495Q63 508 72 516T96 524H196L222 674Q224 686 232 693T252 700Q268 700 276 689T282 660L259 524H455L481 674Q483
686 491 693T511 700Q527 700 535 689T541 660L518 524H598Q612 524 621 515ZM407 242L444 462H248L210 242H407Z" />
<glyph unicode="$" glyph-name="dollar" horiz-adv-x="562" d="M514 126T490 87T421 23T318 -8V-121Q318 -134 310 -142T288 -151Q275 -151 267 -143T258 -121V-9Q195 -5 145 19T48 89Q36 99 36 113Q36 125 45 135T67 145Q79 145 89 135Q159 59 258 50V330Q164
359 114 402T64 528Q64 601 117 650T258 708V785Q258 798 267 806T289 815Q302 815 310 807T318 785V709Q371 704 417 684T491 631Q506 614 506 602Q506 591 496 582T474 572Q464 572 457 579Q434 607 397 626T318 649V377Q380 358 421 336T488 274T514 172Q514
126 490 87ZM126 480T160 450T258 397V649Q198 642 162 611T126 530Q126 480 160 450ZM377 59T414 91T451 172Q450 224 416 255T318 311V51Q377 59 414 91Z" />
<glyph unicode="%" glyph-name="percent" horiz-adv-x="776" d="M116 343T81 395T45 524Q45 602 81 655T183 708Q248 708 284 656T320 525Q320 448 283 396T181 343Q116 343 81 395ZM158 -3T150 4T142 24Q142 32 147 40L575 690Q579 696 585 699T597 703Q608 703
616 696T625 676Q625 668 620 660L192 10Q182 -3 170 -3Q158 -3 150 4ZM223 395T243 430T263 524Q263 583 242 619T181 656Q141 656 122 620T102 525Q102 467 123 431T183 395Q223 395 243 430ZM529 -9T493 43T456 173Q456 251 493 304T595 357Q660 357 695 305T731
174Q731 97 695 44T593 -9Q529 -9 493 43ZM635 44T655 79T675 173Q675 232 654 268T593 305Q553 305 533 269T513 174Q513 116 534 80T595 44Q635 44 655 79Z" />
<glyph unicode="&amp;" glyph-name="ampersand" horiz-adv-x="679" d="M654 46T654 31Q654 21 647 12T627 3Q617 3 609 8L587 25Q541 59 509 86Q466 41 407 16T272 -10Q203 -10 148 22T61 107T30 218Q30 284 68 339T180 424Q138 490 138 546Q138 593 161 630T226
688T326 710Q394 710 442 684T511 619Q516 609 516 600Q516 590 508 583T488 575Q472 575 466 586Q444 619 411 637T326 655Q266 655 234 626T201 546Q201 504 232 453T317 343Q391 260 500 167Q535 226 548 297Q550 306 556 312T575 318Q588 318 596 308T603 283Q591
201 545 131Q587 96 641 56Q654 46 654 31ZM394 48T465 122Q359 207 263 317Q227 359 212 379Q150 360 121 319T92 226Q92 180 113 139T177 73T279 48Q394 48 465 122Z" />
<glyph unicode="&apos;" glyph-name="quotesingle" horiz-adv-x="193" d="M73 700T99 700H132Q151 698 151 682Q151 680 149 672L85 456Q79 435 57 435Q50 435 47 442T44 461L70 674Q73 700 99 700Z" />
<glyph unicode="(" glyph-name="parenleft" horiz-adv-x="374" d="M314 -192T306 -188Q184 -126 119 -6T53 257Q53 395 119 512T307 702Q314 706 321 706Q332 706 339 698T347 679Q347 665 335 656Q231 596 172 487T113 257Q113 134 171 24T335 -143Q347 -149
347 -165Q347 -176 340 -184T321 -192Q314 -192 306 -188Z" />
<glyph unicode=")" glyph-name="parenright" horiz-adv-x="374" d="M41 -191T34 -183T26 -164Q26 -150 39 -141Q143 -81 202 28T261 258Q261 381 203 491T39 658Q27 664 27 680Q27 691 34 699T52 707Q60 707 67 703Q189 640 255 520T321 258Q321 120 254 2T67
-187Q60 -191 52 -191Q41 -191 34 -183Z" />
<glyph unicode="*" glyph-name="asterisk" horiz-adv-x="309" d="M144 400T138 407T133 425L140 518Q141 521 139 522T135 522L57 468Q50 464 43 464Q30 464 24 475Q20 483 20 487Q20 500 35 508L121 548Q124 549 124 551T121 554L35 595Q21 601 21 616Q21 622
24 628Q30 639 43 639Q50 639 57 635L135 581Q137 579 139 580T140 584L133 677Q132 688 139 695T156 702Q166 702 172 695T177 677L170 584Q169 581 171 580T176 581L253 634Q260 639 267 639Q281 639 287 627Q290 621 290 615Q290 601 275 595L190 554Q187 553
187 551T190 548L275 508Q290 501 290 486Q290 481 287 475Q281 464 267 464Q260 464 253 468L176 522Q173 524 171 523T170 518L177 425Q178 414 171 407T154 400Q144 400 138 407Z" />
<glyph unicode="+" glyph-name="plus" horiz-adv-x="562" d="M503 285T511 277T519 255Q519 244 511 236T490 227H315V44Q315 30 306 21T283 11Q270 11 261 20T251 43V227H77Q64 227 56 235T48 257Q48 269 56 277T77 285H251V467Q251 481 260 490T283 499Q298
499 306 491T315 468V285H490Q503 285 511 277Z" />
<glyph unicode="," glyph-name="comma" horiz-adv-x="194" d="M156 -25T142 -53T105 -100T62 -119Q51 -119 44 -114T36 -97Q36 -87 41 -83T56 -76T72 -70Q86 -63 93 -50T101 -20Q101 -9 95 -2T79 5Q63 5 52 -4Q40 6 40 20Q40 38 58 51T97 65Q123 65 139 49T156
3Q156 -25 142 -53Z" />
<glyph unicode="-" glyph-name="hyphen" horiz-adv-x="390" d="M74 231T66 239T58 261Q58 274 66 282T87 290H303Q316 290 324 281T333 259Q333 247 325 239T303 231H87Q74 231 66 239Z" />
<glyph unicode="." glyph-name="period" horiz-adv-x="181" d="M70 0T61 10T52 39V60Q52 78 61 88T87 98H94Q111 98 120 88T129 60V39Q129 21 120 11T94 0H87Q70 0 61 10Z" />
<glyph unicode="/" glyph-name="slash" horiz-adv-x="522" d="M24 -130T16 -122T8 -101Q8 -93 12 -86L447 775Q454 788 461 793T480 799Q490 799 498 792T506 772Q506 763 502 754L67 -108Q60 -120 53 -125T36 -130Q24 -130 16 -122Z" />
<glyph unicode="0" glyph-name="zero" horiz-adv-x="595" d="M218 -10T164 37T83 165T55 350Q55 454 82 535T163 663T297 710Q376 710 430 664T512 536T540 350Q540 247 513 166T431 37T297 -10Q218 -10 164 37ZM383 52T429 132T476 350Q476 488 430 568T297 649Q212
649 166 569T119 350Q119 213 165 133T297 52Q383 52 429 132Z" />
<glyph unicode="1" glyph-name="one" horiz-adv-x="333" d="M225 699T232 691T240 670V30Q240 17 231 9T207 0Q194 0 185 8T176 30V615L51 541Q44 537 37 537Q24 537 15 547T5 569Q5 576 9 583T21 594L190 696Q200 702 214 700Q225 699 232 691Z" />
<glyph unicode="2" glyph-name="two" horiz-adv-x="567" d="M505 58T513 50T522 29Q522 16 514 8T493 0H118Q104 0 95 8T86 30Q86 41 94 51L325 306Q381 366 408 413T435 507Q435 575 394 614T280 653Q231 653 193 630T135 558Q124 540 109 540Q98 540 88 548T78
566Q78 572 82 580T92 596Q118 650 170 680T284 710Q385 710 442 655T499 511Q499 456 469 399T370 265L186 58H493Q505 58 513 50Z" />
<glyph unicode="3" glyph-name="three" horiz-adv-x="520" d="M310 443T358 417T436 341T466 223Q466 155 434 102T345 20T221 -10Q178 -10 138 4T70 46Q56 56 56 70Q56 82 65 92T86 103Q98 103 111 92Q153 47 227 47Q275 47 316 69T381 131T405 221Q405 276 381
313T317 367T233 385Q221 385 202 382T178 378Q166 378 159 386T151 408Q151 421 161 431L352 643H74Q62 643 54 651T45 672Q45 684 53 692T74 700H410Q426 700 433 691T441 669Q441 657 431 647L248 443H254Q310 443 358 417Z" />
<glyph unicode="4" glyph-name="four" horiz-adv-x="556" d="M497 272T505 264T514 244Q514 232 506 224T485 216H418V30Q418 17 409 9T387 0Q374 0 366 8T358 30V216H64Q52 216 43 225T34 247Q34 259 41 267L363 688Q371 700 388 700Q401 700 409 692T418 670V272H485Q497
272 505 264ZM116 272H358V592L116 272Z" />
<glyph unicode="5" glyph-name="five" horiz-adv-x="549" d="M317 465T368 437T449 357T479 241Q479 171 447 116T356 29T224 -2Q182 -2 141 12T68 52Q62 56 59 63T55 78Q55 88 63 97T84 107Q95 107 106 98Q132 78 162 67T224 56Q281 56 325 79T394 144T419 239Q419
315 370 361T239 408Q208 408 182 399T122 375Q98 363 91 363Q76 363 67 372T57 395Q57 400 58 403L101 675Q103 685 111 692T132 700H433Q445 700 453 692T462 670Q462 658 454 650T433 641H153L119 434Q145 447 180 456T253 465Q317 465 368 437Z" />
<glyph unicode="6" glyph-name="six" horiz-adv-x="537" d="M356 443T403 411T477 326T504 214Q504 155 476 104T397 21T285 -10Q210 -10 158 25T81 117T55 240Q55 325 91 422T196 601T360 719Q368 721 373 721Q386 721 395 713T404 690Q404 669 380 661Q300 628
230 545T133 367Q163 402 205 422T297 443Q356 443 403 411ZM353 48T398 94T443 214Q443 259 425 298T371 361T288 385Q236 385 197 362T137 299T116 211Q116 167 136 130T194 71T283 48Q353 48 398 94Z" />
<glyph unicode="7" glyph-name="seven" horiz-adv-x="518" d="M471 700T478 692T486 672Q486 667 483 658L208 17Q204 8 196 3T179 -3Q167 -3 158 5T148 25Q148 33 151 40L410 643H89Q77 643 69 651T60 672Q60 684 68 692T89 700H457Q471 700 478 692Z" />
<glyph unicode="8" glyph-name="eight" horiz-adv-x="565" d="M434 332T465 288T497 187Q497 134 469 89T391 18T282 -8Q223 -8 174 18T97 89T68 187Q68 245 99 288T178 355Q138 376 111 417T84 510Q84 563 110 606T182 675T282 700Q336 700 381 675T453 607T479
510Q479 458 452 418T384 356Q434 332 465 288ZM221 643T183 606T145 510Q145 471 164 441T214 393T282 376Q318 376 349 393T399 440T418 510Q418 569 380 606T282 643Q221 643 183 606ZM350 50T393 88T436 187Q436 226 415 258T359 308T282 327Q241 327 206 309T150
258T129 187Q129 127 171 89T282 50Q350 50 393 88Z" />
<glyph unicode="9" glyph-name="nine" horiz-adv-x="553" d="M349 711T401 676T478 584T504 461Q504 377 469 282T364 108T199 -7Q191 -9 187 -9Q174 -9 165 0T155 22Q155 43 179 51Q261 86 330 163T425 332Q396 299 354 280T262 260Q203 260 156 291T82 375T55
487Q55 546 83 597T162 680T275 711Q349 711 401 676ZM324 318T363 341T422 403T443 490Q443 534 423 571T365 630T276 653Q230 653 194 632T138 573T117 487Q117 442 135 404T188 342T272 318Q324 318 363 341Z" />
<glyph unicode=":" glyph-name="colon" horiz-adv-x="187" d="M73 417T64 427T55 455V476Q55 494 64 504T90 515H97Q114 515 123 505T132 476V455Q132 437 123 427T97 417H90Q73 417 64 427ZM73 0T64 10T55 38V60Q55 78 64 88T90 98H97Q114 98 123 88T132 60V38Q132
20 123 10T97 0H90Q73 0 64 10Z" />
<glyph unicode=";" glyph-name="semicolon" horiz-adv-x="199" d="M92 417T82 427T71 455V476Q71 494 81 504T110 515H116Q133 515 143 505T154 476V455Q154 438 144 428T116 417H110Q92 417 82 427ZM164 -25T150 -53T113 -100T70 -119Q59 -119 52 -114T44 -97Q44
-87 49 -83T64 -76T80 -70Q94 -63 101 -50T109 -20Q109 -9 103 -2T87 5Q71 5 60 -4Q48 6 48 20Q48 38 66 51T105 65Q131 65 147 49T164 3Q164 -25 150 -53Z" />
<glyph unicode="&lt;" glyph-name="less" horiz-adv-x="523" d="M447 53T452 47T458 30Q458 18 450 9T431 0Q421 0 405 10L54 210Q42 216 38 224T33 245Q33 266 57 279L402 475Q415 483 425 483Q437 484 446 475T456 455Q456 438 438 428L109 243L434 60Q447 53 452 47Z" />
<glyph unicode="=" glyph-name="equal" horiz-adv-x="482" d="M68 309T59 317T50 339Q50 351 59 359T81 367H401Q414 367 423 359T432 337Q432 326 423 318T401 309H81Q68 309 59 317ZM68 126T59 134T50 156Q50 168 59 176T81 184H401Q414 184 423 176T432 155Q432
143 423 135T401 126H81Q68 126 59 134Z" />
<glyph unicode="&gt;" glyph-name="greater" horiz-adv-x="530" d="M497 262T497 241Q497 229 492 221T475 206L118 9Q104 0 93 0Q82 0 74 9T65 29Q65 39 70 45T89 59L421 239L85 427Q68 436 68 455Q68 467 76 475T97 483Q107 483 121 474L472 276Q497 262 497 241Z" />
<glyph unicode="?" glyph-name="question" horiz-adv-x="485" d="M302 736T349 710T425 636T453 523Q453 472 428 427T358 351T260 316V217Q260 204 252 196T230 187Q217 187 209 195T201 217V336Q201 349 209 358T231 367Q300 371 345 414T391 523Q391 568 372
603T319 658T244 678Q204 678 168 660T107 609Q95 597 82 597Q72 597 66 602Q51 611 51 626Q51 636 59 646Q91 687 140 711T244 736Q302 736 349 710ZM254 98T263 88T272 60V38Q272 20 263 10T237 0H231Q213 0 204 10T195 38V60Q195 78 204 88T231 98H237Q254 98
263 88Z" />
<glyph unicode="@" glyph-name="at" horiz-adv-x="972" d="M686 710T765 668T884 555T925 396Q925 314 894 235T809 105T689 55Q646 55 620 78T593 139Q593 148 594 153L597 178Q563 119 513 87T408 55Q366 55 333 77T280 136T261 220Q261 284 293 352T381 465T502
510Q552 510 587 483T636 411L646 475Q650 502 677 502Q704 502 704 477Q704 470 703 466L656 166Q655 161 655 152Q655 127 668 115T700 102Q746 102 786 145T851 256T875 396Q875 474 838 534T734 628T576 662Q439 662 328 607T154 449T90 206Q90 122 124 49T231
-69T414 -114Q465 -114 503 -107T568 -88T639 -55Q645 -52 651 -52Q663 -52 669 -66Q671 -72 671 -75Q671 -89 653 -98Q590 -129 539 -145T414 -162Q286 -162 202 -110T79 25T40 206Q40 358 111 472T304 648T576 710Q686 710 765 668ZM619 330T619 344Q619 396
587 427T504 459Q450 459 409 422T344 329T321 222Q321 168 348 137T417 106Q463 106 509 138T586 220T618 323Q619 330 619 344Z" />
<glyph unicode="A" glyph-name="A" horiz-adv-x="647" d="M618 32T618 28Q618 15 609 7T588 -1Q578 -1 571 4T559 19L484 202H159L85 19Q77 -1 58 -1Q44 -1 37 6T29 25V28Q29 34 30 37L294 683Q302 703 324 703Q334 703 341 698T353 683L616 40Q618 32 618 28ZM182
261H460L320 603L182 261Z" />
<glyph unicode="B" glyph-name="B" horiz-adv-x="651" d="M528 357T566 312T604 195Q604 97 544 49T393 0H124Q111 0 103 8T94 30V670Q94 683 102 691T124 700H389Q473 700 520 654T568 528Q568 475 542 433T468 372Q528 357 566 312ZM504 578T472 609T381 641H158V391H381Q435
392 469 426T504 523Q504 578 472 609ZM457 59T498 93T540 195Q540 265 498 298T388 331H158V59H390Q457 59 498 93Z" />
<glyph unicode="C" glyph-name="C" horiz-adv-x="653" d="M620 639T620 623Q620 614 613 603Q604 592 590 592Q582 592 574 597Q494 650 399 650Q318 650 253 612T150 506T112 350Q112 261 150 193T253 87T399 49Q494 49 573 101Q581 106 590 106Q604 106 613
94Q620 86 620 75Q620 59 606 51Q567 25 510 8T399 -10Q304 -10 224 35T96 163T48 350Q48 451 95 533T222 662T399 709Q455 709 508 693T605 648Q620 639 620 623Z" />
<glyph unicode="D" glyph-name="D" horiz-adv-x="719" d="M475 700T540 653T638 526T671 350Q671 251 639 172T541 47T379 0H124Q111 0 103 8T94 30V670Q94 683 102 691T124 700H379Q475 700 540 653ZM489 59T548 139T607 350Q607 431 582 496T504 601T369 641H157V59H369Q489
59 548 139Z" />
<glyph unicode="E" glyph-name="E" horiz-adv-x="568" d="M504 59T512 50T521 29Q521 16 513 8T491 0H124Q111 0 103 8T94 30V670Q94 683 102 691T124 700H491Q504 700 512 692T521 670Q521 657 513 649T491 641H157V390H446Q459 390 467 382T476 360Q476 347
468 339T446 331H157V59H491Q504 59 512 50Z" />
<glyph unicode="F" glyph-name="F" horiz-adv-x="566" d="M501 700T509 692T518 670Q518 658 510 650T488 641H155V390H443Q456 390 464 382T473 361Q473 348 465 340T443 332H155V30Q155 17 147 9T125 0Q111 0 103 8T94 30V670Q94 683 102 691T124 700H488Q501
700 509 692Z" />
<glyph unicode="G" glyph-name="G" horiz-adv-x="695" d="M618 353T626 345T635 323V82Q635 65 620 55Q575 24 520 7T408 -10Q306 -10 224 37T95 166T48 350Q48 452 95 534T224 663T408 710Q461 710 510 697T599 660Q613 651 613 635Q613 622 605 613T585 604Q575
604 567 609Q492 650 408 650Q323 650 256 611T150 504T112 350Q112 265 150 197T255 89T408 50Q451 50 494 62T572 95V293H414Q401 293 392 301T383 323Q383 336 392 344T414 353H605Q618 353 626 345Z" />
<glyph unicode="H" glyph-name="H" horiz-adv-x="720" d="M609 700T617 692T626 669V31Q625 17 616 9T594 0Q581 0 572 9T563 31V329H157V31Q156 18 147 9T125 0Q111 0 103 8T94 31V669Q94 683 103 691T126 700Q139 700 148 691T157 669V387H563V669Q563 682 572
691T595 700Q609 700 617 692Z" />
<glyph unicode="I" glyph-name="I" horiz-adv-x="250" d="M156 18T147 9T125 0Q111 0 103 8T94 31V669Q94 683 103 691T126 700Q139 700 148 691T157 669V31Q156 18 147 9Z" />
<glyph unicode="J" glyph-name="J" horiz-adv-x="572" d="M198 -10T148 24T71 117Q66 125 66 133Q66 145 75 153T96 161Q112 161 124 144Q143 101 179 76T260 50Q329 50 372 92T415 204V670Q415 683 424 691T447 700Q461 700 469 692T478 670V204Q478 143 450
94T373 18T260 -10Q198 -10 148 24Z" />
<glyph unicode="K" glyph-name="K" horiz-adv-x="675" d="M628 39T628 28Q628 13 618 5T594 -4Q581 -4 572 7L293 358L157 230V31Q156 17 147 9T125 0Q111 0 103 8T94 31V669Q94 683 103 691T126 700Q140 700 148 692T157 669V306L561 688Q570 698 583 698Q595
698 603 689T612 669Q612 657 603 648L341 403L621 49Q628 39 628 28Z" />
<glyph unicode="L" glyph-name="L" horiz-adv-x="532" d="M494 59T502 51T511 30Q511 17 503 9T481 0H124Q111 0 103 8T94 30V670Q94 683 103 691T126 700Q139 700 148 692T157 670V59H481Q494 59 502 51Z" />
<glyph unicode="M" glyph-name="M" horiz-adv-x="827" d="M716 700T724 692T733 670V30Q733 17 724 9T702 0Q688 0 679 8T670 30V580L435 224Q425 211 412 212H410Q398 212 388 224L153 582V30Q153 17 145 9T123 0Q110 0 102 8T94 30V670Q94 682 102 691T124 700Q131
700 139 697T151 687L413 294L677 687Q688 702 704 700Q716 700 724 692Z" />
<glyph unicode="N" glyph-name="N" horiz-adv-x="728" d="M619 700T626 692T634 672V32Q634 17 625 9T603 0Q596 0 590 3T579 10L150 588V27Q150 16 142 8T122 0Q110 0 102 8T94 27V670Q94 684 102 692T123 700Q139 700 147 689L578 108V672Q578 684 586 692T606
700Q619 700 626 692Z" />
<glyph unicode="O" glyph-name="O" horiz-adv-x="766" d="M718 247T675 165T556 37T383 -10Q286 -10 210 36T91 165T48 350Q48 454 91 536T210 664T383 710Q480 710 556 664T675 536T718 350Q718 247 675 165ZM654 437T620 505T524 612T383 650Q304 650 243 612T147
506T112 350Q112 263 146 195T242 88T383 50Q462 50 523 88T619 194T654 350Q654 437 620 505Z" />
<glyph unicode="P" glyph-name="P" horiz-adv-x="596" d="M416 700T460 675T528 604T553 501Q553 444 529 397T460 323T361 296H154V30Q154 17 146 9T124 0Q111 0 103 8T94 30V670Q94 683 102 691T124 700H361Q416 700 460 675ZM419 354T455 396T491 501Q491 563
455 602T361 641H154V354H361Q419 354 455 396Z" />
<glyph unicode="Q" glyph-name="Q" horiz-adv-x="775" d="M777 -56T785 -64T793 -83Q793 -105 764 -126T691 -160T610 -174Q553 -174 515 -162T430 -126Q393 -106 367 -97T306 -88Q293 -88 283 -91T257 -101Q235 -111 225 -111Q213 -111 205 -102T196 -81Q196
-61 213 -55L344 -8Q257 1 190 49T86 176T48 350Q48 454 91 536T210 664T383 710Q480 710 556 664T675 536T718 350Q718 261 686 187T595 64T460 -2L355 -37Q384 -40 407 -49T467 -76Q508 -97 540 -107T612 -118Q646 -118 670 -109T718 -86Q727 -81 737 -71Q744
-65 751 -61T766 -56Q777 -56 785 -64ZM112 263T146 195T242 88T383 50Q462 50 523 88T619 194T654 350Q654 437 620 505T524 612T383 650Q304 650 243 612T147 506T112 350Q112 263 146 195Z" />
<glyph unicode="R" glyph-name="R" horiz-adv-x="670" d="M620 44T620 29Q620 24 616 16Q612 9 605 5T590 1Q580 1 573 5Q545 21 528 57T511 172Q511 242 472 270T379 299H157V30Q157 17 149 9T128 0Q114 0 104 8T94 30V670Q94 683 102 691T124 700H394Q451 700
496 676T566 608T592 511Q592 447 559 399T471 332Q515 315 543 275T572 176Q573 114 580 89T605 54Q620 44 620 29ZM397 354Q432 357 462 377T510 431T528 509Q528 566 490 603T389 641H157V354H397Z" />
<glyph unicode="S" glyph-name="S" horiz-adv-x="562" d="M211 -10T156 14T48 89Q36 99 36 113Q36 125 45 135T67 145Q79 145 89 135Q167 49 284 49Q356 49 403 83T451 172Q451 215 428 243T366 290T269 327Q205 346 162 369T91 430T64 528Q64 581 92 622T172
686T291 710Q352 710 405 690T491 631Q506 614 506 602Q506 591 496 582T474 572Q464 572 457 579Q430 611 385 631T291 651Q218 651 172 619T126 530Q126 472 170 441T296 384Q367 363 412 341T485 279T514 172Q514 121 485 80T403 14T283 -10Q211 -10 156 14Z"
/>
<glyph unicode="T" glyph-name="T" horiz-adv-x="604" d="M553 700T561 692T570 671Q570 658 562 651T540 643H333V30Q333 17 324 9T302 0Q288 0 280 8T271 30V643H64Q51 643 43 651T34 672Q34 684 42 692T64 700H540Q553 700 561 692Z" />
<glyph unicode="U" glyph-name="U" horiz-adv-x="713" d="M602 700T610 692T619 670V256Q619 183 584 122T489 26T357 -9Q284 -9 224 26T129 122T94 256V670Q94 683 102 691T126 700Q138 700 147 692T156 670V256Q156 200 183 153T256 79T357 51Q412 51 458 78T532
153T560 256V670Q560 683 568 691T589 700Q602 700 610 692Z" />
<glyph unicode="V" glyph-name="V" horiz-adv-x="665" d="M613 701T622 693T631 673Q631 666 628 658L361 20Q357 11 349 6T332 0Q323 0 316 5T304 19L38 656Q35 662 35 672Q35 685 44 693T64 701Q85 701 94 679L335 103L572 681Q577 690 584 695T600 701Q613
701 622 693Z" />
<glyph unicode="W" glyph-name="W" horiz-adv-x="966" d="M918 702T927 694T936 672L934 659L713 19Q710 10 703 5T686 0Q663 0 656 19L483 446L310 19Q301 0 280 0Q271 0 264 5T254 19L33 659Q30 665 30 671Q30 685 40 693T63 702Q73 702 81 697T92 683L288 111L456
530Q465 550 484 549Q494 550 501 545T513 530L680 111L874 683Q882 702 904 702Q918 702 927 694Z" />
<glyph unicode="X" glyph-name="X" horiz-adv-x="606" d="M565 45Q572 35 572 27Q572 13 563 5T541 -4Q526 -4 517 9L301 302L86 10Q77 -4 62 -4Q50 -4 43 4T35 23Q35 33 42 43L267 349L41 655Q34 663 34 673Q34 685 43 694T65 703Q80 703 90 691L305 398L519
690Q530 703 543 703Q555 703 563 696T572 677Q572 669 565 658L340 351L565 45Z" />
<glyph unicode="Y" glyph-name="Y" horiz-adv-x="559" d="M541 667T535 655L312 348V30Q312 17 303 9T281 0Q268 0 260 8T251 30V347L27 653Q19 662 19 674Q19 686 29 695T51 704Q67 704 76 690L283 408L485 690Q496 704 511 704Q523 704 532 695T541 674Q541
667 535 655Z" />
<glyph unicode="Z" glyph-name="Z" horiz-adv-x="644" d="M577 57T585 49T594 29Q594 16 586 8T564 0H85Q71 0 63 9T54 31Q54 40 60 49L510 643H110Q97 643 89 651T80 672Q80 684 88 692T110 700H565Q580 700 589 691T598 670Q598 661 592 652L143 57H564Q577 57 585 49Z" />
<glyph unicode="[" glyph-name="bracketleft" horiz-adv-x="397" d="M346 -136T354 -144T362 -164Q362 -175 354 -182T335 -190H107Q96 -190 88 -182T80 -163V673Q80 684 88 692T107 700H335Q346 700 354 693T362 674Q362 663 354 656T335 648H139V-136H335Q346
-136 354 -144Z" />
<glyph unicode="\" glyph-name="backslash" horiz-adv-x="523" d="M467 -133T456 -112L15 762Q11 770 11 778Q11 788 19 795T38 803Q52 803 58 798T70 781L512 -93Q515 -101 515 -108Q515 -119 507 -126T487 -133Q467 -133 456 -112Z" />
<glyph unicode="]" glyph-name="bracketright" horiz-adv-x="397" d="M301 700T309 692T317 673V-163Q317 -174 309 -182T290 -190H62Q51 -190 43 -183T35 -164Q35 -153 43 -146T62 -138H258V646H62Q51 646 43 654T35 674Q35 685 43 692T62 700H290Q301 700 309 692Z" />
<glyph unicode="^" glyph-name="asciicircum" horiz-adv-x="518" d="M460 435T460 426Q460 414 452 405T430 396Q410 396 399 417L259 675L118 417Q106 396 86 396Q74 396 66 404T57 426Q57 435 65 448L219 725Q226 738 235 743T259 749Q274 749 282 744T299 725L453
447Q460 435 460 426Z" />
<glyph unicode="_" glyph-name="underscore" horiz-adv-x="667" d="M74 -160T66 -153T58 -133Q58 -121 65 -114T86 -107H581Q593 -107 601 -114T609 -134Q609 -145 601 -152T581 -160H86Q74 -160 66 -153Z" />
<glyph unicode="`" glyph-name="grave" horiz-adv-x="226" d="M148 566T134 578L55 651Q41 662 41 677Q41 691 49 698T71 706Q89 706 102 689L170 600Q178 590 178 584Q178 576 173 571T159 566Q148 566 134 578Z" />
<glyph unicode="a" glyph-name="a" horiz-adv-x="602" d="M507 511T515 502T524 480V30Q524 17 516 9T494 0Q481 0 473 8T464 30V97Q439 52 389 21T280 -10Q213 -10 160 25T76 121T45 258Q45 334 76 394T160 489T279 523Q339 523 389 494T464 418V480Q464 493
472 502T494 511Q507 511 515 502ZM338 46T379 73T444 149T468 258Q468 316 445 364T380 439T286 467Q234 467 193 440T128 366T104 258Q104 198 127 150T191 74T286 46Q338 46 379 73Z" />
<glyph unicode="b" glyph-name="b" horiz-adv-x="602" d="M388 523T442 489T526 395T557 258Q557 183 527 122T443 25T323 -10Q266 -10 218 18T139 94V28Q139 15 131 6T109 -3Q96 -3 88 6T79 28V709Q79 722 87 730T109 739Q122 739 130 731T139 709V414Q166 463
215 493T322 523Q388 523 442 489ZM369 46T410 74T475 150T499 258Q499 318 476 365T411 440T317 467Q264 467 222 441T157 366T134 258Q134 198 157 150T222 74T317 46Q369 46 410 74Z" />
<glyph unicode="c" glyph-name="c" horiz-adv-x="514" d="M347 523T387 513T452 484T477 445Q477 434 470 425T451 416Q441 416 435 420T420 432Q407 445 395 451Q380 458 356 462T303 467Q248 467 203 439T131 363T105 257Q105 197 130 149T199 74T301 46Q337
46 358 52T401 69Q408 73 425 87Q433 94 439 97T452 101Q464 101 471 94T478 74Q478 57 454 38T388 4T295 -10Q222 -10 165 24T77 120T45 257Q45 330 77 390T167 487T300 523Q347 523 387 513Z" />
<glyph unicode="d" glyph-name="d" horiz-adv-x="602" d="M507 740T515 732T524 710V30Q524 17 516 9T494 0Q481 0 473 8T464 30V100Q439 54 390 22T280 -10Q214 -10 161 24T76 120T45 257Q45 332 76 393T160 488T279 523Q338 523 388 494T464 417V710Q464 723
472 731T494 740Q507 740 515 732ZM338 46T379 73T444 148T468 257Q468 316 445 364T380 439T286 467Q234 467 193 440T128 364T104 257Q104 197 127 149T192 74T286 46Q338 46 379 73Z" />
<glyph unicode="e" glyph-name="e" horiz-adv-x="556" d="M511 273T502 265T481 256H103Q103 196 127 149T197 74T305 46Q353 46 391 66T452 117Q463 126 473 126Q483 126 491 118T499 100Q499 89 489 79Q457 40 409 15T306 -10Q229 -10 170 23T78 115T45 253Q45
335 77 396T164 490T279 523Q339 523 391 495T477 413T511 285Q511 273 502 265ZM221 465T172 425T108 310H449V318Q444 363 419 396T357 447T279 465Q221 465 172 425Z" />
<glyph unicode="f" glyph-name="f" horiz-adv-x="353" d="M225 683T208 662T190 604V501H302Q313 501 321 493T330 473Q330 461 322 453T302 445H190V30Q190 17 182 9T160 0Q147 0 139 8T130 30V445H57Q45 445 37 453T29 473Q29 486 37 493T57 501H130V604Q130
667 166 701T264 736Q292 736 316 728T340 700Q340 688 332 680T314 672Q305 672 292 677Q270 683 257 683Q225 683 208 662Z" />
<glyph unicode="g" glyph-name="g" horiz-adv-x="620" d="M524 511T532 503T541 480V47Q541 -31 509 -86T420 -171T290 -200Q255 -200 217 -191T151 -168T119 -139Q112 -132 112 -123Q112 -113 121 -107Q125 -104 131 -104Q137 -104 154 -111L175 -120Q237 -144
291 -144Q380 -144 430 -94T481 43V105Q456 51 402 21T289 -10Q220 -10 165 24T77 120T45 257Q45 332 77 393T164 488T288 523Q351 523 403 492T481 416V480Q481 493 489 502T511 511Q524 511 532 503ZM349 46T392 72T460 147T485 257Q485 318 461 366T393 440T294
467Q240 467 197 440T129 364T104 257Q104 197 128 149T196 74T294 46Q349 46 392 72Z" />
<glyph unicode="h" glyph-name="h" horiz-adv-x="568" d="M402 515T446 459T490 313V30Q490 17 482 9T460 0Q447 0 439 8T430 30V313Q430 378 399 418T302 459Q260 459 223 439T162 386T139 313V30Q139 17 131 9T109 0Q96 0 88 8T79 30V710Q79 723 87 731T109
740Q122 740 130 732T139 710V417Q166 460 214 487T312 515Q402 515 446 459Z" />
<glyph unicode="i" glyph-name="i" horiz-adv-x="214" d="M137 17T129 9T107 0Q94 0 86 8T77 30V490Q77 503 85 511T107 520Q120 520 128 512T137 490V30Q137 17 129 9ZM87 587T76 596T65 624V634Q65 652 76 661T108 671Q148 671 148 634V624Q148 606 138 597T107
587Q87 587 76 596Z" />
<glyph unicode="j" glyph-name="j" horiz-adv-x="241" d="M-4 -198T-12 -190T-20 -170V-166Q-20 -155 -13 -148T6 -138Q43 -131 67 -106T92 -37V479Q92 492 100 500T122 509Q135 509 143 501T152 479V-46Q152 -92 131 -126T76 -179T8 -198Q-4 -198 -12 -190ZM102
588T91 597T80 625V635Q80 653 91 662T123 672Q163 672 163 635V625Q163 607 153 598T122 588Q102 588 91 597Z" />
<glyph unicode="k" glyph-name="k" horiz-adv-x="535" d="M493 43T493 30Q493 17 483 9T463 0Q450 0 441 11L220 245L145 181V30Q145 17 137 9T115 0Q102 0 94 8T85 30V710Q85 723 93 731T115 740Q128 740 136 732T145 710V254L434 503Q443 513 455 513Q466 513
475 504T484 483Q484 471 473 460L267 285L484 53Q493 43 493 30Z" />
<glyph unicode="l" glyph-name="l" horiz-adv-x="230" d="M145 17T137 9T115 0Q102 0 94 8T85 30V710Q85 723 93 731T115 740Q128 740 136 732T145 710V30Q145 17 137 9Z" />
<glyph unicode="m" glyph-name="m" horiz-adv-x="912" d="M749 515T791 460T834 313V30Q834 17 826 9T804 0Q791 0 783 8T774 30V310Q774 376 743 417T645 459Q603 459 566 439T505 385T482 310V30Q482 17 474 9T452 0Q439 0 431 8T422 30V313Q422 378 392 418T298
459Q257 459 221 439T162 386T139 313V30Q139 17 131 9T109 0Q96 0 88 8T79 30V478Q79 491 87 499T109 508Q122 508 130 500T139 478V420Q166 461 212 488T309 515Q367 515 409 487T469 405Q490 449 546 482T659 515Q749 515 791 460Z" />
<glyph unicode="n" glyph-name="n" horiz-adv-x="578" d="M413 523T456 469T500 324V30Q500 17 491 9T470 0Q457 0 449 8T440 30V321Q440 386 408 426T307 467Q264 467 226 447T163 394T139 321V30Q139 17 131 9T109 0Q96 0 88 8T79 30V478Q79 491 87 499T109
508Q122 508 130 500T139 478V423Q166 466 216 494T320 523Q413 523 456 469Z" />
<glyph unicode="o" glyph-name="o" horiz-adv-x="595" d="M551 181T518 120T427 25T298 -10Q227 -10 169 24T78 120T45 256Q45 331 78 392T169 488T298 523Q369 523 427 488T518 392T551 256Q551 181 518 120ZM491 316T466 364T397 439T298 467Q244 467 200 440T131
364T105 256Q105 197 130 149T200 74T298 46Q352 46 396 73T466 148T491 256Q491 316 466 364Z" />
<glyph unicode="p" glyph-name="p" horiz-adv-x="602" d="M388 515T442 482T526 389T557 255Q557 180 527 121T443 27T323 -7Q265 -7 217 20T139 94V-170Q139 -183 131 -191T109 -200Q96 -200 88 -192T79 -170V482Q79 495 87 504T109 513Q122 513 130 504T139
482V414Q165 461 214 488T322 515Q388 515 442 482ZM369 49T410 75T475 149T499 255Q499 313 476 359T411 432T317 459Q264 459 222 433T157 361T134 255Q134 196 157 149T222 76T317 49Q369 49 410 75Z" />
<glyph unicode="q" glyph-name="q" horiz-adv-x="602" d="M507 513T515 504T524 482V-170Q524 -183 516 -191T494 -200Q481 -200 473 -192T464 -170V100Q439 54 390 22T280 -10Q214 -10 161 24T76 120T45 257Q45 332 76 393T160 488T279 523Q338 523 388 494T464
417V482Q464 495 472 504T494 513Q507 513 515 504ZM338 46T379 73T444 148T468 257Q468 316 445 364T380 439T286 467Q234 467 193 440T128 364T104 257Q104 197 127 149T192 74T286 46Q338 46 379 73Z" />
<glyph unicode="r" glyph-name="r" horiz-adv-x="385" d="M338 523T354 515T370 491Q370 477 362 469T343 460Q338 460 324 465T296 470Q259 470 223 442T163 368T139 277V30Q139 17 131 9T109 0Q96 0 88 8T79 30V478Q79 491 87 499T109 508Q122 508 130 500T139
478V390Q162 447 208 484T318 523Q338 523 354 515Z" />
<glyph unicode="s" glyph-name="s" horiz-adv-x="469" d="M42 94T42 103Q42 116 55 123Q61 129 71 129Q83 129 93 119Q152 41 250 41Q298 41 333 63T369 129Q369 171 336 192T244 228Q161 249 114 282T67 381Q67 422 90 454T152 505T242 523Q285 523 328 507T403
454Q412 447 412 434Q412 422 402 413Q395 407 384 407Q374 407 366 415Q342 442 309 456T238 470Q191 470 158 448T124 382Q126 342 160 321T262 283Q314 270 348 254T403 209T425 132Q425 67 373 29T244 -10Q122 -10 50 81Q42 94 42 103Z" />
<glyph unicode="t" glyph-name="t" horiz-adv-x="339" d="M179 453V118Q179 80 193 67T230 53Q236 53 245 55T259 58Q268 58 274 51T281 33Q281 19 265 10T227 0Q200 0 179 5T139 35T119 115V453H46Q34 453 26 461T17 481Q17 493 25 501T46 509H119V620Q119 633
127 641T149 650Q162 650 170 642T179 620V509H279Q290 509 298 500T307 480Q307 468 299 461T279 453H179Z" />
<glyph unicode="u" glyph-name="u" horiz-adv-x="569" d="M474 508T482 500T491 478V196Q491 98 436 46T284 -7Q188 -7 134 45T79 196V478Q79 491 87 499T109 508Q122 508 130 500T139 478V196Q139 124 177 87T284 49Q354 49 392 86T431 196V478Q431 491 439 499T461
508Q474 508 482 500Z" />
<glyph unicode="v" glyph-name="v" horiz-adv-x="529" d="M475 521T484 514T493 496Q493 487 489 479L293 19Q289 11 282 6T266 0Q256 -1 248 4T236 19L39 479Q39 481 38 485T36 493Q36 505 44 513T67 522Q76 522 83 517T95 502L265 97L436 502Q440 511 447 516T465
521Q475 521 484 514Z" />
<glyph unicode="w" glyph-name="w" horiz-adv-x="752" d="M699 522T707 514T716 492Q716 491 713 479L559 19Q554 10 546 5T529 0Q520 0 513 5T502 19L371 327L254 19Q250 11 243 6T227 0Q217 -1 209 4T197 19L39 479Q36 485 36 492Q36 505 45 513T67 522Q76 522
83 517T94 502L227 103L346 402Q353 421 374 421Q394 421 402 402L527 105L658 502Q664 522 686 522Q699 522 707 514Z" />
<glyph unicode="x" glyph-name="x" horiz-adv-x="484" d="M450 37T450 27Q450 15 441 6T420 -4Q406 -4 395 10L242 208L89 9Q80 -3 65 -3Q54 -3 45 4T36 24Q36 35 43 43L207 253L40 468Q34 476 34 486Q34 498 43 507T65 516Q80 516 89 503L245 302L395 503Q405
516 420 516Q433 516 440 509T448 490Q448 479 441 471L279 258L443 45Q450 37 450 27Z" />
<glyph unicode="y" glyph-name="y" horiz-adv-x="568" d="M473 520T481 512T490 490V49Q490 -30 459 -86T373 -171T249 -200Q207 -200 171 -191T110 -167Q89 -154 89 -138Q89 -136 91 -128Q94 -118 101 -113T116 -108Q122 -108 128 -111Q192 -146 250 -146Q333
-146 381 -94T430 48V83Q405 41 358 16T256 -10Q169 -10 124 42T79 183V490Q79 503 87 511T109 520Q122 520 130 512T139 490V192Q139 120 170 83T269 46Q310 46 347 66T407 120T430 192V490Q430 503 438 511T460 520Q473 520 481 512Z" />
<glyph unicode="z" glyph-name="z" horiz-adv-x="479" d="M412 56T420 48T428 28Q428 16 420 8T399 0H74Q61 0 53 9T45 29Q45 42 54 52L350 462H99Q87 462 79 470T70 490Q70 502 78 510T99 518H406Q418 518 426 509T434 488Q434 477 426 466L129 56H399Q412 56 420 48Z" />
<glyph unicode="{" glyph-name="braceleft" horiz-adv-x="427" d="M376 -157T381 -164T385 -182Q384 -190 378 -195T363 -201L354 -200Q278 -184 237 -157T181 -93T165 -3L166 82Q166 146 139 186T53 228H48Q37 228 29 235T21 254Q21 264 29 271T48 279H54Q114
280 140 319T166 424L165 509Q165 570 187 608T250 667T353 705Q361 707 364 707Q375 707 380 700T386 684Q386 676 381 670T366 660Q305 641 275 622T234 575T223 500L224 418Q224 356 200 312T132 254Q176 239 200 195T224 89L223 6Q223 -41 233 -68T274 -116T366
-154Q376 -157 381 -164Z" />
<glyph unicode="|" glyph-name="bar" horiz-adv-x="205" d="M132 -164T124 -172T102 -181Q89 -181 81 -173T72 -151V755Q72 768 81 776T103 785Q116 785 124 777T132 755V-151Q132 -164 124 -172Z" />
<glyph unicode="}" glyph-name="braceright" horiz-adv-x="427" d="M391 280T398 272T406 253Q406 243 399 236T380 228H374Q314 227 288 188T262 83V-2Q262 -52 246 -83T190 -140T73 -199Q71 -200 65 -200Q53 -200 47 -193T41 -177Q41 -169 46 -163T62 -153Q123
-134 153 -115T193 -68T204 7V89Q204 152 228 197T297 254Q252 267 228 311T204 419V501Q204 548 194 575T153 623T62 661Q52 664 47 671T42 689Q44 697 50 702T64 708L73 707Q149 691 190 664T247 600T262 510V425Q262 361 289 321T374 280H380Q391 280 398 272Z"
/>
<glyph unicode="~" glyph-name="asciitilde" horiz-adv-x="463" d="M306 217T285 224T224 246Q193 259 173 266T137 273Q108 273 99 236Q99 225 93 219T76 213Q65 213 58 220T50 241Q50 273 74 299T143 325Q163 325 186 318T248 294Q283 280 300 274T331 268Q360
268 363 306Q362 317 368 324T386 331Q397 331 405 324T413 304Q413 265 390 241T324 217Q306 217 285 224Z" />
<glyph unicode="&#xa0;" glyph-name="uni00A0" horiz-adv-x="273" />
<glyph unicode="&#xa1;" glyph-name="exclamdown" horiz-adv-x="185" d="M113 511T122 501T131 473V451Q131 433 122 423T95 413H89Q72 413 63 423T54 451V473Q54 491 63 501T89 511H95Q113 511 122 501ZM110 315T113 294L124 -148Q124 -167 116 -178T92 -189Q76
-189 68 -178T61 -148L72 294Q73 315 92 315Q110 315 113 294Z" />
<glyph unicode="&#xa2;" glyph-name="cent" horiz-adv-x="514" d="M478 148T457 130T399 98T317 81V30Q317 17 309 9T287 0Q274 0 266 8T257 30V83Q194 91 146 127T72 221T45 347Q45 412 71 468T145 562T257 610V664Q257 677 266 685T288 694Q301 694 309 686T317
664V613Q383 610 430 587T477 535Q477 524 469 515T449 506Q439 506 434 509T418 522Q406 534 395 541Q369 556 315 559V133Q346 134 365 141T401 159Q415 167 423 177Q432 185 438 188T452 192Q464 192 471 184T478 164Q478 148 457 130ZM105 265T147 208T260
137V555Q193 541 149 484T105 347Q105 265 147 208Z" />
<glyph unicode="&#xa3;" glyph-name="sterling" horiz-adv-x="614" d="M601 69T607 61T614 42Q614 19 584 5Q561 -9 535 -16T485 -23Q458 -23 430 -18T353 0Q311 11 284 16T233 22Q194 22 156 12T110 -1Q100 -3 85 -9T65 -16Q54 -16 47 -8T40 10Q40 21 47 29T66
41L97 50L142 63Q158 82 168 112T179 177Q179 207 173 236T156 307Q153 315 149 331H74Q61 331 53 339T45 359Q45 371 53 379T74 387H135Q125 434 125 477Q125 583 184 646T344 710Q398 710 447 692T526 640Q548 620 548 606Q548 595 538 585T515 575Q502 575 494
584Q468 616 430 634T344 652Q272 652 230 604T187 477Q187 435 197 387H441Q453 387 461 379T470 358Q470 346 462 339T441 331H211L218 304Q230 262 235 236T241 184Q241 126 210 76Q219 77 238 77Q266 77 296 71T372 54Q413 44 437 39T484 34Q534 34 563 58Q575
69 588 69Q601 69 607 61Z" />
<glyph unicode="&#xa4;" glyph-name="currency" horiz-adv-x="493" d="M428 169Q438 159 438 149Q438 138 429 128T409 118Q398 118 388 128L343 170Q303 136 246 136Q193 136 149 170L104 128Q94 118 83 118Q73 118 63 128T53 149Q53 158 64 169L110 214Q87 255
87 300Q87 347 111 387L64 431Q53 442 53 452Q53 462 63 472T83 483Q94 483 104 473L150 431Q192 464 246 464Q301 464 343 431L388 473Q399 482 408 482Q419 482 429 472T439 452Q439 442 428 431L381 388Q406 349 406 300Q406 253 382 213L428 169ZM290 187T320
219T350 299Q350 346 320 379T247 413Q203 413 174 380T144 299Q144 252 173 220T247 187Q290 187 320 219Z" />
<glyph unicode="&#xa5;" glyph-name="yen" horiz-adv-x="559" d="M313 347V342L453 341Q466 341 475 333T484 313Q484 301 475 293T453 285L313 286V208L454 207Q467 207 476 199T485 179Q485 167 476 160T454 152L313 153V30Q313 17 304 9T281 0Q267 0 258 8T249
30V154L114 155Q100 155 92 162T83 182Q83 195 91 202T114 210L249 209V287L113 288Q100 288 91 296T82 316Q82 328 91 336T113 344L249 343V348L27 653Q19 662 19 674Q19 686 30 695T53 704Q67 704 78 690L283 401L485 690Q494 704 511 704Q523 704 532 695T541
674Q541 667 535 655L313 347Z" />
<glyph unicode="&#xa6;" glyph-name="brokenbar" horiz-adv-x="208" d="M134 396T126 388T104 379Q91 379 83 387T74 409V755Q74 768 83 776T105 785Q118 785 126 777T134 755V409Q134 396 126 388ZM134 -164T125 -172T103 -181Q90 -181 82 -173T74 -151V195Q74
208 82 216T104 225Q117 225 125 217T134 195V-151Q134 -164 125 -172Z" />
<glyph unicode="&#xa7;" glyph-name="section" horiz-adv-x="533" d="M402 414T445 378T488 281Q488 233 458 199T374 149Q415 123 433 96T451 29Q451 -19 428 -57T362 -117T261 -139Q200 -139 144 -115T58 -61Q44 -47 44 -30Q45 -19 53 -11T73 -3Q87 -3 96 -12Q164
-82 260 -82Q309 -82 349 -61T390 22Q390 61 349 88T227 138Q144 162 102 199T60 298Q60 340 87 379T170 434Q136 454 120 484T103 549Q103 603 131 638T202 690T285 707Q378 707 444 643Q452 635 452 624Q452 612 445 603T422 594Q416 594 409 599Q353 648 286
648Q237 648 201 625T164 555Q164 503 209 479T314 438Q402 414 445 378ZM364 183T395 210T427 275Q427 311 401 332T315 373L230 392Q188 394 156 368T123 303Q123 269 150 245T241 199L313 183Q364 183 395 210Z" />
<glyph unicode="&#xa8;" glyph-name="dieresis" horiz-adv-x="400" d="M95 600T84 610T73 640V650Q73 669 84 679T114 690Q133 690 144 680T155 650V640Q155 621 145 611T114 600Q95 600 84 610ZM267 600T256 610T245 640V650Q245 669 256 679T287 690Q306 690
316 680T327 650V640Q327 621 317 611T286 600Q267 600 256 610Z" />
<glyph unicode="&#xa9;" glyph-name="copyright" horiz-adv-x="795" d="M302 -3T221 43T93 170T45 350Q45 449 92 530T220 657T398 703Q494 703 574 657T702 530T750 350Q750 251 703 170T575 43T398 -3Q302 -3 221 43ZM481 45T550 84T661 193T702 350Q702 436
661 506T551 616T398 656Q315 656 246 616T135 506T94 350Q94 263 135 194T245 85T398 45Q481 45 550 84ZM357 153T311 178T239 249T213 350Q213 405 238 450T310 521T416 547Q447 547 477 539T530 514Q542 507 542 492Q542 484 537 476Q530 466 517 466Q508 466
503 470Q461 496 416 496Q347 496 307 455T266 350Q266 285 306 245T416 204Q460 204 503 229Q511 233 517 233Q530 233 537 223Q543 216 543 207Q543 201 540 195T531 185Q479 153 416 153Q357 153 311 178Z" />
<glyph unicode="&#xaa;" glyph-name="ordfeminine" horiz-adv-x="350" d="M292 702T300 695T308 677V426Q308 415 300 408T280 401Q268 401 261 408T253 426V456Q237 428 209 410T147 391Q87 391 54 438T21 558Q21 625 59 669T156 714Q189 714 214 700T253 657V677Q253
687 261 694T280 702Q292 702 300 695ZM204 439T230 470T257 555Q257 607 232 636T166 666Q130 666 103 635T76 558Q76 506 98 473T161 439Q204 439 230 470Z" />
<glyph unicode="&#xab;" glyph-name="guillemotleft" horiz-adv-x="455" d="M406 99Q414 89 414 80Q414 66 405 58T384 50Q370 50 361 62L231 238Q224 249 224 258Q224 267 231 277L362 452Q372 465 385 465Q397 465 405 458T414 438Q414 428 405 417L289 258L406
99ZM460 99Q468 89 468 80Q468 66 459 58T438 50Q424 50 415 62L285 238Q278 249 278 258Q278 267 285 277L416 452Q426 465 439 465Q451 465 459 458T468 438Q468 428 459 417L343 258L460 99Z" />
<glyph unicode="&#xac;" glyph-name="logicalnot" horiz-adv-x="650" d="M582 400T591 391T600 369V161Q600 147 591 138T568 129Q555 129 546 138T536 161V340H79Q67 340 59 348T50 370Q50 382 58 391T79 400H568Q582 400 591 391Z" />
<glyph unicode="&#xad;" glyph-name="uni00AD" horiz-adv-x="390" d="M74 231T66 239T58 261Q58 274 66 282T87 290H303Q316 290 324 281T333 259Q333 247 325 239T303 231H87Q74 231 66 239Z" />
<glyph unicode="&#xae;" glyph-name="registered" horiz-adv-x="534" d="M328 707T379 678T461 597T491 483Q491 420 461 369T380 288T267 259Q206 259 155 288T73 368T43 483Q43 546 73 597T154 677T267 707Q328 707 379 678ZM317 302T357 325T421 389T445 483Q445
535 422 576T358 641T267 664Q217 664 176 641T111 577T87 483Q87 431 111 390T176 325T267 302Q317 302 357 325ZM359 390T361 386T361 376Q359 368 350 364T330 362Q317 364 308 378T299 419Q299 437 291 447T265 458H228V382Q228 375 222 369T207 363Q199 363
193 368T187 382V586Q187 592 191 597T203 602H276Q357 602 357 534Q357 490 309 476Q322 468 331 454T340 423Q341 408 343 401T353 392Q359 390 361 386ZM291 495T304 504T317 531Q317 549 306 556T273 563H228V495H270Q291 495 304 504Z" />
<glyph unicode="&#xaf;" glyph-name="overscore" horiz-adv-x="396" d="M50 575T50 601Q50 614 57 621T78 628H318Q331 628 338 621T346 601Q346 575 318 575H78Q50 575 50 601Z" />
<glyph unicode="&#xb0;" glyph-name="degree" horiz-adv-x="332" d="M127 420T95 439T45 492T26 563Q26 602 44 635T95 687T166 707Q206 707 238 688T288 636T306 564Q306 525 288 492T237 440T166 420Q127 420 95 439ZM203 469T228 497T254 564Q254 602 229 630T166
659Q129 659 104 631T79 563Q79 525 104 497T166 469Q203 469 228 497Z" />
<glyph unicode="&#xb1;" glyph-name="plusminus" horiz-adv-x="523" d="M70 273T62 281T53 303Q53 315 61 322T83 330H232V454Q232 468 241 477T265 487Q279 487 287 478T296 455V330H441Q454 330 462 322T471 301Q471 289 463 281T441 273H296V156Q296 142 287
133T264 124Q250 124 241 133T232 155V273H83Q70 273 62 281ZM458 58T466 50T475 28Q475 15 467 8T445 0H78Q65 0 57 8T48 30Q48 42 56 50T77 58H445Q458 58 466 50Z" />
<glyph unicode="&#xb2;" glyph-name="uni00B2" horiz-adv-x="317" d="M252 535T259 529T267 512Q267 502 260 495T242 488H77Q65 488 58 495T50 514Q50 525 62 538L144 627L162 649Q184 674 195 691T206 727Q206 744 194 755T157 767Q138 767 122 757T99 726Q94
711 77 711Q66 711 60 716T53 731Q53 746 66 766T105 801T164 816Q211 816 236 790T262 729Q262 700 249 679T209 627L188 603L127 535H242Q252 535 259 529Z" />
<glyph unicode="&#xb3;" glyph-name="uni00B3" horiz-adv-x="313" d="M214 681T241 658T269 588Q269 539 234 509T149 479Q124 479 101 486T61 506Q49 515 49 528Q49 539 55 546T73 554Q79 554 85 550T94 543Q102 538 117 533T147 528Q176 528 196 544T217 587Q217
611 201 624T157 637Q148 637 133 634T108 628Q97 626 90 633T82 650Q82 662 89 668L184 758H84Q74 758 67 765T59 783Q59 793 66 800T84 807H230Q241 807 248 800T256 783L257 778Q257 769 249 761L162 680Q165 681 169 681Q214 681 241 658Z" />
<glyph unicode="&#xb4;" glyph-name="acute" horiz-adv-x="281" d="M87 595T82 600T77 613Q77 619 82 627L143 722Q155 744 177 744Q192 744 201 736T209 713Q209 702 199 690L124 611Q108 595 93 595Q87 595 82 600Z" />
<glyph unicode="&#xb5;" glyph-name="uni00B5" horiz-adv-x="554" />
<glyph unicode="&#xb6;" glyph-name="paragraph" horiz-adv-x="623" d="M514 700T521 693T528 675V29Q528 15 521 8T502 0Q491 0 484 7T476 29V651H383V59Q383 5 351 -27T265 -60Q236 -60 212 -50T184 -25Q182 -22 182 -15Q182 0 195 7Q200 10 205 10Q213 10 225
4Q244 -9 264 -9Q294 -9 312 12T331 65V269H297Q205 271 151 293T71 362T46 487Q46 568 73 614T161 680T324 700H503Q514 700 521 693Z" />
<glyph unicode="&#xb7;" glyph-name="middot" horiz-adv-x="195" d="M77 251T67 261T56 289V311Q56 328 66 338T94 349H101Q118 349 128 339T139 311V289Q139 272 129 262T101 251H94Q77 251 67 261Z" />
<glyph unicode="&#xb8;" glyph-name="cedilla" horiz-adv-x="278" d="M66 -144T51 -134T36 -112Q36 -101 43 -94L130 15H168L104 -124Q96 -144 78 -144Q66 -144 51 -134Z" />
<glyph unicode="&#xb9;" glyph-name="uni00B9" horiz-adv-x="222" d="M148 805T156 797T164 777V515Q164 504 157 496T139 488Q127 488 120 495T113 515V739L70 712Q62 707 53 707Q43 707 37 714T30 732Q30 746 43 755L120 801Q128 805 136 805Q148 805 156 797Z" />
<glyph unicode="&#xba;" glyph-name="ordmasculine" horiz-adv-x="349" d="M326 505T306 469T251 413T173 392Q131 392 97 412T43 469T23 549Q23 594 42 631T96 689T173 710Q216 710 251 689T306 631T326 549Q326 505 306 469ZM274 598T247 629T173 660Q129 660
102 629T75 549Q75 502 102 472T173 441Q219 441 246 471T274 549Q274 598 247 629Z" />
<glyph unicode="&#xbb;" glyph-name="guillemotright" horiz-adv-x="448" d="M425 269T425 257Q425 246 418 238L287 63Q277 50 264 50Q253 50 245 57T236 77Q236 88 244 98L361 258L243 415Q235 426 235 435Q235 449 245 457T265 465Q278 465 288 453L418 277Q425
269 425 257ZM231 269T231 257Q231 246 224 238L93 63Q83 50 70 50Q59 50 51 57T42 77Q42 88 50 98L167 258L49 415Q41 426 41 435Q41 449 51 457T71 465Q84 465 94 453L224 277Q231 269 231 257Z" />
<glyph unicode="&#xbc;" glyph-name="onequarter" horiz-adv-x="687" d="M166 702T174 694T182 674V412Q182 401 175 393T157 385Q145 385 138 392T131 412V636L88 609Q80 604 71 604Q61 604 55 611T48 629Q48 643 61 652L138 698Q146 702 154 702Q166 702 174
694ZM98 -3T90 4T82 24Q82 32 87 40L515 690Q519 696 525 699T537 703Q548 703 556 696T565 676Q565 668 560 660L132 10Q122 -3 110 -3Q98 -3 90 4ZM626 122T632 116T639 99Q639 88 633 82T615 75H582V21Q582 10 575 3T556 -5Q545 -5 538 2T531 21V75H409Q398
75 390 83T381 103Q381 112 388 122L530 304Q538 315 554 315Q566 315 574 307T582 287V122H615Q626 122 632 116ZM444 122H531V231L444 122Z" />
<glyph unicode="&#xbd;" glyph-name="onehalf" horiz-adv-x="665" d="M166 702T174 694T182 674V412Q182 401 175 393T157 385Q145 385 138 392T131 412V636L88 609Q80 604 71 604Q61 604 55 611T48 629Q48 643 61 652L138 698Q146 702 154 702Q166 702 174 694ZM89
-3T81 4T73 24Q73 32 78 40L506 690Q510 696 516 699T528 703Q539 703 547 696T556 676Q556 668 551 660L123 10Q113 -3 101 -3Q89 -3 81 4ZM603 47T610 41T618 24Q618 14 611 7T593 0H428Q416 0 409 7T401 26Q401 37 413 50L495 139L513 161Q535 186 546 203T557
239Q557 256 545 267T508 279Q489 279 473 269T450 238Q445 223 428 223Q417 223 411 228T404 243Q404 258 417 278T456 313T515 328Q562 328 587 302T613 241Q613 212 600 191T560 139L539 115L478 47H593Q603 47 610 41Z" />
<glyph unicode="&#xbe;" glyph-name="threequarters" horiz-adv-x="737" d="M215 578T242 555T270 485Q270 436 235 406T150 376Q125 376 102 383T62 403Q50 412 50 425Q50 436 56 443T74 451Q80 451 86 447T95 440Q103 435 118 430T148 425Q177 425 197 441T218
484Q218 508 202 521T158 534Q149 534 134 531T109 525Q98 523 91 530T83 547Q83 559 90 565L185 655H85Q75 655 68 662T60 680Q60 690 67 697T85 704H231Q242 704 249 697T257 680L258 675Q258 666 250 658L163 577Q166 578 170 578Q215 578 242 555ZM135 -3T127
4T119 24Q119 32 124 40L552 690Q556 696 562 699T574 703Q585 703 593 696T602 676Q602 668 597 660L169 10Q159 -3 147 -3Q135 -3 127 4ZM677 122T683 116T690 99Q690 88 684 82T666 75H633V21Q633 10 626 3T607 -5Q596 -5 589 2T582 21V75H460Q449 75 441 83T432
103Q432 112 439 122L581 304Q589 315 605 315Q617 315 625 307T633 287V122H666Q677 122 683 116ZM495 122H582V231L495 122Z" />
<glyph unicode="&#xbf;" glyph-name="questiondown" horiz-adv-x="476" d="M244 451T235 461T226 489V511Q226 529 235 539T261 549H267Q285 549 294 539T303 511V489Q303 471 294 461T267 451H261Q244 451 235 461ZM447 -62T447 -77Q447 -87 439 -97Q407 -138
358 -162T254 -187Q196 -187 149 -161T73 -87T45 26Q45 77 70 122T140 198T238 233V332Q238 345 246 353T268 362Q281 362 289 354T297 332V213Q297 200 289 191T267 182Q198 178 153 135T107 26Q107 -19 126 -54T179 -109T254 -129Q294 -129 330 -111T391 -60Q403
-48 416 -48Q426 -48 432 -53Q447 -62 447 -77Z" />
<glyph unicode="&#xc0;" glyph-name="Agrave" horiz-adv-x="647" d="M618 32T618 28Q618 15 609 7T588 -1Q578 -1 571 4T559 19L484 202H159L85 19Q77 -1 58 -1Q44 -1 37 6T29 25V28Q29 34 30 37L294 683Q302 703 324 703Q334 703 341 698T353 683L616 40Q618
32 618 28ZM182 261H460L320 603L182 261ZM316 747T302 753L205 802Q185 813 185 833Q185 846 193 854T215 863Q231 863 244 852L333 783Q343 773 343 765Q343 757 338 752T324 747Q316 747 302 753Z" />
<glyph unicode="&#xc1;" glyph-name="Aacute" horiz-adv-x="647" d="M618 32T618 28Q618 15 609 7T588 -1Q578 -1 571 4T559 19L484 202H159L85 19Q77 -1 58 -1Q44 -1 37 6T29 25V28Q29 34 30 37L294 683Q302 703 324 703Q334 703 341 698T353 683L616 40Q618
32 618 28ZM182 261H460L320 603L182 261ZM318 746T313 751T308 764Q308 772 318 782L407 851Q420 862 436 862Q449 862 457 854T466 832Q466 812 447 801L349 752Q335 746 327 746Q318 746 313 751Z" />
<glyph unicode="&#xc2;" glyph-name="Acircumflex" horiz-adv-x="647" d="M618 32T618 28Q618 15 609 7T588 -1Q578 -1 571 4T559 19L484 202H159L85 19Q77 -1 58 -1Q44 -1 37 6T29 25V28Q29 34 30 37L294 683Q302 703 324 703Q334 703 341 698T353 683L616 40Q618
32 618 28ZM182 261H460L320 603L182 261ZM446 785T446 777Q446 772 441 767T430 762Q419 762 403 775L320 835L243 774Q225 761 216 761Q209 761 204 765T199 776Q199 784 207 793L284 875Q292 884 299 888T317 892H328Q339 892 346 888T362 875L438 794Q446 785
446 777Z" />
<glyph unicode="&#xc3;" glyph-name="Atilde" horiz-adv-x="647" d="M618 32T618 28Q618 15 609 7T588 -1Q578 -1 571 4T559 19L484 202H159L85 19Q77 -1 58 -1Q44 -1 37 6T29 25V28Q29 34 30 37L294 683Q302 703 324 703Q334 703 341 698T353 683L616 40Q618
32 618 28ZM182 261H460L320 603L182 261ZM184 771T178 779T171 803Q171 811 172 815Q179 846 203 864T259 882Q277 882 296 874T341 849Q363 836 375 830T398 824Q412 824 420 834T431 863Q430 874 436 881T453 889Q465 889 471 881T478 857L477 846Q471 813 450
794T396 775Q368 775 316 807Q293 820 280 826T256 832Q242 832 232 823T217 793Q217 782 211 777T195 771Q184 771 178 779Z" />
<glyph unicode="&#xc4;" glyph-name="Adieresis" horiz-adv-x="647" d="M618 32T618 28Q618 15 609 7T588 -1Q578 -1 571 4T559 19L484 202H159L85 19Q77 -1 58 -1Q44 -1 37 6T29 25V28Q29 34 30 37L294 683Q302 703 324 703Q334 703 341 698T353 683L616 40Q618
32 618 28ZM182 261H460L320 603L182 261ZM219 775T208 785T197 815V825Q197 844 208 854T239 865Q258 865 269 855T280 825V815Q280 796 269 786T238 775Q219 775 208 785ZM391 775T380 785T369 815V825Q369 844 380 854T411 865Q430 865 441 855T452 825V815Q452
796 441 786T410 775Q391 775 380 785Z" />
<glyph unicode="&#xc5;" glyph-name="Aring" horiz-adv-x="648" d="M618 32T618 28Q618 15 609 7T588 -1Q578 -1 571 4T559 19L484 202H159L85 19Q77 -1 58 -1Q44 -1 37 6T29 25V28Q29 34 30 37L288 669Q259 680 241 704T222 760Q222 800 252 829T324 858Q365
858 395 829T426 760Q426 729 407 704T359 668L616 40Q618 32 618 28ZM267 737T284 721T324 704Q348 704 365 720T382 760Q382 784 365 800T324 817Q301 817 284 801T267 760Q267 737 284 721ZM182 261H460L320 603L182 261Z" />
<glyph unicode="&#xc6;" glyph-name="AE" horiz-adv-x="919" d="M855 59T863 50T872 29Q872 16 864 8T842 0H488Q475 0 466 8T457 30V169H170L60 11Q51 -2 36 -2Q25 -2 17 6T8 27Q8 36 13 46L462 687Q472 700 489 700H842Q855 700 863 692T872 670Q872 657 864
649T842 641H519V388H797Q810 388 818 380T827 359Q827 346 819 338T797 330H519V59H842Q855 59 863 50ZM457 583L210 227H457V583Z" />
<glyph unicode="&#xc7;" glyph-name="Ccedilla" horiz-adv-x="653" d="M620 86T620 75Q620 59 606 51Q570 27 519 10T416 -10L363 -124Q355 -144 337 -144Q325 -144 310 -134T295 -112Q295 -101 302 -94L370 -9Q281 -2 208 45T91 171T48 350Q48 451 95 533T222
662T399 709Q455 709 508 693T605 648Q620 639 620 623Q620 614 613 603Q604 592 590 592Q582 592 574 597Q494 650 399 650Q318 650 253 612T150 506T112 350Q112 261 150 193T253 87T399 49Q494 49 573 101Q581 106 590 106Q604 106 613 94Q620 86 620 75Z" />
<glyph unicode="&#xc8;" glyph-name="Egrave" horiz-adv-x="568" d="M504 59T512 50T521 29Q521 16 513 8T491 0H124Q111 0 103 8T94 30V670Q94 683 102 691T124 700H491Q504 700 512 692T521 670Q521 657 513 649T491 641H157V390H446Q459 390 467 382T476 360Q476
347 468 339T446 331H157V59H491Q504 59 512 50ZM310 747T296 753L199 802Q179 813 179 833Q179 846 187 854T209 863Q225 863 238 852L327 783Q337 773 337 765Q337 757 332 752T318 747Q310 747 296 753Z" />
<glyph unicode="&#xc9;" glyph-name="Eacute" horiz-adv-x="568" d="M504 59T512 50T521 29Q521 16 513 8T491 0H124Q111 0 103 8T94 30V670Q94 683 102 691T124 700H491Q504 700 512 692T521 670Q521 657 513 649T491 641H157V390H446Q459 390 467 382T476 360Q476
347 468 339T446 331H157V59H491Q504 59 512 50ZM312 746T307 751T302 764Q302 772 312 782L401 851Q414 862 430 862Q443 862 451 854T460 832Q460 812 441 801L343 752Q329 746 321 746Q312 746 307 751Z" />
<glyph unicode="&#xca;" glyph-name="Ecircumflex" horiz-adv-x="568" d="M504 59T512 50T521 29Q521 16 513 8T491 0H124Q111 0 103 8T94 30V670Q94 683 102 691T124 700H491Q504 700 512 692T521 670Q521 657 513 649T491 641H157V390H446Q459 390 467 382T476
360Q476 347 468 339T446 331H157V59H491Q504 59 512 50ZM440 785T440 777Q440 772 435 767T424 762Q413 762 397 775L314 835L237 774Q219 761 210 761Q203 761 198 765T193 776Q193 784 201 793L278 875Q286 884 293 888T311 892H322Q333 892 340 888T356 875L432
794Q440 785 440 777Z" />
<glyph unicode="&#xcb;" glyph-name="Edieresis" horiz-adv-x="568" d="M504 59T512 50T521 29Q521 16 513 8T491 0H124Q111 0 103 8T94 30V670Q94 683 102 691T124 700H491Q504 700 512 692T521 670Q521 657 513 649T491 641H157V390H446Q459 390 467 382T476
360Q476 347 468 339T446 331H157V59H491Q504 59 512 50ZM213 775T202 785T191 815V825Q191 844 202 854T233 865Q252 865 263 855T274 825V815Q274 796 263 786T232 775Q213 775 202 785ZM385 775T374 785T363 815V825Q363 844 374 854T405 865Q424 865 435 855T446
825V815Q446 796 435 786T404 775Q385 775 374 785Z" />
<glyph unicode="&#xcc;" glyph-name="Igrave" horiz-adv-x="250" d="M156 18T147 9T125 0Q111 0 103 8T94 31V669Q94 683 103 691T126 700Q139 700 148 691T157 669V31Q156 18 147 9ZM118 747T104 753L7 802Q-13 813 -13 833Q-13 846 -5 854T17 863Q33 863 46
852L135 783Q145 773 145 765Q145 757 140 752T126 747Q118 747 104 753Z" />
<glyph unicode="&#xcd;" glyph-name="Iacute" horiz-adv-x="250" d="M156 18T147 9T125 0Q111 0 103 8T94 31V669Q94 683 103 691T126 700Q139 700 148 691T157 669V31Q156 18 147 9ZM120 746T115 751T110 764Q110 772 120 782L209 851Q222 862 238 862Q251 862
259 854T268 832Q268 812 249 801L151 752Q137 746 129 746Q120 746 115 751Z" />
<glyph unicode="&#xce;" glyph-name="Icircumflex" horiz-adv-x="250" d="M156 18T147 9T125 0Q111 0 103 8T94 31V669Q94 683 103 691T126 700Q139 700 148 691T157 669V31Q156 18 147 9ZM248 785T248 777Q248 772 243 767T232 762Q221 762 205 775L122 835L45
774Q27 761 18 761Q11 761 6 765T1 776Q1 784 9 793L86 875Q94 884 101 888T119 892H130Q141 892 148 888T164 875L240 794Q248 785 248 777Z" />
<glyph unicode="&#xcf;" glyph-name="Idieresis" horiz-adv-x="250" d="M156 18T147 9T125 0Q111 0 103 8T94 31V669Q94 683 103 691T126 700Q139 700 148 691T157 669V31Q156 18 147 9ZM21 775T10 785T-1 815V825Q-1 844 10 854T41 865Q60 865 71 855T82 825V815Q82
796 71 786T40 775Q21 775 10 785ZM193 775T182 785T171 815V825Q171 844 182 854T213 865Q232 865 243 855T254 825V815Q254 796 243 786T212 775Q193 775 182 785Z" />
<glyph unicode="&#xd0;" glyph-name="Eth" horiz-adv-x="719" d="M475 700T540 653T638 526T671 350Q671 251 639 172T541 47T379 0H124Q111 0 103 8T94 30V323H47Q33 323 25 331T17 352Q17 364 25 371T47 379H94V670Q94 683 102 691T124 700H379Q475 700 540
653ZM489 59T548 139T607 350Q607 431 582 496T504 601T369 641H157V379H211Q225 379 233 372T241 351Q241 338 233 331T211 323H157V59H369Q489 59 548 139Z" />
<glyph unicode="&#xd1;" glyph-name="Ntilde" horiz-adv-x="728" d="M619 700T626 692T634 672V32Q634 17 625 9T603 0Q596 0 590 3T579 10L150 588V27Q150 16 142 8T122 0Q110 0 102 8T94 27V670Q94 684 102 692T123 700Q139 700 147 689L578 108V672Q578 684
586 692T606 700Q619 700 626 692ZM224 771T218 779T211 803Q211 811 212 815Q219 846 243 864T299 882Q317 882 336 874T381 849Q403 836 415 830T438 824Q452 824 460 834T471 863Q470 874 476 881T493 889Q505 889 511 881T518 857L517 846Q511 813 490 794T436
775Q408 775 356 807Q333 820 320 826T296 832Q282 832 272 823T257 793Q257 782 251 777T235 771Q224 771 218 779Z" />
<glyph unicode="&#xd2;" glyph-name="Ograve" horiz-adv-x="766" d="M718 247T675 165T556 37T383 -10Q286 -10 210 36T91 165T48 350Q48 454 91 536T210 664T383 710Q480 710 556 664T675 536T718 350Q718 247 675 165ZM654 437T620 505T524 612T383 650Q304
650 243 612T147 506T112 350Q112 263 146 195T242 88T383 50Q462 50 523 88T619 194T654 350Q654 437 620 505ZM375 747T361 753L264 802Q244 813 244 833Q244 846 252 854T274 863Q290 863 303 852L392 783Q402 773 402 765Q402 757 397 752T383 747Q375 747
361 753Z" />
<glyph unicode="&#xd3;" glyph-name="Oacute" horiz-adv-x="766" d="M718 247T675 165T556 37T383 -10Q286 -10 210 36T91 165T48 350Q48 454 91 536T210 664T383 710Q480 710 556 664T675 536T718 350Q718 247 675 165ZM654 437T620 505T524 612T383 650Q304
650 243 612T147 506T112 350Q112 263 146 195T242 88T383 50Q462 50 523 88T619 194T654 350Q654 437 620 505ZM377 746T372 751T367 764Q367 772 377 782L466 851Q479 862 495 862Q508 862 516 854T525 832Q525 812 506 801L408 752Q394 746 386 746Q377 746
372 751Z" />
<glyph unicode="&#xd4;" glyph-name="Ocircumflex" horiz-adv-x="766" d="M718 247T675 165T556 37T383 -10Q286 -10 210 36T91 165T48 350Q48 454 91 536T210 664T383 710Q480 710 556 664T675 536T718 350Q718 247 675 165ZM654 437T620 505T524 612T383 650Q304
650 243 612T147 506T112 350Q112 263 146 195T242 88T383 50Q462 50 523 88T619 194T654 350Q654 437 620 505ZM505 785T505 777Q505 772 500 767T489 762Q478 762 462 775L379 835L302 774Q284 761 275 761Q268 761 263 765T258 776Q258 784 266 793L343 875Q351
884 358 888T376 892H387Q398 892 405 888T421 875L497 794Q505 785 505 777Z" />
<glyph unicode="&#xd5;" glyph-name="Otilde" horiz-adv-x="766" d="M718 247T675 165T556 37T383 -10Q286 -10 210 36T91 165T48 350Q48 454 91 536T210 664T383 710Q480 710 556 664T675 536T718 350Q718 247 675 165ZM654 437T620 505T524 612T383 650Q304
650 243 612T147 506T112 350Q112 263 146 195T242 88T383 50Q462 50 523 88T619 194T654 350Q654 437 620 505ZM243 771T237 779T230 803Q230 811 231 815Q238 846 262 864T318 882Q336 882 355 874T400 849Q422 836 434 830T457 824Q471 824 479 834T490 863Q489
874 495 881T512 889Q524 889 530 881T537 857L536 846Q530 813 509 794T455 775Q427 775 375 807Q352 820 339 826T315 832Q301 832 291 823T276 793Q276 782 270 777T254 771Q243 771 237 779Z" />
<glyph unicode="&#xd6;" glyph-name="Odieresis" horiz-adv-x="766" d="M718 247T675 165T556 37T383 -10Q286 -10 210 36T91 165T48 350Q48 454 91 536T210 664T383 710Q480 710 556 664T675 536T718 350Q718 247 675 165ZM654 437T620 505T524 612T383 650Q304
650 243 612T147 506T112 350Q112 263 146 195T242 88T383 50Q462 50 523 88T619 194T654 350Q654 437 620 505ZM278 775T267 785T256 815V825Q256 844 267 854T298 865Q317 865 328 855T339 825V815Q339 796 328 786T297 775Q278 775 267 785ZM450 775T439 785T428
815V825Q428 844 439 854T470 865Q489 865 500 855T511 825V815Q511 796 500 786T469 775Q450 775 439 785Z" />
<glyph unicode="&#xd7;" glyph-name="multiply" horiz-adv-x="440" d="M398 115T398 103Q398 89 389 82T369 74Q357 74 348 83L221 214L90 84Q80 74 68 74Q56 74 48 83T39 104Q39 116 48 125L180 256L56 383Q47 394 47 404Q47 416 55 424T75 433Q87 433 97 423L220
296L351 426Q360 435 373 435Q385 435 393 426T402 406Q402 395 393 384L262 254L388 124Q398 115 398 103Z" />
<glyph unicode="&#xd8;" glyph-name="Oslash" horiz-adv-x="726" d="M665 567T691 499T718 350Q718 247 675 165T556 37T383 -10Q319 -10 264 10T165 70L102 -6Q89 -23 73 -23Q63 -23 56 -15T48 3Q48 13 55 21L127 109Q89 156 69 217T48 350Q48 454 91 536T210
664T383 710Q494 710 576 651L627 713Q633 721 638 723T653 726Q663 726 671 719T679 702Q679 691 671 682L617 616Q665 567 691 499ZM112 237T168 158L536 603Q470 650 383 650Q304 650 243 612T147 506T112 350Q112 237 168 158ZM462 50T523 88T619 194T654 350Q654
416 634 472T577 568L204 117Q239 85 284 68T383 50Q462 50 523 88Z" />
<glyph unicode="&#xd9;" glyph-name="Ugrave" horiz-adv-x="713" d="M602 700T610 692T619 670V256Q619 183 584 122T489 26T357 -9Q284 -9 224 26T129 122T94 256V670Q94 683 102 691T126 700Q138 700 147 692T156 670V256Q156 200 183 153T256 79T357 51Q412
51 458 78T532 153T560 256V670Q560 683 568 691T589 700Q602 700 610 692ZM349 747T335 753L238 802Q218 813 218 833Q218 846 226 854T248 863Q264 863 277 852L366 783Q376 773 376 765Q376 757 371 752T357 747Q349 747 335 753Z" />
<glyph unicode="&#xda;" glyph-name="Uacute" horiz-adv-x="713" d="M602 700T610 692T619 670V256Q619 183 584 122T489 26T357 -9Q284 -9 224 26T129 122T94 256V670Q94 683 102 691T126 700Q138 700 147 692T156 670V256Q156 200 183 153T256 79T357 51Q412
51 458 78T532 153T560 256V670Q560 683 568 691T589 700Q602 700 610 692ZM351 746T346 751T341 764Q341 772 351 782L440 851Q453 862 469 862Q482 862 490 854T499 832Q499 812 480 801L382 752Q368 746 360 746Q351 746 346 751Z" />
<glyph unicode="&#xdb;" glyph-name="Ucircumflex" horiz-adv-x="713" d="M602 700T610 692T619 670V256Q619 183 584 122T489 26T357 -9Q284 -9 224 26T129 122T94 256V670Q94 683 102 691T126 700Q138 700 147 692T156 670V256Q156 200 183 153T256 79T357 51Q412
51 458 78T532 153T560 256V670Q560 683 568 691T589 700Q602 700 610 692ZM479 785T479 777Q479 772 474 767T463 762Q452 762 436 775L353 835L276 774Q258 761 249 761Q242 761 237 765T232 776Q232 784 240 793L317 875Q325 884 332 888T350 892H361Q372 892
379 888T395 875L471 794Q479 785 479 777Z" />
<glyph unicode="&#xdc;" glyph-name="Udieresis" horiz-adv-x="713" d="M602 700T610 692T619 670V256Q619 183 584 122T489 26T357 -9Q284 -9 224 26T129 122T94 256V670Q94 683 102 691T126 700Q138 700 147 692T156 670V256Q156 200 183 153T256 79T357 51Q412
51 458 78T532 153T560 256V670Q560 683 568 691T589 700Q602 700 610 692ZM252 775T241 785T230 815V825Q230 844 241 854T272 865Q291 865 302 855T313 825V815Q313 796 302 786T271 775Q252 775 241 785ZM424 775T413 785T402 815V825Q402 844 413 854T444 865Q463
865 474 855T485 825V815Q485 796 474 786T443 775Q424 775 413 785Z" />
<glyph unicode="&#xdd;" glyph-name="Yacute" horiz-adv-x="559" d="M541 667T535 655L312 348V30Q312 17 303 9T281 0Q268 0 260 8T251 30V347L27 653Q19 662 19 674Q19 686 29 695T51 704Q67 704 76 690L283 408L485 690Q496 704 511 704Q523 704 532 695T541
674Q541 667 535 655ZM274 746T269 751T264 764Q264 772 274 782L363 851Q376 862 392 862Q405 862 413 854T422 832Q422 812 403 801L305 752Q291 746 283 746Q274 746 269 751Z" />
<glyph unicode="&#xde;" glyph-name="Thorn" horiz-adv-x="588" d="M408 593T451 567T519 496T544 393Q544 336 520 290T452 216T353 189H154V30Q154 17 146 9T124 0Q111 0 103 8T94 30V710Q94 723 102 731T124 740Q137 740 145 732T154 710V593H353Q408 593 451
567ZM411 249T447 290T483 393Q483 455 447 494T353 533H154V249H353Q411 249 447 290Z" />
<glyph unicode="&#xdf;" glyph-name="germandbls" horiz-adv-x="606" d="M468 437T515 377T562 231Q562 162 533 107T454 21T345 -10Q314 -10 289 -4T247 16Q236 24 236 37Q236 47 244 55Q251 65 263 65Q275 65 284 57Q311 40 346 40Q387 40 423 63T480 129T502
223Q502 311 455 358T338 422Q311 429 311 453Q311 463 316 470T331 481Q375 492 399 521T423 581Q423 619 392 645T308 671Q235 671 200 619T164 496L163 30Q163 17 155 9T133 0Q119 0 111 8T103 30L104 444H58Q46 444 38 452T29 473Q29 485 37 493T58 501H104Q105
558 127 610T195 695T309 729Q392 729 437 688T482 585Q482 551 459 515T395 462Q468 437 515 377Z" />
<glyph unicode="&#xe0;" glyph-name="agrave" horiz-adv-x="602" d="M507 511T515 502T524 480V30Q524 17 516 9T494 0Q481 0 473 8T464 30V97Q439 52 389 21T280 -10Q213 -10 160 25T76 121T45 258Q45 334 76 394T160 489T279 523Q339 523 389 494T464 418V480Q464
493 472 502T494 511Q507 511 515 502ZM338 46T379 73T444 149T468 258Q468 316 445 364T380 439T286 467Q234 467 193 440T128 366T104 258Q104 198 127 150T191 74T286 46Q338 46 379 73ZM283 558T269 570L190 643Q176 654 176 669Q176 683 184 690T206 698Q224
698 237 681L305 592Q313 582 313 576Q313 568 308 563T294 558Q283 558 269 570Z" />
<glyph unicode="&#xe1;" glyph-name="aacute" horiz-adv-x="602" d="M507 511T515 502T524 480V30Q524 17 516 9T494 0Q481 0 473 8T464 30V97Q439 52 389 21T280 -10Q213 -10 160 25T76 121T45 258Q45 334 76 394T160 489T279 523Q339 523 389 494T464 418V480Q464
493 472 502T494 511Q507 511 515 502ZM338 46T379 73T444 149T468 258Q468 316 445 364T380 439T286 467Q234 467 193 440T128 366T104 258Q104 198 127 150T191 74T286 46Q338 46 379 73ZM273 551T268 556T263 569Q263 575 268 583L329 678Q341 700 363 700Q378
700 387 692T395 669Q395 658 385 646L310 567Q294 551 279 551Q273 551 268 556Z" />
<glyph unicode="&#xe2;" glyph-name="acircumflex" horiz-adv-x="602" d="M507 511T515 502T524 480V30Q524 17 516 9T494 0Q481 0 473 8T464 30V97Q439 52 389 21T280 -10Q213 -10 160 25T76 121T45 258Q45 334 76 394T160 489T279 523Q339 523 389 494T464 418V480Q464
493 472 502T494 511Q507 511 515 502ZM338 46T379 73T444 149T468 258Q468 316 445 364T380 439T286 467Q234 467 193 440T128 366T104 258Q104 198 127 150T191 74T286 46Q338 46 379 73ZM414 600T414 591Q414 586 409 581T398 576Q390 576 385 579T371 590L292
653L216 589Q214 588 209 584T199 577T190 575Q183 575 178 580T173 591Q173 599 181 607L254 687Q265 704 287 704H303Q315 704 322 701T335 687L407 608Q414 600 414 591Z" />
<glyph unicode="&#xe3;" glyph-name="atilde" horiz-adv-x="602" d="M507 511T515 502T524 480V30Q524 17 516 9T494 0Q481 0 473 8T464 30V97Q439 52 389 21T280 -10Q213 -10 160 25T76 121T45 258Q45 334 76 394T160 489T279 523Q339 523 389 494T464 418V480Q464
493 472 502T494 511Q507 511 515 502ZM338 46T379 73T444 149T468 258Q468 316 445 364T380 439T286 467Q234 467 193 440T128 366T104 258Q104 198 127 150T191 74T286 46Q338 46 379 73ZM139 581T139 608L141 624Q148 656 172 674T231 692Q248 692 267 684T310
659Q331 646 343 640T366 634Q395 634 398 672Q397 683 403 690T421 697Q447 697 447 667Q447 659 446 655Q440 622 418 603T359 584Q344 584 327 591T286 614Q262 628 249 634T224 640Q194 640 186 603Q186 592 180 587T163 581Q139 581 139 608Z" />
<glyph unicode="&#xe4;" glyph-name="adieresis" horiz-adv-x="602" d="M507 511T515 502T524 480V30Q524 17 516 9T494 0Q481 0 473 8T464 30V97Q439 52 389 21T280 -10Q213 -10 160 25T76 121T45 258Q45 334 76 394T160 489T279 523Q339 523 389 494T464 418V480Q464
493 472 502T494 511Q507 511 515 502ZM338 46T379 73T444 149T468 258Q468 316 445 364T380 439T286 467Q234 467 193 440T128 366T104 258Q104 198 127 150T191 74T286 46Q338 46 379 73ZM178 591T167 601T156 631V641Q156 660 167 670T197 681Q216 681 227 671T238
641V631Q238 612 228 602T197 591Q178 591 167 601ZM350 591T339 601T328 631V641Q328 660 339 670T370 681Q389 681 399 671T410 641V631Q410 612 400 602T369 591Q350 591 339 601Z" />
<glyph unicode="&#xe5;" glyph-name="aring" horiz-adv-x="602" d="M507 511T515 502T524 480V30Q524 17 516 9T494 0Q481 0 473 8T464 30V97Q439 52 389 21T280 -10Q213 -10 160 25T76 121T45 258Q45 334 76 394T160 489T279 523Q339 523 389 494T464 418V480Q464
493 472 502T494 511Q507 511 515 502ZM338 46T379 73T444 149T468 258Q468 316 445 364T380 439T286 467Q234 467 193 440T128 366T104 258Q104 198 127 150T191 74T286 46Q338 46 379 73ZM251 555T221 584T190 653Q190 693 220 722T292 751Q333 751 363 722T394
653Q394 613 364 584T292 555Q251 555 221 584ZM316 597T333 613T350 653Q350 677 333 693T292 710Q268 710 252 694T235 653Q235 630 251 614T292 597Q316 597 333 613Z" />
<glyph unicode="&#xe6;" glyph-name="ae" horiz-adv-x="894" d="M849 273T841 265T819 256H441Q441 196 465 149T535 74T643 46Q691 46 729 66T790 117Q801 126 812 126Q822 126 829 118T837 100Q837 89 827 79Q796 41 747 16T644 -10Q570 -10 512 21T421 107Q385
58 332 24T206 -10Q167 -10 130 7T70 58T46 141Q46 220 111 265T303 310H385V365Q385 422 351 444T266 467Q218 467 174 441T105 380Q95 368 81 368Q71 368 63 376T55 394Q55 403 62 413Q97 458 151 490T266 523Q329 523 375 501T436 429Q469 474 516 498T617 523Q677
523 730 495T815 413T850 285Q849 273 841 265ZM559 465T510 425T446 310H787V318Q782 363 757 396T695 447T617 465Q559 465 510 425ZM250 46T288 63T355 107T397 159Q383 204 383 253V256H302Q206 256 156 226T106 144Q106 97 137 72T210 46Q250 46 288 63Z"
/>
<glyph unicode="&#xe7;" glyph-name="ccedilla" horiz-adv-x="514" d="M478 58T457 40T397 7T313 -10L260 -124Q251 -144 234 -144Q222 -144 207 -135T191 -112Q191 -101 198 -94L266 -9Q200 -2 150 34T73 128T45 257Q45 330 77 390T167 487T300 523Q347 523 387
513T452 484T477 445Q477 434 470 425T451 416Q441 416 435 420T420 432Q407 445 395 451Q380 458 356 462T303 467Q248 467 203 439T131 363T105 257Q105 197 130 149T199 74T301 46Q337 46 358 52T401 69Q408 73 425 87Q433 94 439 97T452 101Q464 101 471 94T478
74Q478 58 457 40Z" />
<glyph unicode="&#xe8;" glyph-name="egrave" horiz-adv-x="556" d="M511 273T502 265T481 256H103Q103 196 127 149T197 74T305 46Q353 46 391 66T452 117Q463 126 473 126Q483 126 491 118T499 100Q499 89 489 79Q457 40 409 15T306 -10Q229 -10 170 23T78 115T45
253Q45 335 77 396T164 490T279 523Q339 523 391 495T477 413T511 285Q511 273 502 265ZM221 465T172 425T108 310H449V318Q444 363 419 396T357 447T279 465Q221 465 172 425ZM274 558T260 570L181 643Q167 654 167 669Q167 683 175 690T197 698Q215 698 228 681L296
592Q304 582 304 576Q304 568 299 563T285 558Q274 558 260 570Z" />
<glyph unicode="&#xe9;" glyph-name="eacute" horiz-adv-x="556" d="M511 273T502 265T481 256H103Q103 196 127 149T197 74T305 46Q353 46 391 66T452 117Q463 126 473 126Q483 126 491 118T499 100Q499 89 489 79Q457 40 409 15T306 -10Q229 -10 170 23T78 115T45
253Q45 335 77 396T164 490T279 523Q339 523 391 495T477 413T511 285Q511 273 502 265ZM221 465T172 425T108 310H449V318Q444 363 419 396T357 447T279 465Q221 465 172 425ZM264 551T259 556T254 569Q254 575 259 583L320 678Q332 700 354 700Q369 700 378 692T386
669Q386 658 376 646L301 567Q285 551 270 551Q264 551 259 556Z" />
<glyph unicode="&#xea;" glyph-name="ecircumflex" horiz-adv-x="556" d="M511 273T502 265T481 256H103Q103 196 127 149T197 74T305 46Q353 46 391 66T452 117Q463 126 473 126Q483 126 491 118T499 100Q499 89 489 79Q457 40 409 15T306 -10Q229 -10 170 23T78
115T45 253Q45 335 77 396T164 490T279 523Q339 523 391 495T477 413T511 285Q511 273 502 265ZM221 465T172 425T108 310H449V318Q444 363 419 396T357 447T279 465Q221 465 172 425ZM405 600T405 591Q405 586 400 581T389 576Q381 576 376 579T362 590L283 653L207
589Q205 588 200 584T190 577T181 575Q174 575 169 580T164 591Q164 599 172 607L245 687Q256 704 278 704H294Q306 704 313 701T326 687L398 608Q405 600 405 591Z" />
<glyph unicode="&#xeb;" glyph-name="edieresis" horiz-adv-x="556" d="M511 273T502 265T481 256H103Q103 196 127 149T197 74T305 46Q353 46 391 66T452 117Q463 126 473 126Q483 126 491 118T499 100Q499 89 489 79Q457 40 409 15T306 -10Q229 -10 170 23T78
115T45 253Q45 335 77 396T164 490T279 523Q339 523 391 495T477 413T511 285Q511 273 502 265ZM221 465T172 425T108 310H449V318Q444 363 419 396T357 447T279 465Q221 465 172 425ZM169 591T158 601T147 631V641Q147 660 158 670T188 681Q207 681 218 671T229
641V631Q229 612 219 602T188 591Q169 591 158 601ZM341 591T330 601T319 631V641Q319 660 330 670T361 681Q380 681 390 671T401 641V631Q401 612 391 602T360 591Q341 591 330 601Z" />
<glyph unicode="&#xec;" glyph-name="igrave" horiz-adv-x="214" d="M137 17T129 9T107 0Q94 0 86 8T77 30V490Q77 503 85 511T107 520Q120 520 128 512T137 490V30Q137 17 129 9ZM98 558T84 570L5 643Q-9 654 -9 669Q-9 683 -1 690T21 698Q39 698 52 681L120
592Q128 582 128 576Q128 568 123 563T109 558Q98 558 84 570Z" />
<glyph unicode="&#xed;" glyph-name="iacute" horiz-adv-x="214" d="M137 17T129 9T107 0Q94 0 86 8T77 30V490Q77 503 85 511T107 520Q120 520 128 512T137 490V30Q137 17 129 9ZM88 551T83 556T78 569Q78 575 83 583L144 678Q156 700 178 700Q193 700 202 692T210
669Q210 658 200 646L125 567Q109 551 94 551Q88 551 83 556Z" />
<glyph unicode="&#xee;" glyph-name="icircumflex" horiz-adv-x="214" d="M137 17T129 9T107 0Q94 0 86 8T77 30V490Q77 503 85 511T107 520Q120 520 128 512T137 490V30Q137 17 129 9ZM229 600T229 591Q229 586 224 581T213 576Q205 576 200 579T186 590L107
653L31 589Q29 588 24 584T14 577T5 575Q-2 575 -7 580T-12 591Q-12 599 -4 607L69 687Q80 704 102 704H118Q130 704 137 701T150 687L222 608Q229 600 229 591Z" />
<glyph unicode="&#xef;" glyph-name="idieresis" horiz-adv-x="214" d="M137 17T129 9T107 0Q94 0 86 8T77 30V490Q77 503 85 511T107 520Q120 520 128 512T137 490V30Q137 17 129 9ZM-7 591T-18 601T-29 631V641Q-29 660 -18 670T12 681Q31 681 42 671T53 641V631Q53
612 43 602T12 591Q-7 591 -18 601ZM165 591T154 601T143 631V641Q143 660 154 670T185 681Q204 681 214 671T225 641V631Q225 612 215 602T184 591Q165 591 154 601Z" />
<glyph unicode="&#xf0;" glyph-name="eth" horiz-adv-x="565" d="M464 541T492 452T520 284Q520 200 489 135T403 34T282 -3Q217 -3 163 33T77 129T45 261Q45 331 77 390T162 483T278 518Q326 518 364 498T431 442Q406 533 352 592L217 547Q209 545 206 545Q195
545 189 551T182 570Q182 589 202 594L309 630Q260 667 193 680Q167 688 167 709Q167 722 174 731T194 740Q202 740 207 738Q300 717 370 652L453 679Q461 681 464 681Q474 681 481 675T488 656Q488 647 483 641T468 632L408 611Q464 541 492 452ZM330 55T370 83T435
158T459 261Q459 313 436 359T371 432T282 460Q233 460 193 434T129 362T105 261Q105 206 129 159T193 83T282 55Q330 55 370 83Z" />
<glyph unicode="&#xf1;" glyph-name="ntilde" horiz-adv-x="578" d="M413 523T456 469T500 324V30Q500 17 491 9T470 0Q457 0 449 8T440 30V321Q440 386 408 426T307 467Q264 467 226 447T163 394T139 321V30Q139 17 131 9T109 0Q96 0 88 8T79 30V478Q79 491 87
499T109 508Q122 508 130 500T139 478V423Q166 466 216 494T320 523Q413 523 456 469ZM136 581T136 608L138 624Q145 656 169 674T228 692Q245 692 264 684T307 659Q328 646 340 640T363 634Q392 634 395 672Q394 683 400 690T418 697Q444 697 444 667Q444 659
443 655Q437 622 415 603T356 584Q341 584 324 591T283 614Q259 628 246 634T221 640Q191 640 183 603Q183 592 177 587T160 581Q136 581 136 608Z" />
<glyph unicode="&#xf2;" glyph-name="ograve" horiz-adv-x="595" d="M551 181T518 120T427 25T298 -10Q227 -10 169 24T78 120T45 256Q45 331 78 392T169 488T298 523Q369 523 427 488T518 392T551 256Q551 181 518 120ZM491 316T466 364T397 439T298 467Q244
467 200 440T131 364T105 256Q105 197 130 149T200 74T298 46Q352 46 396 73T466 148T491 256Q491 316 466 364ZM289 566T275 578L196 651Q182 662 182 677Q182 691 190 698T212 706Q230 706 243 689L311 600Q319 590 319 584Q319 576 314 571T300 566Q289 566
275 578Z" />
<glyph unicode="&#xf3;" glyph-name="oacute" horiz-adv-x="595" d="M551 181T518 120T427 25T298 -10Q227 -10 169 24T78 120T45 256Q45 331 78 392T169 488T298 523Q369 523 427 488T518 392T551 256Q551 181 518 120ZM491 316T466 364T397 439T298 467Q244
467 200 440T131 364T105 256Q105 197 130 149T200 74T298 46Q352 46 396 73T466 148T491 256Q491 316 466 364ZM279 559T274 564T269 577Q269 583 274 591L335 686Q347 708 369 708Q384 708 393 700T401 677Q401 666 391 654L316 575Q300 559 285 559Q279 559
274 564Z" />
<glyph unicode="&#xf4;" glyph-name="ocircumflex" horiz-adv-x="595" d="M551 181T518 120T427 25T298 -10Q227 -10 169 24T78 120T45 256Q45 331 78 392T169 488T298 523Q369 523 427 488T518 392T551 256Q551 181 518 120ZM491 316T466 364T397 439T298 467Q244
467 200 440T131 364T105 256Q105 197 130 149T200 74T298 46Q352 46 396 73T466 148T491 256Q491 316 466 364ZM420 608T420 599Q420 594 415 589T404 584Q396 584 391 587T377 598L298 661L222 597Q220 596 215 592T205 585T196 583Q189 583 184 588T179 599Q179
607 187 615L260 695Q271 712 293 712H309Q321 712 328 709T341 695L413 616Q420 608 420 599Z" />
<glyph unicode="&#xf5;" glyph-name="otilde" horiz-adv-x="595" d="M551 181T518 120T427 25T298 -10Q227 -10 169 24T78 120T45 256Q45 331 78 392T169 488T298 523Q369 523 427 488T518 392T551 256Q551 181 518 120ZM491 316T466 364T397 439T298 467Q244
467 200 440T131 364T105 256Q105 197 130 149T200 74T298 46Q352 46 396 73T466 148T491 256Q491 316 466 364ZM145 589T145 616L147 632Q154 664 178 682T237 700Q254 700 273 692T316 667Q337 654 349 648T372 642Q401 642 404 680Q403 691 409 698T427 705Q453
705 453 675Q453 667 452 663Q446 630 424 611T365 592Q350 592 333 599T292 622Q268 636 255 642T230 648Q200 648 192 611Q192 600 186 595T169 589Q145 589 145 616Z" />
<glyph unicode="&#xf6;" glyph-name="odieresis" horiz-adv-x="595" d="M551 181T518 120T427 25T298 -10Q227 -10 169 24T78 120T45 256Q45 331 78 392T169 488T298 523Q369 523 427 488T518 392T551 256Q551 181 518 120ZM491 316T466 364T397 439T298 467Q244
467 200 440T131 364T105 256Q105 197 130 149T200 74T298 46Q352 46 396 73T466 148T491 256Q491 316 466 364ZM184 599T173 609T162 639V649Q162 668 173 678T203 689Q222 689 233 679T244 649V639Q244 620 234 610T203 599Q184 599 173 609ZM356 599T345 609T334
639V649Q334 668 345 678T376 689Q395 689 405 679T416 649V639Q416 620 406 610T375 599Q356 599 345 609Z" />
<glyph unicode="&#xf7;" glyph-name="divide" horiz-adv-x="563" d="M231 410T244 423T276 437Q295 437 308 423T322 390Q322 371 309 358T276 345Q257 345 244 358T231 390Q231 410 244 423ZM68 190T59 198T50 220Q50 232 59 240T81 248H482Q495 248 504 240T513
219Q513 207 504 199T482 190H81Q68 190 59 198ZM231 63T244 76T276 89Q295 89 308 76T322 44Q322 25 309 12T276 -1Q257 -1 244 12T231 44Q231 63 244 76Z" />
<glyph unicode="&#xf8;" glyph-name="oslash" horiz-adv-x="601" d="M513 410T532 361T551 256Q551 181 518 120T427 25T298 -10Q206 -10 138 47L83 -17Q73 -27 62 -27Q51 -27 43 -19T34 0Q34 11 41 19L99 87Q45 158 45 256Q45 331 78 392T169 488T298 523Q374
523 436 482L478 531Q488 541 499 541Q510 541 518 533T527 514Q527 502 520 495L479 447Q513 410 532 361ZM105 187T139 134L399 438Q355 467 298 467Q244 467 200 440T131 364T105 256Q105 187 139 134ZM352 46T396 73T466 148T491 256Q491 299 478 336T441 402L175
91Q228 46 298 46Q352 46 396 73Z" />
<glyph unicode="&#xf9;" glyph-name="ugrave" horiz-adv-x="569" d="M474 508T482 500T491 478V196Q491 98 436 46T284 -7Q188 -7 134 45T79 196V478Q79 491 87 499T109 508Q122 508 130 500T139 478V196Q139 124 177 87T284 49Q354 49 392 86T431 196V478Q431
491 439 499T461 508Q474 508 482 500ZM276 558T262 570L183 643Q169 654 169 669Q169 683 177 690T199 698Q217 698 230 681L298 592Q306 582 306 576Q306 568 301 563T287 558Q276 558 262 570Z" />
<glyph unicode="&#xfa;" glyph-name="uacute" horiz-adv-x="569" d="M474 508T482 500T491 478V196Q491 98 436 46T284 -7Q188 -7 134 45T79 196V478Q79 491 87 499T109 508Q122 508 130 500T139 478V196Q139 124 177 87T284 49Q354 49 392 86T431 196V478Q431
491 439 499T461 508Q474 508 482 500ZM266 551T261 556T256 569Q256 575 261 583L322 678Q334 700 356 700Q371 700 380 692T388 669Q388 658 378 646L303 567Q287 551 272 551Q266 551 261 556Z" />
<glyph unicode="&#xfb;" glyph-name="ucircumflex" horiz-adv-x="569" d="M474 508T482 500T491 478V196Q491 98 436 46T284 -7Q188 -7 134 45T79 196V478Q79 491 87 499T109 508Q122 508 130 500T139 478V196Q139 124 177 87T284 49Q354 49 392 86T431 196V478Q431
491 439 499T461 508Q474 508 482 500ZM407 600T407 591Q407 586 402 581T391 576Q383 576 378 579T364 590L285 653L209 589Q207 588 202 584T192 577T183 575Q176 575 171 580T166 591Q166 599 174 607L247 687Q258 704 280 704H296Q308 704 315 701T328 687L400
608Q407 600 407 591Z" />
<glyph unicode="&#xfc;" glyph-name="udieresis" horiz-adv-x="569" d="M474 508T482 500T491 478V196Q491 98 436 46T284 -7Q188 -7 134 45T79 196V478Q79 491 87 499T109 508Q122 508 130 500T139 478V196Q139 124 177 87T284 49Q354 49 392 86T431 196V478Q431
491 439 499T461 508Q474 508 482 500ZM171 591T160 601T149 631V641Q149 660 160 670T190 681Q209 681 220 671T231 641V631Q231 612 221 602T190 591Q171 591 160 601ZM343 591T332 601T321 631V641Q321 660 332 670T363 681Q382 681 392 671T403 641V631Q403
612 393 602T362 591Q343 591 332 601Z" />
<glyph unicode="&#xfd;" glyph-name="yacute" horiz-adv-x="568" d="M473 520T481 512T490 490V49Q490 -30 459 -86T373 -171T249 -200Q207 -200 171 -191T110 -167Q89 -154 89 -138Q89 -136 91 -128Q94 -118 101 -113T116 -108Q122 -108 128 -111Q192 -146 250
-146Q333 -146 381 -94T430 48V83Q405 41 358 16T256 -10Q169 -10 124 42T79 183V490Q79 503 87 511T109 520Q122 520 130 512T139 490V192Q139 120 170 83T269 46Q310 46 347 66T407 120T430 192V490Q430 503 438 511T460 520Q473 520 481 512ZM265 551T260 556T255
569Q255 575 260 583L321 678Q333 700 355 700Q370 700 379 692T387 669Q387 658 377 646L302 567Q286 551 271 551Q265 551 260 556Z" />
<glyph unicode="&#xfe;" glyph-name="thorn" horiz-adv-x="602" d="M388 515T442 482T526 389T557 255Q557 180 527 121T443 27T323 -7Q265 -7 217 20T139 94V-170Q139 -183 131 -191T109 -200Q96 -200 88 -192T79 -170V710Q79 723 87 731T109 740Q122 740 130
732T139 710V414Q165 461 214 488T322 515Q388 515 442 482ZM369 49T410 75T475 149T499 255Q499 313 476 359T411 432T317 459Q264 459 222 433T157 361T134 255Q134 196 157 149T222 76T317 49Q369 49 410 75Z" />
<glyph unicode="&#xff;" glyph-name="ydieresis" horiz-adv-x="568" d="M473 520T481 512T490 490V49Q490 -30 459 -86T373 -171T249 -200Q207 -200 171 -191T110 -167Q89 -154 89 -138Q89 -136 91 -128Q94 -118 101 -113T116 -108Q122 -108 128 -111Q192 -146
250 -146Q333 -146 381 -94T430 48V83Q405 41 358 16T256 -10Q169 -10 124 42T79 183V490Q79 503 87 511T109 520Q122 520 130 512T139 490V192Q139 120 170 83T269 46Q310 46 347 66T407 120T430 192V490Q430 503 438 511T460 520Q473 520 481 512ZM170 591T159
601T148 631V641Q148 660 159 670T189 681Q208 681 219 671T230 641V631Q230 612 220 602T189 591Q170 591 159 601ZM342 591T331 601T320 631V641Q320 660 331 670T362 681Q381 681 391 671T402 641V631Q402 612 392 602T361 591Q342 591 331 601Z" />
<glyph unicode="&#x2013;" glyph-name="endash" horiz-adv-x="510" d="M75 233T67 241T58 262Q58 275 66 283T89 291H422Q435 291 444 283T453 262Q453 249 444 241T422 233H89Q75 233 67 241Z" />
<glyph unicode="&#x2014;" glyph-name="emdash" horiz-adv-x="838" d="M76 233T67 242T58 264Q58 277 66 285T89 294H750Q763 294 772 286T781 264Q781 251 772 242T750 233H89Q76 233 67 242Z" />
<glyph unicode="&#x2018;" glyph-name="quoteleft" horiz-adv-x="194" d="M30 614T44 642T81 689T124 707Q135 707 142 702T150 685Q150 675 145 671T130 664T114 658Q100 651 93 638T85 608Q85 597 91 590T107 583Q121 583 134 592Q146 582 146 568Q146 551 128
538T89 524Q63 524 47 540T30 586Q30 614 44 642Z" />
<glyph unicode="&#x2019;" glyph-name="quoteright" horiz-adv-x="194" d="M156 617T142 589T105 542T62 524Q51 524 44 529T36 546Q36 556 41 560T56 567T72 573Q86 580 93 593T101 623Q101 634 95 641T79 648Q65 648 52 639Q40 649 40 663Q40 680 58 693T97
707Q123 707 139 691T156 645Q156 617 142 589Z" />
<glyph unicode="&#x201a;" glyph-name="quotesinglbase" horiz-adv-x="199" d="M159 -25T145 -53T108 -100T65 -119Q54 -119 47 -114T39 -97Q39 -87 44 -83T59 -76T75 -70Q89 -63 96 -50T104 -20Q104 -9 98 -2T82 5Q66 5 55 -4Q43 6 43 20Q43 38 61 51T100 65Q126
65 142 49T159 3Q159 -25 145 -53Z" />
<glyph unicode="&#x201c;" glyph-name="quotedblleft" horiz-adv-x="349" d="M283 868T297 896T334 943T377 961Q388 961 395 956T403 939Q403 929 398 925T383 918T367 912Q353 905 346 892T338 862Q338 851 344 844T360 837Q374 837 387 846Q399 836 399 822Q399
805 381 792T342 778Q316 778 300 794T283 840Q283 868 297 896ZM187 612T201 640T238 687T281 705Q292 705 299 700T307 683Q307 673 302 669T287 662T271 656Q257 649 250 636T242 606Q242 595 248 588T264 581Q278 581 291 590Q303 580 303 566Q303 549 285
536T246 522Q220 522 204 538T187 584Q187 612 201 640Z" />
<glyph unicode="&#x201d;" glyph-name="quotedblright" horiz-adv-x="349" d="M153 612T139 584T102 537T59 519Q48 519 41 524T33 541Q33 551 38 555T53 562T69 568Q83 575 90 588T98 618Q98 629 92 636T76 643Q62 643 49 634Q37 644 37 658Q37 675 55 688T94
702Q120 702 136 686T153 640Q153 612 139 584ZM313 612T299 584T262 537T219 519Q208 519 201 524T193 541Q193 551 198 555T213 562T229 568Q243 575 250 588T258 618Q258 629 252 636T236 643Q222 643 209 634Q197 644 197 658Q197 675 215 688T254 702Q280
702 296 686T313 640Q313 612 299 584Z" />
<glyph unicode="&#x201e;" glyph-name="quotedblbase" horiz-adv-x="315" d="M157 -25T143 -53T106 -100T63 -119Q52 -119 45 -114T37 -97Q37 -87 42 -83T57 -76T73 -70Q87 -63 94 -50T102 -20Q102 -9 96 -2T80 5Q64 5 53 -4Q41 6 41 20Q41 38 59 51T98 65Q124
65 140 49T157 3Q157 -25 143 -53ZM299 -25T285 -53T248 -100T205 -119Q194 -119 187 -114T179 -97Q179 -87 184 -83T199 -76T215 -70Q229 -63 236 -50T244 -20Q244 -9 238 -2T222 5Q206 5 195 -4Q183 6 183 20Q183 38 201 51T240 65Q266 65 282 49T299 3Q299 -25
285 -53Z" />
<glyph unicode="&#x2022;" glyph-name="bullet" horiz-adv-x="342" d="M137 224T108 241T61 287T43 352Q43 387 60 416T107 463T171 480Q206 480 235 463T282 417T300 352Q300 317 283 288T236 241T171 224Q137 224 108 241Z" />
<glyph unicode="&#x2039;" glyph-name="guilsinglleft" horiz-adv-x="274" d="M221 99Q229 89 229 80Q229 66 220 58T199 50Q185 50 176 62L46 238Q39 249 39 258Q39 267 46 277L177 452Q187 465 200 465Q212 465 220 458T229 438Q229 428 220 417L104 258L221 99Z" />
<glyph unicode="&#x203a;" glyph-name="guilsinglright" horiz-adv-x="274" d="M229 269T229 257Q229 246 222 238L91 63Q81 50 68 50Q57 50 49 57T40 77Q40 88 48 98L165 258L47 415Q39 426 39 435Q39 449 49 457T69 465Q82 465 92 453L222 277Q229 269 229 257Z" />
</font>
</defs>
</svg>
