<?xml version="1.0" standalone="no"?>
<!DOCTYPE svg PUBLIC "-//W3C//DTD SVG 1.1//EN" "http://www.w3.org/Graphics/SVG/1.1/DTD/svg11.dtd">
<svg xmlns="http://www.w3.org/2000/svg">
<defs >
<font id="Quicksand" horiz-adv-x="558" ><font-face
    font-family="Quicksand Medium"
    units-per-em="1000"
    panose-1="0 0 6 0 0 0 0 0 0 0"
    ascent="1000"
    descent="-250"
    alphabetic="0" />
<glyph unicode=" " glyph-name="space" horiz-adv-x="277" />
<glyph unicode="!" glyph-name="exclam" horiz-adv-x="233" d="M89 210T87 242L65 640Q63 666 77 683T116 700Q141 700 155 683T167 640L146 242Q145 226 138 218T117 210Q89 210 87 242ZM87 0T75 13T62 51V70Q62 94 74 107T111 121H122Q146 121 158 108T171 70V51Q171
27 159 14T122 0H111Q87 0 75 13Z" />
<glyph unicode="&quot;" glyph-name="quotedbl" horiz-adv-x="410" d="M63 700T101 700H131Q148 700 157 693T166 671Q166 664 163 655L97 443Q87 415 61 415Q48 415 42 424T38 450L58 661Q63 700 101 700ZM269 700T308 700H339Q355 700 364 693T373 671Q373 664
370 655L303 443Q294 415 267 415Q255 415 250 424T245 451L266 661Q269 700 308 700Z" />
<glyph unicode="#" glyph-name="numbersign" horiz-adv-x="677" d="M532 449L499 255H564Q583 255 596 242T609 210Q609 192 596 181T564 169H484L461 36Q459 20 448 10T420 0Q401 0 389 12T376 45Q376 52 377 56L396 169H219L196 36Q193 19 182 10T154 0Q134
0 122 13T110 46Q110 53 111 56L131 169H76Q57 169 44 182T31 214Q31 232 43 243T76 255H145L179 449H114Q95 449 82 462T69 494Q69 512 81 523T114 535H194L216 664Q218 680 229 690T257 700Q276 700 288 688T301 655Q301 648 300 644L281 535H459L481 664Q483
680 494 690T523 700Q542 700 554 687T567 654Q567 647 566 644L547 535H601Q621 535 633 523T646 490Q646 472 634 461T601 449H532ZM411 255L444 449H267L233 255H411Z" />
<glyph unicode="$" glyph-name="dollar" horiz-adv-x="582" d="M539 113T486 61T349 -6V-87Q349 -108 336 -121T301 -135Q281 -135 268 -122T254 -87V-8Q196 -3 149 17T59 77Q38 95 38 118Q38 136 52 150T85 165Q102 165 114 154Q146 124 180 107T254 84V315Q158
337 107 384T56 514Q56 593 110 644T254 707V759Q254 780 268 793T303 807Q323 807 336 794T349 759V706Q396 699 436 681T503 637Q526 617 526 594Q526 576 513 562T480 548Q466 548 457 556Q439 574 410 589T349 611V389Q445 364 492 320T539 188Q539 113 486
61ZM151 478T177 454T254 413V615Q206 607 179 581T151 518Q151 478 177 454ZM391 100T417 125T443 184Q442 222 419 247T349 290V89Q391 100 417 125Z" />
<glyph unicode="%" glyph-name="percent" horiz-adv-x="799" d="M143 329T109 354T55 422T36 518Q36 571 55 614T108 683T189 709Q258 709 299 655T341 519Q341 467 322 424T268 355T189 329Q143 329 109 354ZM176 -2T163 9T149 37Q149 48 156 62L567 683Q581
702 600 702Q615 702 628 691T642 663Q642 651 634 638L224 17Q210 -2 191 -2Q176 -2 163 9ZM223 403T241 435T260 518Q260 570 242 602T189 634Q155 634 137 602T118 519Q118 467 136 435T189 403Q223 403 241 435ZM567 -9T532 16T478 84T458 179Q458 232 477
275T530 344T611 370Q657 370 691 345T744 276T763 180Q763 128 744 85T690 17T611 -9Q567 -9 532 16ZM645 64T663 96T681 179Q681 231 663 263T611 296Q577 296 559 264T540 180Q540 128 558 96T611 64Q645 64 663 96Z" />
<glyph unicode="&amp;" glyph-name="ampersand" horiz-adv-x="697" d="M672 64T672 42Q672 28 661 14T632 0Q615 0 604 8L512 84Q418 -10 276 -10Q207 -10 151 21T62 104T30 213Q30 283 67 337T178 423Q158 452 148 478T138 532Q138 581 163 621T235 686T344 710Q413
710 465 686T537 623Q544 609 544 592Q544 576 533 565T502 554Q480 554 470 570Q449 600 419 614T344 629Q293 629 266 603T238 536Q238 500 264 463T338 374L356 354Q414 290 498 215Q524 266 534 327Q539 356 574 356Q594 356 606 340T616 301Q603 219 566 155Q607
119 651 83Q672 64 672 42ZM383 80T446 141Q339 235 265 319Q251 334 232 357Q175 340 151 307T127 227Q127 188 145 155T201 101T295 80Q383 80 446 141Z" />
<glyph unicode="&apos;" glyph-name="quotesingle" horiz-adv-x="204" d="M63 700T101 700H132Q148 700 157 693T166 672Q166 664 163 655L97 443Q88 415 61 415Q48 415 42 424T38 450L58 661Q63 700 101 700Z" />
<glyph unicode="(" glyph-name="parenleft" horiz-adv-x="364" d="M294 -186T282 -180Q165 -110 102 6T39 258Q39 393 102 507T283 696Q293 703 304 703Q322 703 333 690T344 661Q344 642 327 628Q234 564 185 466T135 258Q135 145 184 46T327 -112Q344 -124 344
-145Q344 -160 333 -173T304 -186Q294 -186 282 -180Z" />
<glyph unicode=")" glyph-name="parenright" horiz-adv-x="364" d="M43 -186T32 -173T20 -144Q20 -124 37 -111Q130 -47 179 51T229 259Q229 371 180 470T37 629Q29 634 25 643T20 661Q20 677 31 690T60 703Q71 703 82 696Q199 626 262 510T325 259Q325 125 262
10T81 -179Q71 -186 60 -186Q43 -186 32 -173Z" />
<glyph unicode="*" glyph-name="asterisk" horiz-adv-x="341" d="M157 390T150 398T144 420L152 505Q153 508 151 509T146 508L76 459Q67 453 58 453Q44 453 35 467Q31 475 31 483Q31 499 48 507L127 543Q130 544 130 546T127 549L48 585Q40 589 36 595T31 610Q31
618 35 625Q44 639 59 639Q66 639 76 634L146 583Q149 581 151 582T152 586L144 671Q143 684 150 693T172 702Q184 702 191 693T198 671L190 586Q189 583 191 582T196 583L266 633Q274 639 283 639Q299 639 307 625Q311 618 311 610Q311 593 293 585L215 549Q212
548 212 546T215 543L293 507Q311 498 311 481Q311 477 307 467Q297 452 283 452Q273 452 266 458L196 508Q193 510 191 509T190 505L198 420Q199 407 191 399T170 390Q157 390 150 398Z" />
<glyph unicode="+" glyph-name="plus" horiz-adv-x="571" d="M517 323T529 311T542 278Q542 259 530 247T497 235H343V82Q343 60 329 46T292 31Q270 31 256 45T241 82V235H88Q69 235 56 248T43 280Q43 299 55 311T88 323H241V486Q241 508 255 522T292 536Q315
536 329 522T343 486V323H497Q517 323 529 311Z" />
<glyph unicode="," glyph-name="comma" horiz-adv-x="241" d="M191 -19T175 -51T135 -107T84 -130Q67 -130 56 -122T45 -97Q45 -83 52 -78T68 -69T83 -64Q97 -57 104 -46T112 -20Q112 -9 103 -1T80 7Q64 7 53 -1Q43 4 38 11T33 32Q34 56 59 74T112 93Q149 93 170
70T191 6Q191 -19 175 -51Z" />
<glyph unicode="-" glyph-name="hyphen" horiz-adv-x="394" d="M81 240T67 253T53 288Q53 308 67 321T101 334H293Q313 334 326 321T340 286Q340 266 327 253T293 240H101Q81 240 67 253Z" />
<glyph unicode="." glyph-name="period" horiz-adv-x="221" d="M81 1T69 14T56 52V71Q56 95 68 108T105 121H115Q140 121 152 108T165 71V52Q165 1 115 1H105Q81 1 69 14Z" />
<glyph unicode="/" glyph-name="slash" horiz-adv-x="549" d="M48 -132T35 -120T21 -91Q21 -83 26 -71L445 773Q459 800 484 800Q499 800 512 789T525 760Q525 748 520 738L102 -106Q90 -132 64 -132Q48 -132 35 -120Z" />
<glyph unicode="0" glyph-name="zero" horiz-adv-x="606" d="M221 -10T163 36T76 163T46 350Q46 456 75 537T163 664T303 710Q385 710 443 664T530 537T560 350Q560 244 531 163T443 36T303 -10Q221 -10 163 36ZM376 86T416 155T457 350Q457 476 417 545T303 614Q230
614 190 545T149 350Q149 224 189 155T303 86Q376 86 416 155Z" />
<glyph unicode="1" glyph-name="one" horiz-adv-x="351" d="M243 699T255 686T268 652V48Q268 28 253 14T216 0Q194 0 180 14T166 48V568L78 515Q67 508 53 508Q33 508 19 523T5 557Q5 569 12 580T30 598L188 693Q202 700 223 700Q243 699 255 686Z" />
<glyph unicode="2" glyph-name="two" horiz-adv-x="549" d="M487 88T500 75T513 43Q513 24 500 12T468 0H113Q93 0 80 12T67 46Q67 64 81 80L304 322Q397 421 397 497Q397 551 362 586T271 622Q234 622 200 601T145 541Q129 520 107 520Q90 520 75 533T60 563Q60
574 67 586T89 614Q122 658 173 684T276 710Q343 710 392 683T467 609T494 501Q494 386 370 253L219 88H468Q487 88 500 75Z" />
<glyph unicode="3" glyph-name="three" horiz-adv-x="521" d="M332 443T377 415T449 337T475 227Q475 156 442 102T351 19T218 -10Q178 -10 141 1T76 33Q49 48 49 74Q49 93 62 109T95 125Q113 125 131 112Q172 74 234 74Q273 74 306 92T360 143T380 221Q380 286
340 321T244 356Q228 356 198 349Q176 343 165 343Q147 343 136 355T125 387Q125 398 129 406T142 425L312 612H81Q62 612 49 625T36 657Q36 676 49 688T81 700H400Q423 700 436 686T449 652Q449 634 430 615L275 443Q332 443 377 415Z" />
<glyph unicode="4" glyph-name="four" horiz-adv-x="645" d="M555 288T568 276T581 244Q581 225 568 213T536 201H483V48Q483 28 469 14T435 0Q415 0 402 14T388 48V201H114Q96 201 82 215T67 248Q67 266 78 280L397 681Q404 690 414 695T436 700Q456 700 469
686T483 652V288H536Q555 288 568 276ZM193 288H388V538L193 288Z" />
<glyph unicode="5" glyph-name="five" horiz-adv-x="567" d="M331 468T384 439T467 357T497 239Q497 170 462 114T365 26T230 -7Q189 -7 148 6T79 42Q69 50 63 63T57 89Q57 104 69 116T102 129Q115 129 137 114Q182 81 229 81Q277 81 316 102T379 159T402 238Q402
302 360 341T254 380Q227 380 207 373T157 352Q145 346 134 342T114 337Q85 337 71 354T57 393L58 403L94 662Q97 678 110 689T143 700H437Q456 700 468 687T481 655Q481 636 469 624T437 611H176L150 440Q172 452 203 460T266 468Q331 468 384 439Z" />
<glyph unicode="6" glyph-name="six" horiz-adv-x="543" d="M349 449T398 418T476 333T506 219Q506 157 476 105T394 21T279 -10Q207 -10 155 27T74 124T46 253Q46 330 76 422T174 594T350 708Q359 711 368 711Q389 711 402 700T416 665Q416 648 405 635T375 617Q305
592 245 531T159 394Q218 449 294 449Q349 449 398 418ZM335 78T373 118T411 219Q411 278 375 319T280 361Q220 361 182 320T143 217Q143 159 180 119T278 78Q335 78 373 118Z" />
<glyph unicode="7" glyph-name="seven" horiz-adv-x="548" d="M482 700T496 687T511 654Q511 644 506 632L238 26Q232 12 220 4T194 -4Q175 -4 160 9T145 41Q145 51 150 63L394 612H105Q86 612 73 625T60 657Q60 676 72 688T105 700H461Q482 700 496 687Z" />
<glyph unicode="8" glyph-name="eight" horiz-adv-x="578" d="M458 335T486 292T515 200Q515 145 485 99T403 25T289 -3Q227 -3 175 24T93 98T63 200Q63 254 91 294T165 361Q128 382 104 418T80 504Q80 558 108 603T183 674T289 700Q346 700 394 674T469 603T497
504Q497 453 472 418T410 362Q458 335 486 292ZM239 612T207 581T175 502Q175 455 208 424T289 392Q336 392 369 423T402 502Q402 550 370 581T289 612Q239 612 207 581ZM345 85T382 118T420 201Q420 251 382 285T289 319Q235 319 197 285T159 201Q159 151 196
118T289 85Q345 85 382 118Z" />
<glyph unicode="9" glyph-name="nine" horiz-adv-x="550" d="M346 712T398 675T478 578T506 449Q506 372 476 281T378 112T203 -1Q194 -4 185 -4Q165 -4 151 7T136 42Q136 59 147 72T177 90Q248 115 308 174T394 309Q336 253 259 253Q204 253 155 284T76 369T46
484Q46 545 76 597T159 681T274 712Q346 712 398 675ZM333 342T371 383T410 485Q410 543 372 583T274 624Q218 624 180 584T142 484Q142 424 178 383T272 342Q333 342 371 383Z" />
<glyph unicode=":" glyph-name="colon" horiz-adv-x="237" d="M89 402T77 415T64 453V471Q64 496 76 509T113 522H124Q148 522 160 509T173 471V453Q173 428 161 415T124 402H113Q89 402 77 415ZM89 0T77 13T64 51V70Q64 94 76 107T113 121H124Q148 121 160 108T173
70V51Q173 27 161 14T124 0H113Q89 0 77 13Z" />
<glyph unicode=";" glyph-name="semicolon" horiz-adv-x="254" d="M112 402T99 415T86 453V471Q86 496 99 509T137 522H147Q171 522 184 509T198 471V453Q198 428 185 415T147 402H137Q112 402 99 415ZM213 -19T197 -51T157 -107T106 -130Q89 -130 78 -122T67
-97Q67 -83 74 -78T90 -69T105 -64Q119 -57 126 -46T134 -20Q134 -9 125 -1T102 7Q86 7 75 -1Q65 4 60 11T55 32Q56 56 81 74T134 93Q171 93 192 70T213 6Q213 -19 197 -51Z" />
<glyph unicode="&lt;" glyph-name="less" horiz-adv-x="524" d="M467 71T467 48Q467 30 454 15T427 0Q415 0 387 16L51 211Q28 224 28 252Q28 280 52 294L386 484Q409 498 422 498Q439 498 453 483T467 451Q467 430 447 419L156 252L445 83Q467 71 467 48Z" />
<glyph unicode="=" glyph-name="equal" horiz-adv-x="562" d="M77 330T64 343T50 375Q50 394 63 406T97 418H465Q485 418 498 406T512 374Q512 356 499 343T465 330H97Q77 330 64 343ZM77 141T64 154T50 186Q50 205 63 217T97 229H465Q485 229 498 217T512 185Q512
167 499 154T465 141H97Q77 141 64 154Z" />
<glyph unicode="&gt;" glyph-name="greater" horiz-adv-x="527" d="M499 272T499 246Q499 218 476 205L137 14Q114 0 100 0Q84 0 70 15T56 47Q56 67 79 80L371 245L78 416Q58 427 58 450Q58 468 71 483T99 498Q109 498 122 491T139 482L474 288Q499 272 499 246Z" />
<glyph unicode="?" glyph-name="question" horiz-adv-x="510" d="M175 345T188 359T222 373Q289 375 331 410T374 512Q374 569 335 606T239 644Q207 644 178 631T126 594Q106 576 86 576Q72 576 60 585Q38 601 38 622Q38 640 53 655Q87 694 135 716T239 738Q303
738 355 709T439 629T470 512Q470 452 444 406T371 331T267 296Q266 296 266 296T269 296V230Q269 210 256 196T222 182Q201 182 188 196T175 230V324Q175 345 188 359ZM195 0T182 13T169 51V70Q169 94 182 107T219 121H229Q253 121 266 108T279 70V51Q279 27 266
14T229 0H219Q195 0 182 13Z" />
<glyph unicode="@" glyph-name="at" horiz-adv-x="967" d="M625 55T594 81T563 150Q534 101 491 78T400 55Q360 55 327 76T273 134T252 220Q252 283 284 351T372 465T492 510Q533 510 564 488T608 428L615 470Q617 484 628 494T660 505Q702 505 702 470Q702 461
701 456L658 184Q657 179 657 169Q657 145 669 133T700 120Q742 120 778 160T836 265T858 396Q858 470 824 526T725 613T576 645Q444 645 338 592T170 440T108 206Q108 126 140 58T241 -54T414 -97Q488 -97 535 -83T639 -38Q649 -33 655 -33Q672 -33 680 -53Q682
-57 682 -64Q682 -84 653 -98Q592 -129 540 -145T414 -162Q286 -162 202 -110T79 25T40 206Q40 358 111 472T304 648T576 710Q686 710 765 668T884 555T925 396Q925 313 893 234T803 105T670 55Q625 55 594 81ZM460 129T495 153T553 215T580 288Q589 320 589 345Q589
391 563 413T496 436Q451 436 416 402T362 318T342 222Q342 178 364 154T422 129Q460 129 495 153Z" />
<glyph unicode="A" glyph-name="A" horiz-adv-x="642" d="M624 53T624 43Q624 23 611 10T579 -3Q565 -3 554 5T535 29L473 176H164L103 28Q98 13 87 5T61 -3Q40 -3 29 8T18 38Q18 42 20 54L275 672Q282 688 294 696T323 703Q338 703 350 695T367 672L621 62Q624
53 624 43ZM202 267H435L318 547L202 267Z" />
<glyph unicode="B" glyph-name="B" horiz-adv-x="653" d="M539 363T574 320T610 206Q610 95 546 48T388 0H131Q111 0 97 14T83 48V652Q83 672 97 686T131 700H388Q479 700 526 655T574 525Q574 477 551 440T484 382Q539 363 574 320ZM471 557T446 581T374 606H185V411H376Q417
412 444 437T471 510Q471 557 446 581ZM442 92T475 120T508 206Q508 317 382 317H185V92H387Q442 92 475 120Z" />
<glyph unicode="C" glyph-name="C" horiz-adv-x="638" d="M606 646T606 619Q606 601 594 586Q582 570 561 570Q547 570 534 577Q472 612 400 612Q325 612 268 579T178 487T146 350Q146 267 179 207T270 116T400 84Q474 84 534 120Q546 126 560 126Q582 126 595
109Q607 94 607 77Q607 65 601 55T583 38Q544 16 496 3T400 -10Q303 -10 222 33T92 158T43 350Q43 451 89 532T217 660T400 707Q497 707 582 659Q606 646 606 619Z" />
<glyph unicode="D" glyph-name="D" horiz-adv-x="717" d="M471 700T538 653T639 527T673 350Q673 252 639 173T538 47T377 0H131Q111 0 97 14T83 48V652Q83 672 97 686T131 700H377Q471 700 538 653ZM469 92T520 164T571 350Q571 462 520 535T367 608H182V92H367Q469
92 520 164Z" />
<glyph unicode="E" glyph-name="E" horiz-adv-x="570" d="M500 92T513 78T527 45Q527 25 514 13T479 0H131Q111 0 97 14T83 48V652Q83 672 97 686T131 700H479Q500 700 513 687T527 653Q527 633 514 621T479 608H182V404H434Q455 404 468 391T482 358Q482 337
469 325T434 313H182V92H479Q500 92 513 78Z" />
<glyph unicode="F" glyph-name="F" horiz-adv-x="564" d="M181 608V401H427Q448 401 461 388T475 354Q475 336 462 323T427 310H181V48Q181 28 167 14T132 0Q111 0 97 14T83 48V652Q83 672 97 686T131 700H472Q493 700 506 687T520 653Q520 635 506 622T472 608H181Z" />
<glyph unicode="G" glyph-name="G" horiz-adv-x="695" d="M617 368T630 354T644 320V95Q644 68 620 53Q574 23 519 7T406 -10Q306 -10 223 38T91 168T43 350Q43 449 91 531T222 662T406 710Q456 710 502 699T586 666Q598 659 604 649T610 627Q610 607 597 593T564
578Q549 578 538 585Q473 615 406 615Q334 615 275 580T181 484T146 350Q146 277 180 217T274 121T406 85Q440 85 477 93T542 114V273H421Q401 273 387 286T373 320Q373 341 387 354T421 368H597Q617 368 630 354Z" />
<glyph unicode="H" glyph-name="H" horiz-adv-x="719" d="M609 700T623 687T637 652V49Q636 28 622 14T586 0Q566 0 552 14T537 49V308H182V49Q182 28 167 14T132 0Q110 0 97 14T83 49V652Q83 672 97 686T133 700Q153 700 167 686T182 652V400H537V652Q537 672
552 686T587 700Q609 700 623 687Z" />
<glyph unicode="I" glyph-name="I" horiz-adv-x="265" d="M182 28T167 14T132 0Q110 0 97 14T83 49V652Q83 672 97 686T133 700Q153 700 167 686T182 652V49Q182 28 167 14Z" />
<glyph unicode="J" glyph-name="J" horiz-adv-x="560" d="M188 -10T139 18T60 95Q51 109 51 122Q51 141 66 154T97 168Q119 168 142 143Q181 85 247 85Q302 85 340 122T378 213V652Q378 672 393 686T428 700Q450 700 463 687T477 652V213Q477 152 447 101T365
20T247 -10Q188 -10 139 18Z" />
<glyph unicode="K" glyph-name="K" horiz-adv-x="663" d="M626 67T626 48Q626 26 610 12T572 -2Q552 -2 537 16L294 329L182 223V49Q182 28 168 14T132 0Q110 0 97 14T83 49V652Q83 672 97 686T133 700Q155 700 168 687T182 652V341L537 685Q556 702 575 702Q593
702 606 687T619 655Q619 640 605 624L368 400L615 81Q626 67 626 48Z" />
<glyph unicode="L" glyph-name="L" horiz-adv-x="550" d="M490 93T503 80T517 46Q517 26 504 13T469 0H131Q110 0 97 14T83 48V652Q83 672 97 686T133 700Q153 700 167 686T182 652V93H469Q490 93 503 80Z" />
<glyph unicode="M" glyph-name="M" horiz-adv-x="822" d="M711 700T725 687T739 653V48Q739 28 726 14T690 0Q668 0 654 13T640 48V511L446 217Q439 208 429 202T407 197Q397 196 387 202T369 217L174 520V48Q174 27 162 14T128 0Q108 0 96 13T83 48V653Q83 672
97 686T132 701Q144 701 155 695T174 679L411 320L651 679Q667 701 691 701Q711 700 725 687Z" />
<glyph unicode="N" glyph-name="N" horiz-adv-x="732" d="M625 700T637 688T649 656V49Q649 28 636 14T601 0Q590 0 580 3T563 14L170 526V44Q170 25 158 13T126 0Q107 0 95 12T83 44V652Q83 673 96 686T130 700Q142 700 153 696T170 683L562 170V656Q562 675
574 687T606 700Q625 700 637 688Z" />
<glyph unicode="O" glyph-name="O" horiz-adv-x="762" d="M719 249T676 167T555 38T381 -10Q284 -10 207 37T87 167T43 350Q43 451 86 533T207 662T381 710Q478 710 555 663T675 533T719 350Q719 249 676 167ZM616 425T586 485T503 580T381 615Q313 615 260 581T176
487T146 350Q146 275 176 215T259 120T381 85Q449 85 502 119T586 214T616 350Q616 425 586 485Z" />
<glyph unicode="P" glyph-name="P" horiz-adv-x="600" d="M416 700T461 672T532 594T559 486Q559 427 533 377T461 298T363 269H175V48Q175 28 162 14T129 0Q108 0 96 13T83 48V652Q83 672 97 686T131 700H363Q416 700 461 672ZM390 360T413 377T449 424T463 486Q463
537 434 572T363 608H175V360H363Q390 360 413 377Z" />
<glyph unicode="Q" glyph-name="Q" horiz-adv-x="763" d="M758 -40T771 -53T785 -85Q785 -111 753 -135T675 -174T591 -189Q530 -189 492 -177T413 -142Q382 -125 362 -118T315 -110Q303 -110 293 -113T272 -122Q248 -134 227 -134Q208 -134 195 -120T181 -87Q181
-56 208 -46L320 -5Q239 9 176 59T78 185T43 350Q43 451 86 533T207 662T381 710Q478 710 555 663T675 533T719 350Q719 262 686 188T592 64T454 -2L378 -30Q403 -33 423 -41T473 -65Q509 -83 536 -92T596 -102Q625 -102 646 -94T686 -72Q694 -66 704 -58T723 -45T741
-40Q758 -40 771 -53ZM146 275T176 215T259 120T381 85Q449 85 502 119T586 214T616 350Q616 425 586 485T503 580T381 615Q313 615 260 581T176 487T146 350Q146 275 176 215Z" />
<glyph unicode="R" glyph-name="R" horiz-adv-x="680" d="M626 73T632 63T638 41Q638 20 625 10T592 0Q573 0 560 8Q530 25 511 63T492 175Q492 225 462 249T384 273H182V48Q182 27 170 14T139 0Q116 0 100 14T83 48V652Q83 672 97 686T131 700H412Q466 700 511
674T583 601T610 496Q610 440 580 392T503 319Q540 300 561 266T585 187Q589 130 594 110T616 80Q626 73 632 63ZM435 358T457 376T494 424T508 493Q508 541 479 574T407 608H182V356H410Q435 358 457 376Z" />
<glyph unicode="S" glyph-name="S" horiz-adv-x="582" d="M222 -10T166 10T59 77Q38 95 38 118Q38 136 52 150T85 165Q102 165 114 154Q154 117 196 100T293 82Q356 82 399 111T443 184Q442 236 400 264T270 312Q167 333 112 381T56 514Q56 573 87 617T173 686T297
710Q359 710 414 690T503 637Q526 617 526 594Q526 576 513 562T480 548Q466 548 457 556Q431 582 385 600T297 618Q230 618 191 591T151 518Q151 469 190 443T308 399Q386 382 435 359T512 295T539 188Q539 130 507 85T418 15T295 -10Q222 -10 166 10Z" />
<glyph unicode="T" glyph-name="T" horiz-adv-x="617" d="M558 700T571 688T585 654Q585 633 572 621T537 609H359V48Q359 28 345 14T308 0Q286 0 272 14T257 48V609H80Q59 609 46 621T32 655Q32 675 45 687T80 700H537Q558 700 571 688Z" />
<glyph unicode="U" glyph-name="U" horiz-adv-x="708" d="M600 701T612 688T625 653V269Q625 190 590 127T494 29T355 -7Q277 -7 215 28T118 127T83 269V653Q83 674 97 687T133 701Q152 701 166 687T181 653V269Q181 217 205 176T269 111T355 88Q403 88 444 111T509
175T534 269V653Q534 674 546 687T579 701Q600 701 612 688Z" />
<glyph unicode="V" glyph-name="V" horiz-adv-x="672" d="M612 701T626 688T641 656Q641 646 636 634L381 31Q374 16 361 8T334 0Q321 1 310 8T291 30L36 634Q32 642 32 655Q32 676 47 689T80 702Q110 702 124 670L342 155L548 671Q555 685 566 693T592 701Q612
701 626 688Z" />
<glyph unicode="W" glyph-name="W" horiz-adv-x="953" d="M899 703T915 689T931 652Q931 644 928 635L721 30Q717 16 705 9T678 0Q664 0 651 8T632 31L476 396L321 31Q315 16 302 8T274 0Q260 1 248 9T232 30L25 635Q22 644 22 652Q22 674 38 688T74 703Q90 703
103 695T120 672L289 171L434 527Q440 541 452 549T479 557Q494 557 506 549T524 527L665 171L833 672Q837 687 850 695T880 703Q899 703 915 689Z" />
<glyph unicode="X" glyph-name="X" horiz-adv-x="634" d="M584 72Q593 60 593 43Q593 22 579 9T546 -4Q521 -4 507 16L313 276L123 17Q108 -4 84 -4Q66 -4 54 8T41 37Q41 54 53 70L258 349L52 626Q42 639 42 655Q42 675 56 689T90 703Q101 703 111 698T129 683L321
425L511 680Q528 702 549 702Q567 702 580 689T594 658Q594 643 584 629L376 351L584 72Z" />
<glyph unicode="Y" glyph-name="Y" horiz-adv-x="581" d="M564 640T555 625L340 322V48Q340 28 327 14T294 0Q274 0 260 14T246 48V330L32 619Q18 637 18 655Q18 675 34 689T69 703Q92 703 108 681L296 421L477 680Q493 703 517 703Q536 703 550 689T564 655Q564
640 555 625Z" />
<glyph unicode="Z" glyph-name="Z" horiz-adv-x="646" d="M570 91T583 79T597 46Q597 26 583 13T549 0H93Q72 0 58 14T43 47Q43 63 54 77L462 609H127Q106 609 93 622T79 655Q79 675 92 687T127 700H555Q575 700 591 687T607 653Q607 639 596 623L188 91H549Q570
91 583 79Z" />
<glyph unicode="[" glyph-name="bracketleft" horiz-adv-x="403" d="M354 -112T365 -123T376 -152Q376 -168 365 -179T337 -190H119Q103 -190 92 -179T80 -151V661Q80 678 91 689T119 700H337Q354 700 365 689T376 661Q376 644 365 634T337 623H172V-112H337Q354
-112 365 -123Z" />
<glyph unicode="\" glyph-name="backslash" horiz-adv-x="549" d="M473 -134T463 -127T447 -107L27 742Q22 751 22 762Q22 779 35 790T63 802Q89 802 102 775L523 -74Q528 -86 528 -94Q528 -111 514 -122T485 -134Q473 -134 463 -127Z" />
<glyph unicode="]" glyph-name="bracketright" horiz-adv-x="403" d="M300 700T311 689T323 661V-151Q323 -168 312 -179T283 -190H66Q49 -190 38 -179T26 -151Q26 -135 37 -124T66 -113H231V622H66Q49 622 38 633T26 662Q26 678 37 689T66 700H283Q300 700 311 689Z" />
<glyph unicode="^" glyph-name="asciicircum" horiz-adv-x="576" d="M515 427T519 418T524 400Q524 380 509 366T474 351Q446 351 434 371L289 620L141 371Q129 351 102 351Q82 351 68 365T53 400Q53 414 68 436L224 702Q233 717 248 722T287 728Q313 728 328
723T353 702L509 435Q515 427 519 418Z" />
<glyph unicode="_" glyph-name="underscore" horiz-adv-x="688" d="M76 -160T65 -149T53 -121Q53 -105 64 -94T93 -83H595Q613 -83 624 -94T635 -122Q635 -139 624 -149T595 -160H93Q76 -160 65 -149Z" />
<glyph unicode="`" glyph-name="grave" horiz-adv-x="245" d="M159 586T143 594L52 656Q25 671 25 697Q25 715 38 726T68 738Q90 738 110 718L188 637Q199 626 199 614Q199 601 190 594T167 586Q159 586 143 594Z" />
<glyph unicode="a" glyph-name="a" horiz-adv-x="614" d="M517 531T530 518T544 482V48Q544 28 531 14T496 0Q475 0 462 13T449 48V74Q423 39 378 15T281 -10Q213 -10 158 25T71 122T39 263Q39 341 70 403T157 501T278 536Q331 536 376 514T449 458V482Q449 503
462 517T496 531Q517 531 530 518ZM339 78T375 102T432 168T453 263Q453 315 433 357T376 423T292 448Q245 448 209 424T152 358T131 263Q131 210 151 168T208 102T292 78Q339 78 375 102Z" />
<glyph unicode="b" glyph-name="b" horiz-adv-x="614" d="M402 536T457 501T543 404T575 264Q575 186 544 123T457 25T336 -10Q284 -10 239 13T166 70V41Q166 21 153 7T118 -7Q98 -7 85 6T71 41V692Q71 713 84 726T118 740Q139 740 152 726T166 692V448Q190 484
236 510T334 536Q402 536 457 501ZM369 78T406 102T463 169T484 264Q484 316 464 358T406 424T323 448Q276 448 239 424T182 359T161 264Q161 211 181 169T239 103T323 78Q369 78 406 102Z" />
<glyph unicode="c" glyph-name="c" horiz-adv-x="514" d="M378 536T430 511T483 447Q483 430 472 417T444 403Q431 403 424 407T403 420Q397 426 384 434Q372 440 350 444T310 448Q258 448 218 424T156 358T134 263Q134 210 155 168T216 102T305 78Q357 78 389
94Q396 98 408 107Q418 115 425 119T444 123Q464 123 475 111T487 78Q487 57 461 37T390 3T294 -10Q218 -10 160 25T71 123T39 263Q39 340 72 402T164 500T299 536Q378 536 430 511Z" />
<glyph unicode="d" glyph-name="d" horiz-adv-x="614" d="M517 740T530 727T544 692V48Q544 28 531 14T496 0Q475 0 462 13T449 48V76Q424 40 379 15T281 -10Q213 -10 158 25T71 122T39 263Q39 341 70 403T157 501T278 536Q331 536 376 514T449 457V692Q449 713
462 726T496 740Q517 740 530 727ZM339 78T375 102T432 168T453 263Q453 315 433 357T376 424T292 448Q245 448 209 424T152 358T131 263Q131 210 151 168T208 102T292 78Q339 78 375 102Z" />
<glyph unicode="e" glyph-name="e" horiz-adv-x="570" d="M530 264T516 252T483 239H131Q138 166 186 122T305 78Q353 78 383 92T436 128Q451 137 465 137Q482 137 493 125T505 97Q505 76 485 59Q456 30 408 10T310 -10Q229 -10 168 24T73 119T39 257Q39 341 73
404T164 502T286 536Q350 536 406 503T496 412T531 282Q530 264 516 252ZM230 448T189 417T135 319H430V327Q425 380 383 414T286 448Q230 448 189 417Z" />
<glyph unicode="f" glyph-name="f" horiz-adv-x="390" d="M262 654T247 634T231 585V515H330Q350 515 362 503T375 471Q375 452 363 440T330 428H231V48Q231 28 218 14T183 0Q163 0 150 14T136 48V428H74Q55 428 42 440T29 471Q29 490 42 502T74 515H136V585Q136
655 181 696T308 738Q342 738 368 726T394 688Q394 669 383 657T355 644Q351 644 333 648Q311 654 295 654Q262 654 247 634Z" />
<glyph unicode="g" glyph-name="g" horiz-adv-x="627" d="M530 531T543 518T557 482V42Q557 -39 523 -93T429 -174T296 -200Q256 -200 203 -186T134 -157Q103 -141 103 -117Q103 -111 107 -101Q118 -76 144 -76Q157 -76 172 -82Q252 -113 297 -113Q377 -113 419
-75T462 31V85Q441 46 392 18T287 -10Q218 -10 161 25T72 122T39 263Q39 341 71 403T160 501T285 536Q340 536 387 511T462 450V482Q462 503 475 517T509 531Q530 531 543 518ZM347 78T385 101T444 167T466 263Q466 316 445 358T385 424T298 448Q250 448 212 424T153
358T131 263Q131 211 152 169T212 102T298 78Q347 78 385 101Z" />
<glyph unicode="h" glyph-name="h" horiz-adv-x="579" d="M508 533T508 315V48Q508 28 495 14T460 0Q440 0 427 14T413 48V315Q413 445 303 445Q244 445 205 408T166 315V48Q166 28 153 14T118 0Q97 0 84 13T71 48V692Q71 712 84 726T118 740Q139 740 152 726T166
692V439Q191 478 236 505T332 533Q508 533 508 315Z" />
<glyph unicode="i" glyph-name="i" horiz-adv-x="227" d="M161 28T148 14T113 0Q93 0 80 14T66 48V481Q66 501 79 515T113 529Q134 529 147 515T161 481V48Q161 28 148 14ZM84 595T72 605T59 639V655Q59 679 72 689T114 699Q142 699 154 689T167 655V639Q167 615
154 605T113 595Q84 595 72 605Z" />
<glyph unicode="j" glyph-name="j" horiz-adv-x="261" d="M5 -197T-7 -184T-20 -153V-144Q-20 -111 21 -101Q85 -83 85 -1V476Q85 496 98 510T133 524Q153 524 166 510T180 476V-25Q180 -77 159 -116T101 -176T24 -197Q5 -197 -7 -184ZM103 595T91 605T78 639V655Q78
679 91 689T133 699Q161 699 173 689T186 655V639Q186 615 173 605T132 595Q103 595 91 605Z" />
<glyph unicode="k" glyph-name="k" horiz-adv-x="555" d="M514 67T514 48Q514 28 499 15T466 1Q444 1 431 17L234 226L174 172V48Q174 28 161 14T127 0Q106 0 93 14T79 48V692Q79 712 92 726T127 740Q147 740 160 726T174 692V286L419 511Q436 526 454 526Q471
526 485 512T499 481Q499 461 480 445L307 291L499 83Q514 67 514 48Z" />
<glyph unicode="l" glyph-name="l" horiz-adv-x="253" d="M174 28T160 14T126 0Q106 0 93 14T79 48V692Q79 712 93 726T127 740Q147 740 160 726T174 692V48Q174 28 160 14Z" />
<glyph unicode="m" glyph-name="m" horiz-adv-x="918" d="M847 533T847 315V48Q847 27 834 14T800 0Q779 0 766 14T752 48V314Q752 445 642 445Q603 445 572 428T523 380T505 314V48Q505 28 492 14T457 0Q436 0 423 13T410 48V315Q410 374 385 409T302 445Q243
445 205 408T166 315V48Q166 28 153 14T118 0Q97 0 84 13T71 48V476Q71 496 84 510T118 524Q139 524 152 510T166 476V441Q192 480 235 506T330 533Q454 533 491 423Q513 465 564 499T672 533Q847 533 847 315Z" />
<glyph unicode="n" glyph-name="n" horiz-adv-x="589" d="M518 536T518 320V48Q518 28 505 14T470 0Q450 0 437 14T423 48V319Q423 378 396 413T308 448Q268 448 236 431T185 384T166 319V48Q166 28 153 14T118 0Q97 0 84 13T71 48V476Q71 496 84 510T118 524Q139
524 152 510T166 476V441Q192 481 238 508T338 536Q518 536 518 320Z" />
<glyph unicode="o" glyph-name="o" horiz-adv-x="606" d="M567 184T532 122T437 25T303 -10Q230 -10 170 25T74 122T39 262Q39 340 74 403T169 501T303 536Q376 536 436 501T532 403T567 262Q567 184 532 122ZM472 316T450 358T389 424T303 448Q256 448 218 425T157
359T134 262Q134 209 156 167T217 102T303 78Q350 78 388 101T449 167T472 262Q472 316 450 358Z" />
<glyph unicode="p" glyph-name="p" horiz-adv-x="614" d="M402 533T457 499T543 402T575 262Q575 184 544 123T457 26T336 -9Q284 -9 239 14T166 70V-152Q166 -172 153 -186T118 -200Q98 -200 85 -187T71 -152V477Q71 498 84 512T118 526Q139 526 152 512T166
477V448Q190 483 236 508T334 533Q402 533 457 499ZM369 79T406 103T463 168T484 262Q484 314 464 355T406 421T323 445Q276 445 239 422T182 356T161 262Q161 210 181 168T239 103T323 79Q369 79 406 103Z" />
<glyph unicode="q" glyph-name="q" horiz-adv-x="614" d="M517 526T530 513T544 477V-152Q544 -172 531 -186T496 -200Q475 -200 462 -187T449 -152V76Q424 40 379 15T281 -10Q213 -10 158 25T71 122T39 263Q39 341 70 403T157 501T278 536Q331 536 376 514T449
457V477Q449 498 462 512T496 526Q517 526 530 513ZM339 78T375 102T432 168T453 263Q453 315 433 357T376 424T292 448Q245 448 209 424T152 358T131 263Q131 210 151 168T208 102T292 78Q339 78 375 102Z" />
<glyph unicode="r" glyph-name="r" horiz-adv-x="413" d="M358 536T377 523T396 489Q396 465 384 453T353 440Q344 440 326 446Q305 453 293 453Q262 453 233 432T185 373T166 289V48Q166 28 153 14T118 0Q97 0 84 13T71 48V476Q71 496 84 510T118 524Q139 524
152 510T166 476V425Q188 474 232 504T332 536Q358 536 377 523Z" />
<glyph unicode="s" glyph-name="s" horiz-adv-x="477" d="M32 96T32 109Q32 129 53 143Q63 150 76 150Q94 150 109 135Q139 101 173 84T256 67Q294 68 323 84T352 138Q352 172 323 190T236 223Q180 238 143 254T81 302T55 385Q55 430 80 464T148 517T241 536Q289
536 336 518T414 463Q426 449 426 434Q426 418 410 403Q400 394 385 394Q367 394 356 406Q335 430 305 443T237 456Q199 456 173 441T146 388Q147 353 176 336T267 303Q320 289 355 273T414 226T438 143Q438 96 411 62T341 9T248 -10Q185 -10 132 12T41 82Q32 96
32 109Z" />
<glyph unicode="t" glyph-name="t" horiz-adv-x="380" d="M213 431V133Q213 83 258 83Q265 83 277 86T296 90Q309 90 318 79T327 51Q327 30 303 15T249 0Q216 0 189 7T140 42T118 129V431H60Q41 431 29 443T16 475Q16 494 28 506T60 518H118V602Q118 622 131 636T166
650Q186 650 199 636T213 602V518H296Q315 518 327 506T340 474Q340 455 328 443T296 431H213Z" />
<glyph unicode="u" glyph-name="u" horiz-adv-x="580" d="M482 524T495 510T509 476V210Q509 106 452 49T289 -9Q185 -9 128 48T71 210V476Q71 496 84 510T118 524Q139 524 152 510T166 476V210Q166 79 289 79Q350 79 382 112T414 210V476Q414 496 427 510T461
524Q482 524 495 510Z" />
<glyph unicode="v" glyph-name="v" horiz-adv-x="548" d="M490 529T503 517T516 487Q516 478 509 462L319 30Q313 17 302 9T278 0Q262 -2 249 6T228 30L38 462Q33 477 33 487Q33 503 46 516T80 529Q95 529 107 522T126 499L277 148L428 499Q442 529 471 529Q490
529 503 517Z" />
<glyph unicode="w" glyph-name="w" horiz-adv-x="761" d="M702 529T715 516T729 481Q729 474 725 462L572 30Q566 14 552 6T522 0Q495 2 481 30L377 302L281 30Q275 16 264 9T240 0Q225 -2 211 6T191 30L36 462Q33 471 33 481Q33 501 46 515T80 529Q114 529 124
499L243 162L338 411Q350 441 382 441Q412 441 423 411L520 166L637 499Q648 529 683 529Q702 529 715 516Z" />
<glyph unicode="x" glyph-name="x" horiz-adv-x="486" d="M463 62T463 46Q463 26 448 12T415 -3Q392 -3 376 18L242 187L110 18Q103 8 93 3T72 -2Q55 -2 41 10T26 40Q26 58 37 70L187 257L33 451Q23 464 23 479Q23 499 37 513T71 527Q95 527 110 507L247 334L376
506Q391 527 414 527Q433 527 446 515T459 485Q459 466 448 454L300 267L452 74Q463 62 463 46Z" />
<glyph unicode="y" glyph-name="y" horiz-adv-x="579" d="M482 529T495 515T509 481V49Q509 -76 440 -138T258 -200Q221 -200 185 -193T126 -174Q89 -157 89 -128Q89 -123 91 -115Q97 -98 108 -89T133 -80Q141 -80 148 -83Q179 -97 203 -105T259 -113Q414 -113
414 46V66Q387 30 345 10T247 -10Q164 -10 118 43T71 182V481Q71 502 84 515T118 529Q139 529 152 515T166 481V207Q166 141 195 110T283 78Q340 78 377 114T414 207V481Q414 502 427 515T461 529Q482 529 495 515Z" />
<glyph unicode="z" glyph-name="z" horiz-adv-x="482" d="M422 88T435 76T448 44Q448 25 435 13T403 0H80Q61 0 49 14T36 43Q37 56 40 64T51 84L313 434H96Q77 434 64 447T51 479Q51 498 63 510T96 522H403Q422 522 434 508T446 474Q445 464 443 457T432 440L168
88H403Q422 88 435 76Z" />
<glyph unicode="{" glyph-name="braceleft" horiz-adv-x="412" d="M371 -137T378 -147T386 -168Q385 -182 376 -191T353 -201Q344 -201 340 -200Q267 -186 227 -160T171 -96T155 -7L156 88Q156 146 131 179T57 213H53Q37 213 26 224T15 251Q15 267 26 277T53 288H59Q107
289 131 322T156 412L155 507Q155 588 197 633T339 700Q344 701 352 701Q369 701 377 691T386 666Q386 655 379 646T358 633Q310 617 286 599T253 557T244 494L245 399Q245 341 220 303T147 250Q194 234 219 197T245 102L244 7Q244 -33 252 -56T285 -98T358 -132Q371
-137 378 -147Z" />
<glyph unicode="|" glyph-name="bar" horiz-adv-x="230" d="M162 -121T149 -134T114 -148Q94 -148 81 -135T67 -100V746Q67 767 81 780T116 794Q136 794 149 781T162 746V-100Q162 -121 149 -134Z" />
<glyph unicode="}" glyph-name="braceright" horiz-adv-x="412" d="M375 289T386 278T397 251Q397 235 386 225T359 214H353Q305 213 281 180T256 89L257 -6Q257 -56 241 -90T184 -151T72 -199Q64 -201 58 -201Q44 -201 35 -189T26 -164Q26 -153 33 -145T54 -131Q103
-115 127 -98T159 -56T168 8L167 103Q167 161 192 199T265 252Q218 268 193 305T167 400L168 495Q168 535 160 558T127 600T54 634Q26 645 26 670Q27 684 36 693T59 703Q68 703 72 702Q145 687 185 661T241 598T257 509L256 414Q256 356 281 323T355 289H359Q375
289 386 278Z" />
<glyph unicode="~" glyph-name="asciitilde" horiz-adv-x="508" d="M335 225T308 233T238 258Q231 260 210 268T174 280T150 284Q138 284 131 277T123 256Q124 253 124 248Q124 234 115 226T93 218Q74 218 62 232T50 271Q50 311 78 334T161 358Q195 358 275 324Q282
322 303 314T338 302T360 298Q372 298 379 305T385 326Q384 329 384 336Q384 349 393 357T415 365Q433 365 445 351T458 313Q458 272 433 249T354 225Q335 225 308 233Z" />
<glyph unicode="&#xa0;" glyph-name="uni00A0" horiz-adv-x="277" />
<glyph unicode="&#xa1;" glyph-name="exclamdown" horiz-adv-x="233" d="M146 529T158 516T171 478V459Q171 435 159 422T122 408H111Q87 408 75 421T62 459V478Q62 502 74 515T111 529H122Q146 529 158 516ZM144 319T146 287L168 -111Q170 -137 156 -154T117
-171Q92 -171 78 -154T66 -111L87 287Q88 303 95 311T116 319Q144 319 146 287Z" />
<glyph unicode="&#xa2;" glyph-name="cent" horiz-adv-x="514" d="M487 150T467 132T412 101T335 82V48Q335 28 322 14T287 0Q267 0 254 14T240 48V85Q148 103 94 176T39 353Q39 454 94 527T240 620V661Q240 681 254 695T288 709Q309 709 322 696T335 661V624Q401
619 442 595T483 537Q483 519 472 505T440 491Q426 491 417 496T398 511T384 524Q363 542 328 545V159Q365 163 389 184Q395 189 405 198T424 211T444 215Q464 215 475 202T487 168Q487 150 467 132ZM134 284T165 235T247 167V538Q197 521 166 472T134 353Q134
284 165 235Z" />
<glyph unicode="&#xa3;" glyph-name="sterling" horiz-adv-x="620" d="M587 100T597 88T608 57Q608 36 594 22T550 -3Q510 -21 462 -21Q425 -21 327 3Q237 26 205 26Q165 26 111 11Q99 9 86 1Q68 -7 60 -7Q45 -7 34 4T23 33Q23 51 34 64T65 85Q105 98 141 105Q165
144 165 200Q165 252 142 323H79Q60 323 48 335T35 367Q35 384 47 395T79 407H117Q105 453 105 487Q105 552 132 603T210 682T330 710Q376 710 418 697T489 660Q531 633 531 605Q531 586 517 571T482 556Q472 556 463 560T448 570Q402 619 331 619Q272 619 238
580T203 485Q203 457 216 407H399Q418 407 430 395T443 364Q443 346 431 335T399 323H243Q264 260 264 221Q264 164 233 112Q258 111 281 105T346 87Q386 76 410 71T457 65Q476 65 497 72T534 88Q553 100 569 100Q587 100 597 88Z" />
<glyph unicode="&#xa4;" glyph-name="currency" horiz-adv-x="543" d="M464 180Q480 164 480 147Q480 129 464 112T430 95Q413 95 397 112L360 147Q318 123 271 123Q221 123 180 148L143 112Q126 96 109 96Q92 96 75 112T58 146Q58 163 76 180L115 219Q95 257
95 302Q95 347 115 385L76 424Q59 441 59 458Q59 474 75 492T109 510Q126 510 143 493L181 456Q222 481 271 481Q318 481 360 457L397 493Q412 508 430 508Q448 508 464 492T481 458Q481 441 465 425L427 388Q449 349 449 302Q449 257 427 216L464 180ZM309 208T332
235T355 301Q355 342 332 369T272 396Q234 396 211 369T188 301Q188 262 211 235T272 208Q309 208 332 235Z" />
<glyph unicode="&#xa5;" glyph-name="yen" horiz-adv-x="581" d="M564 640T555 625L367 354H455Q476 354 489 342T503 312Q503 293 490 281T455 269L345 270V214H456Q477 214 491 202T505 172Q505 153 491 142T456 130H345V48Q345 28 331 14T294 0Q272 0 258 14T243
48V131H143Q122 131 109 143T95 173Q95 192 108 203T143 215H243V270L142 271Q121 271 107 282T93 313Q93 331 107 343T142 355H225L32 619Q18 637 18 655Q18 675 36 689T73 703Q96 703 112 681L298 406L477 680Q483 691 494 697T517 703Q536 703 550 689T564 655Q564
640 555 625Z" />
<glyph unicode="&#xa6;" glyph-name="brokenbar" horiz-adv-x="237" d="M166 422T153 409T118 395Q98 395 85 408T71 443V746Q71 767 85 780T119 794Q140 794 153 781T166 746V443Q166 422 153 409ZM166 -121T153 -134T118 -148Q98 -148 85 -135T71 -100V203Q71
224 84 237T119 251Q139 251 152 238T166 203V-100Q166 -121 153 -134Z" />
<glyph unicode="&#xa7;" glyph-name="section" horiz-adv-x="548" d="M512 190T421 152Q450 130 463 104T477 41Q477 2 457 -39T391 -110T273 -140Q211 -140 149 -118T56 -63Q36 -40 36 -13Q36 5 49 18T82 32Q104 32 120 14Q145 -15 180 -33T273 -51Q316 -51 348
-35T380 23Q380 57 337 78T210 121Q129 141 89 181T48 285Q48 321 69 362T140 424Q94 463 94 527Q94 588 125 629T202 691T296 711Q408 711 474 629Q477 626 479 618T482 602Q482 584 469 571T433 558Q425 558 419 564Q363 618 294 618Q250 618 221 598T191 541Q191
500 232 478T331 444Q512 404 512 286Q512 190 421 152ZM152 246T236 218L329 196Q367 195 391 215T415 267Q415 291 399 307T348 335L240 361Q235 362 225 362Q196 362 174 344T152 295Q152 246 236 218Z" />
<glyph unicode="&#xa8;" glyph-name="dieresis" horiz-adv-x="413" d="M85 600T72 611T59 646V661Q59 706 111 706Q140 706 153 696T166 661V646Q166 621 153 611T111 600Q85 600 72 611ZM273 600T260 611T247 646V661Q247 706 300 706Q328 706 340 696T353 661V646Q353
621 340 611T299 600Q273 600 260 611Z" />
<glyph unicode="&#xa9;" glyph-name="copyright" horiz-adv-x="786" d="M296 -7T214 40T84 170T36 350Q36 449 84 530T214 659T393 707Q490 707 572 660T702 531T750 350Q750 252 702 170T572 41T393 -7Q296 -7 214 40ZM473 56T540 95T647 201T687 350Q687 431
648 498T541 605T393 644Q313 644 246 605T140 499T100 350Q100 269 139 202T246 95T393 56Q473 56 540 95ZM354 143T305 169T227 242T197 350Q197 406 225 453T302 529T411 557Q439 557 467 550T517 529Q526 525 531 516T536 497Q536 485 528 474Q517 460 499
460Q491 460 481 465Q450 483 411 483Q351 483 312 445T272 350Q272 290 311 254T411 217Q447 217 481 234Q491 239 499 239Q517 239 528 225Q536 214 536 201Q536 191 531 183T517 170Q469 143 411 143Q354 143 305 169Z" />
<glyph unicode="&#xaa;" glyph-name="ordfeminine" horiz-adv-x="352" d="M300 715T311 705T323 681V435Q323 420 311 411T282 401Q264 401 253 411T242 435V458Q227 429 201 410T142 391Q81 391 48 439T15 562Q15 630 53 675T154 720Q216 720 242 667V681Q242
694 253 704T282 715Q300 715 311 705ZM203 457T224 483T246 555Q246 601 226 628T170 655Q140 655 118 628T96 562Q96 516 115 487T170 457Q203 457 224 483Z" />
<glyph unicode="&#xab;" glyph-name="guillemotleft" horiz-adv-x="473" d="M429 121Q438 108 438 93Q438 74 424 62T394 50Q374 50 362 67L239 237Q230 248 230 262Q230 275 239 285L364 454Q375 471 395 471Q411 471 424 460T438 430Q438 418 427 401L324 262L429
121ZM473 121Q482 108 482 93Q482 74 468 62T438 50Q418 50 406 67L283 237Q274 248 274 262Q274 275 283 285L408 454Q419 471 439 471Q455 471 468 460T482 430Q482 418 471 401L368 262L473 121Z" />
<glyph unicode="&#xac;" glyph-name="logicalnot" horiz-adv-x="669" d="M595 404T607 392T619 361V167Q619 145 605 132T567 118Q545 118 531 131T516 167V309H92Q74 309 62 322T50 357Q50 377 62 390T92 404H576Q595 404 607 392Z" />
<glyph unicode="&#xad;" glyph-name="uni00AD" horiz-adv-x="394" d="M81 240T67 253T53 288Q53 308 67 321T101 334H293Q313 334 326 321T340 286Q340 266 327 253T293 240H101Q81 240 67 253Z" />
<glyph unicode="&#xae;" glyph-name="registered" horiz-adv-x="508" d="M315 709T366 679T448 597T479 484Q479 422 449 371T367 289T254 259Q193 259 142 289T60 370T29 484Q29 545 59 597T141 679T254 709Q315 709 366 679ZM301 311T340 334T403 396T426 484Q426
532 403 571T341 634T254 657Q207 657 168 634T105 572T82 484Q82 436 105 397T167 334T254 311Q301 311 340 334ZM347 391T347 381Q347 376 344 371Q337 363 325 363Q315 363 311 365Q299 369 291 383T283 423Q283 457 249 457H215V387Q215 376 209 370T192 363Q182
363 175 369T168 387V583Q168 591 174 596T187 602H267Q300 602 321 583T342 531Q342 512 331 498T300 474Q312 466 320 454T328 428Q329 414 331 407T339 396Q347 391 347 381ZM275 497T286 505T297 529Q297 543 287 550T260 557H215V497H258Q275 497 286 505Z"
/>
<glyph unicode="&#xaf;" glyph-name="overscore" horiz-adv-x="423" d="M72 589T61 599T50 627Q50 644 60 653T91 663H332Q352 663 362 654T373 627Q373 609 363 599T332 589H91Q72 589 61 599Z" />
<glyph unicode="&#xb0;" glyph-name="degree" horiz-adv-x="368" d="M140 400T105 421T49 477T28 554Q28 596 48 631T104 688T184 709Q228 709 263 688T319 632T339 554Q339 513 319 478T264 421T184 400Q140 400 105 421ZM218 467T241 493T265 554Q265 589 242
615T184 642Q149 642 126 617T103 554Q103 519 126 493T184 467Q218 467 241 493Z" />
<glyph unicode="&#xb1;" glyph-name="plusminus" horiz-adv-x="555" d="M71 285T58 298T45 330Q45 349 58 361T90 373H233V480Q233 502 247 516T285 531Q307 531 321 517T335 481V373H477Q497 373 509 361T522 328Q522 309 510 297T477 285H335V193Q335 171 321
157T284 142Q262 142 248 156T233 192V285H90Q71 285 58 298ZM486 89T499 76T512 44Q512 25 499 12T467 -1H89Q69 -1 56 12T43 44Q43 64 56 76T88 89H467Q486 89 499 76Z" />
<glyph unicode="&#xb2;" glyph-name="uni00B2" horiz-adv-x="344" d="M275 489T284 480T294 456Q294 442 285 433T260 423H88Q71 423 61 433T50 460Q50 475 66 493L144 570Q175 602 191 625T208 672Q208 690 197 700T166 711Q152 711 139 703T117 680Q107 666
90 666Q73 666 63 675T53 698Q53 717 70 737T116 769T175 782Q232 782 261 750T291 674Q291 641 272 613T214 545L156 489H260Q275 489 284 480Z" />
<glyph unicode="&#xb3;" glyph-name="uni00B3" horiz-adv-x="338" d="M240 640T268 612T296 537Q296 481 257 449T164 416Q104 416 73 438Q55 450 55 469Q55 484 64 494T89 504Q100 504 110 496Q134 481 158 481Q184 481 203 495T222 535Q222 556 206 568T165
580Q158 580 150 578T138 575Q120 569 107 569Q96 569 87 578T78 599Q78 618 88 625L182 707H94Q79 707 69 717T59 741Q59 756 69 765T94 774H243Q260 774 270 764T281 738V735Q281 718 271 710L189 641Q240 640 268 612Z" />
<glyph unicode="&#xb4;" glyph-name="acute" horiz-adv-x="269" d="M80 594T71 601T63 620Q63 628 69 638L128 737Q136 751 147 760T174 769Q196 769 207 758T218 727Q218 709 203 692L128 610Q112 594 88 594Q80 594 71 601Z" />
<glyph unicode="&#xb5;" glyph-name="uni00B5" horiz-adv-x="584" />
<glyph unicode="&#xb6;" glyph-name="paragraph" horiz-adv-x="628" d="M523 700T532 691T542 666V39Q542 20 531 10T506 0Q491 0 480 10T468 39V636H392V66Q392 4 356 -29T264 -62Q241 -62 219 -55T186 -38Q172 -29 172 -10Q172 1 179 11Q188 24 205 24Q214 24
218 22Q246 12 261 12Q288 12 303 29T318 80V278H269Q148 279 94 328T40 486Q40 601 102 650T305 700H508Q523 700 532 691Z" />
<glyph unicode="&#xb7;" glyph-name="middot" horiz-adv-x="211" d="M76 243T63 256T49 294V313Q49 338 62 351T100 364H110Q135 364 148 351T161 313V294Q161 270 148 257T110 243H100Q76 243 63 256Z" />
<glyph unicode="&#xb8;" glyph-name="cedilla" horiz-adv-x="268" d="M84 -148T64 -136T44 -108Q44 -94 54 -83L136 24H193L134 -121Q124 -148 100 -148Q84 -148 64 -136Z" />
<glyph unicode="&#xb9;" glyph-name="uni00B9" horiz-adv-x="279" d="M186 779T197 768T208 738V471Q208 454 198 444T172 433Q156 433 146 443T135 471L134 684L97 660Q83 651 71 651Q55 651 46 663T36 690Q36 710 56 722L144 773Q157 780 169 780Q186 779 197 768Z" />
<glyph unicode="&#xba;" glyph-name="ordmasculine" horiz-adv-x="349" d="M331 505T311 469T254 413T174 392Q130 392 95 412T39 469T18 549Q18 594 38 631T94 689T174 710Q218 710 254 689T310 631T331 549Q331 505 311 469ZM254 589T232 614T174 640Q138 640
117 615T95 549Q95 511 116 487T174 462Q210 462 232 486T254 549Q254 589 232 614Z" />
<glyph unicode="&#xbb;" glyph-name="guillemotright" horiz-adv-x="476" d="M458 273T458 259Q458 245 450 236L325 67Q313 50 293 50Q278 50 265 61T251 90Q251 104 262 119L365 259L260 400Q250 411 250 427Q250 447 264 459T294 471Q314 471 327 453L450 284Q458
273 458 259ZM242 273T242 259Q242 245 234 236L109 67Q97 50 77 50Q62 50 49 61T35 90Q35 104 46 119L149 259L44 400Q34 411 34 427Q34 447 48 459T78 471Q98 471 111 453L234 284Q242 273 242 259Z" />
<glyph unicode="&#xbc;" glyph-name="onequarter" horiz-adv-x="769" d="M194 706T205 695T216 665V398Q216 381 206 371T180 360Q164 360 154 370T143 398L142 611L105 587Q91 578 79 578Q63 578 54 590T44 617Q44 637 64 649L152 700Q165 707 177 707Q194 706
205 695ZM157 -2T144 9T130 37Q130 48 137 62L548 683Q562 702 581 702Q596 702 609 691T623 663Q623 651 615 638L205 17Q191 -2 172 -2Q157 -2 144 9ZM708 147T717 139T726 114Q726 98 717 90T692 81H666V35Q666 19 656 9T629 -2Q613 -2 603 8T592 35V81H467Q449
81 437 92T424 122Q424 137 433 149L589 337Q602 354 625 354Q643 354 654 342T666 312V147H692Q708 147 717 139ZM513 147H592V240L513 147Z" />
<glyph unicode="&#xbd;" glyph-name="onehalf" horiz-adv-x="769" d="M194 706T205 695T216 665V398Q216 381 206 371T180 360Q164 360 154 370T143 398L142 611L105 587Q91 578 79 578Q63 578 54 590T44 617Q44 637 64 649L152 700Q165 707 177 707Q194 706 205
695ZM139 -2T126 9T112 37Q112 48 119 62L530 683Q544 702 563 702Q578 702 591 691T605 663Q605 651 597 638L187 17Q173 -2 154 -2Q139 -2 126 9ZM707 66T716 57T726 33Q726 19 717 10T692 0H520Q503 0 493 10T482 37Q482 52 498 70L576 147Q607 179 623 202T640
249Q640 267 629 277T598 288Q584 288 571 280T549 257Q539 243 522 243Q505 243 495 252T485 275Q485 294 502 314T548 346T607 359Q664 359 693 327T723 251Q723 218 704 190T646 122L588 66H692Q707 66 716 57Z" />
<glyph unicode="&#xbe;" glyph-name="threequarters" horiz-adv-x="799" d="M491 567T519 539T547 464Q547 408 508 376T415 343Q355 343 324 365Q306 377 306 396Q306 411 315 421T340 431Q351 431 361 423Q385 408 409 408Q435 408 454 422T473 462Q473 483
457 495T416 507Q409 507 401 505T389 502Q371 496 358 496Q347 496 338 505T329 526Q329 545 339 552L433 634H345Q330 634 320 644T310 668Q310 683 320 692T345 701H494Q511 701 521 691T532 665V662Q532 645 522 637L440 568Q491 567 519 539ZM179 -2T166 9T152
37Q152 48 159 62L570 683Q584 702 603 702Q618 702 631 691T645 663Q645 651 637 638L227 17Q213 -2 194 -2Q179 -2 166 9ZM738 147T747 139T756 114Q756 98 747 90T722 81H696V35Q696 19 686 9T659 -2Q643 -2 633 8T622 35V81H497Q479 81 467 92T454 122Q454
137 463 149L619 337Q632 354 655 354Q673 354 684 342T696 312V147H722Q738 147 747 139ZM543 147H622V240L543 147Z" />
<glyph unicode="&#xbf;" glyph-name="questiondown" horiz-adv-x="506" d="M310 535T323 522T336 484V465Q336 441 323 428T286 414H276Q252 414 239 427T226 465V484Q226 508 239 521T276 535H286Q310 535 323 522ZM330 190T317 176T283 162Q216 160 174 125T131
23Q131 -34 170 -71T266 -109Q298 -109 327 -96T379 -59Q399 -41 419 -41Q433 -41 445 -50Q467 -66 467 -87Q467 -105 452 -120Q418 -159 370 -181T266 -203Q202 -203 150 -174T66 -94T35 23Q35 83 61 129T134 204T238 239Q239 239 239 239T236 239V305Q236 325
249 339T283 353Q304 353 317 339T330 305V211Q330 190 317 176Z" />
<glyph unicode="&#xc0;" glyph-name="Agrave" horiz-adv-x="642" d="M624 53T624 43Q624 23 611 10T579 -3Q565 -3 554 5T535 29L473 176H164L103 28Q98 13 87 5T61 -3Q40 -3 29 8T18 38Q18 42 20 54L275 672Q282 688 294 696T323 703Q338 703 350 695T367 672L621
62Q624 53 624 43ZM202 267H435L318 547L202 267ZM313 743T299 750L200 801Q186 809 178 820T170 845Q170 862 183 874T214 886Q233 886 255 868L342 795Q354 785 354 772Q354 759 346 751T322 743Q313 743 299 750Z" />
<glyph unicode="&#xc1;" glyph-name="Aacute" horiz-adv-x="642" d="M624 53T624 43Q624 23 611 10T579 -3Q565 -3 554 5T535 29L473 176H164L103 28Q98 13 87 5T61 -3Q40 -3 29 8T18 38Q18 42 20 54L275 672Q282 688 294 696T323 703Q338 703 350 695T367 672L621
62Q624 53 624 43ZM202 267H435L318 547L202 267ZM309 741T301 748T292 769Q292 782 304 792L392 866Q413 883 432 883Q449 883 462 871T476 842Q476 829 468 817T446 798L347 747Q335 741 324 741Q309 741 301 748Z" />
<glyph unicode="&#xc2;" glyph-name="Acircumflex" horiz-adv-x="642" d="M624 53T624 43Q624 23 611 10T579 -3Q565 -3 554 5T535 29L473 176H164L103 28Q98 13 87 5T61 -3Q40 -3 29 8T18 38Q18 42 20 54L275 672Q282 688 294 696T323 703Q338 703 350 695T367
672L621 62Q624 53 624 43ZM202 267H435L318 547L202 267ZM460 781T460 770Q460 762 453 756T435 749Q428 749 417 754T394 767L321 814L251 767Q239 759 229 754T210 749Q200 749 193 755T185 770Q185 776 188 781T197 794L266 870Q277 883 288 888T315 894H329Q345
894 356 888T379 870L448 794Q460 781 460 770Z" />
<glyph unicode="&#xc3;" glyph-name="Atilde" horiz-adv-x="642" d="M624 53T624 43Q624 23 611 10T579 -3Q565 -3 554 5T535 29L473 176H164L103 28Q98 13 87 5T61 -3Q40 -3 29 8T18 38Q18 42 20 54L275 672Q282 688 294 696T323 703Q338 703 350 695T367 672L621
62Q624 53 624 43ZM202 267H435L318 547L202 267ZM172 750T161 764T149 804Q149 840 176 865T250 890Q272 890 294 881T344 854Q367 840 378 835T400 829Q412 829 419 837T426 858Q425 862 425 868Q425 881 433 889T455 897Q474 897 485 882T497 844Q497 811 473
784T408 757Q384 757 361 767T306 794Q289 803 274 810T248 817Q236 817 228 810T220 788Q221 785 221 780Q221 766 212 758T190 750Q172 750 161 764Z" />
<glyph unicode="&#xc4;" glyph-name="Adieresis" horiz-adv-x="642" d="M624 53T624 43Q624 23 611 10T579 -3Q565 -3 554 5T535 29L473 176H164L103 28Q98 13 87 5T61 -3Q40 -3 29 8T18 38Q18 42 20 54L275 672Q282 688 294 696T323 703Q338 703 350 695T367
672L621 62Q624 53 624 43ZM202 267H435L318 547L202 267ZM202 766T189 777T176 812V827Q176 872 229 872Q256 872 269 862T282 827V812Q282 788 269 777T228 766Q202 766 189 777ZM390 766T377 777T364 812V827Q364 851 377 861T416 872Q444 872 457 862T470 827V812Q470
788 457 777T416 766Q390 766 377 777Z" />
<glyph unicode="&#xc5;" glyph-name="Aring" horiz-adv-x="645" d="M624 53T624 43Q624 23 611 10T579 -3Q565 -3 554 5T535 29L473 176H164L103 28Q98 13 87 5T61 -3Q40 -3 29 8T18 38Q18 42 20 54L270 660Q245 674 230 698T214 751Q214 794 246 825T323 856Q366
856 399 825T432 751Q432 722 416 697T373 658L621 62Q624 53 624 43ZM302 798T288 785T273 751Q273 731 287 718T323 704Q344 704 358 717T373 751Q373 772 358 785T323 798Q302 798 288 785ZM202 267H435L318 547L202 267Z" />
<glyph unicode="&#xc6;" glyph-name="AE" horiz-adv-x="899" d="M828 92T842 78T856 45Q856 25 842 13T807 0H476Q456 0 442 14T428 48V154H179L85 16Q70 -4 50 -4Q33 -4 20 8T6 39Q5 54 15 71L440 679Q456 700 484 700H807Q828 700 842 687T856 653Q856 633 842
621T807 608H526V401H762Q783 401 797 388T811 354Q811 334 797 322T762 309H526V92H807Q828 92 842 78ZM428 518L241 244H428V518Z" />
<glyph unicode="&#xc7;" glyph-name="Ccedilla" horiz-adv-x="638" d="M607 94T607 77Q607 65 601 55T583 38Q546 17 502 4T412 -10L367 -121Q357 -148 333 -148Q317 -148 297 -136T277 -108Q277 -94 287 -83L346 -6Q261 5 192 51T83 173T43 350Q43 451 89 532T217
660T400 707Q497 707 582 659Q606 646 606 619Q606 601 594 586Q582 570 561 570Q547 570 534 577Q472 612 400 612Q325 612 268 579T178 487T146 350Q146 267 179 207T270 116T400 84Q474 84 534 120Q546 126 560 126Q582 126 595 109Q607 94 607 77Z" />
<glyph unicode="&#xc8;" glyph-name="Egrave" horiz-adv-x="570" d="M500 92T513 78T527 45Q527 25 514 13T479 0H131Q111 0 97 14T83 48V652Q83 672 97 686T131 700H479Q500 700 513 687T527 653Q527 633 514 621T479 608H182V404H434Q455 404 468 391T482 358Q482
337 469 325T434 313H182V92H479Q500 92 513 78ZM301 743T287 750L188 801Q174 809 166 820T158 845Q158 862 171 874T202 886Q221 886 243 868L330 795Q342 785 342 772Q342 759 334 751T310 743Q301 743 287 750Z" />
<glyph unicode="&#xc9;" glyph-name="Eacute" horiz-adv-x="570" d="M500 92T513 78T527 45Q527 25 514 13T479 0H131Q111 0 97 14T83 48V652Q83 672 97 686T131 700H479Q500 700 513 687T527 653Q527 633 514 621T479 608H182V404H434Q455 404 468 391T482 358Q482
337 469 325T434 313H182V92H479Q500 92 513 78ZM297 741T289 748T280 769Q280 782 292 792L380 866Q401 883 420 883Q437 883 450 871T464 842Q464 829 456 817T434 798L335 747Q323 741 312 741Q297 741 289 748Z" />
<glyph unicode="&#xca;" glyph-name="Ecircumflex" horiz-adv-x="570" d="M500 92T513 78T527 45Q527 25 514 13T479 0H131Q111 0 97 14T83 48V652Q83 672 97 686T131 700H479Q500 700 513 687T527 653Q527 633 514 621T479 608H182V404H434Q455 404 468 391T482
358Q482 337 469 325T434 313H182V92H479Q500 92 513 78ZM448 781T448 770Q448 762 441 756T423 749Q416 749 405 754T382 767L309 814L239 767Q227 759 217 754T198 749Q188 749 181 755T173 770Q173 776 176 781T185 794L254 870Q265 883 276 888T303 894H317Q333
894 344 888T367 870L436 794Q448 781 448 770Z" />
<glyph unicode="&#xcb;" glyph-name="Edieresis" horiz-adv-x="570" d="M500 92T513 78T527 45Q527 25 514 13T479 0H131Q111 0 97 14T83 48V652Q83 672 97 686T131 700H479Q500 700 513 687T527 653Q527 633 514 621T479 608H182V404H434Q455 404 468 391T482
358Q482 337 469 325T434 313H182V92H479Q500 92 513 78ZM190 766T177 777T164 812V827Q164 872 217 872Q244 872 257 862T270 827V812Q270 788 257 777T216 766Q190 766 177 777ZM378 766T365 777T352 812V827Q352 851 365 861T404 872Q432 872 445 862T458 827V812Q458
788 445 777T404 766Q378 766 365 777Z" />
<glyph unicode="&#xcc;" glyph-name="Igrave" horiz-adv-x="265" d="M182 28T167 14T132 0Q110 0 97 14T83 49V652Q83 672 97 686T133 700Q153 700 167 686T182 652V49Q182 28 167 14ZM124 743T110 750L11 801Q-3 809 -11 820T-19 845Q-19 862 -6 874T25 886Q44
886 66 868L153 795Q165 785 165 772Q165 759 157 751T133 743Q124 743 110 750Z" />
<glyph unicode="&#xcd;" glyph-name="Iacute" horiz-adv-x="265" d="M182 28T167 14T132 0Q110 0 97 14T83 49V652Q83 672 97 686T133 700Q153 700 167 686T182 652V49Q182 28 167 14ZM120 741T112 748T103 769Q103 782 115 792L203 866Q224 883 243 883Q260 883
273 871T287 842Q287 829 279 817T257 798L158 747Q146 741 135 741Q120 741 112 748Z" />
<glyph unicode="&#xce;" glyph-name="Icircumflex" horiz-adv-x="265" d="M182 28T167 14T132 0Q110 0 97 14T83 49V652Q83 672 97 686T133 700Q153 700 167 686T182 652V49Q182 28 167 14ZM271 781T271 770Q271 762 264 756T246 749Q239 749 228 754T205 767L132
814L62 767Q50 759 40 754T21 749Q11 749 4 755T-4 770Q-4 776 -1 781T8 794L77 870Q88 883 99 888T126 894H140Q156 894 167 888T190 870L259 794Q271 781 271 770Z" />
<glyph unicode="&#xcf;" glyph-name="Idieresis" horiz-adv-x="265" d="M182 28T167 14T132 0Q110 0 97 14T83 49V652Q83 672 97 686T133 700Q153 700 167 686T182 652V49Q182 28 167 14ZM13 766T0 777T-13 812V827Q-13 872 40 872Q67 872 80 862T93 827V812Q93
788 80 777T39 766Q13 766 0 777ZM201 766T188 777T175 812V827Q175 851 188 861T227 872Q255 872 268 862T281 827V812Q281 788 268 777T227 766Q201 766 188 777Z" />
<glyph unicode="&#xd0;" glyph-name="Eth" horiz-adv-x="717" d="M471 700T538 653T639 527T673 350Q673 252 639 173T538 47T377 0H131Q111 0 97 14T83 48V308H53Q32 308 19 320T5 353Q5 372 18 384T53 396H83V652Q83 672 97 686T131 700H377Q471 700 538 653ZM469
92T520 164T571 350Q571 462 520 535T367 608H182V396H223Q244 396 257 384T271 352Q271 333 258 321T223 308H182V92H367Q469 92 520 164Z" />
<glyph unicode="&#xd1;" glyph-name="Ntilde" horiz-adv-x="732" d="M625 700T637 688T649 656V49Q649 28 636 14T601 0Q590 0 580 3T563 14L170 526V44Q170 25 158 13T126 0Q107 0 95 12T83 44V652Q83 673 96 686T130 700Q142 700 153 696T170 683L562 170V656Q562
675 574 687T606 700Q625 700 637 688ZM215 750T204 764T192 804Q192 840 219 865T293 890Q315 890 337 881T387 854Q410 840 421 835T443 829Q455 829 462 837T469 858Q468 862 468 868Q468 881 476 889T498 897Q517 897 528 882T540 844Q540 811 516 784T451
757Q427 757 404 767T349 794Q332 803 317 810T291 817Q279 817 271 810T263 788Q264 785 264 780Q264 766 255 758T233 750Q215 750 204 764Z" />
<glyph unicode="&#xd2;" glyph-name="Ograve" horiz-adv-x="762" d="M719 249T676 167T555 38T381 -10Q284 -10 207 37T87 167T43 350Q43 451 86 533T207 662T381 710Q478 710 555 663T675 533T719 350Q719 249 676 167ZM616 425T586 485T503 580T381 615Q313
615 260 581T176 487T146 350Q146 275 176 215T259 120T381 85Q449 85 502 119T586 214T616 350Q616 425 586 485ZM371 743T357 750L258 801Q244 809 236 820T228 845Q228 862 241 874T272 886Q291 886 313 868L400 795Q412 785 412 772Q412 759 404 751T380 743Q371
743 357 750Z" />
<glyph unicode="&#xd3;" glyph-name="Oacute" horiz-adv-x="762" d="M719 249T676 167T555 38T381 -10Q284 -10 207 37T87 167T43 350Q43 451 86 533T207 662T381 710Q478 710 555 663T675 533T719 350Q719 249 676 167ZM616 425T586 485T503 580T381 615Q313
615 260 581T176 487T146 350Q146 275 176 215T259 120T381 85Q449 85 502 119T586 214T616 350Q616 425 586 485ZM367 741T359 748T350 769Q350 782 362 792L450 866Q471 883 490 883Q507 883 520 871T534 842Q534 829 526 817T504 798L405 747Q393 741 382 741Q367
741 359 748Z" />
<glyph unicode="&#xd4;" glyph-name="Ocircumflex" horiz-adv-x="762" d="M719 249T676 167T555 38T381 -10Q284 -10 207 37T87 167T43 350Q43 451 86 533T207 662T381 710Q478 710 555 663T675 533T719 350Q719 249 676 167ZM616 425T586 485T503 580T381 615Q313
615 260 581T176 487T146 350Q146 275 176 215T259 120T381 85Q449 85 502 119T586 214T616 350Q616 425 586 485ZM518 781T518 770Q518 762 511 756T493 749Q486 749 475 754T452 767L379 814L309 767Q297 759 287 754T268 749Q258 749 251 755T243 770Q243 776
246 781T255 794L324 870Q335 883 346 888T373 894H387Q403 894 414 888T437 870L506 794Q518 781 518 770Z" />
<glyph unicode="&#xd5;" glyph-name="Otilde" horiz-adv-x="762" d="M719 249T676 167T555 38T381 -10Q284 -10 207 37T87 167T43 350Q43 451 86 533T207 662T381 710Q478 710 555 663T675 533T719 350Q719 249 676 167ZM616 425T586 485T503 580T381 615Q313
615 260 581T176 487T146 350Q146 275 176 215T259 120T381 85Q449 85 502 119T586 214T616 350Q616 425 586 485ZM230 750T219 764T207 804Q207 840 234 865T308 890Q330 890 352 881T402 854Q425 840 436 835T458 829Q470 829 477 837T484 858Q483 862 483 868Q483
881 491 889T513 897Q532 897 543 882T555 844Q555 811 531 784T466 757Q442 757 419 767T364 794Q347 803 332 810T306 817Q294 817 286 810T278 788Q279 785 279 780Q279 766 270 758T248 750Q230 750 219 764Z" />
<glyph unicode="&#xd6;" glyph-name="Odieresis" horiz-adv-x="762" d="M719 249T676 167T555 38T381 -10Q284 -10 207 37T87 167T43 350Q43 451 86 533T207 662T381 710Q478 710 555 663T675 533T719 350Q719 249 676 167ZM616 425T586 485T503 580T381 615Q313
615 260 581T176 487T146 350Q146 275 176 215T259 120T381 85Q449 85 502 119T586 214T616 350Q616 425 586 485ZM260 766T247 777T234 812V827Q234 872 287 872Q314 872 327 862T340 827V812Q340 788 327 777T286 766Q260 766 247 777ZM448 766T435 777T422 812V827Q422
851 435 861T474 872Q502 872 515 862T528 827V812Q528 788 515 777T474 766Q448 766 435 777Z" />
<glyph unicode="&#xd7;" glyph-name="multiply" horiz-adv-x="476" d="M414 163Q428 149 428 130Q428 111 414 99T384 86Q368 86 352 100L237 216L122 101Q107 86 89 86Q72 86 59 100T45 131Q45 149 59 163L175 279L62 393Q49 409 49 425Q49 444 62 457T93 470Q110
470 125 455L238 341L353 456Q367 470 386 470Q405 470 417 457T430 426Q430 407 416 393L300 278L414 163Z" />
<glyph unicode="&#xd8;" glyph-name="Oslash" horiz-adv-x="733" d="M669 557T694 491T719 350Q719 249 676 167T555 38T381 -10Q264 -10 176 59L121 -9Q105 -28 86 -28Q71 -28 59 -16T46 12Q46 27 55 39L119 117Q82 164 63 223T43 350Q43 451 86 533T207 662T381
710Q482 710 562 658L615 723Q628 739 648 739Q664 739 676 728T689 701Q689 686 679 673L624 606Q669 557 694 491ZM146 264T185 198L500 582Q447 615 381 615Q313 615 260 581T176 487T146 350Q146 264 185 198ZM449 85T502 119T586 214T616 350Q616 455 560
528L238 134Q300 85 381 85Q449 85 502 119Z" />
<glyph unicode="&#xd9;" glyph-name="Ugrave" horiz-adv-x="708" d="M600 701T612 688T625 653V269Q625 190 590 127T494 29T355 -7Q277 -7 215 28T118 127T83 269V653Q83 674 97 687T133 701Q152 701 166 687T181 653V269Q181 217 205 176T269 111T355 88Q403
88 444 111T509 175T534 269V653Q534 674 546 687T579 701Q600 701 612 688ZM345 743T331 750L232 801Q218 809 210 820T202 845Q202 862 215 874T246 886Q265 886 287 868L374 795Q386 785 386 772Q386 759 378 751T354 743Q345 743 331 750Z" />
<glyph unicode="&#xda;" glyph-name="Uacute" horiz-adv-x="708" d="M600 701T612 688T625 653V269Q625 190 590 127T494 29T355 -7Q277 -7 215 28T118 127T83 269V653Q83 674 97 687T133 701Q152 701 166 687T181 653V269Q181 217 205 176T269 111T355 88Q403
88 444 111T509 175T534 269V653Q534 674 546 687T579 701Q600 701 612 688ZM341 741T333 748T324 769Q324 782 336 792L424 866Q445 883 464 883Q481 883 494 871T508 842Q508 829 500 817T478 798L379 747Q367 741 356 741Q341 741 333 748Z" />
<glyph unicode="&#xdb;" glyph-name="Ucircumflex" horiz-adv-x="708" d="M600 701T612 688T625 653V269Q625 190 590 127T494 29T355 -7Q277 -7 215 28T118 127T83 269V653Q83 674 97 687T133 701Q152 701 166 687T181 653V269Q181 217 205 176T269 111T355 88Q403
88 444 111T509 175T534 269V653Q534 674 546 687T579 701Q600 701 612 688ZM492 781T492 770Q492 762 485 756T467 749Q460 749 449 754T426 767L353 814L283 767Q271 759 261 754T242 749Q232 749 225 755T217 770Q217 776 220 781T229 794L298 870Q309 883 320
888T347 894H361Q377 894 388 888T411 870L480 794Q492 781 492 770Z" />
<glyph unicode="&#xdc;" glyph-name="Udieresis" horiz-adv-x="708" d="M600 701T612 688T625 653V269Q625 190 590 127T494 29T355 -7Q277 -7 215 28T118 127T83 269V653Q83 674 97 687T133 701Q152 701 166 687T181 653V269Q181 217 205 176T269 111T355 88Q403
88 444 111T509 175T534 269V653Q534 674 546 687T579 701Q600 701 612 688ZM234 766T221 777T208 812V827Q208 872 261 872Q288 872 301 862T314 827V812Q314 788 301 777T260 766Q234 766 221 777ZM422 766T409 777T396 812V827Q396 851 409 861T448 872Q476
872 489 862T502 827V812Q502 788 489 777T448 766Q422 766 409 777Z" />
<glyph unicode="&#xdd;" glyph-name="Yacute" horiz-adv-x="581" d="M564 640T555 625L340 322V48Q340 28 327 14T294 0Q274 0 260 14T246 48V330L32 619Q18 637 18 655Q18 675 34 689T69 703Q92 703 108 681L296 421L477 680Q493 703 517 703Q536 703 550 689T564
655Q564 640 555 625ZM277 741T269 748T260 769Q260 782 272 792L360 866Q381 883 400 883Q417 883 430 871T444 842Q444 829 436 817T414 798L315 747Q303 741 292 741Q277 741 269 748Z" />
<glyph unicode="&#xde;" glyph-name="Thorn" horiz-adv-x="597" d="M412 603T457 575T528 497T555 388Q555 329 528 280T456 201T359 172H178V48Q178 28 164 14T130 0Q109 0 96 13T83 48V692Q83 712 97 726T131 740Q152 740 165 727T178 692V603H359Q412 603 457
575ZM400 267T430 302T460 388Q460 439 431 473T359 508H178V267H359Q400 267 430 302Z" />
<glyph unicode="&#xdf;" glyph-name="germandbls" horiz-adv-x="642" d="M506 418T554 361T603 219Q603 153 575 101T499 20T391 -10Q348 -10 317 2T268 33Q258 45 258 59Q258 78 277 92Q289 102 302 102Q318 102 333 87Q358 67 394 67Q446 67 477 106T508 207Q508
344 365 378Q326 388 326 421Q326 451 351 464Q393 480 416 507T439 566Q439 603 411 624T332 645Q273 645 240 605T207 502L206 48Q206 27 193 14T159 0Q137 0 124 13T111 48L112 407H77Q57 407 43 420T29 452Q29 472 43 485T77 498H112V499Q112 565 138 618T214
703T336 734Q398 734 442 713T510 656T533 575Q533 533 505 498T434 442Q506 418 554 361Z" />
<glyph unicode="&#xe0;" glyph-name="agrave" horiz-adv-x="614" d="M517 531T530 518T544 482V48Q544 28 531 14T496 0Q475 0 462 13T449 48V74Q423 39 378 15T281 -10Q213 -10 158 25T71 122T39 263Q39 341 70 403T157 501T278 536Q331 536 376 514T449 458V482Q449
503 462 517T496 531Q517 531 530 518ZM339 78T375 102T432 168T453 263Q453 315 433 357T376 423T292 448Q245 448 209 424T152 358T131 263Q131 210 151 168T208 102T292 78Q339 78 375 102ZM292 565T276 573L185 635Q158 650 158 676Q158 694 171 705T201 717Q223
717 243 697L321 616Q332 605 332 593Q332 580 323 573T300 565Q292 565 276 573Z" />
<glyph unicode="&#xe1;" glyph-name="aacute" horiz-adv-x="614" d="M517 531T530 518T544 482V48Q544 28 531 14T496 0Q475 0 462 13T449 48V74Q423 39 378 15T281 -10Q213 -10 158 25T71 122T39 263Q39 341 70 403T157 501T278 536Q331 536 376 514T449 458V482Q449
503 462 517T496 531Q517 531 530 518ZM339 78T375 102T432 168T453 263Q453 315 433 357T376 423T292 448Q245 448 209 424T152 358T131 263Q131 210 151 168T208 102T292 78Q339 78 375 102ZM287 561T278 568T270 587Q270 595 276 605L335 704Q343 718 354 727T381
736Q403 736 414 725T425 694Q425 676 410 659L335 577Q319 561 295 561Q287 561 278 568Z" />
<glyph unicode="&#xe2;" glyph-name="acircumflex" horiz-adv-x="614" d="M517 531T530 518T544 482V48Q544 28 531 14T496 0Q475 0 462 13T449 48V74Q423 39 378 15T281 -10Q213 -10 158 25T71 122T39 263Q39 341 70 403T157 501T278 536Q331 536 376 514T449
458V482Q449 503 462 517T496 531Q517 531 530 518ZM339 78T375 102T432 168T453 263Q453 315 433 357T376 423T292 448Q245 448 209 424T152 358T131 263Q131 210 151 168T208 102T292 78Q339 78 375 102ZM423 628T425 623T427 611Q427 602 420 596T402 590Q389
590 383 593T363 609L299 663L234 609Q231 606 224 600T210 592T194 589Q184 589 177 595T170 610Q170 618 172 623T180 635L239 705Q257 729 289 729H316Q332 729 342 724T361 705L417 636Q423 628 425 623Z" />
<glyph unicode="&#xe3;" glyph-name="atilde" horiz-adv-x="614" d="M517 531T530 518T544 482V48Q544 28 531 14T496 0Q475 0 462 13T449 48V74Q423 39 378 15T281 -10Q213 -10 158 25T71 122T39 263Q39 341 70 403T157 501T278 536Q331 536 376 514T449 458V482Q449
503 462 517T496 531Q517 531 530 518ZM339 78T375 102T432 168T453 263Q453 315 433 357T376 423T292 448Q245 448 209 424T152 358T131 263Q131 210 151 168T208 102T292 78Q339 78 375 102ZM146 586T135 601T124 644Q127 678 156 701T234 724Q256 724 276 715T324
687Q342 675 354 669T376 662Q388 662 395 669T401 690Q400 693 400 700Q400 713 409 721T431 729Q451 729 462 714T473 673Q470 640 445 616T371 591Q353 591 334 599T285 625Q263 638 249 645T223 652Q211 652 204 645T196 624Q197 621 197 616Q197 602 188 594T166
586Q146 586 135 601Z" />
<glyph unicode="&#xe4;" glyph-name="adieresis" horiz-adv-x="614" d="M517 531T530 518T544 482V48Q544 28 531 14T496 0Q475 0 462 13T449 48V74Q423 39 378 15T281 -10Q213 -10 158 25T71 122T39 263Q39 341 70 403T157 501T278 536Q331 536 376 514T449 458V482Q449
503 462 517T496 531Q517 531 530 518ZM339 78T375 102T432 168T453 263Q453 315 433 357T376 423T292 448Q245 448 209 424T152 358T131 263Q131 210 151 168T208 102T292 78Q339 78 375 102ZM173 597T160 608T147 643V658Q147 703 199 703Q228 703 241 693T254
658V643Q254 618 241 608T199 597Q173 597 160 608ZM361 597T348 608T335 643V658Q335 703 388 703Q416 703 428 693T441 658V643Q441 618 428 608T387 597Q361 597 348 608Z" />
<glyph unicode="&#xe5;" glyph-name="aring" horiz-adv-x="614" d="M517 531T530 518T544 482V48Q544 28 531 14T496 0Q475 0 462 13T449 48V74Q423 39 378 15T281 -10Q213 -10 158 25T71 122T39 263Q39 341 70 403T157 501T278 536Q331 536 376 514T449 458V482Q449
503 462 517T496 531Q517 531 530 518ZM339 78T375 102T432 168T453 263Q453 315 433 357T376 423T292 448Q245 448 209 424T152 358T131 263Q131 210 151 168T208 102T292 78Q339 78 375 102ZM256 564T223 595T190 668Q190 712 223 743T299 774Q343 774 375 743T408
668Q408 626 376 595T299 564Q256 564 223 595ZM320 622T334 635T349 668Q349 690 334 703T299 716Q278 716 264 703T249 668Q249 649 263 636T299 622Q320 622 334 635Z" />
<glyph unicode="&#xe6;" glyph-name="ae" horiz-adv-x="907" d="M867 264T853 252T820 239H468Q475 166 523 122T642 78Q690 78 720 92T773 128Q788 137 802 137Q819 137 830 125T842 97Q842 76 822 59Q793 30 745 10T646 -10Q574 -10 517 18T424 96Q390 53 338
22T219 -10Q175 -10 134 7T67 60T41 148Q41 229 98 274T274 319H377V357Q377 410 344 429T265 448Q178 448 120 373Q105 356 84 356Q68 356 56 367T43 394Q43 411 54 426Q91 472 144 504T267 536Q327 536 376 518T449 459Q483 496 528 516T623 536Q687 536 743
503T833 412T868 282Q867 264 853 252ZM567 448T526 417T472 319H767V327Q762 380 720 414T623 448Q567 448 526 417ZM379 202T376 239H266Q199 239 168 214T136 151Q136 115 162 96T223 76Q281 76 324 105T388 171Q379 202 376 239Z" />
<glyph unicode="&#xe7;" glyph-name="ccedilla" horiz-adv-x="514" d="M487 59T465 40T403 7T318 -9L273 -121Q263 -148 239 -148Q222 -148 203 -137T183 -108Q183 -94 193 -83L251 -7Q187 3 139 40T65 135T39 263Q39 340 72 402T164 500T299 536Q378 536 430
511T483 447Q483 430 472 417T444 403Q431 403 424 407T403 420Q397 426 384 434Q372 440 350 444T310 448Q258 448 218 424T156 358T134 263Q134 210 155 168T216 102T305 78Q357 78 389 94Q396 98 408 107Q418 115 425 119T444 123Q464 123 475 111T487 78Q487
59 465 40Z" />
<glyph unicode="&#xe8;" glyph-name="egrave" horiz-adv-x="570" d="M530 264T516 252T483 239H131Q138 166 186 122T305 78Q353 78 383 92T436 128Q451 137 465 137Q482 137 493 125T505 97Q505 76 485 59Q456 30 408 10T310 -10Q229 -10 168 24T73 119T39 257Q39
341 73 404T164 502T286 536Q350 536 406 503T496 412T531 282Q530 264 516 252ZM230 448T189 417T135 319H430V327Q425 380 383 414T286 448Q230 448 189 417ZM280 565T264 573L173 635Q146 650 146 676Q146 694 159 705T189 717Q211 717 231 697L309 616Q320
605 320 593Q320 580 311 573T288 565Q280 565 264 573Z" />
<glyph unicode="&#xe9;" glyph-name="eacute" horiz-adv-x="570" d="M530 264T516 252T483 239H131Q138 166 186 122T305 78Q353 78 383 92T436 128Q451 137 465 137Q482 137 493 125T505 97Q505 76 485 59Q456 30 408 10T310 -10Q229 -10 168 24T73 119T39 257Q39
341 73 404T164 502T286 536Q350 536 406 503T496 412T531 282Q530 264 516 252ZM230 448T189 417T135 319H430V327Q425 380 383 414T286 448Q230 448 189 417ZM275 561T266 568T258 587Q258 595 264 605L323 704Q331 718 342 727T369 736Q391 736 402 725T413
694Q413 676 398 659L323 577Q307 561 283 561Q275 561 266 568Z" />
<glyph unicode="&#xea;" glyph-name="ecircumflex" horiz-adv-x="570" d="M530 264T516 252T483 239H131Q138 166 186 122T305 78Q353 78 383 92T436 128Q451 137 465 137Q482 137 493 125T505 97Q505 76 485 59Q456 30 408 10T310 -10Q229 -10 168 24T73 119T39
257Q39 341 73 404T164 502T286 536Q350 536 406 503T496 412T531 282Q530 264 516 252ZM230 448T189 417T135 319H430V327Q425 380 383 414T286 448Q230 448 189 417ZM411 628T413 623T415 611Q415 602 408 596T390 590Q377 590 371 593T351 609L287 663L222 609Q219
606 212 600T198 592T182 589Q172 589 165 595T158 610Q158 618 160 623T168 635L227 705Q245 729 277 729H304Q320 729 330 724T349 705L405 636Q411 628 413 623Z" />
<glyph unicode="&#xeb;" glyph-name="edieresis" horiz-adv-x="570" d="M530 264T516 252T483 239H131Q138 166 186 122T305 78Q353 78 383 92T436 128Q451 137 465 137Q482 137 493 125T505 97Q505 76 485 59Q456 30 408 10T310 -10Q229 -10 168 24T73 119T39
257Q39 341 73 404T164 502T286 536Q350 536 406 503T496 412T531 282Q530 264 516 252ZM230 448T189 417T135 319H430V327Q425 380 383 414T286 448Q230 448 189 417ZM161 597T148 608T135 643V658Q135 703 187 703Q216 703 229 693T242 658V643Q242 618 229 608T187
597Q161 597 148 608ZM349 597T336 608T323 643V658Q323 703 376 703Q404 703 416 693T429 658V643Q429 618 416 608T375 597Q349 597 336 608Z" />
<glyph unicode="&#xec;" glyph-name="igrave" horiz-adv-x="227" d="M161 28T148 14T113 0Q93 0 80 14T66 48V481Q66 501 79 515T113 529Q134 529 147 515T161 481V48Q161 28 148 14ZM107 565T91 573L0 635Q-27 650 -27 676Q-27 694 -14 705T16 717Q38 717 58
697L136 616Q147 605 147 593Q147 580 138 573T115 565Q107 565 91 573Z" />
<glyph unicode="&#xed;" glyph-name="iacute" horiz-adv-x="227" d="M161 28T148 14T113 0Q93 0 80 14T66 48V481Q66 501 79 515T113 529Q134 529 147 515T161 481V48Q161 28 148 14ZM102 561T93 568T85 587Q85 595 91 605L150 704Q158 718 169 727T196 736Q218
736 229 725T240 694Q240 676 225 659L150 577Q134 561 110 561Q102 561 93 568Z" />
<glyph unicode="&#xee;" glyph-name="icircumflex" horiz-adv-x="227" d="M161 28T148 14T113 0Q93 0 80 14T66 48V481Q66 501 79 515T113 529Q134 529 147 515T161 481V48Q161 28 148 14ZM238 628T240 623T242 611Q242 602 235 596T217 590Q204 590 198 593T178
609L114 663L49 609Q46 606 39 600T25 592T9 589Q-1 589 -8 595T-15 610Q-15 618 -13 623T-5 635L54 705Q72 729 104 729H131Q147 729 157 724T176 705L232 636Q238 628 240 623Z" />
<glyph unicode="&#xef;" glyph-name="idieresis" horiz-adv-x="227" d="M161 28T148 14T113 0Q93 0 80 14T66 48V481Q66 501 79 515T113 529Q134 529 147 515T161 481V48Q161 28 148 14ZM-12 597T-25 608T-38 643V658Q-38 703 14 703Q43 703 56 693T69 658V643Q69
618 56 608T14 597Q-12 597 -25 608ZM176 597T163 608T150 643V658Q150 703 203 703Q231 703 243 693T256 658V643Q256 618 243 608T202 597Q176 597 163 608Z" />
<glyph unicode="&#xf0;" glyph-name="eth" horiz-adv-x="571" d="M482 535T507 451T532 282Q532 195 500 130T411 29T286 -7Q218 -7 162 29T72 126T39 262Q39 334 72 395T160 491T275 527Q350 527 402 477Q384 534 346 574L193 536Q183 534 177 534Q162 534 153
542T143 568Q143 595 175 601L270 625Q241 637 209 646Q191 651 180 664T168 693Q168 712 178 726T209 740Q220 740 233 737Q316 716 380 658L450 674Q460 676 465 676Q480 676 490 667T500 642Q500 629 492 620T468 609L433 601Q482 535 507 451ZM328 87T362 110T417
174T437 262Q437 308 417 347T363 410T286 433Q244 433 209 411T154 349T134 262Q134 214 154 174T209 111T286 87Q328 87 362 110Z" />
<glyph unicode="&#xf1;" glyph-name="ntilde" horiz-adv-x="589" d="M518 536T518 320V48Q518 28 505 14T470 0Q450 0 437 14T423 48V319Q423 378 396 413T308 448Q268 448 236 431T185 384T166 319V48Q166 28 153 14T118 0Q97 0 84 13T71 48V476Q71 496 84 510T118
524Q139 524 152 510T166 476V441Q192 481 238 508T338 536Q518 536 518 320ZM142 586T131 601T120 644Q123 678 152 701T230 724Q252 724 272 715T320 687Q338 675 350 669T372 662Q384 662 391 669T397 690Q396 693 396 700Q396 713 405 721T427 729Q447 729
458 714T469 673Q466 640 441 616T367 591Q349 591 330 599T281 625Q259 638 245 645T219 652Q207 652 200 645T192 624Q193 621 193 616Q193 602 184 594T162 586Q142 586 131 601Z" />
<glyph unicode="&#xf2;" glyph-name="ograve" horiz-adv-x="606" d="M567 184T532 122T437 25T303 -10Q230 -10 170 25T74 122T39 262Q39 340 74 403T169 501T303 536Q376 536 436 501T532 403T567 262Q567 184 532 122ZM472 316T450 358T389 424T303 448Q256
448 218 425T157 359T134 262Q134 209 156 167T217 102T303 78Q350 78 388 101T449 167T472 262Q472 316 450 358ZM297 568T281 576L190 638Q163 653 163 679Q163 697 176 708T206 720Q228 720 248 700L326 619Q337 608 337 596Q337 583 328 576T305 568Q297 568
281 576Z" />
<glyph unicode="&#xf3;" glyph-name="oacute" horiz-adv-x="606" d="M567 184T532 122T437 25T303 -10Q230 -10 170 25T74 122T39 262Q39 340 74 403T169 501T303 536Q376 536 436 501T532 403T567 262Q567 184 532 122ZM472 316T450 358T389 424T303 448Q256
448 218 425T157 359T134 262Q134 209 156 167T217 102T303 78Q350 78 388 101T449 167T472 262Q472 316 450 358ZM292 564T283 571T275 590Q275 598 281 608L340 707Q348 721 359 730T386 739Q408 739 419 728T430 697Q430 679 415 662L340 580Q324 564 300 564Q292
564 283 571Z" />
<glyph unicode="&#xf4;" glyph-name="ocircumflex" horiz-adv-x="606" d="M567 184T532 122T437 25T303 -10Q230 -10 170 25T74 122T39 262Q39 340 74 403T169 501T303 536Q376 536 436 501T532 403T567 262Q567 184 532 122ZM472 316T450 358T389 424T303 448Q256
448 218 425T157 359T134 262Q134 209 156 167T217 102T303 78Q350 78 388 101T449 167T472 262Q472 316 450 358ZM428 631T430 626T432 614Q432 605 425 599T407 593Q394 593 388 596T368 612L304 666L239 612Q236 609 229 603T215 595T199 592Q189 592 182 598T175
613Q175 621 177 626T185 638L244 708Q262 732 294 732H321Q337 732 347 727T366 708L422 639Q428 631 430 626Z" />
<glyph unicode="&#xf5;" glyph-name="otilde" horiz-adv-x="606" d="M567 184T532 122T437 25T303 -10Q230 -10 170 25T74 122T39 262Q39 340 74 403T169 501T303 536Q376 536 436 501T532 403T567 262Q567 184 532 122ZM472 316T450 358T389 424T303 448Q256
448 218 425T157 359T134 262Q134 209 156 167T217 102T303 78Q350 78 388 101T449 167T472 262Q472 316 450 358ZM151 589T140 604T129 647Q132 681 161 704T239 727Q261 727 281 718T329 690Q347 678 359 672T381 665Q393 665 400 672T406 693Q405 696 405 703Q405
716 414 724T436 732Q456 732 467 717T478 676Q475 643 450 619T376 594Q358 594 339 602T290 628Q268 641 254 648T228 655Q216 655 209 648T201 627Q202 624 202 619Q202 605 193 597T171 589Q151 589 140 604Z" />
<glyph unicode="&#xf6;" glyph-name="odieresis" horiz-adv-x="606" d="M567 184T532 122T437 25T303 -10Q230 -10 170 25T74 122T39 262Q39 340 74 403T169 501T303 536Q376 536 436 501T532 403T567 262Q567 184 532 122ZM472 316T450 358T389 424T303 448Q256
448 218 425T157 359T134 262Q134 209 156 167T217 102T303 78Q350 78 388 101T449 167T472 262Q472 316 450 358ZM178 600T165 611T152 646V661Q152 706 204 706Q233 706 246 696T259 661V646Q259 621 246 611T204 600Q178 600 165 611ZM366 600T353 611T340 646V661Q340
706 393 706Q421 706 433 696T446 661V646Q446 621 433 611T392 600Q366 600 353 611Z" />
<glyph unicode="&#xf7;" glyph-name="divide" horiz-adv-x="596" d="M228 461T246 480T292 499Q318 499 337 480T356 434Q356 408 337 389T292 370Q265 370 247 389T228 434Q228 461 246 480ZM77 213T64 226T50 259Q50 277 63 289T97 302H498Q519 302 532 289T546
258Q546 239 533 226T498 213H97Q77 213 64 226ZM228 104T246 123T292 142Q318 142 337 123T356 78Q356 52 337 33T292 14Q265 14 247 33T228 78Q228 104 246 123Z" />
<glyph unicode="&#xf8;" glyph-name="oslash" horiz-adv-x="609" d="M567 366T567 262Q567 184 532 122T437 25T303 -10Q222 -10 158 32L117 -16Q104 -31 86 -31Q69 -31 57 -19T45 9Q45 26 55 37L97 87Q39 161 39 262Q39 340 74 403T169 501T303 536Q381 536 446
495L475 530Q488 545 506 545Q523 545 535 533T547 504Q547 487 537 477L506 441Q567 366 567 262ZM134 207T160 160L386 426Q348 448 303 448Q256 448 218 425T157 359T134 262Q134 207 160 160ZM350 78T388 101T449 167T472 262Q472 323 444 368L217 102Q255
78 303 78Q350 78 388 101Z" />
<glyph unicode="&#xf9;" glyph-name="ugrave" horiz-adv-x="580" d="M482 524T495 510T509 476V210Q509 106 452 49T289 -9Q185 -9 128 48T71 210V476Q71 496 84 510T118 524Q139 524 152 510T166 476V210Q166 79 289 79Q350 79 382 112T414 210V476Q414 496 427
510T461 524Q482 524 495 510ZM284 565T268 573L177 635Q150 650 150 676Q150 694 163 705T193 717Q215 717 235 697L313 616Q324 605 324 593Q324 580 315 573T292 565Q284 565 268 573Z" />
<glyph unicode="&#xfa;" glyph-name="uacute" horiz-adv-x="580" d="M482 524T495 510T509 476V210Q509 106 452 49T289 -9Q185 -9 128 48T71 210V476Q71 496 84 510T118 524Q139 524 152 510T166 476V210Q166 79 289 79Q350 79 382 112T414 210V476Q414 496 427
510T461 524Q482 524 495 510ZM279 561T270 568T262 587Q262 595 268 605L327 704Q335 718 346 727T373 736Q395 736 406 725T417 694Q417 676 402 659L327 577Q311 561 287 561Q279 561 270 568Z" />
<glyph unicode="&#xfb;" glyph-name="ucircumflex" horiz-adv-x="580" d="M482 524T495 510T509 476V210Q509 106 452 49T289 -9Q185 -9 128 48T71 210V476Q71 496 84 510T118 524Q139 524 152 510T166 476V210Q166 79 289 79Q350 79 382 112T414 210V476Q414
496 427 510T461 524Q482 524 495 510ZM415 628T417 623T419 611Q419 602 412 596T394 590Q381 590 375 593T355 609L291 663L226 609Q223 606 216 600T202 592T186 589Q176 589 169 595T162 610Q162 618 164 623T172 635L231 705Q249 729 281 729H308Q324 729
334 724T353 705L409 636Q415 628 417 623Z" />
<glyph unicode="&#xfc;" glyph-name="udieresis" horiz-adv-x="580" d="M482 524T495 510T509 476V210Q509 106 452 49T289 -9Q185 -9 128 48T71 210V476Q71 496 84 510T118 524Q139 524 152 510T166 476V210Q166 79 289 79Q350 79 382 112T414 210V476Q414 496
427 510T461 524Q482 524 495 510ZM165 597T152 608T139 643V658Q139 703 191 703Q220 703 233 693T246 658V643Q246 618 233 608T191 597Q165 597 152 608ZM353 597T340 608T327 643V658Q327 703 380 703Q408 703 420 693T433 658V643Q433 618 420 608T379 597Q353
597 340 608Z" />
<glyph unicode="&#xfd;" glyph-name="yacute" horiz-adv-x="579" d="M482 529T495 515T509 481V49Q509 -76 440 -138T258 -200Q221 -200 185 -193T126 -174Q89 -157 89 -128Q89 -123 91 -115Q97 -98 108 -89T133 -80Q141 -80 148 -83Q179 -97 203 -105T259 -113Q414
-113 414 46V66Q387 30 345 10T247 -10Q164 -10 118 43T71 182V481Q71 502 84 515T118 529Q139 529 152 515T166 481V207Q166 141 195 110T283 78Q340 78 377 114T414 207V481Q414 502 427 515T461 529Q482 529 495 515ZM279 561T270 568T262 587Q262 595 268 605L327
704Q335 718 346 727T373 736Q395 736 406 725T417 694Q417 676 402 659L327 577Q311 561 287 561Q279 561 270 568Z" />
<glyph unicode="&#xfe;" glyph-name="thorn" horiz-adv-x="614" d="M402 533T457 499T543 402T575 262Q575 184 544 123T457 26T336 -9Q284 -9 239 14T166 70V-152Q166 -172 153 -186T118 -200Q98 -200 85 -187T71 -152V692Q71 713 84 726T118 740Q139 740 152
726T166 692V448Q190 483 236 508T334 533Q402 533 457 499ZM369 79T406 103T463 168T484 262Q484 314 464 355T406 421T323 445Q276 445 239 422T182 356T161 262Q161 210 181 168T239 103T323 79Q369 79 406 103Z" />
<glyph unicode="&#xff;" glyph-name="ydieresis" horiz-adv-x="579" d="M482 529T495 515T509 481V49Q509 -76 440 -138T258 -200Q221 -200 185 -193T126 -174Q89 -157 89 -128Q89 -123 91 -115Q97 -98 108 -89T133 -80Q141 -80 148 -83Q179 -97 203 -105T259
-113Q414 -113 414 46V66Q387 30 345 10T247 -10Q164 -10 118 43T71 182V481Q71 502 84 515T118 529Q139 529 152 515T166 481V207Q166 141 195 110T283 78Q340 78 377 114T414 207V481Q414 502 427 515T461 529Q482 529 495 515ZM165 597T152 608T139 643V658Q139
703 191 703Q220 703 233 693T246 658V643Q246 618 233 608T191 597Q165 597 152 608ZM353 597T340 608T327 643V658Q327 703 380 703Q408 703 420 693T433 658V643Q433 618 420 608T379 597Q353 597 340 608Z" />
<glyph unicode="&#x2013;" glyph-name="endash" horiz-adv-x="514" d="M81 242T67 255T53 288Q53 308 67 320T102 333H412Q433 333 446 321T460 288Q460 268 447 255T412 242H102Q81 242 67 255Z" />
<glyph unicode="&#x2014;" glyph-name="emdash" horiz-adv-x="866" d="M81 242T67 255T53 289Q53 309 67 322T102 335H764Q785 335 799 322T813 289Q813 269 799 256T764 242H102Q81 242 67 255Z" />
<glyph unicode="&#x2018;" glyph-name="quoteleft" horiz-adv-x="241" d="M29 596T45 628T85 683T136 706Q175 706 175 673Q175 660 169 655T152 646T137 641Q109 625 109 596Q109 585 117 578T140 570Q157 570 168 577Q178 572 183 565T187 545Q187 520 162 502T108
483Q72 483 51 506T29 571Q29 596 45 628Z" />
<glyph unicode="&#x2019;" glyph-name="quoteright" horiz-adv-x="241" d="M191 593T175 561T135 506T84 483Q45 483 45 516Q45 529 51 534T68 543T83 548Q111 564 111 593Q111 604 103 611T80 619Q63 619 52 612Q42 617 37 624T33 644Q33 669 58 687T112 706Q148
706 169 683T191 618Q191 593 175 561Z" />
<glyph unicode="&#x201a;" glyph-name="quotesinglbase" horiz-adv-x="243" d="M192 -19T176 -51T136 -107T85 -130Q68 -130 57 -122T46 -97Q46 -83 53 -78T69 -69T84 -64Q98 -57 105 -46T113 -20Q113 -9 104 -1T81 7Q65 7 54 -1Q44 4 39 11T34 32Q35 56 60 74T113
93Q150 93 171 70T192 6Q192 -19 176 -51Z" />
<glyph unicode="&#x201c;" glyph-name="quotedblleft" horiz-adv-x="411" d="M276 847T292 879T332 934T383 957Q422 957 422 924Q422 911 416 906T399 897T384 892Q356 876 356 847Q356 836 364 829T387 821Q404 821 415 828Q425 823 430 816T434 796Q434 771
409 753T355 734Q319 734 298 757T276 822Q276 847 292 879ZM216 591T232 623T272 678T323 701Q362 701 362 668Q362 655 356 650T339 641T324 636Q296 620 296 591Q296 580 304 573T327 565Q344 565 355 572Q365 567 370 560T374 540Q374 515 349 497T295 478Q259
478 238 501T216 566Q216 591 232 623Z" />
<glyph unicode="&#x201d;" glyph-name="quotedblright" horiz-adv-x="411" d="M182 577T166 545T126 490T75 467Q36 467 36 500Q36 513 42 518T59 527T74 532Q102 548 102 577Q102 588 94 595T71 603Q54 603 43 596Q33 601 28 608T24 628Q24 653 49 671T103 690Q139
690 160 667T182 602Q182 577 166 545ZM378 577T362 545T322 490T271 467Q232 467 232 500Q232 513 238 518T255 527T270 532Q298 548 298 577Q298 588 290 595T267 603Q250 603 239 596Q229 601 224 608T220 628Q220 653 245 671T299 690Q335 690 356 667T378
602Q378 577 362 545Z" />
<glyph unicode="&#x201e;" glyph-name="quotedblbase" horiz-adv-x="384" d="M192 -19T176 -51T136 -107T85 -130Q68 -130 57 -122T46 -97Q46 -83 53 -78T69 -69T84 -64Q98 -57 105 -46T113 -20Q113 -9 104 -1T81 7Q65 7 54 -1Q44 4 39 11T34 32Q35 56 60 74T113
93Q150 93 171 70T192 6Q192 -19 176 -51ZM374 -19T358 -51T318 -107T267 -130Q250 -130 239 -122T228 -97Q228 -83 235 -78T251 -69T266 -64Q280 -57 287 -46T295 -20Q295 -9 286 -1T263 7Q247 7 236 -1Q226 4 221 11T216 32Q217 56 242 74T295 93Q332 93 353
70T374 6Q374 -19 358 -51Z" />
<glyph unicode="&#x2022;" glyph-name="bullet" horiz-adv-x="346" d="M137 216T106 234T56 283T37 351Q37 389 55 420T105 470T173 488Q210 488 241 470T290 421T309 351Q309 314 291 283T241 234T173 216Q137 216 106 234Z" />
<glyph unicode="&#x2039;" glyph-name="guilsinglleft" horiz-adv-x="275" d="M226 121Q235 108 235 93Q235 74 221 62T191 50Q171 50 159 67L36 237Q27 248 27 262Q27 275 36 285L161 454Q172 471 192 471Q208 471 221 460T235 430Q235 418 224 401L121 262L226 121Z" />
<glyph unicode="&#x203a;" glyph-name="guilsinglright" horiz-adv-x="275" d="M235 273T235 259Q235 245 227 236L102 67Q90 50 70 50Q55 50 42 61T28 90Q28 104 39 119L142 259L37 400Q27 411 27 427Q27 447 41 459T71 471Q91 471 104 453L227 284Q235 273 235 259Z" />
</font>
</defs>
</svg>
