<svg xmlns="http://www.w3.org/2000/svg" width="300" height="312.6" xml:space="preserve"><circle cx="242.7" cy="828.8" r="150" fill="#196aff" transform="translate(-92.7 -674.5)"/><path fill="#efeddd" d="M50 223.2s.2 9 4.7 21.7c1.1 3.3 3 4.7 4.8 7.4 2 2.8 1.5 9.1 3.3 11.7 10.4 14.6 10 7.9 12.8 15.6 3.1 8.3 2 21.9 2.2 25 0 1 14 2 14.2 2 1 0 1.7-21.7 1.7-26 0-4.2-2.6-14.8-2.6-22 0-7.3-41-35.4-41-35.4M179.6 228.2s-2.8 10.4-.8 20.3c.5 2.5 1.3 5 2.6 7.2.7 1.3 1.5 2.5 2.6 3.6l2.5 2.8c8.7 9.7 16 18.2 17.9 25.6 2 8 3 13 3 15.5 0 .5 12.8-1 12.8-1s1.4-24-1.1-30.3c-2.6-6.4-7.2-16.3-7.5-22.8-.3-6.6 3.9-29.1 1.3-28.4-2.6.8-33.3 7.5-33.3 7.5"/><path fill="#fff" d="M266.3 175.3c1.6.5 6.8-1 9.3-12 1-4.3-.2-7.6-3-10.4-2.4-2.5-2.7-4.1-6.8-6.1-3.4-1.7-10.5-3.8-14.4-5.6a86 86 0 0 0-39.8-8c-1 0-10 2.4-11.1 2.3-14.2-2.3-13.6.6-16 .5-5-.2-11.6-2.4-17-2.2-6.4.2-12.5 3.3-14.9 2.6-2-.5-4.2-1.1-8.3-.7-1.7.2-5.6 2-7.4 2.2-4.7.5-7-2.5-14.5-.3-2.1.6-3.5-2.6-5-5 1.8-11.6-5.1-20.9-5.1-20.9 2.8-6.6 2.2-21 0-23.6 0-1 5.3-13.2 2.7-22.2-1-3.2-2-8-2.4-8.4.4-1 2.4-4.9-.9-12.4a32 32 0 0 0-6-9c11.2-3.4-1-43.4-5-35-1.6 3.6-5.1 23-5.7 24.3-.4 1-24-2.3-31.7-1.2-12.5 2-19.4 9-19.8 8.3-1.3-2.5-5.8-17.8-7-23.8-3.4-16-20.5 22.8-1.9 31 .7.3 1.3 2.3 1.8 5.3-2.8 6-.2 14.1-.2 14.1C24.5 64 35 80.7 35 80.7c-2.6 2.7-7.6 6-6 18.9 1.2 8.8 5 11.4 5 11.4-6.4 3.3-5.4 12.5-3.6 16 1.2 2.2 2.9 2.2 2.9 2.2-5.7 8.2.8 14 1 14.2 0 .1-2.2 2.9-2.8 8.5-.2 2.5 1.2 7 1 9.7-.4 4.2-1.9 9 .2 16.8.5 1.8 4 5.9 4 5.9s-2.6 6.5-1 14.7c.9 4.9 6.2 9 7.7 14 1.3 4.3 3 11.7 5 15.2 3.2 6.3 14 10.1 14 10.1s3.6 10.5 8.9 12.9c7.6 3.3 5-1.9 18.2 9 .8.6 13.5 24.3 15 30.1 2 7.1 3 15 3 15s10.5 2 14-1.8c1.7-1.9.8-26.1-3-31.3-3-4-.4-19.3-.4-19.3s3.7 2 7 1.9c2.2-.2 6.2-2.2 9.1-2.3 1 0 6.9.9 9.4.5 2.1-.4 9.4-3.7 12.4-5.1 4-2 14.6-1.7 17.9-3.1 4.6-2.1 12.4-3.1 17.2-4.6 7.5-2.3 10.4-4 10.4-4s-.2.7-.2 4.6c0 2.2 4.7 7 5 10 1.1 9.4 17.3 18.8 23.5 27.3 6.2 8.5 4 26.6 4 26.6l13.7-1.9s1.4-8.6 3-24.2c1.5-15.5-6.8-7-3.7-15 2.6-6.7 6.6-11 11.7-20 1-1.8 2.2-3.8 3.3-6.1a63.5 63.5 0 0 0 5.7-53.6c-1-2.5-2.6-9-1-8.6"/><path fill="#fef2e2" d="M102.3 45.8c-7.2-7-28.3-5-28.3-5s-21.1-2-28.3 5c0 0-22.4 50.5 28.3 50.9 50.7-.4 28.3-50.9 28.3-50.9"/><path fill="#eedbcc" d="M95.1 77.7c0-5.8-9.3-12.5-19.2-12.5-9.8 0-18.6 6.5-18.6 12.4 0 3 3 4.6 6.3 6.8 3.5 2.2 7.2 7.3 12.6 7.3 5.5 0 9.1-5.1 12.6-7.4 3.4-2.1 6.3-3.5 6.3-6.6"/><path fill="#fff" d="M103.7 35.5c-.2-2-1.8-3.7-3.7-3.6 1-1.6 1.6-5.4-1.8-7-2-1-4.4 1-4.4 1s-.5-4.3-5-5c-4.7-.9-7.2 4-7.2 4 0-3.8-6.4-6-10-5.3-4.2.8-6.2 4-6.2 4-8.6-5.1-11.7 3.3-11.7 3.3-2-4.7-8.7-3.1-10.8-.2-2.7 3.7.6 6.7.6 6.7s-5.8 4.2-3.2 9c3 5.3 8.5 1.9 8.5 1.9 2.4 11.3 10.8 1.3 10.8 1.3.7 5.3 3 9.8 9.5 8.2 4.5-1.2 5.8-7.2 5.8-7.2 1.6 6.2 6.3 5.2 8 3.4 1.1-1.2 1.2-2.7 1.2-2.7 4.1 5.6 7-1 7-1 3.7 2.1 7.3 2 9-.6 1-1.4 1.3-3 .8-5.6 1.5-.5 3.1-1.8 2.8-4.6"/><path fill="#58595b" d="M76.3 71.4c-3.3 0-9.6.1-8.4 2.5.6 1.4 4 3.1 8.4 3.2 4.3 0 7.8-1.8 8.4-3.2 1.2-2.4-5.1-2.5-8.4-2.5"/><path fill="#fef2e2" d="m51 32-.6.3-.4.3-.2.5v1.4a6.1 6.1 0 0 0 .4 1c.4.6.7 1.1 1.3 1.5l.5.1h.5l.6-.1c.2 0 .3-.2.5-.3l.4-.3v.5l-.2.9.1.9.3.8.4.7.5.6.2.2.4.2.6.4.8.2.7.1H59.5l.8-.1.9-.2.8-.3.9-.3.8-.4.1.1-.6.7c-.2.3-.5.5-.8.6l-.8.6-.9.4-1 .3-1 .2h-1l-1-.1-1-.4-1-.6c0-.2-.2-.3-.4-.4l-.3-.4-.5-1-.3-1v-.9l.1-1 .2-.9.4.3-1.2.6-.7.2a3 3 0 0 1-.8 0 3 3 0 0 1-1.8-1.2 4 4 0 0 1-.7-3.4l.3-.7.6-.5.7-.2h.7v.2M39 99.7l-.5.2c-.2 0-.3.2-.4.3l-.2.4v1.5a5.9 5.9 0 0 0 .4 1c.3.5.7 1.1 1.3 1.4l.5.2h.5l.5-.1c.2 0 .4-.2.5-.3l.5-.3v.5l-.2.9v.8l.3.8.4.7.5.6.3.3.3.2.7.4.7.2.8.1H47.6l.8-.1c.3 0 .6-.2.8-.3l.9-.2.8-.4 1-.3v.1l-.6.7-.8.6-.8.6-.9.4-1 .3-1 .2h-1c-.4 0-.7 0-1-.2-.4 0-.8-.2-1-.4-.4-.1-.7-.3-1-.6l-.4-.3-.3-.4c-.3-.3-.4-.6-.5-1-.2-.3-.2-.6-.3-1v-1.9l.3-.9.3.2-1.1.7-.7.1a3 3 0 0 1-.8 0 3 3 0 0 1-1.9-1.1 4 4 0 0 1-.7-3.4l.4-.7.5-.5.8-.3h.3l.3.1v.2M81.9 30.1l-.2-.2-.2-.4v-.7c0-.2 0-.5.2-.7l.5-.6c.1-.2.3-.3.6-.4l.6-.3a5 5 0 0 1 2.2-.2l.7.2c.4.2.9.5 1.2 1A2.8 2.8 0 0 1 88 29v1.3l-.5-.2.8-.5.8-.5 1-.5 1-.2h1l.6.2.5.2c.4 0 .7.3 1 .5l.8.7.6.8.5 1 .2 1 .2.9v1l-.2 1-.2.8-.4.9h-.1v-1l-.2-.8-.1-.9c0-.3 0-.5-.2-.8L95 33l-.3-.8-.4-.6-.5-.7-.5-.5-.6-.4-.4-.2-.3-.1c-.3-.2-.5-.2-.8-.2H89.4l-.8.4-.8.5-.4.3v-.5l.1-.6v-.5l-.3-.5-.4-.3c-.6-.4-1.3-.5-2-.5a4.8 4.8 0 0 0-1 .1c-.4 0-.7.2-1 .3l-.4.3-.3.4v1l-.2.1M103.4 118.7l.2-.2.3-.3a1.9 1.9 0 0 1 1.4-.2l.8.2.5.5.5.5.7 1.3a3.8 3.8 0 0 1 0 1.4c0 .5-.2 1-.5 1.4a2.8 2.8 0 0 1-1.1.8l-1.3.3v-.4l.8.6.8.6.6.7.5 1c.1.3.3.6.3 1v1c0 .4-.2.7-.3 1 0 .4-.3.7-.4 1l-.7.8-.8.7-.9.5-.9.4-1 .3-1 .1H100v-.2l1-.3.8-.3.8-.4.8-.4.7-.4.6-.5.6-.6.5-.6.4-.6.2-.7.1-.4v-1.1l-.2-.8-.4-.8-.5-.7-.7-.5-.4-.4h.5c.2 0 .4 0 .6-.2l.5-.2.4-.4.2-.4c.2-.6 0-1.3 0-2a5 5 0 0 0-.3-.4l-.2-.5-.6-.8-.4-.3-.4-.2h-.5l-.6.2M205.7 157.8l.2-.2.3-.3a1.8 1.8 0 0 1 1.5-.2c.2 0 .5.1.7.3.2 0 .4.2.6.4l.4.5.7 1.3a3.8 3.8 0 0 1 .1 1.4c0 .5-.2 1-.6 1.4a2.8 2.8 0 0 1-1.1.8l-1.3.3v-.4l.9.6.7.6.7.7.4 1c.1.3.3.6.3 1v1c0 .4-.1.7-.3 1 0 .4-.3.7-.4 1l-.7.8-.7.7-1 .5c-.2.2-.6.3-.9.4l-1 .3-.9.1h-2v-.2l1-.3.8-.3.8-.4.8-.4.7-.4.6-.5.6-.6.5-.6.4-.6.2-.7.1-.4v-1.1l-.2-.8-.4-.8-.5-.7-.7-.5-.4-.3.5-.1c.2 0 .4 0 .6-.2l.5-.2c.2 0 .3-.2.4-.4l.2-.4c.2-.6.1-1.3 0-2l-.2-.4-.3-.5c-.1-.3-.3-.6-.6-.8l-.3-.3-.5-.1h-.5c-.2 0-.4 0-.6.2v-.2M246.4 226.8l.2-.2.3-.2a1.8 1.8 0 0 1 1.5-.3l.7.3c.2 0 .4.2.6.4l.4.5.7 1.3a3.8 3.8 0 0 1 0 1.4 2.8 2.8 0 0 1-1 1.9l-.6.3-1.3.3v-.4l.8.6.8.6.6.8c.2.2.4.5.5.9.1.3.3.6.3 1v1c0 .4-.1.7-.3 1 0 .4-.3.7-.4 1l-.7.8-.8.7-.8.5-1 .4-1 .3-1 .1H243v-.2l1-.3.8-.3.8-.4.8-.4.7-.4.6-.5.6-.6.5-.6.4-.6.2-.7.1-.4v-1.1l-.2-.8-.4-.8-.5-.6-.7-.6-.4-.3.5-.1.6-.1c.2 0 .3-.2.5-.3.2 0 .3-.2.4-.3l.2-.5c.2-.6 0-1.3 0-2l-.2-.4-.3-.5c-.1-.3-.3-.6-.6-.8l-.4-.3-.4-.1h-.5c-.2 0-.4 0-.6.2v-.2M66.9 221.2l-.3-.2h-1.1a2 2 0 0 0-.7.5l-.4.6a3 3 0 0 0-.3.7l-.1.7.1 1.4a3.8 3.8 0 0 0 .7 1.2c.3.4.7.7 1.2 1a2.9 2.9 0 0 0 1.5 0c.4 0 .8-.2 1.2-.4l-.3-.3-.3.9-.3 1-.2.9.1 1 .3 1 .3.5.3.4.8.7.9.6 1 .4 1 .1h1l1-.1c.4 0 .7-.2 1-.3.4 0 .7-.2 1-.4l.8-.4.8-.6-.1-.1-1 .1-.8.2-1 .1c-.2 0-.5.1-.8 0H72.5l-.8-.2-.7-.2-.7-.4-.6-.5-.3-.2-.2-.3-.4-.7-.2-.8-.1-.8v-.9l.4-.8.1-.5-.5.2-.5.2h-1.1l-.4-.3c-.5-.4-.8-1-1-1.7l-.2-.5v-1.5l.2-.4.3-.4.5-.3h.5v-.2M78.7 39.6a153.2 153.2 0 0 0 .7.5l.3.1.3.1.6.2h.8l.8-.1.8-.2.7-.4.3-.2.3-.2.5-.4.5-.4c0-.1 0-.2.2-.2l.1-.2.2-.4.2-.4h.2l.2.4V39.1c0 .3-.3.5-.4.8l-.7.7-.5.3-.5.2-1 .2-1 .1h-1l-.9-.2-.7-.4-.3-.2-.2-.2-.4-.4-.2-.3.1-.1M31.4 12.2c-.2-4.7-7 15.4 3.2 24.8 2.5 2.3-.1-.6-1.8-12-.6-3.8-1.2-9.6-1.4-12.8M103.5 7.6c-.5-4.7 9.4 14.2.8 25-2.1 2.6 0-.6 0-12 0-4-.4-9.8-.8-13"/><path fill="#58595b" d="M75.1 75.9c0 2.3 1 5.5-1.3 7.1-2.4 1.8-6.3 0-7.8-2-.6-1-2.1-.1-1.5.8 2 2.8 5.7 4.2 9 3.2 4.3-1.2 3.4-6 3.3-9.1 0-1.1-1.7-1.1-1.7 0"/><path fill="#58595b" d="M75.4 80.9c2.3 5.3 10.6 4.6 12.4-.6.4-1-1.3-1.5-1.6-.5-1.5 4-7.6 4.1-9.3.2-.4-1-2-.1-1.5.9"/><path fill="#fef2e2" d="M40.4 146.8a40.2 40.2 0 0 0 .6 1l.3.1.5.4.7.3.8.2.8.1h.8l.4-.1h.4l.6-.2.6-.2.2-.1.3-.2.3-.2.4-.3h.1v.5l-.1.6-.4.6-.7.6c-.3.1-.6.3-1 .3l-.5.1H45l-1-.2-1-.2-.9-.5-.7-.5-.5-.6-.2-.3-.2-.3-.1-.5-.1-.4h.1M56.2 210.4a56.7 56.7 0 0 0 .4.8l.2.2.2.2.6.4.7.3.8.2.8.1h.8l.4-.1.3-.1.7-.2c.2 0 .4 0 .5-.2h.3l.2-.2.4-.3.3-.2h.2v.5c0 .2 0 .3-.2.5l-.4.7-.7.6c-.3.1-.6.3-1 .3h-2l-1-.4c-.3 0-.6-.2-.8-.4l-.8-.5-.5-.6a319 319 0 0 0-.5-1.1v-.4M194.7 160.2l.2-.3.2-.4.1-.2.1-.3v-1.5c0-.2 0-.5-.2-.7 0-.3-.2-.5-.3-.8l-.5-.6-.2-.3-.3-.2-.4-.5-.5-.4-.2-.2h-.2l-.4-.3-.5-.1v-.2l.4-.2.6-.1h.8c.3 0 .5.1.8.3.3.1.6.3.8.6l.3.4.3.4.4 1 .2 1v1l-.1.8c0 .3-.2.5-.3.7l-.1.3-.2.3-.4.4-.3.2h-.1M254.6 222.4h.4l.5-.2h.2l.3-.2.5-.5.6-.5.4-.7.3-.7.2-.8v-2.4l-.2-.5-.2-.4h.6l.5.3.5.6.4.8v1.5l-.2.5-.4.9-.6.8-.7.7-.7.5c-.3.2-.5.3-.8.3l-.3.1h-.3l-.6.1h-.4v-.2M266.9 157.9l.2-.4.2-.4.1-.2v-.3l.1-.7v-.7l-.3-.8-.3-.7-.5-.6-.3-.3-.3-.3-.4-.4-.5-.4-.2-.1-.3-.1-.4-.2-.4-.1v-.2l.4-.2.5-.2h.8l.9.3.8.5.3.4.3.5.4.9.3 1v1.8l-.3.7-.2.4-.1.2-.4.4-.3.3-.1-.1M156 151.9v-1.1l-.1-.3-.3-.6-.5-.6-.6-.6-.7-.4-.7-.3-.4-.1-.3-.1-.7-.2H150.1l-.4.1-.1-.1.2-.4c0-.2.2-.3.4-.4l.7-.4c.2-.2.5-.2.9-.2h1l.5.2.4.3.8.6.8.7.6.8.3.8.2.7v1.2l-.2.4h-.1"/><path fill="#281f1f" d="M100.4 51.8c-5.6-.5-25.7 2.3-25.7 2.3h-1.4s-20-2.8-25.7-2.3c-1.5.1-4 2.3-4 2.3s.7 12.2 13 13c11.6.7 15.1-6.3 16.3-10.8H75c1.2 4.5 4.7 11.5 16.4 10.8 12.2-.8 12.9-13 12.9-13s-2.5-2.2-4-2.3"/><path fill="#fff" d="M45.2 54.6c1.8 3.3 4.4 6.3 6.6 9.3-4-1-5.9-6-6.6-9.3M78.2 56c1.8 3.3 4.4 6.3 6.5 9.3-4-1-5.8-6-6.5-9.4"/><path fill="#58595b" d="M77.8 304.5s-4 5.6-2 7.5c2 1.9 13.6-1.4 13.6-1.4l2.8-4.3-14.4-1.8M207.5 303.2s-2.7 6.2-.4 7.7c2.3 1.4 12.4-4.2 12.4-4.2l.7-4.5-12.7 1M107 304.6s-3 6.1-.6 7.7c2.3 1.5 13-3.4 13-3.4l2-5.4-14.5 1M233.7 304.7s-2.4 6.3 0 7.7c2.3 1.4 12.7-4 12.7-4l1-5.6-13.7 1.9"/></svg>
