<svg xmlns="http://www.w3.org/2000/svg" width="145.4" height="204.5" xml:space="preserve"><defs><clipPath id="a" clipPathUnits="userSpaceOnUse"><path d="M5210 5148.5c-111.4 0-201.8 62.7-201.8 140s90.4 140 201.8 140c111.5 0 201.9-62.7 201.9-140s-90.4-140-201.9-140"/></clipPath></defs><path fill="#fff" d="M145 129.8c-1.5 11.7-6.3 15-6.3 15 8.2 4.3 6.9 16.5 4.5 21-1.5 3-3.6 3-3.6 3 7.4 11-1.4 18.7-1.4 18.7a39 39 0 0 1 1.7 17h-109c-.7-1.7-1.4-4.8-.5-10.3 1.8-11.5 5.5-16.1 6.3-17 0 0-7-10.2-6.3-19.4 1-14.6 4.9-16.7 4.9-16.7-7.4-10-2.4-20.4.4-23.8 0-1.3-3.9-14.8-1.1-27 1-4 3-15.3 3.5-15.9-.5-1.4-3-6.4 1-16.3 1.8-4.2 4.2-7.6 5.9-9.7l1.2-2.8C39.2 23 43-.3 46.9 0c7.2.6 17.2 27.3 18 29.1.2.7 7.8 1.3 16.2 1.9 7.8-.6 15.8-1 20-.4 5.2.9 9.6 2.4 13.3 4.1 5 .7 6.9.9 7.2.3 1.6-3.3 6.9-26.7 16.3-32.5 5.1-3 11.5 36.4-1 48.7 0 0-1 3.7-1.5 6.7 3.6 8 .3 18.7.3 18.7 15 6.2 1.7 28.3 1.7 28.3 3.3 3.6 9.7 8 7.5 25"/><path fill="#fef2e2" d="M136.5 11.6c3.1-5.3 9.9 20-3.2 32.3-3.2 3-3.3-2.1-1-17 .7-5.2 2-11.4 4.2-15.3M50 9c-3.4-5.1-8.8 20.5 5 32.1C58.2 44 58 38.8 55 24c-1-5.1-2.7-11.3-5-15M53.3 60.4c8.4-8.7 33.6-6.6 33.6-6.6s25-3 33.7 5.5c0 0 27.6 61.4-32.7 62.8-60.2.5-34.6-61.7-34.6-61.7"/><g clip-path="url(#a)" transform="matrix(.04413 0 0 .04413 -169.3 -148)"><path fill="#fee8de" d="M5008.2 5148.5h403.7v280h-403.7Z"/></g><path fill="#fee8de" d="M112.6 80.2c-4.9 0-8.9 2.8-8.9 6.2 0 3.4 4 6.2 9 6.2 4.9 0 8.9-2.8 8.9-6.2 0-3.4-4-6.2-9-6.2"/><path fill="#231f20" d="M68.3 74.4a3 3 0 1 0 6-.1c0-1.7-1.4-4.2-3-4.2-1.7 0-3 2.6-3 4.3M100.4 75a3 3 0 1 0 5.9 0c0-1.7-1.4-4.2-3-4.2-1.7 0-3 2.6-3 4.3"/><path fill="#eedbcc" d="M61.5 100.2c-.1-7.7 11.7-16.7 24.2-16.9 12.6-.2 24 8.2 24 15.9.1 4-3.5 6.1-7.9 9.1-4.3 3-9 9.8-15.9 10-7 0-11.7-6.7-16.2-9.6-4.4-2.7-8.1-4.5-8.2-8.5"/><path fill="#fff" d="M48.8 44.7c.3-2.6 2.3-4.8 5-4.7-1.4-2.2-2.3-7 2.2-9.3 2.8-1.3 6 1.1 6 1.1s.6-5.6 6.7-6.7c6.4-1.1 10 5.2 10 5.2-.2-5 8.5-8 13.2-7.2 5.9 1 8.7 5.3 8.7 5.3 11.6-7 16 4 16 4 2.5-6.2 11.7-4.3 14.6-.6 3.7 4.9-.7 9-.7 9s8 5.4 4.5 11.6c-4 7.1-11.5 2.7-11.5 2.7-3 15-14.6 2-14.6 2-.9 7-4 13-12.8 11-6-1.4-8-9.4-8-9.4-2 8.2-8.4 7-10.8 4.7a5.8 5.8 0 0 1-1.6-3.6C70 67.3 66 58.6 66 58.6c-4.9 3-9.7 2.8-12.2-.5-1.4-1.9-1.8-4-1-7.4-2.1-.6-4.4-2.3-4-6"/><path fill="#fef2e2" d="m128.1 42.8.7.3a1.8 1.8 0 0 1 .8 1l.1.6-.1 1.3a7.8 7.8 0 0 1-.5 1.3c-.4.8-.9 1.5-1.6 2l-.6.2h-.7c-.2 0-.4 0-.7-.2l-.6-.3-.6-.4.1.7.2 1.1-.1 1.2-.3 1-.5 1-.6.7-.4.4-.4.3-.8.5-1 .3c-.3 0-.6 0-1 .2h-2l-1.1-.2c-.4 0-.8-.2-1.1-.3-.4 0-.7-.2-1.1-.3l-1.1-.4-1.1-.5-.1.2.8.9 1 .8 1 .7 1.2.5 1.2.4 1.3.3h1.3l1.4-.3 1.3-.5 1.1-.8.5-.5.4-.6c.3-.3.5-.8.7-1.2l.3-1.3v-1.3c0-.4 0-.8-.2-1.2L125 49l-.5.4 1.5.8 1 .2h1c.6-.2 1.1-.5 1.6-1a5.2 5.2 0 0 0 1.1-1.5 6.2 6.2 0 0 0 .5-2.7l-.1-.9-.5-.9-.7-.7-1-.3h-.4l-.4.1v.2M89.5 33.5l.3-.4.2-.4v-1c0-.3 0-.6-.2-.9L89 30l-.7-.5-.9-.4-1.8-.3-1 .1-.8.3c-.6.3-1.2.7-1.5 1.2l-.5.9-.2.9.1 1.7.5-.3-1-.7-1-.7-1.2-.5-1.4-.2h-1.3l-.7.2-.7.2-1.2.7-1 1-.8 1-.6 1.3-.3 1.3-.1 1.3v1.3l.2 1.2.3 1.2.5 1.2h.2V42l.1-1.2c0-.3 0-.7.2-1 0-.5 0-.8.2-1.2l.3-1 .4-1 .4-1c.3-.2.4-.5.6-.8l.7-.7.8-.6.4-.2.5-.2 1-.2 1-.1c.4 0 .7 0 1.1.2.4 0 .7.2 1 .4l1 .6.6.3v-.6c-.1-.3-.2-.5-.1-.8v-.7l.4-.6.4-.4c.7-.5 1.6-.6 2.5-.7a6 6 0 0 1 1.4.1l1.2.5c.2 0 .4.2.5.3l.4.5.2.6v.8h.1M63.3 54.2l-.5.1a2 2 0 0 1-.6 0l-.3.1h-.4l-.9-.3c-.3 0-.6-.2-.9-.4-.3-.2-.6-.3-.8-.6l-.8-.7c-.2-.3-.5-.5-.6-.8l-.2-.5-.2-.4-.4-.8-.3-.7V49l-.1-.3v-1.2l-.2-.1-.5.4c-.2.1-.3.3-.4.6l-.4 1v1.1l.4 1.2.4.6.4.5 1 .9 1.1.7 1.2.5 1.1.2H62l.4-.1c.3 0 .5-.2.6-.3l.5-.2v-.2M111.8 40.1l.1-.5.2-.6v-.7c0-.3 0-.6-.2-1l-.3-.8-.5-1-.7-.8c-.2-.2-.5-.5-.8-.6l-.4-.3-.4-.2-.7-.5c-.3 0-.5-.2-.7-.3l-.3-.1h-.3l-.6-.2h-.6v-.2s0-.2.4-.5l.6-.3c.3-.2.6-.3 1-.3l1.1.1 1.2.5.5.4.5.5.8 1 .6 1.2.4 1.2.2 1.2-.1 1-.1.5-.2.4-.2.5-.4.5h-.1"/><path fill="#231f20" d="M85.3 88.8c4.2 0 12.3 0 10.8 3.3-.8 1.7-5.1 4-10.7 4.2-5.6 0-10-2.3-10.8-4C73 89 81 88.8 85.3 88.8"/><path fill="#231f20" d="M83.8 95.5c-.4 3.7.5 7.2 3.8 9.2 3.6 2.2 8.2.8 11.6-1 1.3-.7.1-2.6-1.1-2-2.7 1.5-5.6 2.4-8.6 1.4-3.3-1-3.8-4.6-3.5-7.6.2-1.4-2-1.3-2.2 0"/><path fill="#231f20" d="M83.3 96.3c0 2.5-1 5-3 6.4-3.2 2.2-6.3-.3-8.2-2.7-.9-1.1-2.4.4-1.6 1.5 2.3 3 6 5.5 9.9 3.6a9.5 9.5 0 0 0 5-8.8c0-1.4-2.2-1.4-2.1 0"/></svg>
