<?xml version="1.0" encoding="utf-8" ?><svg xmlns="http://www.w3.org/2000/svg" xmlns:xlink="http://www.w3.org/1999/xlink" width="2160" height="2160" viewBox="0 0 2160 2160"><path fill="#F2E8CE" d="M29.6452 396.374C44.2053 288.307 104.178 181.031 191.199 114.733C246.236 72.8514 310.839 45.3381 379.173 34.6781C440.085 24.8142 490.908 24.5325 551.803 23.6657C619.212 22.9779 686.626 22.9559 754.035 23.5998L1180.88 23.6821L1494.63 23.3529L1587.79 23.8232C1644.28 24.0974 1693.41 24.384 1749.5 32.1413C1860.91 47.5498 1964.77 100.08 2033 190.866C2088.43 264.604 2116.51 350.937 2123.78 442.168C2125.22 460.163 2128.29 488.336 2127.34 505.934C2129.21 517.421 2129.09 539.398 2129.21 551.646L2129.56 624.214L2129.49 878.228L2129.28 1427.68L2129.16 1585.19C2129.17 1654.76 2130.66 1736.56 2113.33 1803.68C2085.13 1916.14 2013.2 2012.68 1913.5 2071.87C1788.9 2144.92 1650.97 2136.58 1511.81 2136.84L1191.47 2136.89L744.956 2136.96L583.037 2136.77C498.8 2136.49 420.74 2137.21 338.381 2115.49C228.584 2085.56 135.112 2013.36 78.4228 1914.69C48.523 1863.24 29.732 1806.1 23.2606 1746.95C16.9337 1692.13 16.6792 1639.4 16.6528 1584.37L16.7789 1453.46L17.0351 1028.96L17.0867 673.489C17.1319 605.554 16.0663 537.322 21.3447 469.614C22.8163 450.738 24.8569 414.288 29.6452 396.374Z"/><path fill="#F2E8CE" d="M29.6452 396.374C30.7792 412.389 28.3088 425.816 26.8382 441.683C22.1628 492.132 20.77 542.364 20.4343 593.02L19.9317 1331.43L19.9992 1534.67C19.5166 1674.76 15.8502 1826.5 104.402 1944.01C111.375 1953.26 121.075 1968.95 129.652 1976.59C133.086 1976.69 133.401 1976.5 136.65 1975.79L138.933 1977.03L139.123 1977.92L136.4 1979.89C136.682 1983.07 136.135 1981.68 138.104 1984.19C141.1 1984.09 140.225 1984.17 143.149 1983.27L145.572 1984.91C146.167 1988.77 146.373 1993.49 148.678 1996.42C151.535 1997.98 157.617 2001 159.881 2002.91C161.978 2004.67 159.029 2007.2 165.378 2007.88L165.67 2009.22L163.973 2011.18L165.102 2013.01C166.858 2011.73 165.998 2012.44 167.667 2010.85C178.401 2014.66 193.208 2036.19 200.98 2036.15L199.395 2036.6C201.06 2035.18 201.419 2035.37 202.17 2033.35C205.474 2033.58 203.838 2033.13 206.871 2036.15C205.107 2040.63 204.694 2039.57 205.847 2043.15C208.38 2043.74 207.828 2043.64 210.407 2043.69C212.574 2046.03 212.384 2046.15 213.478 2049.22L215.059 2050.22L217.627 2048.45C223.64 2053.7 229.523 2058.22 235.837 2063.11L235.216 2066.26C238.693 2068.64 239.265 2067.99 243.617 2067.12C245.921 2070.29 245.957 2070.38 247.434 2074.01L250.177 2074.7C251.121 2072.88 250.942 2072.9 252.699 2071.74L254.325 2072.6C254.182 2074.54 254.102 2076.36 254.368 2078.29C258.063 2078.84 258.297 2078.49 261.79 2077.38C265.493 2080.52 260.725 2081.43 265.392 2083.81C267.993 2080.87 267.429 2080.42 270.267 2080.23C282.611 2087.91 286.308 2090.86 301.64 2090.06C306.007 2089.83 315.902 2096.07 320.326 2098.16C323.487 2099.65 331.341 2096.55 333.235 2093.92L332.828 2091.36C327.791 2091.27 329.186 2096.12 324.64 2095.17L325.03 2091C319.59 2086.73 314.681 2092.7 308.228 2090.99L307.099 2089.77C314.916 2083.32 345.032 2094.13 353.32 2097.81L352.219 2097.73C356.435 2099.22 357.038 2098.68 359.605 2101.56L358.922 2102.9C356.084 2103.18 353.25 2103.5 350.42 2103.84C354.502 2107.68 399.759 2116.76 405.449 2115.13L406.778 2113.63C401.569 2110.4 397.602 2112.1 394.877 2108.74C396.491 2108.3 419.389 2108.14 421.869 2108.53C425.367 2112.9 418.847 2108.99 426.427 2114.23L426.041 2115.51C421.651 2115.93 420.717 2113.72 416.34 2114.61L415.637 2116.51L417.714 2116.83C423.005 2117.68 428.206 2119.19 433.512 2120.19C434.013 2122.36 434.016 2122.68 434.082 2124.92C435.779 2123.96 435.301 2124.18 436.65 2122.64C438.68 2124.19 438.006 2123.54 439.389 2125.77C441.988 2124.69 442.279 2124.36 444.59 2122.68C447.777 2123.3 448.651 2124.19 451.284 2126.02C454.24 2125.39 454.193 2125.38 456.215 2124.58C458.774 2123.55 465.79 2125.17 469.432 2125.34C477.243 2125.7 483.73 2124.33 491.387 2124.14C493.675 2124.08 496.392 2126.41 500.067 2126.38L620.236 2125.41C630.122 2125.38 644.153 2125.42 654.514 2126.28C655.683 2126.37 657.129 2122.81 660.11 2123.85L661.222 2126.03C666.923 2127.69 720.793 2124.48 730.332 2126.11C736.22 2127.11 745.348 2123.13 748.15 2124.84C750.226 2126.11 750.893 2127.94 754.719 2128.2C755.133 2127.89 759.046 2124.94 759.046 2124.94C794.462 2126.7 829.623 2124.49 865.121 2125.67C867 2125.74 869.988 2123.55 871.507 2122.42C872.554 2123.23 873.846 2124.22 875.384 2125.41C885.405 2125.81 899.166 2123.48 908.529 2126.45C913.299 2127.97 920.928 2124.57 926.028 2123.71C925.931 2123.72 933.691 2126.6 933.981 2126.59C947.223 2126.08 942.41 2122.81 955.7 2126.83C957.054 2125.75 958.401 2124.67 959.739 2123.58C960.386 2123.72 966.036 2126.39 963.89 2126.45C985.678 2125.81 1007.49 2126.32 1029.26 2125.35C1029.99 2125.32 1035.25 2127.77 1036.74 2128.24C1038.82 2127 1039.18 2126.81 1040.96 2125.2C1058.08 2125.74 1075.85 2126.89 1092.85 2125.34C1098.01 2124.87 1099.04 2127.91 1102.14 2127.65C1117.98 2126.32 1132.65 2124.48 1148.6 2126.33C1150.04 2126.5 1152.93 2124.49 1154.61 2125.03C1159.41 2124.99 1164.93 2126.7 1169.13 2125.24L1172.22 2122.42C1172.51 2122.96 1172.72 2123.55 1173.1 2124.03C1175.23 2126.75 1242.24 2126.26 1251.47 2125.83C1254.84 2125.68 1258.95 2124.65 1262.25 2125.07C1265.04 2125.41 1267.8 2126.39 1270.61 2126.53C1274.23 2126.71 1278.52 2125.55 1282.32 2125.48C1298.56 2125.21 1314.89 2125.12 1331.11 2124.4C1335.96 2124.19 1340.46 2126.16 1345.31 2126.3C1363.34 2126.83 1392.77 2122.46 1409.43 2126.25C1412.04 2126.85 1412.55 2126.48 1415.01 2125.72C1416.98 2125.11 1419.95 2123.96 1421.81 2125.24C1422.53 2125.73 1424.02 2127.37 1424.65 2128.04C1429.67 2126.55 1424.54 2125.24 1427.73 2125.23C1431.18 2125.21 1439.93 2125.22 1443.16 2125.22C1448.65 2128.22 1447.92 2127.62 1453.44 2124.5C1454.51 2124.8 1458.23 2127.25 1456.81 2127.55C1470.62 2124.59 1475.26 2124.09 1488.44 2126.17C1499.33 2127.89 1516.48 2124.04 1528.09 2125.54C1543.35 2125.55 1557.43 2126.34 1572.67 2125.16C1583.38 2124.33 1596.32 2120.05 1604.26 2125.55C1615.46 2125.05 1686.15 2123.8 1690.06 2126.18L1690.99 2125.97C1695.81 2124.91 1710.95 2122.67 1715.79 2122.56L1717.9 2124.89C1725.1 2124.09 1723.76 2119.02 1729.07 2119.68L1730.49 2122.55C1747.91 2114.86 1775.36 2114.56 1793.09 2104.55C1796.77 2102.47 1797.74 2109.45 1803.18 2101.18C1811.12 2100.89 1829.38 2100.84 1833.4 2092.44C1830.17 2090.81 1829.53 2091.33 1825.62 2091.36L1824.41 2090.37C1832.91 2086.86 1833.18 2086.67 1839.25 2094.1C1841.04 2093.87 1856.4 2085.8 1858.91 2083.59C1853.94 2080.66 1852.2 2086.3 1847.43 2084.25L1846.81 2082.29C1847.79 2081.42 1857.53 2075.51 1859.01 2074.96L1859.65 2075.75L1853.26 2080.13C1864.61 2080.77 1862.2 2072.38 1871.02 2076L1872.25 2077.98C1867.57 2079.98 1866.24 2077.54 1861.48 2081.32L1861.07 2082.36C1867.94 2082.09 1877.17 2079.71 1883.69 2077.44L1886.9 2072.19L1888.11 2071.94L1890.22 2074.27C1893.5 2074.23 1891.89 2074.66 1894.91 2072.07C1896.39 2067.91 1895.49 2068.26 1898.42 2066.63C1901.69 2067.88 1905.04 2069.8 1908.12 2068.88C1909.9 2065.84 1911.62 2062.78 1913.29 2059.68C1915.39 2060.54 1914.82 2060.79 1916.55 2063.48C1921.9 2059.63 1918.99 2058.84 1927.69 2056.43C1932.4 2050.09 1929.9 2047.97 1938.01 2048.48C1942.99 2045.33 1940.34 2042.86 1945.45 2039.36C1949.96 2039.59 1949.78 2040.34 1952.85 2038.39C1954.43 2034.82 1959.48 2025.72 1962.79 2023.91L1966.54 2024.48C1965.99 2010.63 1982.36 2009.99 1989.67 2000.47C1991.36 1998.28 1988.74 1993.52 1994.09 1990.86C2000.03 1992.68 2005.01 1991.68 2007.34 1985.09L2006.65 1982.1C2011.26 1976.63 2015.59 1978.31 2017.34 1975.68C2020.45 1971.02 2029.37 1956.18 2033.7 1953.12L2035.81 1954.3C2040.29 1948.61 2036.82 1943.03 2043.73 1943.62C2050.52 1936.36 2073.13 1894.12 2079.81 1883.3C2080.56 1882.1 2080.24 1879.26 2080.43 1878.27C2080.94 1876.27 2082.18 1874.24 2083.16 1872.44C2088.53 1862.68 2092.17 1852.05 2095.87 1841.57C2127.36 1752.47 2124.87 1658.2 2125.18 1564.77L2125.91 1398.94L2126.69 785.918L2126.77 593.93L2126.76 536.852C2126.76 529.166 2126.38 512.837 2127.34 505.934C2129.21 517.421 2129.09 539.398 2129.21 551.646L2129.56 624.214L2129.49 878.228L2129.28 1427.68L2129.16 1585.19C2129.17 1654.76 2130.66 1736.56 2113.33 1803.68C2085.13 1916.14 2013.2 2012.68 1913.5 2071.87C1788.9 2144.92 1650.97 2136.58 1511.81 2136.84L1191.47 2136.89L744.956 2136.96L583.037 2136.77C498.8 2136.49 420.74 2137.21 338.381 2115.49C228.584 2085.56 135.112 2013.36 78.4228 1914.69C48.523 1863.24 29.732 1806.1 23.2606 1746.95C16.9337 1692.13 16.6792 1639.4 16.6528 1584.37L16.7789 1453.46L17.0351 1028.96L17.0867 673.489C17.1319 605.554 16.0663 537.322 21.3447 469.614C22.8163 450.738 24.8569 414.288 29.6452 396.374Z"/><path fill="#404140" d="M880.455 494.947C888.983 490.826 897.051 488.405 906.58 488.208C941.932 487.478 977.747 487.867 1013.1 487.913L1210.61 487.973L1586.56 487.968L1706.21 487.74C1725.99 487.696 1770.11 485.485 1787.66 491.697C1791.76 493.167 1795.7 495.022 1799.44 497.239C1807.58 501.48 1819.36 511.675 1823.24 519.903C1833.9 535.785 1837.38 554.114 1833.77 572.891C1830.16 591.283 1819.35 607.47 1803.75 617.855C1795.38 623.422 1788.51 625.876 1779.01 628.73C1782.19 628.799 1783.07 628.652 1786.15 629.536L1786.28 630.64C1782.09 632.644 1771.61 633.993 1766.81 633.992C1676.83 633.983 1586.8 637.09 1496.85 635.148C1479.26 634.768 1465.98 632.632 1447.61 633.974L1448.1 634.028C1427.97 637.33 1399.66 634.364 1379.27 634.254L1226.19 633.368L993.17 633.235L934.377 633.273C918.102 633.437 904.331 634.666 888.122 632.401L890.942 631.225L890.122 630.213C886.286 629.612 885.714 629.074 882.176 627.136L881.096 626.536L880.006 628.847C874.501 628.741 864.29 622.082 860.351 618.206L860.905 618.071C865.37 619.971 867.818 620.972 871.911 623.567L872.738 624.102C865.937 617.712 857.133 610.158 850.636 603.538C847.861 599.068 846.617 593.035 842.743 589.306C836.799 583.586 836.118 575.862 840.374 569.502C839.722 545.984 840.949 533.056 855.778 513.859C861.798 506.074 870.923 497.878 880.455 494.947Z"/><path fill="#36362F" d="M1823.24 519.903C1833.9 535.785 1837.38 554.114 1833.77 572.891C1830.16 591.283 1819.35 607.47 1803.75 617.855C1795.38 623.422 1788.51 625.876 1779.01 628.73C1782.19 628.799 1783.07 628.652 1786.15 629.536L1786.28 630.64C1782.09 632.644 1771.61 633.993 1766.81 633.992C1676.83 633.983 1586.8 637.09 1496.85 635.148C1479.26 634.768 1465.98 632.632 1447.61 633.974L1448.1 634.028C1427.97 637.33 1399.66 634.364 1379.27 634.254L1226.19 633.368L993.17 633.235L934.377 633.273C918.102 633.437 904.331 634.666 888.122 632.401L890.942 631.225L890.122 630.213C886.286 629.612 885.714 629.074 882.176 627.136L881.096 626.536L880.006 628.847C874.501 628.741 864.29 622.082 860.351 618.206L860.905 618.071C865.37 619.971 867.818 620.972 871.911 623.567L872.738 624.102C865.937 617.712 857.133 610.158 850.636 603.538C847.861 599.068 846.617 593.035 842.743 589.306C836.799 583.586 836.118 575.862 840.374 569.502C843.494 581.393 846.725 592.436 854.748 602.157C865.703 616.588 881.788 626.254 899.672 629.154C902.119 629.546 905.207 629.618 907.709 629.558L901.598 627.525L901.502 626.711C906.613 626.619 911.609 626.119 916.7 625.688C912.723 625.547 910.229 626.171 907.387 624.364C919.514 624.474 930.677 622.152 942.934 622.857C942.93 624.747 942.901 623.713 943.039 625.984C945.837 627.163 955.054 626.907 958.029 625.834C955.526 624.495 956.053 625.064 954.177 623.117C959.686 622.026 983.386 623.355 990.785 623.612C986.103 623.834 968.895 624.092 965.595 626.151C980.945 626.712 993.865 628.149 1008.11 624.221C1008.72 624.054 1033.18 625.974 1037.22 625.899L1026.83 625.027C1036.24 624.352 1047.39 625.731 1057.19 625.502C1094.15 624.333 1131.14 624.041 1168.12 624.626C1177.11 624.75 1185.77 625.805 1194.44 625.985C1225.7 626.632 1265.05 623.449 1295.68 625.288L1295.25 625.484C1306.84 627.102 1322.36 626.361 1334.18 625.86L1333.73 625.738C1369.88 624.054 1402.74 626.689 1438.88 626.404L1699.47 623.39C1721.2 623.14 1778.29 625.657 1795.11 617.275C1818.66 605.702 1832.25 580.435 1828.91 554.405C1827.74 545.154 1820.28 526.89 1823.24 519.903Z"/><path fill="#F9EDCE" d="M840.374 569.502C843.494 581.393 846.725 592.436 854.748 602.157C865.703 616.588 881.788 626.254 899.672 629.154C902.119 629.546 905.207 629.618 907.709 629.558C970.721 631.16 1039.98 629.665 1103.68 629.674L1488.99 629.647L1683.95 629.727L1741.78 629.788C1752.9 629.796 1768.31 630.19 1779.01 628.73C1782.19 628.799 1783.07 628.652 1786.15 629.536L1786.28 630.64C1782.09 632.644 1771.61 633.993 1766.81 633.992C1676.83 633.983 1586.8 637.09 1496.85 635.148C1479.26 634.768 1465.98 632.632 1447.61 633.974L1448.1 634.028C1427.97 637.33 1399.66 634.364 1379.27 634.254L1226.19 633.368L993.17 633.235L934.377 633.273C918.102 633.437 904.331 634.666 888.122 632.401L890.942 631.225L890.122 630.213C886.286 629.612 885.714 629.074 882.176 627.136L881.096 626.536L880.006 628.847C874.501 628.741 864.29 622.082 860.351 618.206L860.905 618.071C865.37 619.971 867.818 620.972 871.911 623.567L872.738 624.102C865.937 617.712 857.133 610.158 850.636 603.538C847.861 599.068 846.617 593.035 842.743 589.306C836.799 583.586 836.118 575.862 840.374 569.502Z"/><path fill="#36362F" d="M880.455 494.947C888.983 490.826 897.051 488.405 906.58 488.208C941.932 487.478 977.747 487.867 1013.1 487.913L1210.61 487.973L1586.56 487.968L1706.21 487.74C1725.99 487.696 1770.11 485.485 1787.66 491.697C1791.76 493.167 1795.7 495.022 1799.44 497.239C1792.22 501.923 1784.92 496.388 1776.66 495.53C1765.95 494.419 1755.2 495.189 1744.5 494.994C1696.84 494.125 1649.13 492.943 1601.46 491.933C1587.79 491.645 1573.58 492.017 1559.89 492.101C1551.68 491.804 1542.73 494.388 1534.57 493.591C1501.28 490.335 1461.21 494.805 1428.56 492.088C1418.05 491.214 1322.38 491.797 1321.13 492.408L1330.59 492.575L1331.64 493.947C1307.23 491.232 1262.47 491.223 1236.33 492.001L1238.09 493.009C1202.91 489.408 1166.12 493.476 1131.48 493.427L962.882 494.274C951.477 494.349 944.756 491.854 937.236 492.006C928.636 498.337 924.659 493.117 914.256 494.749L913.852 493.671C918.104 491.42 921.665 493.321 926.939 492.133C915.237 491.837 901.422 490.269 890.415 494.548C886.024 496.256 884.587 496.996 880.455 494.947Z"/><path fill="#36362F" d="M855.778 513.859L858.168 517.519C846.842 535.944 843.28 558.107 848.262 579.153C851.03 590.771 854.677 592.241 857.124 599.173C855.956 601.107 856.411 600.891 854.748 602.157C846.725 592.436 843.494 581.393 840.374 569.502C839.722 545.984 840.949 533.056 855.778 513.859Z"/><path fill="#404140" d="M880.583 1537.37C881.116 1537.12 881.648 1536.86 882.181 1536.61C890.373 1532.89 899.229 1530.87 908.222 1530.65C962.113 1528.99 1022.56 1530.45 1076.96 1530.5L1388.13 1530.49L1640.73 1530.45C1684.22 1530.43 1728.21 1530.16 1771.72 1530.7C1778.2 1530.78 1783.84 1532.82 1789.86 1535.07C1804.89 1539.47 1817.85 1552.52 1825.25 1566.07C1834.83 1583.64 1837 1604.31 1831.27 1623.49C1828.08 1633.98 1821.47 1645.1 1813.44 1652.59C1809.03 1656.71 1796.4 1666.19 1790.94 1666.91C1772.74 1675.67 1718.24 1672.53 1695 1672.45L1582.33 1672.36L1217.52 1672.38L1008.36 1672.37L943.138 1672.46C931.552 1672.47 913.525 1672.93 902.467 1671.57C897.635 1671.36 892.632 1669.83 888.068 1668.23C869.91 1661.87 855.071 1648.47 846.888 1631.06C838.91 1614.07 837.956 1594.61 844.231 1576.91C850.669 1558.98 863.482 1545.54 880.583 1537.37Z"/><path fill="#36362F" d="M880.583 1537.37C881.116 1537.12 881.648 1536.86 882.181 1536.61C890.373 1532.89 899.229 1530.87 908.222 1530.65C962.113 1528.99 1022.56 1530.45 1076.96 1530.5L1388.13 1530.49L1640.73 1530.45C1684.22 1530.43 1728.21 1530.16 1771.72 1530.7C1778.2 1530.78 1783.84 1532.82 1789.86 1535.07C1785.78 1537.33 1780.65 1535.48 1774.95 1535.81C1764.09 1536.42 1752.84 1536.18 1741.94 1536.19L1622.52 1536.01L901.698 1535.68C889.211 1535.64 887.547 1542.15 880.583 1537.37Z"/><path fill="#36362F" d="M902.467 1671.57L901.676 1670.44C904.569 1668.18 916.148 1668.46 920.379 1668.41C992.764 1668.07 1065.15 1668.28 1137.53 1669.04L1420.67 1668.77L1691.51 1668.88C1710.71 1668.8 1729.32 1667.63 1748.75 1667.98L1748.31 1668.32C1756.93 1668.94 1781.02 1667.66 1788.6 1665.34L1790.94 1666.91C1772.74 1675.67 1718.24 1672.53 1695 1672.45L1582.33 1672.36L1217.52 1672.38L1008.36 1672.37L943.138 1672.46C931.552 1672.47 913.525 1672.93 902.467 1671.57Z"/><path fill="#404140" d="M1827.33 1112.68C1825.29 1121.65 1814.07 1131.84 1806.87 1137.34C1786.14 1153.2 1762.94 1151.61 1738.31 1151.26C1723.24 1151.05 1708.11 1151.11 1693.05 1151.07L1512.85 1151L1103.21 1150.99L974.367 1151.1C942.633 1151.14 898.511 1156.38 871.588 1139.07C856.12 1129.18 845.194 1113.56 841.195 1095.64C837.098 1076.31 840.959 1056.14 851.905 1039.69C873.192 1007.86 905.341 1009.17 939.19 1009.22L993.567 1009.33L1187.71 1009.35L1575.98 1009.42L1697.62 1009.35C1724.97 1009.26 1777.73 1004.38 1799.46 1019.06C1803.24 1021.35 1805.79 1022.58 1808.85 1025.7C1817.07 1031.26 1825.73 1043.07 1828.82 1052.5C1836.07 1069.29 1838.21 1097.02 1827.33 1112.68Z"/><path fill="#36362F" d="M1828.82 1052.5C1836.07 1069.29 1838.21 1097.02 1827.33 1112.68C1825.67 1111.57 1826.29 1112.08 1825.31 1110.06C1829.57 1089.53 1831.65 1075.18 1826.25 1054.44L1828.82 1052.5Z"/><path fill="#36362F" d="M1799.46 1019.06C1803.24 1021.35 1805.79 1022.58 1808.85 1025.7C1806.21 1028.34 1802.08 1028.81 1798.5 1028.93C1795.58 1027.06 1796.41 1028.33 1795.69 1025.16L1798.45 1021.34L1797.78 1020.85L1799.46 1019.06Z"/><path fill="#D49F40" d="M368.112 1735.77C350.804 1736.12 336.71 1703.4 324.669 1693.65C321.076 1684.24 307.333 1638.96 307.574 1630.54C308.09 1612.56 305.177 1572.11 308.685 1556.06L310.754 1555.48C311.466 1558.5 310.589 1559.71 309.653 1563.03L310.763 1563.53C314.713 1557.73 311.195 1554.6 312.67 1550.82C319.23 1534.03 324.821 1511.84 335.714 1497.22C343.601 1486.63 357.631 1475.26 367.783 1467.01C372.477 1463.52 380.392 1453 384.949 1450.48C401.064 1441.56 417.89 1430.93 434.471 1423.18C445.906 1417.84 461.916 1415.72 474.391 1413.84L469.956 1413.71C489.357 1409.55 501.528 1412.48 521.481 1410.81L523.41 1412.35C521.24 1414.34 520.941 1413.86 517.67 1414.64C520.596 1414.94 521.647 1415.12 524.359 1416.24C523.656 1416.4 531.546 1414.59 530.185 1414.54C542.511 1415.03 574.458 1422.67 584.074 1430.58L583.104 1432.12C584.827 1434.22 584.822 1434.01 587.226 1434.69C602.761 1439.06 612.109 1455.69 624.992 1464.84C626.513 1465.92 635.504 1475.08 636.443 1476.52C644.486 1488.86 673.594 1505.47 667.692 1520.88C668.397 1523.56 668.202 1523.9 670.005 1525.9L670.715 1521.26C676.579 1522.61 680.514 1546.08 681.155 1551.8L683.472 1551.53C685.367 1556.18 681.496 1567.38 682.331 1571.39C689.446 1605.53 684.564 1642.26 676.382 1675.87C675.798 1678.26 671.978 1679.66 669.853 1680.68L668.983 1682.6C669.849 1684.51 671.278 1686.52 669.619 1688.55C657.021 1703.94 644.904 1720.66 632.521 1736.03C619.975 1751.61 591.902 1760.91 577.706 1775.23C572.584 1780.4 551.424 1783.92 543.742 1785.29L544.024 1786.53L545.549 1787.33C539.833 1791.26 540.056 1784.51 535.247 1791.42L533.939 1788.66C514.213 1791.02 489.878 1791.22 470.05 1788.14C465.478 1787.44 459.108 1790.58 453.091 1788.59C451.866 1787.29 450.65 1785.99 449.446 1784.67C446.891 1785.16 446.8 1785.46 444.566 1786.9C429.328 1781.24 400.652 1767.81 391.439 1754.28C389.851 1752.2 371.574 1738.52 368.112 1735.77Z"/><path fill="#F9EDCE" d="M368.112 1735.77C350.804 1736.12 336.71 1703.4 324.669 1693.65C321.076 1684.24 307.333 1638.96 307.574 1630.54C308.09 1612.56 305.177 1572.11 308.685 1556.06L310.754 1555.48C311.466 1558.5 310.589 1559.71 309.653 1563.03L310.763 1563.53C314.713 1557.73 311.195 1554.6 312.67 1550.82C319.23 1534.03 324.821 1511.84 335.714 1497.22C343.601 1486.63 357.631 1475.26 367.783 1467.01C372.477 1463.52 380.392 1453 384.949 1450.48C401.064 1441.56 417.89 1430.93 434.471 1423.18C445.906 1417.84 461.916 1415.72 474.391 1413.84L469.956 1413.71C489.357 1409.55 501.528 1412.48 521.481 1410.81L523.41 1412.35C521.24 1414.34 520.941 1413.86 517.67 1414.64C520.596 1414.94 521.647 1415.12 524.359 1416.24C523.656 1416.4 531.546 1414.59 530.185 1414.54C542.511 1415.03 574.458 1422.67 584.074 1430.58L583.104 1432.12C584.827 1434.22 584.822 1434.01 587.226 1434.69C602.761 1439.06 612.109 1455.69 624.992 1464.84C626.513 1465.92 635.504 1475.08 636.443 1476.52C644.486 1488.86 673.594 1505.47 667.692 1520.88C668.397 1523.56 668.202 1523.9 670.005 1525.9L670.715 1521.26C676.579 1522.61 680.514 1546.08 681.155 1551.8L683.472 1551.53C685.367 1556.18 681.496 1567.38 682.331 1571.39C689.446 1605.53 684.564 1642.26 676.382 1675.87C675.798 1678.26 671.978 1679.66 669.853 1680.68L668.983 1682.6C669.849 1684.51 671.278 1686.52 669.619 1688.55C657.021 1703.94 644.904 1720.66 632.521 1736.03C619.975 1751.61 591.902 1760.91 577.706 1775.23C572.584 1780.4 551.424 1783.92 543.742 1785.29L544.024 1786.53L545.549 1787.33C539.833 1791.26 540.056 1784.51 535.247 1791.42L533.939 1788.66C514.213 1791.02 489.878 1791.22 470.05 1788.14C465.478 1787.44 459.108 1790.58 453.091 1788.59C451.866 1787.29 450.65 1785.99 449.446 1784.67C446.891 1785.16 446.8 1785.46 444.566 1786.9C429.328 1781.24 400.652 1767.81 391.439 1754.28C397.332 1757.48 402.969 1761.03 408.842 1764.28C451.078 1787.66 503.268 1791.93 549.404 1778.52C596.935 1765.19 636.957 1733.02 660.2 1689.47C684.183 1645.23 687.971 1596.92 673.841 1548.98C645.363 1452.85 541.661 1396.75 445.406 1425.39C397.952 1439.49 357.934 1471.66 333.97 1514.98C304.622 1569.24 304.905 1637.13 334.213 1691.73C336.526 1696.04 341.987 1705.01 345.242 1708.46C352.159 1719.39 359.059 1726.48 368.112 1735.77Z"/><path fill="#CCA252" d="M673.841 1548.98C687.971 1596.92 684.183 1645.23 660.2 1689.47C636.957 1733.02 596.935 1765.19 549.404 1778.52C503.268 1791.93 451.078 1787.66 408.842 1764.28C402.969 1761.03 397.332 1757.48 391.439 1754.28C389.851 1752.2 371.574 1738.52 368.112 1735.77C359.059 1726.48 352.159 1719.39 345.242 1708.46C352.716 1711.32 360.189 1724.9 368.609 1730.35C387.192 1742.36 410.343 1759.1 429.471 1769.31C456.263 1783.63 516.849 1782.96 545.68 1775.65C568.02 1769.99 602.312 1747.96 620.269 1733.09C631.974 1722.56 649.445 1698.24 658.682 1685.04C660.656 1682.22 672.025 1655.38 671.993 1654.57C671.568 1643.73 678.486 1595.98 676.266 1588.79C672.159 1585.3 672.743 1585.37 673.708 1580.28L674.984 1580L676.847 1583.64C676.748 1580.92 676.945 1578.03 676.171 1575.41C672.531 1572.44 673.55 1554.26 673.841 1548.98Z"/><path fill="#404140" d="M423.037 911.146C454.147 895.386 500.849 893.459 534.724 899.541C584.046 911.016 620.069 935.151 649.447 976.601C656.695 974.172 650.658 972.697 656.008 972.701C659.502 978.394 666.3 989.676 667.922 996.051C667.026 998.89 667.046 998.893 665.447 1001.39L665.329 1005.14C668.6 1013.42 671.5 1020.76 674.153 1029.3C675.52 1034.75 677.12 1040.54 678.075 1046.04C683.855 1072.19 682.408 1107.5 673.661 1132.81L671.644 1138.33C667.723 1150.58 663.649 1159.09 657.818 1170.61C656.714 1180.69 654.114 1183.01 648.177 1191.12L648.695 1191.53L653.015 1190.15C653.93 1193.86 649.421 1200.77 645.512 1201.83C642.185 1198.55 644.662 1198.62 641.86 1194.8C626.016 1211.98 597.94 1239.6 575.028 1246.22C567.471 1250.4 555.149 1255.34 546.663 1257.03C527.21 1263.11 504.794 1263.69 484.567 1262.94C424.316 1260.72 360.417 1221.38 333.919 1166.35C329.922 1160.13 327.808 1154.3 325.239 1147.45C320.448 1138.02 317.454 1124.27 314.975 1113.79C311.354 1088.04 310.503 1071.05 315.383 1045.14C317.666 1032.52 320.595 1022.93 325.298 1011.06L328.419 1003.14C327.897 999.071 325.524 999.436 323.89 995.702C325.924 991.768 327.047 989.608 329.529 985.979C333.324 988.588 332.061 988.511 336.048 988.688L338.051 987.453C340.917 978.576 352.077 965.073 358.746 958.481C362.945 952.779 370.973 945.462 376.288 940.838C377.06 939.806 386.825 931.683 388.569 930.094C388.688 926.459 389.216 926.818 391.837 924.057C389.127 923.535 390.227 924.22 388.273 922.42C389.416 919.306 388.572 920.753 391.827 918.557C397.982 917.691 398.073 918.494 404.07 920.3C410.291 917.043 416.617 913.99 423.037 911.146Z"/><path fill="#36362F" d="M423.037 911.146C454.147 895.386 500.849 893.459 534.724 899.541L536.144 902.125C529.376 903.254 509.607 901.249 501.066 901.062C484.028 900.688 467.322 902.789 450.425 905.022C443.501 905.936 427.727 913.958 423.643 911.992L423.037 911.146Z"/><path fill="#36362F" d="M315.383 1045.14C320.687 1052.69 314.886 1084.47 317.307 1094.86C317.888 1097.35 317.734 1107.86 317.559 1110.55C316.294 1112.8 316.909 1112.11 314.975 1113.79C311.354 1088.04 310.503 1071.05 315.383 1045.14Z"/><path fill="#36362F" d="M328.419 1003.14C327.897 999.071 325.524 999.436 323.89 995.702C325.924 991.768 327.047 989.608 329.529 985.979C333.324 988.588 332.061 988.511 336.048 988.688L338.051 987.453L339.211 988.833C336.941 996.804 335.584 1011.6 326.947 1015.02C325.188 1013.04 325.95 1014.06 325.298 1011.06L328.419 1003.14Z"/><path fill="#F9EDCE" d="M328.419 1003.14C327.897 999.071 325.524 999.436 323.89 995.702C325.924 991.768 327.047 989.608 329.529 985.979C333.324 988.588 332.061 988.511 336.048 988.688C333.777 993.795 331.148 998.274 328.419 1003.14Z"/><path fill="#F9EDCE" d="M649.447 976.601C656.695 974.172 650.658 972.697 656.008 972.701C659.502 978.394 666.3 989.676 667.922 996.051C667.026 998.89 667.046 998.893 665.447 1001.39L665.329 1005.14C660.273 994.245 655.675 986.833 649.447 976.601Z"/><path fill="#36362F" d="M546.663 1257.03C542.484 1256.82 540.368 1257.73 535.902 1256.64L536.808 1255.43L540.378 1255.97C544.465 1254 556.844 1251.62 558.298 1250.52L557.673 1249.01C552.881 1250.92 543.262 1251.54 538.497 1249.43C544.53 1248.08 564.077 1245.74 572.664 1244.32L575.028 1246.22C567.471 1250.4 555.149 1255.34 546.663 1257.03Z"/><path fill="#F9EDCE" d="M657.818 1170.61C656.714 1180.69 654.114 1183.01 648.177 1191.12L648.695 1191.53L653.015 1190.15C653.93 1193.86 649.421 1200.77 645.512 1201.83C642.185 1198.55 644.662 1198.62 641.86 1194.8C643.126 1192.3 654.912 1175.34 657.818 1170.61Z"/><path fill="#36362F" d="M376.288 940.838L378.141 943.119C375.459 947.521 366.102 959.515 360.767 960.22L358.746 958.481C362.945 952.779 370.973 945.462 376.288 940.838Z"/><path fill="#F9EDCE" d="M388.569 930.094C388.688 926.459 389.216 926.818 391.837 924.057C389.127 923.535 390.227 924.22 388.273 922.42C389.416 919.306 388.572 920.753 391.827 918.557C397.982 917.691 398.073 918.494 404.07 920.3C399.542 923.173 393.077 927.573 388.569 930.094Z"/><path fill="#36362F" d="M678.075 1046.04C677.82 1050.27 677.887 1055.51 677.818 1059.83C676.379 1056.14 671.888 1037.46 671.533 1032.83C671.386 1030.91 672.383 1030.77 674.153 1029.3C675.52 1034.75 677.12 1040.54 678.075 1046.04Z"/><path fill="#36362F" d="M325.239 1147.45L326.416 1145.29C330.147 1150.97 339.188 1158.98 333.919 1166.35C329.922 1160.13 327.808 1154.3 325.239 1147.45Z"/><path fill="#36362F" d="M671.644 1138.33C667.897 1134.68 669.359 1127.47 672.72 1124.53C674.494 1127.75 673.759 1128.47 673.661 1132.81L671.644 1138.33Z"/><path fill="#F2E8CE" d="M485.632 969.261C522.209 968.908 546.11 974.985 574.039 1001.21C583.548 1010.14 597.835 1031.73 600.647 1044.18C610.06 1066.45 609.079 1094.43 600.685 1116.91C591.925 1143.34 573.036 1165.21 548.167 1177.72C534.886 1184.52 522.955 1187.75 508.214 1189.65L485.541 1189.67C454.047 1184.17 438.149 1177.01 415.139 1154.31C409.046 1147.48 404.923 1141.36 400.322 1133.52C389.245 1114.57 387.244 1098.53 385.973 1077.02C387.131 1065.57 388.29 1057.69 391.576 1046.68C394.45 1037.37 398.011 1030.55 402.446 1021.92C406.431 1016.16 410.229 1011.28 414.562 1005.78C438.007 980.841 453.257 976.433 484.955 969.251L485.632 969.261Z"/><path fill="#F9EDCE" d="M600.685 1116.91L599.37 1115.36C599.469 1101.61 600.43 1101.73 603.526 1088.84C605.392 1081.06 602.251 1061.51 600.857 1053.69C600.193 1049.96 597.801 1048.99 600.647 1044.18C610.06 1066.45 609.079 1094.43 600.685 1116.91Z"/><path fill="#F9EDCE" d="M400.322 1133.52C403.934 1135.31 404.353 1135.16 406.565 1138.61L407.893 1137.14L407.01 1135.85C404.863 1132.68 403.435 1131.23 402.913 1127.47L403.596 1126.79C408.515 1138.28 415.799 1131.67 418.741 1147.52L418.35 1148.29L416.983 1146.94C416.138 1149.59 415.368 1151.52 415.139 1154.31C409.046 1147.48 404.923 1141.36 400.322 1133.52Z"/><path fill="#F9EDCE" d="M414.562 1005.78C415.589 1007.27 417.988 1009.83 417.621 1011.46C416.36 1017.1 413.375 1023.54 407.515 1025.49C404.597 1024.51 404.665 1024.18 402.446 1021.92C406.431 1016.16 410.229 1011.28 414.562 1005.78Z"/><path fill="#36362F" d="M485.541 1189.67L508.214 1189.65C511.648 1190.19 515.232 1190.03 518.726 1190.02L519.083 1190.7L517.106 1191.06C515.646 1193.85 515.582 1194.55 513.056 1196.45C502.712 1197.17 479.582 1197.55 470.277 1194.05L470.308 1192.74C475.979 1189.66 479.231 1189.92 485.541 1189.67Z"/><path fill="#36362F" d="M385.973 1077.02C384.739 1078.73 384.587 1086.22 383.971 1089.86C381.763 1082.13 384.165 1058.94 385.009 1050.07C385.72 1042.61 384.024 1034.01 384.973 1027.37C388.007 1033.76 386.259 1040.73 390.162 1043.79L390.058 1040.42C391.987 1042.16 391.332 1043.11 391.576 1046.68C388.29 1057.69 387.131 1065.57 385.973 1077.02Z"/><path fill="#36362F" d="M484.955 969.251L483.845 969.141C479.543 968.758 479.282 968.626 475.33 969.951L473.658 968.352C477.211 964.007 503.96 960.246 508.862 964.57C505.978 965.643 500.715 965.389 497.45 965.431L497.35 966.129C504.011 966.198 510.669 966.459 517.315 966.91L517.777 968.051C509.701 968.334 491.436 966.222 485.632 969.261L484.955 969.251Z"/><path fill="#91AA92" d="M493.054 373.787C594.917 371.604 679.303 452.331 681.633 554.191C683.963 656.051 603.358 740.553 501.501 743.031C399.437 745.513 314.724 664.707 312.389 562.639C310.054 460.571 390.982 375.975 493.054 373.787Z"/><path fill="#F9EDCE" d="M937.369 482.499L1505.1 482.435C1533.13 482.49 1733.86 480.644 1742.06 484.631C1736.62 485.848 1687.09 485.773 1679.42 485.786L1525.19 485.796L897.315 485.87C898.204 485.088 899.094 484.306 899.983 483.524C908.699 482.278 930.141 482.545 937.369 482.499Z"/><path fill="#F2E8CE" d="M1576.02 2109.07L1577.39 2109.81C1580.48 2109.48 1595.41 2108.72 1597.72 2109.54C1597.3 2111.14 1597.47 2110.24 1597.31 2112.26L1600.94 2112.58C1600.23 2113.97 1600.7 2113.24 1599.38 2114.67C1596.7 2115.47 1596.08 2115.07 1593.17 2114.8C1592.94 2115.67 1592.72 2116.55 1592.49 2117.43C1577.13 2116.11 1543.08 2116.9 1526.92 2116.76C1520.58 2115.29 1516.96 2118.47 1510.15 2115.45L1509.91 2114.05C1512.37 2112.78 1515.98 2113.78 1519.23 2114.15L1519.74 2113.17C1517.13 2112.6 1516.95 2112.69 1514.66 2111.38C1518.69 2106.16 1532.53 2115.52 1540.47 2113.53L1540.23 2112.26L1536.52 2111L1535.97 2109.77C1543.63 2109.67 1571.73 2110.08 1576.02 2109.07Z"/><path fill="#F2E8CE" d="M599.36 2109.67L613.069 2109.5C612.715 2112.67 612.265 2111.35 613.675 2113.76L616.01 2113.95C617.319 2112.79 620.436 2109.89 621.959 2109.89C629.945 2109.92 624.157 2110.18 629.452 2113.99C638.52 2110.15 633.501 2107.92 644.7 2112.73C644.583 2112.68 645.775 2109.78 648.165 2109.66C652.228 2109.45 656.992 2111.09 660.053 2113.56L658.761 2115.6C654.798 2113.48 654.391 2113.22 650.077 2112.24L648.609 2113.26L647.594 2112.47L651.412 2115.7L650.767 2116.59C644.605 2116.63 606.506 2117.41 602.566 2116.11C604.318 2114.06 608.237 2114.02 611.525 2113.42C606.719 2110.55 603.427 2115.88 599.36 2109.67Z"/></svg>