<svg role="img" viewBox="0 0 855 250.3" width="855" height="250.3" xml:space="preserve" xmlns="http://www.w3.org/2000/svg"><title>Vikunja</title><desc>Vikunja's Logo: A Llama one the left, with the text "Vikunja" on the right.</desc><path style="fill:#e40303;fill-opacity:1;fill-rule:evenodd;stroke-width:.236128" d="M134.645.47a124.97 125 0 0 0-92.509 41.206h185.235A124.97 125 0 0 0 134.645.471Z"/><path style="fill:#ff8c00;fill-opacity:1;fill-rule:evenodd;stroke-width:.236083" d="M42.136 41.676A124.923 125 0 0 0 17.4 83.221h234.85a124.923 125 0 0 0-24.852-41.545Z"/><path style="fill:#ffed00;fill-opacity:1;fill-rule:evenodd;stroke-width:.236156" d="M17.451 83.187a125 126 0 0 0-7.406 37.572v3.975h249.223v-9.04a125 125 0 0 0-7-32.507z"/><path style="fill:#008026;fill-opacity:1;fill-rule:evenodd;stroke-width:.23616" d="M10.045 124.699v5.947a125.004 125 0 0 0 6.772 35.6h235.72a125.004 125 0 0 0 6.738-35.116v-6.43z"/>	<path style="fill:#004dff;fill-opacity:1;fill-rule:evenodd;stroke-width:.236156" d="M16.817 166.212a125 125 0 0 0 23.899 41.545h187.883a125 125 0 0 0 23.896-41.545z"/><path style="fill:#750787;fill-opacity:1;fill-rule:evenodd;stroke-width:.236498" d="M40.74 207.723a125.363 125 0 0 0 82.8 41.547h22.275a125.363 125 0 0 0 82.802-41.547z"/><path fill="#fff" d="M173.2 157.8c4.6-13.6 12.3-17.8 13.2-38.7.4-7.4-1.9-30.8-1.9-30.8s3.7-9.4-3.3-19.8c-10.9-16.2-33.2-17.3-44.9-17.3-11.7 0-33.8 1-44.6 17.3-7 10.4-3.4 19.8-3.4 19.8L86.2 111c-.3 2.5 0 12.3.3 14.7.5 4.3 1.9 8.5 3.3 12.5 1.9 5.2 4.8 10.4 7 15.7 6.8 16 1.1 35.8 1.5 53.1.3 12.2-3.014 26.556-4.114 38.456 37.653 7.978 51.151 6.453 86 1.59-2.6-15-6.486-34.346-6.986-39.746-1.4-16.4-5.4-33.8 0-49.5"/><path fill="#fff" d="M87.4 62.2c.2 2.5.4 5 1 7.3.3.8.6 2.6 1.6 2.9 1.1.3 3.3-1.1 4.2-1.7l4.7-3.6 3.1-2.2a25.9 25.9 0 0 0 5.6-6.7c.7-1 4.8-1.7 5.5-2.7.7-1 .1-2.4.1-3.7 0-9.7.6-19.2.8-28.6.2-6.5 2.8-14.2-7-11.2-20.7 6.5-20.5 35.3-19.6 50.2m91.7 13.6-.8-.7a27 27 0 0 1-3.3-2.7l-3.6-3.8-3.3-3.3-1.9-2.4-.7-1.4c-.3-.6-5.2-1.3-4.7-2 .8-1 2.7-2 3.1-3.2 2.2-6.3 3.2-31.7 3.5-38.2.7-16.6 15.3.8 17.8 7.5 7.4 19.4 3 33.6-6 50.2"/><path fill="#f1e6d3" d="M159.3 139.6c0-9.6-1.2-13.4-6.6-18.1-3.3-3-7.2-4-13.4-4a17.7 17.7 0 0 0-14 5.2c-4.8 5-6.1 8-6.1 17.6 0 5.2 5.5 16.6 7.2 19.3 2.8 4.7 7.9 6.3 12.9 6 5 .3 10-1.3 12.8-6a55 55 0 0 0 7.2-20"/><path fill="#f1d7d4" d="M95.7 71c-1.3-11.1-5-31.1 8-43 1.4-1.3 1.8 3.2 2 5 .4 2.4 0 9.5 0 12 .2 4.7 1.1 7.1.7 9.3-1.3 5.8-2.3 5.4-3.5 9-2.3 7-6.9 10.8-7.2 7.7m81.1-2.2c1.4 2.4 4.8-10.4 6-16 1-5.2 2.3-12.1.5-17.3-1-2.8-7-11-7.6-8.2-.3 1-.4 9.2-1.1 13.1-.8 4.8-2.3 9.6-2.3 14.5 0 11 3.2 11.4 4.5 14"/><path fill="#faeee0" d="M134 200.4c-.2.8-2.4 1.5-3.2 1.7-2 .6-3.6-.9-4.7-2.2-1.5-1.7-1.5-4.6-2.1-6.7-.4-1.2-2.5-1.4-3.2-.2-2.1 3.8-10.5-3.5-8.6-5.9 1.3-1.6-1.8-3-3-1.4-3.8 4.7 6.3 13.4 12.1 11 .3 1.2.5 2.4 1 3.5 1 2.2 3.2 3.6 5.4 4.8 3 1.6 8.8-1.2 9.7-4 .6-1.8-2.7-2.5-3.4-.6m26.7-28.4c.3 1.3.4 5.7-2 3.3-1-1-3-.4-3 1-.3 3-3.3 3-6 2.1-2-.7-3.1 2.2-1 2.9 3.8 1.3 8 .6 9.7-2.3 1.3.6 2.8.8 4-.4 2-2 2.3-4.7 1.7-7.2-.4-1.9-3.8-1.3-3.4.6m6.2 63.5c-1 1.9-2.6 1.7-4.4 1-1.3-.6-3 .3-2.5 1.7.8 2.6-2.6 3.4-4.9 2.5-2-.9-3.7 1.7-1.7 2.6 4.1 1.7 9.3.2 10-3.4 2.7.4 5.2-.3 6.5-2.9.9-1.8-2.1-3.3-3-1.5M140.2 92.2c-.4 2.6-5.3-.5-6.5-1.3-1-.7-2.5-.3-2.6 1-.2 1.6-2.4 1.1-3.4 1-2-.5-3.6-1.7-3.6-3.5 0-1.7 1-3.6 1.6-5.2.4-1-1.1-2.2-2.2-1.5-2 1.3-11.5 2.4-7.7-1.8 1.2-1.3-1-3.2-2.2-1.8-1.7 1.9-3 6.3.9 7.2 2 .5 4.9.5 7.3 0-1 3.2-1.2 6.3 3 8.4 3 1.4 6.9 1.4 8.6-.8 3.5 1.9 9 3.7 9.8-1 .2-1.7-2.7-2.4-3-.7"/><path fill="#494949" d="M123.8 152.9c5 .4 10.2 1.6 15.4 1.4 3.3-.1 6.7-.6 10-1 2.3-.4 5.2-.8 6.8-2.6.1 5.9-12 7.7-16.8 7.8a24 24 0 0 1-15.4-5.6"/><path fill="#494949" d="M137.6 140.7c-.6 3.7-.7 7.6-.4 11.3.1 1-.1 3.4 1.2 3.9 1 .4 2.4-.4 2.5-1.4.3-1.6-.4-3.6-.4-5.3 0-1.9 0-3.8.2-5.8.1-1.1.8-2.7-.6-3.5-1-.6-2.3-.3-2.5.8"/><path fill="#494949" d="M147.5 131.6c-3 .1-5.9 1.8-8.2 3.5-2-1.4-5.2-2.7-7.9-2-1.5.5-.1 1 .5 1.4 1.2.8 2.2 1.8 3.1 3 1.4 1.5 2.6 3.3 4 4.8 1-.7 2-1.4 2.8-2.2l4.2-5.6 1-1.4c.4-.4 1.5-1.2.5-1.5"/><path fill="#2c3844" d="M108.7 110.8c1.5-4 3.1-9 7.3-8.1 3.1.7 7.3 11.2 4.6 10.1-1.4-.5-2.6-5.3-5.3-6-1.8-.3-4.2 5.7-6.5 6.3-1.2.3-.6-1.3-.1-2.3m44.6 0c1.5-4 3.2-9 7.3-8.1 3.2.7 7.4 11.2 4.7 10.1-1.5-.5-2.6-5.3-5.4-6-1.7-.3-4.1 5.7-6.5 6.3-1 .3-.5-1.3 0-2.3"/><g style="line-height:1.25" word-spacing="0"><path d="M3302.3-1549.4c3.4 2.3 8.1 5.8 10.4 7h1.2s1.2 0 1.2 1.1c2.3 0 7 1.2 9.3 2.4h2.3c3.5 1.1 8.1 1.1 11.6 1.1s7 0 11.7-1.1h2.3c3.5-1.2 5.8-2.4 9.3-2.4 1.1-1.1 1.1-1.1 2.3-1.1 3.5-1.2 7-4.7 9.3-5.8l2.3-1.2c2.4-2.3 4.7-3.5 7-5.8 1.2-1.2 1.2-1.2 2.4-3.5 1.1-2.3 4.6-4.7 5.8-7 1.1 0 1.1 0 1.1-1.2 2.4-2.3 3.5-7 4.7-9.3l287.3-679.4a63.9 63.9 0 0 0-34.9-82.6 64 64 0 0 0-83.7 33.8l-226.9 538.6-226.8-538.6a62.7 62.7 0 0 0-82.6-33.8 62 62 0 0 0-35 82.6l285 679.4c2.4 2.4 4.7 7 5.9 9.3 0 1.2 1.2 1.2 1.2 1.2 1.1 2.3 3.5 4.7 5.8 7 0 2.3 1.1 2.3 1.1 3.5 3.5 2.3 5.9 3.5 8.2 5.8h1.2zm634.5-568.9a62.1 62.1 0 0 0-62.8 64v453.7c0 35 28 62.8 62.8 62.8 36.1 0 62.9-27.9 62.9-62.8v-453.7c0-37.2-26.8-64-62.9-64zm62.9-171a61.8 61.8 0 0 0-62.9-62.8c-34.9 0-62.8 27.9-62.8 62.8v24.4c0 35 28 64 62.8 64 36.1 0 62.9-29 62.9-64zm264.3 751.5c36.1 0 65.2-29 65.2-64V-1704l64-64 171 207a61.7 61.7 0 0 0 48.9 23.3c14 0 29-4.6 40.7-15.1a64.5 64.5 0 0 0 9.3-90.7L4483.9-1859l174.5-174.5a63.2 63.2 0 0 0 0-90.7 65.3 65.3 0 0 0-90.7 0l-238.5 238.5v-402.6c0-34.9-29-64-65.2-64-36 0-64 29.1-64 64v686.4c0 35 28 64 64 64zm1052.6-242v-278c0-32.6-30.2-61.7-62.8-61.7a61 61 0 0 0-60.5 61.7v278a120.7 120.7 0 0 1-122.1 118.7 117.7 117.7 0 0 1-118.7-118.7v-278a62 62 0 0 0-61.6-61.7c-33.8 0-61.7 29.1-61.7 61.7v278c0 132.7 109.3 242 242 242 133.8 0 245.4-109.3 245.4-242zm452.4-339.7c-45.3 0-88.4 14-123.3 36.1a63 63 0 0 0-57-36c-34.9 0-61.7 27.9-61.7 61.6v458.3a61.3 61.3 0 0 0 61.7 61.7 63.6 63.6 0 0 0 61.7-50c2.3-4.7 2.3-8.1 2.3-11.6v-278c0-65.2 51.2-117.6 116.3-117.6 66.3 0 121 52.4 121 117.5v278c0 33.8 29.1 61.7 61.7 61.7a61 61 0 0 0 60.5-61.6v-278c0-131.5-108.2-242-243.2-242zm486.6-80.2a64.3 64.3 0 0 0 62.9-64v-23.3c0-37.2-28-64-62.9-64a63 63 0 0 0-64 64v23.3c0 33.7 29.1 64 64 64zm-65.1 867.8c69.8 0 125.6-57 125.6-125.6v-598c0-36-26.7-64-62.8-64-33.7 0-62.8 28-62.8 64v598c-37.2 0-64 28-64 61.7 0 37.2 26.8 64 64 64zm808-724.7c0-35-28-62.9-61.7-62.9-30.2 0-53.5 22.1-60.5 51.2a265.2 265.2 0 0 0-154.7-51.2 268 268 0 0 0-197.8 87.3c-50 52.3-79 124.5-79 204.7 0 79.2 29 151.3 79 204.8 50 52.4 118.7 85 197.8 85 58.2 0 110.5-18.7 154.7-50.1 7 28 30.3 50 60.5 50a62 62 0 0 0 61.7-61.6v-228zm-168.7 349c-28 29-67.5 45.3-108.2 45.3-41.9 0-81.4-16.2-108.2-45.3-28-30.3-44.2-72.2-44.2-119.9 0-48.8 16.3-90.7 44.2-119.8a140.3 140.3 0 0 1 108.2-47.7c40.7 0 80.3 16.3 108.2 47.7 28 29.1 45.4 71 45.4 119.8 0 47.7-17.5 89.6-45.4 119.9z" style="-inkscape-font-specification:'Quicksand Bold'" transform="translate(-63.6 371.7) scale(.12982)" fill="CurrentColor" font-family="Quicksand" font-size="1163.4" font-weight="700" letter-spacing="0"/></g></svg>
