<svg xmlns="http://www.w3.org/2000/svg" role="img" viewBox="0 0 872.6 256.8" width="872.6" height="256.8" xml:space="preserve"><title>Vikunja</title><desc>Vikunja's Logo: A Llama one the left, with the text "Vikunja" on the right.</desc><path fill="#196aff" d="M226.9 46.8A126 126 0 0 0 128 0a127.2 127.2 0 0 0-99 46.8A127 127 0 0 0 0 128c0 34.2 13.3 66.3 37.5 90.5A127.2 127.2 0 0 0 128 256c34.2 0 66.3-13.3 90.5-37.5A127.2 127.2 0 0 0 256 128a130 130 0 0 0-29.1-81.2"/><path fill="#fff" d="M167.6 162.1c4.8-14 12.6-18.2 13.6-39.8.4-7.5-2-31.6-2-31.6s3.8-9.6-3.4-20.3c-11.1-16.7-34-17.8-46-17.8-12.1 0-34.8 1.1-45.9 17.8-7.2 10.7-3.4 20.3-3.4 20.3L78.2 114a60.8 60.8 0 0 0 3.8 28c1.9 5.3 4.9 10.7 7.2 16.1 6.9 16.5 1.1 36.8 1.5 54.6.3 12.6-2.7 25.3-3.9 37.6a127.6 127.6 0 0 0 87.2-1.7c-2.7-15.4-5.9-30-6.4-35.6-1.4-16.9-5.5-34.7 0-50.9"/><path fill="#fff" d="M79.5 64c.2 2.4.4 5 1.1 7.4.2.8.6 2.6 1.5 3 1.2.3 3.5-1.2 4.3-1.8l4.9-3.7 3.2-2.2c1.1-.9 2-2 2.9-3 1.1-1.2 2-2.5 2.8-3.9.7-1 5-1.8 5.7-2.8.7-1.1 0-2.5 0-3.8 0-10 .7-19.7 1-29.4.2-6.6 2.8-14.5-7.2-11.4C78.3 19 78.6 48.5 79.5 63.9M173.7 77.8l-.9-.6c-1.2-1-2.3-1.8-3.3-2.9l-3.8-3.8-3.3-3.5-2-2.4-.7-1.4c-.3-.7-5.3-1.4-4.8-2 .8-1.1 2.7-2 3.2-3.3 2.3-6.5 3.3-32.6 3.5-39.3.8-17 15.7.8 18.3 7.7 7.6 20 3.1 34.5-6.1 51.5"/><path fill="#f1e6d3" d="M153.3 143.4c0-9.9-1.2-13.8-6.7-18.6-3.4-3-7.4-4.2-13.8-4-6.4-.2-11 1.7-14.3 5.2-5 5.2-6.4 8.3-6.4 18.1 0 5.3 5.7 17 7.5 19.8 2.8 4.8 8 6.5 13.2 6.2 5.1.3 10.3-1.4 13.2-6.2a56.4 56.4 0 0 0 7.3-20.5"/><path fill="#f1d7d4" d="M88 73c-1.3-11.5-5.1-32 8.2-44.2 1.5-1.4 1.9 3.2 2.1 5 .4 2.6 0 9.9 0 12.4.2 4.8 1.2 7.3.7 9.5-1.3 6-2.3 5.7-3.5 9.3-2.5 7.3-7.1 11.1-7.5 8M171.4 70.7c1.3 2.4 4.9-10.7 6-16.4 1-5.4 2.4-12.5.5-17.9-1-2.8-7-11.2-7.7-8.4-.3 1.2-.5 9.5-1.2 13.5-.8 5-2.3 9.9-2.4 14.9 0 11.3 3.4 11.7 4.8 14.3"/><path fill="#faeee0" d="M127.4 205.8c-.3.9-2.5 1.5-3.3 1.8-2 .6-3.8-1-4.9-2.3-1.5-1.8-1.5-4.7-2.1-6.8-.4-1.3-2.6-1.5-3.3-.3-2.2 4-10.8-3.5-8.8-6 1.3-1.7-1.9-3.1-3.2-1.5-3.8 4.8 6.6 13.8 12.5 11.4l1 3.5c1 2.3 3.3 3.7 5.5 5 3.1 1.6 9.1-1.3 10-4.1.7-2-2.8-2.6-3.4-.7M154.8 176.7c.3 1.3.4 5.8-2.1 3.4-1-1-3-.4-3.1.9-.2 3.1-3.3 3.2-6 2.2-2.2-.7-3.3 2.3-1.2 3 4 1.4 8.3.6 10-2.4 1.3.7 2.8.8 4-.3 2.2-2 2.5-4.9 1.9-7.5-.5-2-4-1.3-3.5.7M161.1 241.9c-1 1.9-2.6 1.8-4.5 1-1.3-.6-3 .3-2.6 1.7.9 2.7-2.6 3.5-5 2.6-2-.9-3.8 1.8-1.7 2.7 4.2 1.7 9.6.2 10.3-3.5 2.7.4 5.3-.3 6.6-3 1-1.8-2.2-3.4-3-1.5M133.8 94.7c-.5 2.7-5.5-.5-6.8-1.3-1-.8-2.5-.3-2.6 1-.2 1.6-2.5 1.1-3.5 1-2-.5-3.7-1.7-3.7-3.5s1-3.7 1.6-5.4c.4-1.1-1.1-2.3-2.2-1.6-2 1.3-11.9 2.5-8-1.8 1.3-1.3-1-3.3-2.2-1.9-1.8 2-3 6.5.9 7.5 2 .5 5 .4 7.6-.1-1 3.4-1.3 6.5 3 8.6 3 1.5 7 1.5 8.8-.8 3.6 2 9.3 3.9 10-1 .3-1.7-2.7-2.5-3-.7"/><path fill="#494949" d="M116.9 157c5.2.5 10.5 1.7 15.8 1.5 3.3-.2 6.8-.6 10.2-1.1 2.4-.4 5.4-.8 7-2.6.2 6-12.3 7.9-17.2 8-5.6.1-11.9-2.3-15.8-5.8"/><path fill="#494949" d="M131 144.5c-.6 3.9-.7 7.8-.3 11.6 0 1-.2 3.5 1.2 4 1 .4 2.4-.4 2.6-1.4.3-1.6-.4-3.7-.5-5.4 0-2 0-4 .2-6 .2-1.2.8-2.8-.5-3.6-1-.6-2.5-.4-2.7.8"/><path fill="#494949" d="M141.3 135.1c-3.2.2-6.1 2-8.5 3.6-2.1-1.4-5.4-2.7-8-2-1.7.5-.2 1 .4 1.4a15 15 0 0 1 3.2 3c1.4 1.7 2.6 3.5 4 5 1.1-.6 2-1.4 3-2.2l4.3-5.7 1-1.5c.4-.5 1.5-1.2.6-1.6"/><path fill="#2c3844" d="M101.3 113.8c1.6-4 3.3-9.2 7.5-8.3 3.3.6 7.6 11.4 4.8 10.4-1.5-.6-2.7-5.5-5.5-6.1-1.8-.4-4.3 5.8-6.7 6.4-1.1.3-.5-1.4 0-2.4M147.2 113.8c1.6-4 3.2-9.2 7.5-8.3 3.2.6 7.6 11.4 4.8 10.4-1.5-.6-2.7-5.5-5.5-6.1-1.8-.4-4.3 5.8-6.7 6.4-1.1.3-.6-1.4-.1-2.4"/><g fill="currentColor" stroke-width="29.1" font-family="Quicksand" font-size="1163.4" font-weight="700" letter-spacing="0" style="line-height:1.25" word-spacing="0"><path d="M3302.3-1549.4c3.4 2.3 8.1 5.8 10.4 7h1.2s1.2 0 1.2 1.1c2.3 0 7 1.2 9.3 2.4h2.3c3.5 1.1 8.1 1.1 11.6 1.1s7 0 11.7-1.1h2.3c3.5-1.2 5.8-2.4 9.3-2.4 1.1-1.1 1.1-1.1 2.3-1.1 3.5-1.2 7-4.7 9.3-5.8l2.3-1.2c2.4-2.3 4.7-3.5 7-5.8 1.2-1.2 1.2-1.2 2.4-3.5 1.1-2.3 4.6-4.7 5.8-7 1.1 0 1.1 0 1.1-1.2 2.4-2.3 3.5-7 4.7-9.3l287.3-679.4a63.9 63.9 0 0 0-34.9-82.6 64 64 0 0 0-83.7 33.8l-226.9 538.6-226.8-538.6a62.7 62.7 0 0 0-82.6-33.8 62 62 0 0 0-35 82.6l285 679.4c2.4 2.4 4.7 7 5.9 9.3 0 1.2 1.2 1.2 1.2 1.2 1.1 2.3 3.5 4.7 5.8 7 0 2.3 1.1 2.3 1.1 3.5 3.5 2.3 5.9 3.5 8.2 5.8h1.2zM3936.8-2118.3a62.1 62.1 0 0 0-62.8 64v453.7c0 35 28 62.8 62.8 62.8 36.1 0 62.9-27.9 62.9-62.8v-453.7c0-37.2-26.8-64-62.9-64zm62.9-171a61.8 61.8 0 0 0-62.9-62.8c-34.9 0-62.8 27.9-62.8 62.8v24.4c0 35 28 64 62.8 64 36.1 0 62.9-29 62.9-64zM4264-1537.8c36.1 0 65.2-29 65.2-64V-1704l64-64 171 207a61.7 61.7 0 0 0 48.9 23.3c14 0 29-4.6 40.7-15.1a64.5 64.5 0 0 0 9.3-90.7L4483.9-1859l174.5-174.5a63.2 63.2 0 0 0 0-90.7 65.3 65.3 0 0 0-90.7 0l-238.5 238.5v-402.6c0-34.9-29-64-65.2-64-36 0-64 29.1-64 64v686.4c0 35 28 64 64 64zM5316.6-1779.8v-278c0-32.6-30.2-61.7-62.8-61.7a61 61 0 0 0-60.5 61.7v278a120.7 120.7 0 0 1-122.1 118.7 117.7 117.7 0 0 1-118.7-118.7v-278a62 62 0 0 0-61.6-61.7c-33.8 0-61.7 29.1-61.7 61.7v278c0 132.7 109.3 242 242 242 133.8 0 245.4-109.3 245.4-242zM5769-2119.5c-45.3 0-88.4 14-123.3 36.1a63 63 0 0 0-57-36c-34.9 0-61.7 27.9-61.7 61.6v458.3a61.3 61.3 0 0 0 61.7 61.7 63.6 63.6 0 0 0 61.7-50c2.3-4.7 2.3-8.1 2.3-11.6v-278c0-65.2 51.2-117.6 116.3-117.6 66.3 0 121 52.4 121 117.5v278c0 33.8 29.1 61.7 61.7 61.7a61 61 0 0 0 60.5-61.6v-278c0-131.5-108.2-242-243.2-242zM6255.6-2199.7a64.3 64.3 0 0 0 62.9-64v-23.3c0-37.2-28-64-62.9-64a63 63 0 0 0-64 64v23.3c0 33.7 29.1 64 64 64zm-65.1 867.8c69.8 0 125.6-57 125.6-125.6v-598c0-36-26.7-64-62.8-64-33.7 0-62.8 28-62.8 64v598c-37.2 0-64 28-64 61.7 0 37.2 26.8 64 64 64zM6998.5-2056.6c0-35-28-62.9-61.7-62.9-30.2 0-53.5 22.1-60.5 51.2a265.2 265.2 0 0 0-154.7-51.2 268 268 0 0 0-197.8 87.3c-50 52.3-79 124.5-79 204.7 0 79.2 29 151.3 79 204.8 50 52.4 118.7 85 197.8 85 58.2 0 110.5-18.7 154.7-50.1 7 28 30.3 50 60.5 50a62 62 0 0 0 61.7-61.6v-228zm-168.7 349c-28 29-67.5 45.3-108.2 45.3-41.9 0-81.4-16.2-108.2-45.3-28-30.3-44.2-72.2-44.2-119.9 0-48.8 16.3-90.7 44.2-119.8a140.3 140.3 0 0 1 108.2-47.7c40.7 0 80.3 16.3 108.2 47.7 28 29.1 45.4 71 45.4 119.8 0 47.7-17.5 89.6-45.4 119.9z" style="-inkscape-font-specification:'Quicksand Bold'" transform="matrix(.13333 0 0 .13333 -75.5 381.8)"/></g></svg>
