<svg xmlns="http://www.w3.org/2000/svg" viewBox="0 0 256 256">
  <defs>
    <linearGradient id="grad" x1="0%" y1="0%" x2="100%" y2="100%">
      <stop offset="0%" style="stop-color:#0082c9;stop-opacity:1" />
      <stop offset="100%" style="stop-color:#0080c9;stop-opacity:1" />
    </linearGradient>
  </defs>
  <rect width="256" height="256" rx="25" fill="url(#grad)"/>
  <path fill="#fff" d="M128 40c-10 0-18 8-18 18v18c-20 0-36 16-36 36v24c-10 0-18 8-18 18s8 18 18 18c0 20 16 36 36 36h18c0 10 8 18 18 18s18-8 18-18h18c20 0 36-16 36-36 10 0 18-8 18-18s-8-18-18-18v-24c0-20-16-36-36-36V58c0-10-8-18-18-18zm0 24c3 0 6 3 6 6v18h-12V64c0-3 3-6 6-6zm-38 48h76c11 0 20 9 20 20v44c0 11-9 20-20 20H90c-11 0-20-9-20-20v-44c0-11 9-20 20-20zm-34 24c3 0 6 3 6 6s-3 6-6 6-6-3-6-6 3-6 6-6zm144 0c3 0 6 3 6 6s-3 6-6 6-6-3-6-6 3-6 6-6zM128 182c3 0 6 3 6 6v18c0 3-3 6-6 6s-6-3-6-6v-18c0-3 3-6 6-6z"/>
</svg>
